<?xml version="1.0" encoding="UTF-8"?><svg xmlns="http://www.w3.org/2000/svg" xmlns:xlink="http://www.w3.org/1999/xlink" fill-opacity="1" color-rendering="auto" color-interpolation="auto" text-rendering="auto" stroke="black" stroke-linecap="square" width="438" stroke-miterlimit="10" shape-rendering="auto" stroke-opacity="1" fill="black" stroke-dasharray="none" font-weight="normal" stroke-width="1" height="294" font-family="'Dialog'" font-style="normal" stroke-linejoin="miter" font-size="12px" stroke-dashoffset="0" image-rendering="auto">
  <!--Generated by ySVG 2.5-->
  <defs id="genericDefs"/>
  <g>
    <g fill="white" text-rendering="geometricPrecision" shape-rendering="geometricPrecision" transform="translate(-731,-269)" stroke="white">
      <rect x="731" width="438" height="294" y="269" clip-path="url(#clipPath2)" stroke="none"/>
    </g>
    <g text-rendering="geometricPrecision" shape-rendering="geometricPrecision" transform="matrix(1,0,0,1,77.5,15)">
      <g clip-path="url(#clipPath3)">
        <svg xml:space="preserve" opacity="1" writing-mode="lr-tb" stop-color="rgb(0, 0, 0)" shape-rendering="auto" glyph-orientation-horizontal="0deg" color-profile="auto" lighting-color="rgb(255, 255, 255)" color="rgb(0, 0, 0)" font-weight="400" alignment-baseline="auto" font-style="normal" version="1.1" color-interpolation-filters="linearrgb" text-anchor="start" stroke-linecap="butt" color-interpolation="srgb" font-variant="normal" word-spacing="normal" fill-opacity="1" text-rendering="auto" clip-path="none" text-decoration="none" letter-spacing="normal" viewBox="0 0 23 38" glyph-orientation-vertical="auto" display="inline" font-size-adjust="none" overflow="visible" fill="rgb(0, 0, 0)" font-stretch="normal" stroke-dasharray="none" stroke-miterlimit="4" stop-opacity="1" color-rendering="auto" font-size="12" pointer-events="visiblepainted" mask="none" direction="ltr" baseline-shift="baseline" enable-background="new 0 0 23 38" fill-rule="nonzero" image-rendering="auto" stroke-dashoffset="0" width="23px" marker-end="none" clip="auto" cursor="auto" stroke="none" filter="none" visibility="visible" kerning="auto" stroke-width="1" font-family="&quot;Arial&quot;,&quot;Helvetica&quot;,sans-serif" flood-opacity="1" clip-rule="nonzero" src="none" height="38px" unicode-bidi="normal" stroke-linejoin="miter" stroke-opacity="1" flood-color="rgb(0, 0, 0)" dominant-baseline="auto" marker-start="none" x="0px" marker-mid="none" y="0px">
<defs>
<clipPath clipPathUnits="userSpaceOnUse" id="clipPath1">
              <path d="M0 0 L438 0 L438 294 L0 294 L0 0 Z"/>
            </clipPath>
            <clipPath clipPathUnits="userSpaceOnUse" id="clipPath2">
              <path d="M731 269 L1169 269 L1169 563 L731 563 L731 269 Z"/>
            </clipPath>
            <clipPath clipPathUnits="userSpaceOnUse" id="clipPath3">
              <path d="M-77.5 -15 L360.5 -15 L360.5 279 L-77.5 279 L-77.5 -15 Z"/>
            </clipPath>
            <clipPath clipPathUnits="userSpaceOnUse" id="clipPath4">
              <path d="M-356.5359 -76.5005 L81.4641 -76.5005 L81.4641 217.4995 L-356.5359 217.4995 L-356.5359 -76.5005 Z"/>
            </clipPath>
            <clipPath clipPathUnits="userSpaceOnUse" id="clipPath5">
              <path d="M-60.7229 -103 L377.277 -103 L377.277 191 L-60.7229 191 L-60.7229 -103 Z"/>
            </clipPath>
            <clipPath clipPathUnits="userSpaceOnUse" id="clipPath6">
              <path d="M-55.187 -211.031 L382.813 -211.031 L382.813 82.969 L-55.187 82.969 L-55.187 -211.031 Z"/>
            </clipPath>
          </defs>
<g>
	<path fill="#C5C5C5" d="M23,35.916C23,37.063,22.063,38,20.916,38H2.084C0.938,38,0,37.063,0,35.916V2.084C0,0.938,0.938,0,2.084,0   h18.832C22.063,0,23,0.938,23,2.084V35.916z"/>
</g>
<g>
	<linearGradient y2="2.0005" id="svg1.SVGID_1_" x1="11.5005" gradientUnits="userSpaceOnUse" x2="11.5005" y1="34">
		<stop offset="0" style="stop-color:#515151"/>
		<stop offset="1" style="stop-color:#848484"/>
	</linearGradient>
	<path fill="url(#svg1.SVGID_1_)" d="M22,32.184C22,33.187,21.187,34,20.184,34H2.816C1.813,34,1,33.187,1,32.184V3.816   C1,2.813,1.813,2,2.816,2h17.367C21.187,2,22,2.813,22,3.816V32.184z"/>
</g>
<radialGradient gradientTransform="matrix(1 0 0 0.9565 0 1.1737)" id="svg1.SVGID_2_" r="23.5037" cx="11.5" gradientUnits="userSpaceOnUse" cy="4.1665">
	<stop offset="0" style="stop-color:#9CD7FF"/>
	<stop offset="1" style="stop-color:#3C89C9"/>
</radialGradient>
<rect x="2" fill="url(#svg1.SVGID_2_)" width="19" y="5" height="22"/>
<linearGradient y2="29.334" id="svg1.SVGID_3_" x1="11.5835" gradientUnits="userSpaceOnUse" x2="11.5835" y1="31.5">
	<stop offset="0" style="stop-color:#B8B8B8"/>
	<stop offset="1" style="stop-color:#F2F2F2"/>
</linearGradient>
<ellipse rx="1.5" fill="url(#svg1.SVGID_3_)" ry="1.083" cx="11.583" cy="30.417"/>
<linearGradient y2="29.6631" id="svg1.SVGID_4_" x1="15.334" gradientUnits="userSpaceOnUse" x2="15.334" y1="31.1709">
	<stop offset="0" style="stop-color:#B8B8B8"/>
	<stop offset="1" style="stop-color:#F2F2F2"/>
</linearGradient>
<ellipse rx="1.043" fill="url(#svg1.SVGID_4_)" ry="0.754" cx="15.333" cy="30.417"/>
<linearGradient y2="29.6631" id="svg1.SVGID_5_" x1="19.084" gradientUnits="userSpaceOnUse" x2="19.084" y1="31.1709">
	<stop offset="0" style="stop-color:#B8B8B8"/>
	<stop offset="1" style="stop-color:#F2F2F2"/>
</linearGradient>
<ellipse rx="1.043" fill="url(#svg1.SVGID_5_)" ry="0.754" cx="19.083" cy="30.417"/>
<linearGradient y2="29.6631" id="svg1.SVGID_6_" x1="4.0835" gradientUnits="userSpaceOnUse" x2="4.0835" y1="31.1709">
	<stop offset="0" style="stop-color:#B8B8B8"/>
	<stop offset="1" style="stop-color:#F2F2F2"/>
</linearGradient>
<ellipse rx="1.043" fill="url(#svg1.SVGID_6_)" ry="0.754" cx="4.083" cy="30.417"/>
<linearGradient y2="29.6631" id="svg1.SVGID_7_" x1="7.8335" gradientUnits="userSpaceOnUse" x2="7.8335" y1="31.1709">
	<stop offset="0" style="stop-color:#B8B8B8"/>
	<stop offset="1" style="stop-color:#F2F2F2"/>
</linearGradient>
<ellipse rx="1.043" fill="url(#svg1.SVGID_7_)" ry="0.754" cx="7.833" cy="30.417"/>
<linearGradient y2="2.4658" id="svg1.SVGID_8_" x1="11.0835" gradientUnits="userSpaceOnUse" x2="11.0835" y1="4.3682">
	<stop offset="0" style="stop-color:#B8B8B8"/>
	<stop offset="1" style="stop-color:#A2A2A2"/>
</linearGradient>
<ellipse rx="1.063" fill="url(#svg1.SVGID_8_)" ry="0.951" cx="11.083" cy="3.417"/>
<linearGradient y2="2.918" id="svg1.SVGID_9_" x1="11.0835" gradientUnits="userSpaceOnUse" x2="11.0835" y1="3.916">
	<stop offset="0" style="stop-color:#9CD7FF"/>
	<stop offset="1" style="stop-color:#F2F2F2"/>
</linearGradient>
<ellipse rx="0.558" fill="url(#svg1.SVGID_9_)" ry="0.499" cx="11.083" cy="3.417"/>
<path fill="#F2F2F2" opacity="0.24" d="M20.938,15.065c0,0-6.654,2.879-10.771,4.019C6.05,20.223,2,21.125,2,21.125V5h19  L20.938,15.065z"/>
</svg>
      </g>
    </g>
    <g text-rendering="geometricPrecision" stroke-miterlimit="1.45" shape-rendering="geometricPrecision" font-family="sans-serif" transform="matrix(1,0,0,1,-731,-269)" stroke-linecap="butt">
      <text x="759.5488" xml:space="preserve" y="339.1387" clip-path="url(#clipPath2)" stroke="none">new Digital ID client</text>
    </g>
    <g text-rendering="geometricPrecision" shape-rendering="geometricPrecision" transform="matrix(1,0,0,1,356.5359,76.5005)">
      <g clip-path="url(#clipPath4)">
        <svg xml:space="preserve" opacity="1" writing-mode="lr-tb" stop-color="rgb(0, 0, 0)" shape-rendering="auto" glyph-orientation-horizontal="0deg" color-profile="auto" lighting-color="rgb(255, 255, 255)" color="rgb(0, 0, 0)" font-weight="400" alignment-baseline="auto" font-style="normal" version="1.1" color-interpolation-filters="linearrgb" text-anchor="start" stroke-linecap="butt" color-interpolation="srgb" font-variant="normal" word-spacing="normal" fill-opacity="1" text-rendering="auto" clip-path="none" text-decoration="none" letter-spacing="normal" viewBox="-0.569 -0.349 37 59" glyph-orientation-vertical="auto" display="inline" font-size-adjust="none" overflow="visible" fill="rgb(0, 0, 0)" font-stretch="normal" stroke-dasharray="none" stroke-miterlimit="4" stop-opacity="1" color-rendering="auto" font-size="12" pointer-events="visiblepainted" mask="none" direction="ltr" baseline-shift="baseline" enable-background="new -0.569 -0.349 37 59" fill-rule="nonzero" image-rendering="auto" stroke-dashoffset="0" width="37px" marker-end="none" clip="auto" cursor="auto" stroke="none" filter="none" visibility="visible" kerning="auto" stroke-width="1" font-family="&quot;Arial&quot;,&quot;Helvetica&quot;,sans-serif" flood-opacity="1" clip-rule="nonzero" src="none" height="59px" unicode-bidi="normal" stroke-linejoin="miter" stroke-opacity="1" flood-color="rgb(0, 0, 0)" dominant-baseline="auto" marker-start="none" x="0px" marker-mid="none" y="0px">
<defs>
</defs>
<linearGradient gradientTransform="matrix(1 0 0 -1 -97.6001 -161.5986)" x1="115.7744" x2="115.7743" gradientUnits="userSpaceOnUse" y1="-158.8057" y2="-219.9759" id="svg2.SVGID_1_">
	<stop offset="0" style="stop-color:#B3B3B3"/>
	<stop offset="0.164" style="stop-color:#ABABAB"/>
	<stop offset="0.4188" style="stop-color:#959595"/>
	<stop offset="0.7308" style="stop-color:#717171"/>
	<stop offset="1" style="stop-color:#4D4D4D"/>
</linearGradient>
<path fill="url(#svg2.SVGID_1_)" d="M35.79,55.773c0,1.392-1.137,2.528-2.527,2.528H3.086c-1.39,0-2.528-1.139-2.528-2.528V2.528  C0.559,1.138,1.697,0,3.086,0h30.176c1.391,0,2.527,1.138,2.527,2.528V55.773z"/>
<linearGradient gradientTransform="matrix(1 0 0 -1 -97.6001 -161.5986)" x1="115.7744" x2="115.7743" gradientUnits="userSpaceOnUse" y1="-158.8057" y2="-219.9759" id="svg2.SVGID_2_">
	<stop offset="0" style="stop-color:#B3B3B3"/>
	<stop offset="0.164" style="stop-color:#ABABAB"/>
	<stop offset="0.4188" style="stop-color:#959595"/>
	<stop offset="0.7308" style="stop-color:#717171"/>
	<stop offset="1" style="stop-color:#4D4D4D"/>
</linearGradient>
<path fill="url(#svg2.SVGID_2_)" d="M35.79,55.773c0,1.392-1.137,2.528-2.527,2.528H3.086c-1.39,0-2.528-1.139-2.528-2.528V2.528  C0.559,1.138,1.697,0,3.086,0h30.176c1.391,0,2.527,1.138,2.527,2.528V55.773z"/>
<path fill="#FFFFFF" opacity="0.19" d="M35.79,39.342L0.559,26.702V2.529c0-1.391,1.138-2.528,2.528-2.528h30.176  c1.391,0,2.527,1.138,2.527,2.528V39.342z"/>
<path fill="#353535" d="M32.868,53.717c0,1.392-1.138,2.529-2.527,2.529H11.854c-1.39,0-2.528-1.139-2.528-2.529V11.534  c0-1.39,1.138-2.528,2.528-2.528H30.34c1.391,0,2.528,1.138,2.528,2.528V53.717L32.868,53.717z"/>
<linearGradient gradientTransform="matrix(1 0 0 -1 -97.6001 -161.5986)" x1="123.9893" x2="123.9893" gradientUnits="userSpaceOnUse" y1="-171.4683" y2="-215.0464" id="svg2.SVGID_3_">
	<stop offset="0" style="stop-color:#B3B3B3"/>
	<stop offset="0.164" style="stop-color:#ABABAB"/>
	<stop offset="0.4188" style="stop-color:#959595"/>
	<stop offset="0.7308" style="stop-color:#717171"/>
	<stop offset="1" style="stop-color:#4D4D4D"/>
</linearGradient>
<path fill="url(#svg2.SVGID_3_)" d="M30.34,52.129c0,0.695-0.568,1.265-1.265,1.265h-5.371c-0.695,0-1.265-0.568-1.265-1.265V13.123  c0-0.695,0.568-1.264,1.265-1.264h5.371c0.695,0,1.265,0.569,1.265,1.264V52.129z"/>
<linearGradient gradientTransform="matrix(1 0 0 -1 -97.6001 -161.5986)" x1="113.4834" x2="113.4834" gradientUnits="userSpaceOnUse" y1="-171.4683" y2="-215.0464" id="svg2.SVGID_4_">
	<stop offset="0" style="stop-color:#B3B3B3"/>
	<stop offset="0.164" style="stop-color:#ABABAB"/>
	<stop offset="0.4188" style="stop-color:#959595"/>
	<stop offset="0.7308" style="stop-color:#717171"/>
	<stop offset="1" style="stop-color:#4D4D4D"/>
</linearGradient>
<path fill="url(#svg2.SVGID_4_)" d="M19.833,52.129c0,0.695-0.567,1.265-1.264,1.265h-5.372c-0.695,0-1.264-0.568-1.264-1.265V13.123  c0-0.695,0.569-1.264,1.264-1.264h5.372c0.695,0,1.264,0.569,1.264,1.264V52.129z"/>
<linearGradient gradientTransform="matrix(1 0 0 -1 -97.6001 -161.5986)" x1="123.9932" x2="123.9932" gradientUnits="userSpaceOnUse" y1="-215.5532" y2="-209.4927" id="svg2.SVGID_5_">
	<stop offset="0" style="stop-color:#8D8D8D"/>
	<stop offset="0.2282" style="stop-color:#858585"/>
	<stop offset="0.5829" style="stop-color:#6F6F6F"/>
	<stop offset="1" style="stop-color:#4D4D4D"/>
</linearGradient>
<rect x="23.362" fill="url(#svg2.SVGID_5_)" width="6.06" y="45.948" height="6.061"/>
<linearGradient gradientTransform="matrix(1 0 0 -1 -97.6001 -161.5986)" x1="113.4834" x2="113.4834" gradientUnits="userSpaceOnUse" y1="-215.4204" y2="-209.3599" id="svg2.SVGID_6_">
	<stop offset="0" style="stop-color:#8D8D8D"/>
	<stop offset="0.2282" style="stop-color:#858585"/>
	<stop offset="0.5829" style="stop-color:#6F6F6F"/>
	<stop offset="1" style="stop-color:#4D4D4D"/>
</linearGradient>
<rect x="12.854" fill="url(#svg2.SVGID_6_)" width="6.06" y="45.815" height="6.061"/>
<rect x="12.854" fill="#6E6E6E" width="6.06" y="24.328" height="15.014"/>
<rect x="23.36" fill="#6E6E6E" width="6.061" y="24.328" height="15.014"/>
<rect x="0.071" y="50.68" fill="#C8FF00" width="5.709" height="2.898" stroke="#717171" stroke-width="0.1416" stroke-miterlimit="10"/>
<radialGradient gradientTransform="matrix(1 0 0 -1 -97.6001 -161.5986)" id="svg2.SVGID_7_" r="3.221" cx="124.1484" gradientUnits="userSpaceOnUse" cy="-180.064">
	<stop offset="0" style="stop-color:#8D8D8D"/>
	<stop offset="0.2282" style="stop-color:#858585"/>
	<stop offset="0.5829" style="stop-color:#6F6F6F"/>
	<stop offset="1" style="stop-color:#4D4D4D"/>
</radialGradient>
<circle fill="url(#svg2.SVGID_7_)" r="2.296" cx="26.391" cy="18.307" stroke="#666666" stroke-width="0.632" stroke-miterlimit="10"/>
<radialGradient gradientTransform="matrix(1 0 0 -1 -97.6001 -161.5986)" id="svg2.SVGID_8_" r="3.2209" cx="113.6426" gradientUnits="userSpaceOnUse" cy="-180.064">
	<stop offset="0" style="stop-color:#8D8D8D"/>
	<stop offset="0.2282" style="stop-color:#858585"/>
	<stop offset="0.5829" style="stop-color:#6F6F6F"/>
	<stop offset="1" style="stop-color:#4D4D4D"/>
</radialGradient>
<circle fill="url(#svg2.SVGID_8_)" r="2.295" cx="15.885" cy="18.307" stroke="#666666" stroke-width="0.632" stroke-miterlimit="10"/>
</svg>
      </g>
    </g>
    <g text-rendering="geometricPrecision" stroke-miterlimit="1.45" shape-rendering="geometricPrecision" font-family="sans-serif" transform="matrix(1,0,0,1,-731,-269)" stroke-linecap="butt">
      <text x="1060.9619" xml:space="preserve" y="421.2892" clip-path="url(#clipPath2)" stroke="none">id.synacts.com</text>
    </g>
    <g text-rendering="geometricPrecision" shape-rendering="geometricPrecision" transform="matrix(1,0,0,1,60.7229,103)">
      <g clip-path="url(#clipPath5)">
        <svg xml:space="preserve" opacity="1" writing-mode="lr-tb" stop-color="rgb(0, 0, 0)" shape-rendering="auto" glyph-orientation-horizontal="0deg" color-profile="auto" lighting-color="rgb(255, 255, 255)" color="rgb(0, 0, 0)" font-weight="400" alignment-baseline="auto" font-style="normal" version="1.1" color-interpolation-filters="linearrgb" text-anchor="start" stroke-linecap="butt" color-interpolation="srgb" font-variant="normal" word-spacing="normal" fill-opacity="1" text-rendering="auto" clip-path="none" text-decoration="none" letter-spacing="normal" viewBox="0 0 57 67" glyph-orientation-vertical="auto" display="inline" font-size-adjust="none" overflow="visible" fill="rgb(0, 0, 0)" font-stretch="normal" stroke-dasharray="none" id="svg3.Ebene_1" stroke-miterlimit="4" stop-opacity="1" color-rendering="auto" font-size="12" pointer-events="visiblepainted" mask="none" direction="ltr" baseline-shift="baseline" enable-background="new 0 0 57 67" fill-rule="nonzero" image-rendering="auto" stroke-dashoffset="0" width="57px" marker-end="none" clip="auto" cursor="auto" stroke="none" filter="none" visibility="visible" kerning="auto" stroke-width="1" font-family="&quot;Arial&quot;,&quot;Helvetica&quot;,sans-serif" flood-opacity="1" clip-rule="nonzero" src="none" height="67px" unicode-bidi="normal" stroke-linejoin="miter" stroke-opacity="1" flood-color="rgb(0, 0, 0)" dominant-baseline="auto" marker-start="none" x="0px" marker-mid="none" y="0px">
<g>
	
		<radialGradient gradientTransform="matrix(1 0 0 -1 0.1201 -706.5371)" gradientUnits="userSpaceOnUse" r="11.4464" cx="28.0298" id="svg3.neck_x5F_white_1_" cy="-751.9429" fx="25.7969" fy="-753.1596">
		<stop offset="0" style="stop-color:#B38E5D"/>
		<stop offset="1" style="stop-color:#805126"/>
	</radialGradient>
	<path fill="url(#svg3.neck_x5F_white_1_)" id="svg3.neck_x5F_white_2_" d="M19.278,37.799h18.188   v13.23c-1.313,0.371-17.173,0.436-18.188,0.172V37.799z" stroke-miterlimit="10" stroke="#5B453B"/>
	
		<radialGradient gradientTransform="matrix(1 0 0 -1 0.1201 -706.5371)" gradientUnits="userSpaceOnUse" r="31.0533" cx="27.481" id="svg3.SVGID_1_" cy="-760.3003" fx="21.4231" fy="-763.6011">
		<stop offset="0" style="stop-color:#B38E5D"/>
		<stop offset="1" style="stop-color:#805126"/>
	</radialGradient>
	<path fill="url(#svg3.SVGID_1_)" d="M49.529,51.225c-4.396-4.396-10.951-5.884-12.063-6.109   V37.8H19.278c0,0,0.038,6.903,0,6.868c0,0-6.874,0.997-12.308,6.432C1.378,56.691,0.5,62.77,0.5,62.77   c0,1.938,1.575,3.492,3.523,3.492h48.51c1.947,0,3.521-1.558,3.521-3.492C56.055,62.768,54.211,55.906,49.529,51.225z" stroke-miterlimit="10" stroke="#5B453B"/>
	
		<radialGradient gradientTransform="matrix(1 0 0 -1 0.1201 -706.5371)" gradientUnits="userSpaceOnUse" r="23.424" cx="27.7827" id="svg3.face_x5F_white_1_" cy="-732.2632" fx="23.2131" fy="-734.753">
		<stop offset="0" style="stop-color:#B38E5D"/>
		<stop offset="1" style="stop-color:#805126"/>
	</radialGradient>
	<path fill="url(#svg3.face_x5F_white_1_)" id="svg3.face_x5F_white_2_" d="M43.676,23.357   c0.086,10.199-6.738,18.52-15.246,18.586c-8.503,0.068-15.467-8.146-15.553-18.344C12.794,13.4,19.618,5.079,28.123,5.012   C36.627,4.945,43.59,13.158,43.676,23.357z" stroke-miterlimit="10" stroke="#5B453B"/>
	
		<linearGradient gradientTransform="matrix(0.275 0 0 0.2733 -783.3976 -1542.678)" x1="2941.4297" x2="2965.0596" gradientUnits="userSpaceOnUse" y1="5674.7988" y2="5768.2505" id="svg3.face_highlight_1_">
		<stop offset="0" style="stop-color:#FFFFFF;stop-opacity:0.42"/>
		<stop offset="1" style="stop-color:#FFFFFF;stop-opacity:0.12"/>
	</linearGradient>
	<path fill="url(#svg3.face_highlight_1_)" id="svg3.face_highlight_2_" d="M27.958,6.333c-6.035,0.047-10.747,4.493-12.787,10.386   c-0.664,1.919-0.294,4.043,0.98,5.629c2.73,3.398,5.729,6.283,9.461,8.088c3.137,1.518,7.535,2.385,11.893,1.247   c2.274-0.592,3.988-2.459,4.375-4.766c0.183-1.094,0.293-2.289,0.283-3.553C42.083,13.952,36.271,6.268,27.958,6.333z"/>
	<path fill="#4B4B4B" d="M28.372,0.5   C17.537,0.5,8.269,7.748,9.153,26.125c0.563,6.563,5.862,12.042,9.366,13.531c-2.929-10.968-0.304-25.021-0.585-25.526   c-0.281-0.505,3.536,6.728,3.536,6.728l3.183-8.312c5.541,4.28,0.393,11.309,1.049,11.058c4.26-1.631,5.34-9.228,5.34-9.228   s2.729,3.657,2.701,5.504c-0.054,3.562,2.194-6.067,2.194-6.067l1.027,2.031c6.727,9.822,3.684,16.208,1.654,22.781   c15.665-0.703,12.289-10.48,9.658-18.407C43.59,6.092,39.206,0.5,28.372,0.5z" id="svg3.path9833_2_" stroke="#000000" stroke-linecap="round" stroke-linejoin="round"/>
	
		<radialGradient gradientTransform="matrix(1 0 0 -1 0.1201 -706.5371)" id="svg3.collar_x5F_body_2_" r="32.4004" cx="15.1587" gradientUnits="userSpaceOnUse" cy="-763.7056">
		<stop offset="0" style="stop-color:#B0E8FF"/>
		<stop offset="1" style="stop-color:#74AEEE"/>
	</radialGradient>
	<path fill="url(#svg3.collar_x5F_body_2_)" d="M0.5,62.768c0,1.938,1.575,3.494,3.523,3.494   h48.51c1.947,0,3.521-1.559,3.521-3.494c0,0-1.844-6.861-6.525-11.543c-4.815-4.813-11.244-6.146-11.244-6.146   c-1.771,1.655-5.61,2.802-10.063,2.802c-4.453,0-8.292-1.146-10.063-2.802c0,0-5.755,0.586-11.189,6.021   C1.378,56.689,0.5,62.768,0.5,62.768z" id="svg3.collar_x5F_body_1_" stroke="#5491CF"/>
	
		<radialGradient gradientTransform="matrix(1 0 0 -1 0.1201 -706.5371)" id="svg3.collar_x5F_r_2_" r="9.2834" cx="31.5" gradientUnits="userSpaceOnUse" cy="-753.832">
		<stop offset="0" style="stop-color:#80CCFF"/>
		<stop offset="1" style="stop-color:#74AEEE"/>
	</radialGradient>
	<path fill="url(#svg3.collar_x5F_r_2_)" d="M38.159,41.381c0,0-0.574,2.369-3.013,4.441   c-2.108,1.795-5.783,2.072-5.783,2.072l3.974,6.217c0,0,2.957-1.637,5.009-3.848c1.922-2.072,1.37-5.479,1.37-5.479L38.159,41.381z   " id="svg3.collar_x5F_r_1_" stroke="#5491CF"/>
	
		<radialGradient gradientTransform="matrix(1 0 0 -1 0.1201 -706.5371)" id="svg3.collar_x5F_l_2_" r="9.2837" cx="19.1377" gradientUnits="userSpaceOnUse" cy="-753.873">
		<stop offset="0" style="stop-color:#80CCFF"/>
		<stop offset="1" style="stop-color:#74AEEE"/>
	</radialGradient>
	<path fill="url(#svg3.collar_x5F_l_2_)" d="M18.63,41.422c0,0,0.576,2.369,3.012,4.441   c2.109,1.793,5.785,2.072,5.785,2.072l-3.974,6.217c0,0-2.957-1.637-5.007-3.85c-1.922-2.072-1.37-5.48-1.37-5.48L18.63,41.422z" id="svg3.collar_x5F_l_1_" stroke="#5491CF"/>
	
		<radialGradient gradientTransform="matrix(1 0 0 -1 0.04 66.1543)" id="svg3.Knob2_2_" r="0.9669" cx="27.8872" gradientUnits="userSpaceOnUse" cy="9.9414">
		<stop offset="0" style="stop-color:#80CCFF"/>
		<stop offset="1" style="stop-color:#74AEEE"/>
	</radialGradient>
	<circle fill="url(#svg3.Knob2_2_)" r="0.584" id="svg3.Knob2_1_" cx="28.258" cy="56.254" stroke="#5491CF"/>
	
		<radialGradient gradientTransform="matrix(1 0 0 -1 0.04 66.1543)" id="svg3.Knob1_2_" r="0.9669" cx="27.9253" gradientUnits="userSpaceOnUse" cy="3.6973">
		<stop offset="0" style="stop-color:#80CCFF"/>
		<stop offset="1" style="stop-color:#74AEEE"/>
	</radialGradient>
	<circle fill="url(#svg3.Knob1_2_)" r="0.584" id="svg3.Knob1_1_" cx="28.296" cy="62.499" stroke="#5491CF"/>
</g>
</svg>
      </g>
    </g>
    <g text-rendering="geometricPrecision" stroke-miterlimit="1.45" shape-rendering="geometricPrecision" font-family="sans-serif" transform="matrix(1,0,0,1,-731,-269)" stroke-linecap="butt">
      <text x="806.3242" xml:space="preserve" y="455.9007" clip-path="url(#clipPath2)" stroke="none">User</text>
    </g>
    <g text-rendering="geometricPrecision" shape-rendering="geometricPrecision" transform="matrix(1,0,0,1,55.187,211.031)">
      <g clip-path="url(#clipPath6)">
        <svg xml:space="preserve" opacity="1" writing-mode="lr-tb" stop-color="rgb(0, 0, 0)" shape-rendering="auto" glyph-orientation-horizontal="0deg" color-profile="auto" lighting-color="rgb(255, 255, 255)" color="rgb(0, 0, 0)" font-weight="400" alignment-baseline="auto" font-style="normal" version="1.1" color-interpolation-filters="linearrgb" text-anchor="start" stroke-linecap="butt" color-interpolation="srgb" font-variant="normal" word-spacing="normal" fill-opacity="1" text-rendering="auto" clip-path="none" text-decoration="none" letter-spacing="normal" viewBox="-0.064 -0.075 68 46" glyph-orientation-vertical="auto" display="inline" font-size-adjust="none" overflow="visible" fill="rgb(0, 0, 0)" font-stretch="normal" stroke-dasharray="none" stroke-miterlimit="4" stop-opacity="1" color-rendering="auto" font-size="12" pointer-events="visiblepainted" mask="none" direction="ltr" baseline-shift="baseline" enable-background="new -0.064 -0.075 68 46" fill-rule="nonzero" image-rendering="auto" stroke-dashoffset="0" width="68px" marker-end="none" clip="auto" cursor="auto" stroke="none" filter="none" visibility="visible" kerning="auto" stroke-width="1" font-family="&quot;Arial&quot;,&quot;Helvetica&quot;,sans-serif" flood-opacity="1" clip-rule="nonzero" src="none" height="46px" unicode-bidi="normal" stroke-linejoin="miter" stroke-opacity="1" flood-color="rgb(0, 0, 0)" dominant-baseline="auto" marker-start="none" x="0px" marker-mid="none" y="0px">
<defs>
</defs>
<radialGradient gradientTransform="matrix(1.15 0 0 1 -526.6598 -1982.4023)" id="svg4.SVGID_1_" r="21.6001" cx="478.8413" gradientUnits="userSpaceOnUse" cy="1991.2729">
	<stop offset="0" style="stop-color:#F2F2F2"/>
	<stop offset="1" style="stop-color:#8D8D8D"/>
</radialGradient>
<path fill="url(#svg4.SVGID_1_)" d="M10.263,1.903c0-0.987,0.807-1.794,1.794-1.794h43.279c0.986,0,1.795,0.807,1.795,1.794v26.978  c0,0.987-0.809,1.794-1.795,1.794h-43.28c-0.987,0-1.794-0.807-1.794-1.794L10.263,1.903L10.263,1.903z"/>
<path stroke-linecap="round" display="none" fill="none" stroke-linejoin="round" d="  M10.263,1.903c0-0.987,0.807-1.794,1.794-1.794h43.279c0.986,0,1.795,0.807,1.795,1.794v26.978c0,0.987-0.809,1.794-1.795,1.794  h-43.28c-0.987,0-1.794-0.807-1.794-1.794L10.263,1.903L10.263,1.903z" stroke="#3C89C9" stroke-width="0.2185" stroke-miterlimit="10"/>
<radialGradient gradientTransform="matrix(1.1935 0 0 1 -509.6731 -1982.4023)" gradientUnits="userSpaceOnUse" r="47.8462" cx="455.894" id="svg4.SVGID_2_" cy="1983.9624" fx="493.5344" fy="1977.5143">
	<stop offset="0" style="stop-color:#4D4D4D"/>
	<stop offset="1" style="stop-color:#999999"/>
</radialGradient>
<path fill="url(#svg4.SVGID_2_)" d="M11.18,2.819c0-0.987,0.807-1.794,1.794-1.794h41.649c0.986,0,1.795,0.807,1.795,1.794v24.943  c0,0.985-0.809,1.794-1.795,1.794H12.974c-0.987,0-1.794-0.809-1.794-1.794V2.819z"/>
<radialGradient gradientTransform="matrix(1.1923 0 0 1 -510.1314 -1982.4023)" id="svg4.SVGID_3_" r="30.6699" cx="456.8843" gradientUnits="userSpaceOnUse" cy="1984.0386">
	<stop offset="0" style="stop-color:#9CD7FF"/>
	<stop offset="1" style="stop-color:#3C89C9"/>
</radialGradient>
<path fill="url(#svg4.SVGID_3_)" d="M11.689,3.228c0-0.987,0.807-1.794,1.794-1.794h40.633c0.986,0,1.795,0.807,1.795,1.794v24.126  c0,0.986-0.809,1.794-1.795,1.794H13.483c-0.987,0-1.794-0.809-1.794-1.794V3.228z"/>
<path fill="#F2F2F2" opacity="0.24" d="M11.689,21.472V3.228c0-0.987,0.807-1.794,1.794-1.794h40.633  c0.986,0,1.795,0.807,1.795,1.794v9.454c0,0.987-10.518,5.21-18.256,6.795C29.917,21.062,11.689,21.472,11.689,21.472z"/>
<linearGradient gradientTransform="matrix(1 0 0 -1 -97.6001 -165.0498)" x1="131.3501" x2="131.3501" gradientUnits="userSpaceOnUse" y1="-212.2612" y2="-170.6274" id="svg4.SVGID_4_">
	<stop offset="0" style="stop-color:#4D4D4D"/>
	<stop offset="0.0667" style="stop-color:#717171"/>
	<stop offset="0.069" style="stop-color:#757575"/>
	<stop offset="0.0831" style="stop-color:#8C8C8C"/>
	<stop offset="0.0996" style="stop-color:#9E9E9E"/>
	<stop offset="0.1196" style="stop-color:#AAAAAA"/>
	<stop offset="0.1466" style="stop-color:#B1B1B1"/>
	<stop offset="0.2121" style="stop-color:#B3B3B3"/>
	<stop offset="1" style="stop-color:#C5C5C5"/>
</linearGradient>
<path fill="url(#svg4.SVGID_4_)" d="M58.385,32.234c-0.689-0.856-2.154-1.559-3.254-1.559H12c-1.1,0-2.552,0.711-3.227,1.579  l-7.546,9.717C0,43.55,0.042,43.785,0,44.55v0.125c0.056,0.393,0.311,1.002,1.248,1.002h64.75c0.75,0.002,1.5-0.252,1.5-1.002V44.55  c0-0.813,0-0.813-1.254-2.559L58.385,32.234z"/>
<path fill="#F2F2F2" d="M58.385,32.234c-0.689-0.856-2.154-1.559-3.254-1.559H12  c-1.1,0-2.552,0.711-3.227,1.579l-7.055,9.085l58.098-7.33L58.385,32.234z" enable-background="new    " opacity="0.23"/>
<path fill="#6E6E6E" d="M59.75,37.205c0.344,0.431,0.172,0.783-0.377,0.783H8.249c-0.55,0-0.742-0.369-0.427-0.819l2.786-3.986  c0.315-0.45,1.023-0.819,1.573-0.819h42.729c0.551,0,1.279,0.354,1.623,0.783L59.75,37.205z"/>
<path fill="#6E6E6E" d="M40.43,41.906c0.072,0.217-0.057,0.395-0.285,0.395H26.727c-0.229,0-0.364-0.18-0.3-0.398l0.822-2.826  c0.064-0.221,0.303-0.399,0.532-0.399h11.167c0.229,0,0.475,0.179,0.547,0.396L40.43,41.906z"/>
</svg>
      </g>
    </g>
    <g text-rendering="geometricPrecision" stroke-miterlimit="1.45" shape-rendering="geometricPrecision" font-family="sans-serif" transform="matrix(1,0,0,1,-731,-269)" stroke-linecap="butt">
      <text x="748.2842" xml:space="preserve" y="542.9236" clip-path="url(#clipPath2)" stroke="none">existing Digital ID client</text>
    </g>
    <g text-rendering="geometricPrecision" stroke-miterlimit="1.45" shape-rendering="geometricPrecision" transform="matrix(1,0,0,1,-731,-269)" stroke-linecap="butt">
      <path fill="none" d="M831.4861 305.8916 L1080.3142 368.5337" clip-path="url(#clipPath2)"/>
      <path d="M1088.0721 370.4867 L1077.6559 362.7084 L1079.3445 368.2895 L1075.2146 372.4059 Z" clip-path="url(#clipPath2)" stroke="none"/>
      <text x="926.4476" xml:space="preserve" y="364.5743" clip-path="url(#clipPath2)" font-family="sans-serif" stroke="none">register</text>
      <path fill="none" d="M843.7053 492.3906 L1080.7997 386.2785" clip-path="url(#clipPath2)"/>
      <path d="M1088.1017 383.0104 L1075.1061 383.3488 L1079.8868 386.687 L1079.1912 392.4763 Z" clip-path="url(#clipPath2)" stroke="none"/>
      <rect x="906.4307" y="446.7402" clip-path="url(#clipPath2)" fill="white" width="185.2773" height="17.9688" stroke="none"/>
      <text x="908.4307" xml:space="preserve" y="459.8789" clip-path="url(#clipPath2)" font-family="sans-serif" stroke="none">authorize new Digital ID client</text>
    </g>
  </g>
</svg>
