<?xml version="1.0" standalone="yes"?>

<svg version="1.1" viewBox="0.0 0.0 863.2834645669292 149.4251968503937" fill="none" stroke="none" stroke-linecap="square" stroke-miterlimit="10" xmlns="http://www.w3.org/2000/svg" xmlns:xlink="http://www.w3.org/1999/xlink"><clipPath id="p.0"><path d="m0 0l863.28345 0l0 149.4252l-863.28345 0l0 -149.4252z" clip-rule="nonzero"></path></clipPath><g clip-path="url(#p.0)"><path fill="#000000" fill-opacity="0.0" d="m0 0l863.28345 0l0 149.4252l-863.28345 0z" fill-rule="evenodd"></path><path fill="#f4cccc" d="m9.551181 77.01575l846.7401 0l0 63.74803l-846.7401 0z" fill-rule="evenodd"></path><path stroke="#cc0000" stroke-width="3.0" stroke-linejoin="round" stroke-linecap="butt" d="m9.551181 77.01575l846.7401 0l0 63.74803l-846.7401 0z" fill-rule="evenodd"></path><path fill="#cc0000" d="m379.33432 118.20976l0 -17.75l6.453125 0q2.171875 0 3.8125 0.703125q1.640625 0.703125 2.734375 1.90625q1.109375 1.1875 1.65625 2.8125q0.546875 1.609375 0.546875 3.421875q0 2.03125 -0.609375 3.671875q-0.609375 1.640625 -1.765625 2.796875q-1.140625 1.15625 -2.765625 1.796875q-1.609375 0.640625 -3.609375 0.640625l-6.453125 0zm11.734375 -8.90625q0 -1.265625 -0.359375 -2.34375q-0.34375 -1.078125 -1.015625 -1.84375q-0.671875 -0.78125 -1.671875 -1.203125q-0.984375 -0.421875 -2.234375 -0.421875l-3.0 0l0 11.6875l3.0 0q1.28125 0 2.265625 -0.4375q0.984375 -0.453125 1.640625 -1.234375q0.671875 -0.796875 1.015625 -1.875q0.359375 -1.078125 0.359375 -2.328125zm6.0880737 8.90625l0 -13.09375l3.34375 0l0 13.09375l-3.34375 0zm0 -14.921875l0 -3.328125l3.34375 0l0 3.328125l-3.34375 0zm11.583679 15.0q-1.328125 0 -2.40625 -0.515625q-1.078125 -0.53125 -1.875 -1.4375q-0.78125 -0.921875 -1.203125 -2.125q-0.421875 -1.203125 -0.421875 -2.546875q0 -1.421875 0.453125 -2.640625q0.453125 -1.234375 1.25 -2.15625q0.796875 -0.9375 1.921875 -1.453125q1.125 -0.53125 2.46875 -0.53125q1.53125 0 2.671875 0.6875q1.15625 0.6875 1.90625 1.84375l0 -2.296875l2.921875 0l0 12.46875q0 1.453125 -0.546875 2.59375q-0.546875 1.15625 -1.515625 1.953125q-0.953125 0.796875 -2.296875 1.21875q-1.328125 0.4375 -2.90625 0.4375q-2.15625 0 -3.625 -0.71875q-1.453125 -0.703125 -2.5 -2.015625l1.828125 -1.765625q0.75 0.921875 1.875 1.4375q1.140625 0.53125 2.421875 0.53125q0.765625 0 1.484375 -0.21875q0.71875 -0.203125 1.265625 -0.65625q0.546875 -0.453125 0.859375 -1.15625q0.3125 -0.6875 0.3125 -1.640625l0 -1.65625q-0.65625 1.125 -1.828125 1.75q-1.171875 0.609375 -2.515625 0.609375zm1.125 -2.671875q0.546875 0 1.046875 -0.171875q0.5 -0.1875 0.921875 -0.484375q0.421875 -0.296875 0.75 -0.6875q0.328125 -0.40625 0.5 -0.859375l0 -3.125q-0.453125 -1.15625 -1.421875 -1.84375q-0.953125 -0.703125 -2.0 -0.703125q-0.78125 0 -1.40625 0.34375q-0.625 0.328125 -1.078125 0.890625q-0.4375 0.5625 -0.6875 1.296875q-0.234375 0.71875 -0.234375 1.484375q0 0.796875 0.265625 1.5q0.28125 0.703125 0.765625 1.234375q0.5 0.515625 1.140625 0.828125q0.65625 0.296875 1.4375 0.296875zm9.808075 2.59375l0 -13.09375l3.34375 0l0 13.09375l-3.34375 0zm0 -14.921875l0 -3.328125l3.34375 0l0 3.328125l-3.34375 0zm14.302429 14.25q-0.671875 0.296875 -1.65625 0.59375q-0.96875 0.296875 -2.046875 0.296875q-0.703125 0 -1.3125 -0.171875q-0.609375 -0.171875 -1.078125 -0.5625q-0.453125 -0.390625 -0.734375 -1.0q-0.265625 -0.609375 -0.265625 -1.484375l0 -7.53125l-1.734375 0l0 -2.5625l1.734375 0l0 -4.25l3.34375 0l0 4.25l2.75 0l0 2.5625l-2.75 0l0 6.40625q0 0.703125 0.359375 1.0q0.359375 0.28125 0.890625 0.28125q0.53125 0 1.03125 -0.171875q0.5 -0.1875 0.796875 -0.3125l0.671875 2.65625zm5.444763 0.921875q-0.9375 0 -1.765625 -0.3125q-0.828125 -0.3125 -1.4375 -0.875q-0.59375 -0.5625 -0.9375 -1.3125q-0.328125 -0.75 -0.328125 -1.65625q0 -0.921875 0.40625 -1.703125q0.421875 -0.796875 1.15625 -1.34375q0.734375 -0.546875 1.75 -0.859375q1.03125 -0.3125 2.265625 -0.3125q0.875 0 1.703125 0.15625q0.84375 0.140625 1.5 0.421875l0 -0.75q0 -1.296875 -0.75 -2.0q-0.734375 -0.703125 -2.1875 -0.703125q-1.046875 0 -2.046875 0.375q-1.0 0.375 -2.046875 1.09375l-1.03125 -2.125q2.53125 -1.671875 5.453125 -1.671875q2.828125 0 4.390625 1.390625q1.5625 1.390625 1.5625 4.015625l0 4.078125q0 0.515625 0.1875 0.75q0.1875 0.21875 0.609375 0.25l0 2.84375q-0.84375 0.171875 -1.46875 0.171875q-0.953125 0 -1.46875 -0.421875q-0.515625 -0.421875 -0.640625 -1.125l-0.0625 -0.71875q-0.875 1.140625 -2.125 1.75q-1.25 0.59375 -2.6875 0.59375zm0.953125 -2.453125q0.859375 0 1.609375 -0.296875q0.765625 -0.296875 1.1875 -0.796875q0.5625 -0.421875 0.5625 -0.953125l0 -1.5q-0.609375 -0.21875 -1.3125 -0.359375q-0.6875 -0.140625 -1.34375 -0.140625q-1.296875 0 -2.125 0.59375q-0.828125 0.578125 -0.828125 1.484375q0 0.84375 0.640625 1.40625q0.65625 0.5625 1.609375 0.5625zm9.991486 -16.046875l3.34375 0l0 14.046875q0 0.734375 0.34375 1.140625q0.359375 0.390625 1.015625 0.390625q0.296875 0 0.65625 -0.09375q0.359375 -0.109375 0.6875 -0.265625l0.453125 2.5625q-0.671875 0.3125 -1.578125 0.484375q-0.890625 0.1875 -1.625 0.1875q-1.578125 0 -2.4375 -0.828125q-0.859375 -0.84375 -0.859375 -2.40625l0 -15.21875zm14.451538 18.25l0 -17.75l3.453125 0l0 17.75l-3.453125 0zm7.2438354 0l0 -17.75l6.453125 0q2.171875 0 3.8125 0.703125q1.640625 0.703125 2.734375 1.90625q1.109375 1.1875 1.65625 2.8125q0.546875 1.609375 0.546875 3.421875q0 2.03125 -0.609375 3.671875q-0.609375 1.640625 -1.765625 2.796875q-1.140625 1.15625 -2.765625 1.796875q-1.609375 0.640625 -3.609375 0.640625l-6.453125 0zm11.734375 -8.90625q0 -1.265625 -0.359375 -2.34375q-0.34375 -1.078125 -1.015625 -1.84375q-0.671875 -0.78125 -1.671875 -1.203125q-0.984375 -0.421875 -2.234375 -0.421875l-3.0 0l0 11.6875l3.0 0q1.28125 0 2.265625 -0.4375q0.984375 -0.453125 1.640625 -1.234375q0.671875 -0.796875 1.015625 -1.875q0.359375 -1.078125 0.359375 -2.328125z" fill-rule="nonzero"></path><path fill="#fce5cd" d="m161.96063 10.496063l89.79527 0l0 63.74803l-89.79527 0z" fill-rule="evenodd"></path><path stroke="#e69138" stroke-width="3.0" stroke-linejoin="round" stroke-linecap="butt" d="m161.96063 10.496063l89.79527 0l0 63.74803l-89.79527 0z" fill-rule="evenodd"></path><path fill="#e69138" d="m180.30916 51.69008l0 -17.75l11.9375 0l0 3.03125l-8.484375 0l0 4.5625l7.046875 0l0 2.8125l-7.046875 0l0 7.34375l-3.453125 0zm14.225861 0l0 -13.09375l3.34375 0l0 13.09375l-3.34375 0zm0 -14.921875l0 -3.328125l3.34375 0l0 3.328125l-3.34375 0zm6.427429 -3.328125l3.34375 0l0 14.046875q0 0.734375 0.34375 1.140625q0.359375 0.390625 1.015625 0.390625q0.296875 0 0.65625 -0.09375q0.359375 -0.109375 0.6875 -0.265625l0.453125 2.5625q-0.671875 0.3125 -1.578125 0.484375q-0.890625 0.1875 -1.625 0.1875q-1.578125 0 -2.4375 -0.828125q-0.859375 -0.84375 -0.859375 -2.40625l0 -15.21875zm14.122772 18.5q-1.5625 0 -2.84375 -0.53125q-1.28125 -0.546875 -2.1875 -1.46875q-0.890625 -0.921875 -1.375 -2.140625q-0.484375 -1.234375 -0.484375 -2.578125q0 -1.40625 0.46875 -2.640625q0.484375 -1.234375 1.375 -2.171875q0.90625 -0.9375 2.1875 -1.484375q1.296875 -0.5625 2.890625 -0.5625q1.59375 0 2.859375 0.5625q1.265625 0.546875 2.15625 1.46875q0.890625 0.921875 1.34375 2.15625q0.46875 1.21875 0.46875 2.546875q0 0.3125 -0.015625 0.625q-0.015625 0.296875 -0.0625 0.5l-10.125 0q0.078125 0.765625 0.375 1.375q0.296875 0.59375 0.765625 1.015625q0.484375 0.421875 1.078125 0.65625q0.609375 0.21875 1.25 0.21875q1.0 0 1.890625 -0.484375q0.890625 -0.484375 1.21875 -1.28125l2.875 0.796875q-0.734375 1.5 -2.328125 2.46875q-1.578125 0.953125 -3.78125 0.953125zm3.40625 -7.90625q-0.125 -1.46875 -1.09375 -2.359375q-0.953125 -0.890625 -2.328125 -0.890625q-0.671875 0 -1.265625 0.25q-0.59375 0.234375 -1.046875 0.65625q-0.4375 0.421875 -0.734375 1.03125q-0.28125 0.59375 -0.328125 1.3125l6.796875 0zm10.64032 7.90625q-1.640625 0 -3.21875 -0.515625q-1.578125 -0.53125 -2.703125 -1.515625l1.25 -2.09375q1.203125 0.84375 2.34375 1.28125q1.140625 0.4375 2.265625 0.4375q1.0 0 1.5625 -0.375q0.578125 -0.375 0.578125 -1.0625q0 -0.703125 -0.671875 -1.03125q-0.671875 -0.328125 -2.203125 -0.75q-1.265625 -0.34375 -2.171875 -0.671875q-0.90625 -0.328125 -1.453125 -0.734375q-0.546875 -0.421875 -0.796875 -0.953125q-0.25 -0.546875 -0.25 -1.296875q0 -1.0 0.390625 -1.796875q0.390625 -0.796875 1.078125 -1.359375q0.703125 -0.5625 1.640625 -0.859375q0.9375 -0.296875 2.046875 -0.296875q1.46875 0 2.75 0.421875q1.296875 0.421875 2.375 1.375l-1.359375 2.015625q-1.0 -0.75 -1.9375 -1.09375q-0.9375 -0.34375 -1.859375 -0.34375q-0.84375 0 -1.421875 0.34375q-0.578125 0.34375 -0.578125 1.125q0 0.34375 0.140625 0.578125q0.140625 0.21875 0.4375 0.40625q0.296875 0.171875 0.78125 0.328125q0.484375 0.15625 1.21875 0.34375q1.34375 0.34375 2.296875 0.703125q0.96875 0.34375 1.578125 0.796875q0.625 0.4375 0.90625 1.03125q0.296875 0.59375 0.296875 1.40625q0 1.9375 -1.4375 3.046875q-1.421875 1.109375 -3.875 1.109375z" fill-rule="nonzero"></path><path fill="#fff2cc" d="m254.52756 10.496063l139.1181 0l0 63.74803l-139.1181 0z" fill-rule="evenodd"></path><path stroke="#f1c232" stroke-width="3.0" stroke-linejoin="round" stroke-linecap="butt" d="m254.52756 10.496063l139.1181 0l0 63.74803l-139.1181 0z" fill-rule="evenodd"></path><path fill="#f1c232" d="m300.05154 33.94008l0 17.75l-3.4375 0l0 -7.578125l-8.046875 0l0 7.578125l-3.453125 0l0 -17.75l3.453125 0l0 7.171875l8.046875 0l0 -7.171875l3.4375 0zm9.681976 18.0q-1.5625 0 -2.84375 -0.53125q-1.28125 -0.546875 -2.1875 -1.46875q-0.890625 -0.921875 -1.375 -2.140625q-0.484375 -1.234375 -0.484375 -2.578125q0 -1.40625 0.46875 -2.640625q0.484375 -1.234375 1.375 -2.171875q0.90625 -0.9375 2.1875 -1.484375q1.296875 -0.5625 2.890625 -0.5625q1.59375 0 2.859375 0.5625q1.265625 0.546875 2.15625 1.46875q0.890625 0.921875 1.34375 2.15625q0.46875 1.21875 0.46875 2.546875q0 0.3125 -0.015625 0.625q-0.015625 0.296875 -0.0625 0.5l-10.125 0q0.078125 0.765625 0.375 1.375q0.296875 0.59375 0.765625 1.015625q0.484375 0.421875 1.078125 0.65625q0.609375 0.21875 1.25 0.21875q1.0 0 1.890625 -0.484375q0.890625 -0.484375 1.21875 -1.28125l2.875 0.796875q-0.734375 1.5 -2.328125 2.46875q-1.578125 0.953125 -3.78125 0.953125zm3.40625 -7.90625q-0.125 -1.46875 -1.09375 -2.359375q-0.953125 -0.890625 -2.328125 -0.890625q-0.671875 0 -1.265625 0.25q-0.59375 0.234375 -1.046875 0.65625q-0.4375 0.421875 -0.734375 1.03125q-0.28125 0.59375 -0.328125 1.3125l6.796875 0zm9.26532 7.90625q-0.9375 0 -1.765625 -0.3125q-0.828125 -0.3125 -1.4375 -0.875q-0.59375 -0.5625 -0.9375 -1.3125q-0.328125 -0.75 -0.328125 -1.65625q0 -0.921875 0.40625 -1.703125q0.421875 -0.796875 1.15625 -1.34375q0.734375 -0.546875 1.75 -0.859375q1.03125 -0.3125 2.265625 -0.3125q0.875 0 1.703125 0.15625q0.84375 0.140625 1.5 0.421875l0 -0.75q0 -1.296875 -0.75 -2.0q-0.734375 -0.703125 -2.1875 -0.703125q-1.046875 0 -2.046875 0.375q-1.0 0.375 -2.046875 1.09375l-1.03125 -2.125q2.53125 -1.671875 5.453125 -1.671875q2.828125 0 4.390625 1.390625q1.5625 1.390625 1.5625 4.015625l0 4.078125q0 0.515625 0.1875 0.75q0.1875 0.21875 0.609375 0.25l0 2.84375q-0.84375 0.171875 -1.46875 0.171875q-0.953125 0 -1.46875 -0.421875q-0.515625 -0.421875 -0.640625 -1.125l-0.0625 -0.71875q-0.875 1.140625 -2.125 1.75q-1.25 0.59375 -2.6875 0.59375zm0.953125 -2.453125q0.859375 0 1.609375 -0.296875q0.765625 -0.296875 1.1875 -0.796875q0.5625 -0.421875 0.5625 -0.953125l0 -1.5q-0.609375 -0.21875 -1.3125 -0.359375q-0.6875 -0.140625 -1.34375 -0.140625q-1.296875 0 -2.125 0.59375q-0.828125 0.578125 -0.828125 1.484375q0 0.84375 0.640625 1.40625q0.65625 0.5625 1.609375 0.5625zm9.991486 -16.046875l3.34375 0l0 14.046875q0 0.734375 0.34375 1.140625q0.359375 0.390625 1.015625 0.390625q0.296875 0 0.65625 -0.09375q0.359375 -0.109375 0.6875 -0.265625l0.453125 2.5625q-0.671875 0.3125 -1.578125 0.484375q-0.890625 0.1875 -1.625 0.1875q-1.578125 0 -2.4375 -0.828125q-0.859375 -0.84375 -0.859375 -2.40625l0 -15.21875zm15.904022 17.578125q-0.671875 0.296875 -1.65625 0.59375q-0.96875 0.296875 -2.046875 0.296875q-0.703125 0 -1.3125 -0.171875q-0.609375 -0.171875 -1.078125 -0.5625q-0.453125 -0.390625 -0.734375 -1.0q-0.265625 -0.609375 -0.265625 -1.484375l0 -7.53125l-1.734375 0l0 -2.5625l1.734375 0l0 -4.25l3.34375 0l0 4.25l2.75 0l0 2.5625l-2.75 0l0 6.40625q0 0.703125 0.359375 1.0q0.359375 0.28125 0.890625 0.28125q0.53125 0 1.03125 -0.171875q0.5 -0.1875 0.796875 -0.3125l0.671875 2.65625zm14.054138 0.671875l-3.359375 0l0 -7.34375q0 -1.5625 -0.578125 -2.296875q-0.5625 -0.734375 -1.609375 -0.734375q-0.453125 0 -0.953125 0.203125q-0.5 0.203125 -0.953125 0.5625q-0.453125 0.359375 -0.828125 0.859375q-0.375 0.5 -0.546875 1.09375l0 7.65625l-3.34375 0l0 -18.25l3.34375 0l0 7.578125q0.71875 -1.28125 1.953125 -1.96875q1.25 -0.6875 2.75 -0.6875q1.265625 0 2.0625 0.4375q0.8125 0.4375 1.25 1.171875q0.453125 0.71875 0.625 1.640625q0.1875 0.921875 0.1875 1.90625l0 8.171875z" fill-rule="nonzero"></path><path fill="#d9ead3" d="m395.53543 10.496063l152.6614 0l0 63.74803l-152.6614 0z" fill-rule="evenodd"></path><path stroke="#6aa84f" stroke-width="3.0" stroke-linejoin="round" stroke-linecap="butt" d="m395.53543 10.496063l152.6614 0l0 63.74803l-152.6614 0z" fill-rule="evenodd"></path><path fill="#6aa84f" d="m407.47678 51.69008l0 -17.75l3.453125 0l0 17.75l-3.453125 0zm19.10321 0l-3.359375 0l0 -7.34375q0 -1.578125 -0.546875 -2.296875q-0.546875 -0.734375 -1.515625 -0.734375q-0.5 0 -1.03125 0.203125q-0.53125 0.203125 -1.0 0.5625q-0.453125 0.359375 -0.828125 0.859375q-0.375 0.5 -0.546875 1.09375l0 7.65625l-3.34375 0l0 -13.09375l3.015625 0l0 2.421875q0.734375 -1.25 2.109375 -1.953125q1.375 -0.703125 3.09375 -0.703125q1.21875 0 2.0 0.453125q0.78125 0.453125 1.203125 1.1875q0.421875 0.71875 0.578125 1.640625q0.171875 0.921875 0.171875 1.875l0 8.171875zm8.063843 0.25q-1.640625 0 -3.21875 -0.515625q-1.578125 -0.53125 -2.703125 -1.515625l1.25 -2.09375q1.203125 0.84375 2.34375 1.28125q1.140625 0.4375 2.265625 0.4375q1.0 0 1.5625 -0.375q0.578125 -0.375 0.578125 -1.0625q0 -0.703125 -0.671875 -1.03125q-0.671875 -0.328125 -2.203125 -0.75q-1.265625 -0.34375 -2.171875 -0.671875q-0.90625 -0.328125 -1.453125 -0.734375q-0.546875 -0.421875 -0.796875 -0.953125q-0.25 -0.546875 -0.25 -1.296875q0 -1.0 0.390625 -1.796875q0.390625 -0.796875 1.078125 -1.359375q0.703125 -0.5625 1.640625 -0.859375q0.9375 -0.296875 2.046875 -0.296875q1.46875 0 2.75 0.421875q1.296875 0.421875 2.375 1.375l-1.359375 2.015625q-1.0 -0.75 -1.9375 -1.09375q-0.9375 -0.34375 -1.859375 -0.34375q-0.84375 0 -1.421875 0.34375q-0.578125 0.34375 -0.578125 1.125q0 0.34375 0.140625 0.578125q0.140625 0.21875 0.4375 0.40625q0.296875 0.171875 0.78125 0.328125q0.484375 0.15625 1.21875 0.34375q1.34375 0.34375 2.296875 0.703125q0.96875 0.34375 1.578125 0.796875q0.625 0.4375 0.90625 1.03125q0.296875 0.59375 0.296875 1.40625q0 1.9375 -1.4375 3.046875q-1.421875 1.109375 -3.875 1.109375zm11.650574 0q-2.03125 0 -3.078125 -1.296875q-1.046875 -1.296875 -1.046875 -3.859375l0 -8.1875l3.34375 0l0 7.46875q0 3.03125 2.171875 3.03125q0.984375 0 1.890625 -0.59375q0.90625 -0.59375 1.484375 -1.78125l0 -8.125l3.359375 0l0 9.25q0 0.515625 0.1875 0.75q0.1875 0.21875 0.609375 0.25l0 2.84375q-0.5 0.09375 -0.84375 0.125q-0.328125 0.03125 -0.609375 0.03125q-0.90625 0 -1.46875 -0.40625q-0.5625 -0.421875 -0.65625 -1.15625l-0.078125 -1.046875q-0.875 1.359375 -2.25 2.03125q-1.375 0.671875 -3.015625 0.671875zm19.449677 -10.453125q-1.53125 0.03125 -2.734375 0.59375q-1.1875 0.5625 -1.71875 1.6875l0 7.921875l-3.34375 0l0 -13.09375l3.0625 0l0 2.796875q0.359375 -0.671875 0.828125 -1.203125q0.484375 -0.546875 1.03125 -0.9375q0.546875 -0.40625 1.109375 -0.625q0.5625 -0.21875 1.09375 -0.21875q0.265625 0 0.40625 0q0.140625 0 0.265625 0.03125l0 3.046875zm5.567627 10.453125q-0.9375 0 -1.765625 -0.3125q-0.828125 -0.3125 -1.4375 -0.875q-0.59375 -0.5625 -0.9375 -1.3125q-0.328125 -0.75 -0.328125 -1.65625q0 -0.921875 0.40625 -1.703125q0.421875 -0.796875 1.15625 -1.34375q0.734375 -0.546875 1.75 -0.859375q1.03125 -0.3125 2.265625 -0.3125q0.875 0 1.703125 0.15625q0.84375 0.140625 1.5 0.421875l0 -0.75q0 -1.296875 -0.75 -2.0q-0.734375 -0.703125 -2.1875 -0.703125q-1.046875 0 -2.046875 0.375q-1.0 0.375 -2.046875 1.09375l-1.03125 -2.125q2.53125 -1.671875 5.453125 -1.671875q2.828125 0 4.390625 1.390625q1.5625 1.390625 1.5625 4.015625l0 4.078125q0 0.515625 0.1875 0.75q0.1875 0.21875 0.609375 0.25l0 2.84375q-0.84375 0.171875 -1.46875 0.171875q-0.953125 0 -1.46875 -0.421875q-0.515625 -0.421875 -0.640625 -1.125l-0.0625 -0.71875q-0.875 1.140625 -2.125 1.75q-1.25 0.59375 -2.6875 0.59375zm0.953125 -2.453125q0.859375 0 1.609375 -0.296875q0.765625 -0.296875 1.1875 -0.796875q0.5625 -0.421875 0.5625 -0.953125l0 -1.5q-0.609375 -0.21875 -1.3125 -0.359375q-0.6875 -0.140625 -1.34375 -0.140625q-1.296875 0 -2.125 0.59375q-0.828125 0.578125 -0.828125 1.484375q0 0.84375 0.640625 1.40625q0.65625 0.5625 1.609375 0.5625zm22.19461 2.203125l-3.359375 0l0 -7.34375q0 -1.578125 -0.546875 -2.296875q-0.546875 -0.734375 -1.515625 -0.734375q-0.5 0 -1.03125 0.203125q-0.53125 0.203125 -1.0 0.5625q-0.453125 0.359375 -0.828125 0.859375q-0.375 0.5 -0.546875 1.09375l0 7.65625l-3.34375 0l0 -13.09375l3.015625 0l0 2.421875q0.734375 -1.25 2.109375 -1.953125q1.375 -0.703125 3.09375 -0.703125q1.21875 0 2.0 0.453125q0.78125 0.453125 1.203125 1.1875q0.421875 0.71875 0.578125 1.640625q0.171875 0.921875 0.171875 1.875l0 8.171875zm2.2982178 -6.546875q0 -1.375 0.46875 -2.59375q0.484375 -1.234375 1.375 -2.15625q0.90625 -0.921875 2.171875 -1.46875q1.28125 -0.5625 2.875 -0.5625q2.15625 0 3.671875 0.9375q1.515625 0.921875 2.265625 2.421875l-3.28125 1.0q-0.421875 -0.734375 -1.125 -1.109375q-0.703125 -0.390625 -1.546875 -0.390625q-0.734375 0 -1.359375 0.28125q-0.625 0.28125 -1.09375 0.796875q-0.453125 0.515625 -0.71875 1.25q-0.25 0.71875 -0.25 1.59375q0 0.875 0.265625 1.609375q0.28125 0.71875 0.734375 1.25q0.46875 0.515625 1.09375 0.8125q0.625 0.28125 1.328125 0.28125q0.890625 0 1.65625 -0.453125q0.765625 -0.453125 1.0625 -1.109375l3.28125 1.0q-0.671875 1.5 -2.234375 2.453125q-1.546875 0.953125 -3.71875 0.953125q-1.59375 0 -2.875 -0.546875q-1.28125 -0.546875 -2.1875 -1.484375q-0.890625 -0.9375 -1.375 -2.171875q-0.484375 -1.25 -0.484375 -2.59375zm21.17569 6.796875q-1.5625 0 -2.84375 -0.53125q-1.28125 -0.546875 -2.1875 -1.46875q-0.890625 -0.921875 -1.375 -2.140625q-0.484375 -1.234375 -0.484375 -2.578125q0 -1.40625 0.46875 -2.640625q0.484375 -1.234375 1.375 -2.171875q0.90625 -0.9375 2.1875 -1.484375q1.296875 -0.5625 2.890625 -0.5625q1.59375 0 2.859375 0.5625q1.265625 0.546875 2.15625 1.46875q0.890625 0.921875 1.34375 2.15625q0.46875 1.21875 0.46875 2.546875q0 0.3125 -0.015625 0.625q-0.015625 0.296875 -0.0625 0.5l-10.125 0q0.078125 0.765625 0.375 1.375q0.296875 0.59375 0.765625 1.015625q0.484375 0.421875 1.078125 0.65625q0.609375 0.21875 1.25 0.21875q1.0 0 1.890625 -0.484375q0.890625 -0.484375 1.21875 -1.28125l2.875 0.796875q-0.734375 1.5 -2.328125 2.46875q-1.578125 0.953125 -3.78125 0.953125zm3.40625 -7.90625q-0.125 -1.46875 -1.09375 -2.359375q-0.953125 -0.890625 -2.328125 -0.890625q-0.671875 0 -1.265625 0.25q-0.59375 0.234375 -1.046875 0.65625q-0.4375 0.421875 -0.734375 1.03125q-0.28125 0.59375 -0.328125 1.3125l6.796875 0zm10.64032 7.90625q-1.640625 0 -3.21875 -0.515625q-1.578125 -0.53125 -2.703125 -1.515625l1.25 -2.09375q1.203125 0.84375 2.34375 1.28125q1.140625 0.4375 2.265625 0.4375q1.0 0 1.5625 -0.375q0.578125 -0.375 0.578125 -1.0625q0 -0.703125 -0.671875 -1.03125q-0.671875 -0.328125 -2.203125 -0.75q-1.265625 -0.34375 -2.171875 -0.671875q-0.90625 -0.328125 -1.453125 -0.734375q-0.546875 -0.421875 -0.796875 -0.953125q-0.25 -0.546875 -0.25 -1.296875q0 -1.0 0.390625 -1.796875q0.390625 -0.796875 1.078125 -1.359375q0.703125 -0.5625 1.640625 -0.859375q0.9375 -0.296875 2.046875 -0.296875q1.46875 0 2.75 0.421875q1.296875 0.421875 2.375 1.375l-1.359375 2.015625q-1.0 -0.75 -1.9375 -1.09375q-0.9375 -0.34375 -1.859375 -0.34375q-0.84375 0 -1.421875 0.34375q-0.578125 0.34375 -0.578125 1.125q0 0.34375 0.140625 0.578125q0.140625 0.21875 0.4375 0.40625q0.296875 0.171875 0.78125 0.328125q0.484375 0.15625 1.21875 0.34375q1.34375 0.34375 2.296875 0.703125q0.96875 0.34375 1.578125 0.796875q0.625 0.4375 0.90625 1.03125q0.296875 0.59375 0.296875 1.40625q0 1.9375 -1.4375 3.046875q-1.421875 1.109375 -3.875 1.109375z" fill-rule="nonzero"></path><path fill="#d0e0e3" d="m550.9685 10.496063l89.79529 0l0 63.74803l-89.79529 0z" fill-rule="evenodd"></path><path stroke="#45818e" stroke-width="3.0" stroke-linejoin="round" stroke-linecap="butt" d="m550.9685 10.496063l89.79529 0l0 63.74803l-89.79529 0z" fill-rule="evenodd"></path><path fill="#45818e" d="m578.57446 51.69008l0 -17.75l3.453125 0l0 17.75l-3.453125 0zm12.97821 0.25q-1.609375 0 -2.890625 -0.546875q-1.265625 -0.546875 -2.15625 -1.484375q-0.875 -0.9375 -1.359375 -2.15625q-0.46875 -1.234375 -0.46875 -2.59375q0 -1.375 0.46875 -2.59375q0.484375 -1.21875 1.359375 -2.15625q0.890625 -0.9375 2.15625 -1.484375q1.28125 -0.5625 2.890625 -0.5625q1.59375 0 2.859375 0.5625q1.265625 0.546875 2.140625 1.484375q0.890625 0.9375 1.359375 2.15625q0.484375 1.21875 0.484375 2.59375q0 1.359375 -0.484375 2.59375q-0.46875 1.21875 -1.34375 2.15625q-0.875 0.9375 -2.15625 1.484375q-1.265625 0.546875 -2.859375 0.546875zm-3.421875 -6.78125q0 0.875 0.25 1.59375q0.265625 0.71875 0.71875 1.25q0.46875 0.515625 1.09375 0.8125q0.625 0.28125 1.359375 0.28125q0.71875 0 1.34375 -0.28125q0.625 -0.296875 1.078125 -0.8125q0.46875 -0.53125 0.734375 -1.25q0.265625 -0.734375 0.265625 -1.609375q0 -0.859375 -0.265625 -1.578125q-0.265625 -0.71875 -0.734375 -1.25q-0.453125 -0.53125 -1.078125 -0.8125q-0.625 -0.28125 -1.34375 -0.28125q-0.734375 0 -1.359375 0.296875q-0.625 0.296875 -1.09375 0.828125q-0.453125 0.515625 -0.71875 1.25q-0.25 0.71875 -0.25 1.5625zm26.317627 -8.1875l-5.671875 0l0 14.71875l-3.421875 0l0 -14.71875l-5.6875 0l0 -3.03125l14.78125 0l0 3.03125z" fill-rule="nonzero"></path><path fill="#c9daf8" d="m643.0315 10.496063l149.63782 0l0 63.74803l-149.63782 0z" fill-rule="evenodd"></path><path stroke="#3c78d8" stroke-width="3.0" stroke-linejoin="round" stroke-linecap="butt" d="m643.0315 10.496063l149.63782 0l0 63.74803l-149.63782 0z" fill-rule="evenodd"></path><path fill="#3c78d8" d="m668.84454 51.69008l0 -11.75l-4.578125 8.75l-1.875 0l-4.578125 -8.75l0 11.75l-3.453125 0l0 -17.75l3.703125 0l5.25 10.09375l5.296875 -10.09375l3.6875 0l0 17.75l-3.453125 0zm13.1744995 0.25q-1.5625 0 -2.84375 -0.53125q-1.28125 -0.546875 -2.1875 -1.46875q-0.890625 -0.921875 -1.375 -2.140625q-0.484375 -1.234375 -0.484375 -2.578125q0 -1.40625 0.46875 -2.640625q0.484375 -1.234375 1.375 -2.171875q0.90625 -0.9375 2.1875 -1.484375q1.296875 -0.5625 2.890625 -0.5625q1.59375 0 2.859375 0.5625q1.265625 0.546875 2.15625 1.46875q0.890625 0.921875 1.34375 2.15625q0.46875 1.21875 0.46875 2.546875q0 0.3125 -0.015625 0.625q-0.015625 0.296875 -0.0625 0.5l-10.125 0q0.078125 0.765625 0.375 1.375q0.296875 0.59375 0.765625 1.015625q0.484375 0.421875 1.078125 0.65625q0.609375 0.21875 1.25 0.21875q1.0 0 1.890625 -0.484375q0.890625 -0.484375 1.21875 -1.28125l2.875 0.796875q-0.734375 1.5 -2.328125 2.46875q-1.578125 0.953125 -3.78125 0.953125zm3.40625 -7.90625q-0.125 -1.46875 -1.09375 -2.359375q-0.953125 -0.890625 -2.328125 -0.890625q-0.671875 0 -1.265625 0.25q-0.59375 0.234375 -1.046875 0.65625q-0.4375 0.421875 -0.734375 1.03125q-0.28125 0.59375 -0.328125 1.3125l6.796875 0zm10.64032 7.90625q-1.640625 0 -3.21875 -0.515625q-1.578125 -0.53125 -2.703125 -1.515625l1.25 -2.09375q1.203125 0.84375 2.34375 1.28125q1.140625 0.4375 2.265625 0.4375q1.0 0 1.5625 -0.375q0.578125 -0.375 0.578125 -1.0625q0 -0.703125 -0.671875 -1.03125q-0.671875 -0.328125 -2.203125 -0.75q-1.265625 -0.34375 -2.171875 -0.671875q-0.90625 -0.328125 -1.453125 -0.734375q-0.546875 -0.421875 -0.796875 -0.953125q-0.25 -0.546875 -0.25 -1.296875q0 -1.0 0.390625 -1.796875q0.390625 -0.796875 1.078125 -1.359375q0.703125 -0.5625 1.640625 -0.859375q0.9375 -0.296875 2.046875 -0.296875q1.46875 0 2.75 0.421875q1.296875 0.421875 2.375 1.375l-1.359375 2.015625q-1.0 -0.75 -1.9375 -1.09375q-0.9375 -0.34375 -1.859375 -0.34375q-0.84375 0 -1.421875 0.34375q-0.578125 0.34375 -0.578125 1.125q0 0.34375 0.140625 0.578125q0.140625 0.21875 0.4375 0.40625q0.296875 0.171875 0.78125 0.328125q0.484375 0.15625 1.21875 0.34375q1.34375 0.34375 2.296875 0.703125q0.96875 0.34375 1.578125 0.796875q0.625 0.4375 0.90625 1.03125q0.296875 0.59375 0.296875 1.40625q0 1.9375 -1.4375 3.046875q-1.421875 1.109375 -3.875 1.109375zm12.588074 0q-1.640625 0 -3.21875 -0.515625q-1.578125 -0.53125 -2.703125 -1.515625l1.25 -2.09375q1.203125 0.84375 2.34375 1.28125q1.140625 0.4375 2.265625 0.4375q1.0 0 1.5625 -0.375q0.578125 -0.375 0.578125 -1.0625q0 -0.703125 -0.671875 -1.03125q-0.671875 -0.328125 -2.203125 -0.75q-1.265625 -0.34375 -2.171875 -0.671875q-0.90625 -0.328125 -1.453125 -0.734375q-0.546875 -0.421875 -0.796875 -0.953125q-0.25 -0.546875 -0.25 -1.296875q0 -1.0 0.390625 -1.796875q0.390625 -0.796875 1.078125 -1.359375q0.703125 -0.5625 1.640625 -0.859375q0.9375 -0.296875 2.046875 -0.296875q1.46875 0 2.75 0.421875q1.296875 0.421875 2.375 1.375l-1.359375 2.015625q-1.0 -0.75 -1.9375 -1.09375q-0.9375 -0.34375 -1.859375 -0.34375q-0.84375 0 -1.421875 0.34375q-0.578125 0.34375 -0.578125 1.125q0 0.34375 0.140625 0.578125q0.140625 0.21875 0.4375 0.40625q0.296875 0.171875 0.78125 0.328125q0.484375 0.15625 1.21875 0.34375q1.34375 0.34375 2.296875 0.703125q0.96875 0.34375 1.578125 0.796875q0.625 0.4375 0.90625 1.03125q0.296875 0.59375 0.296875 1.40625q0 1.9375 -1.4375 3.046875q-1.421875 1.109375 -3.875 1.109375zm11.213074 0q-0.9375 0 -1.765625 -0.3125q-0.828125 -0.3125 -1.4375 -0.875q-0.59375 -0.5625 -0.9375 -1.3125q-0.328125 -0.75 -0.328125 -1.65625q0 -0.921875 0.40625 -1.703125q0.421875 -0.796875 1.15625 -1.34375q0.734375 -0.546875 1.75 -0.859375q1.03125 -0.3125 2.265625 -0.3125q0.875 0 1.703125 0.15625q0.84375 0.140625 1.5 0.421875l0 -0.75q0 -1.296875 -0.75 -2.0q-0.734375 -0.703125 -2.1875 -0.703125q-1.046875 0 -2.046875 0.375q-1.0 0.375 -2.046875 1.09375l-1.03125 -2.125q2.53125 -1.671875 5.453125 -1.671875q2.828125 0 4.390625 1.390625q1.5625 1.390625 1.5625 4.015625l0 4.078125q0 0.515625 0.1875 0.75q0.1875 0.21875 0.609375 0.25l0 2.84375q-0.84375 0.171875 -1.46875 0.171875q-0.953125 0 -1.46875 -0.421875q-0.515625 -0.421875 -0.640625 -1.125l-0.0625 -0.71875q-0.875 1.140625 -2.125 1.75q-1.25 0.59375 -2.6875 0.59375zm0.953125 -2.453125q0.859375 0 1.609375 -0.296875q0.765625 -0.296875 1.1875 -0.796875q0.5625 -0.421875 0.5625 -0.953125l0 -1.5q-0.609375 -0.21875 -1.3125 -0.359375q-0.6875 -0.140625 -1.34375 -0.140625q-1.296875 0 -2.125 0.59375q-0.828125 0.578125 -0.828125 1.484375q0 0.84375 0.640625 1.40625q0.65625 0.5625 1.609375 0.5625zm15.147766 2.28125q-1.328125 0 -2.40625 -0.515625q-1.078125 -0.53125 -1.875 -1.4375q-0.78125 -0.921875 -1.203125 -2.125q-0.421875 -1.203125 -0.421875 -2.546875q0 -1.421875 0.453125 -2.640625q0.453125 -1.234375 1.25 -2.15625q0.796875 -0.9375 1.921875 -1.453125q1.125 -0.53125 2.46875 -0.53125q1.53125 0 2.671875 0.6875q1.15625 0.6875 1.90625 1.84375l0 -2.296875l2.921875 0l0 12.46875q0 1.453125 -0.546875 2.59375q-0.546875 1.15625 -1.515625 1.953125q-0.953125 0.796875 -2.296875 1.21875q-1.328125 0.4375 -2.90625 0.4375q-2.15625 0 -3.625 -0.71875q-1.453125 -0.703125 -2.5 -2.015625l1.828125 -1.765625q0.75 0.921875 1.875 1.4375q1.140625 0.53125 2.421875 0.53125q0.765625 0 1.484375 -0.21875q0.71875 -0.203125 1.265625 -0.65625q0.546875 -0.453125 0.859375 -1.15625q0.3125 -0.6875 0.3125 -1.640625l0 -1.65625q-0.65625 1.125 -1.828125 1.75q-1.171875 0.609375 -2.515625 0.609375zm1.125 -2.671875q0.546875 0 1.046875 -0.171875q0.5 -0.1875 0.921875 -0.484375q0.421875 -0.296875 0.75 -0.6875q0.328125 -0.40625 0.5 -0.859375l0 -3.125q-0.453125 -1.15625 -1.421875 -1.84375q-0.953125 -0.703125 -2.0 -0.703125q-0.78125 0 -1.40625 0.34375q-0.625 0.328125 -1.078125 0.890625q-0.4375 0.5625 -0.6875 1.296875q-0.234375 0.71875 -0.234375 1.484375q0 0.796875 0.265625 1.5q0.28125 0.703125 0.765625 1.234375q0.5 0.515625 1.140625 0.828125q0.65625 0.296875 1.4375 0.296875zm9.808044 2.59375l0 -13.09375l3.34375 0l0 13.09375l-3.34375 0zm0 -14.921875l0 -3.328125l3.34375 0l0 3.328125l-3.34375 0zm18.630554 14.921875l-3.359375 0l0 -7.34375q0 -1.578125 -0.546875 -2.296875q-0.546875 -0.734375 -1.515625 -0.734375q-0.5 0 -1.03125 0.203125q-0.53125 0.203125 -1.0 0.5625q-0.453125 0.359375 -0.828125 0.859375q-0.375 0.5 -0.546875 1.09375l0 7.65625l-3.34375 0l0 -13.09375l3.015625 0l0 2.421875q0.734375 -1.25 2.109375 -1.953125q1.375 -0.703125 3.09375 -0.703125q1.21875 0 2.0 0.453125q0.78125 0.453125 1.203125 1.1875q0.421875 0.71875 0.578125 1.640625q0.171875 0.921875 0.171875 1.875l0 8.171875zm8.251343 0.078125q-1.328125 0 -2.40625 -0.515625q-1.078125 -0.53125 -1.875 -1.4375q-0.78125 -0.921875 -1.203125 -2.125q-0.421875 -1.203125 -0.421875 -2.546875q0 -1.421875 0.453125 -2.640625q0.453125 -1.234375 1.25 -2.15625q0.796875 -0.9375 1.921875 -1.453125q1.125 -0.53125 2.46875 -0.53125q1.53125 0 2.671875 0.6875q1.15625 0.6875 1.90625 1.84375l0 -2.296875l2.921875 0l0 12.46875q0 1.453125 -0.546875 2.59375q-0.546875 1.15625 -1.515625 1.953125q-0.953125 0.796875 -2.296875 1.21875q-1.328125 0.4375 -2.90625 0.4375q-2.15625 0 -3.625 -0.71875q-1.453125 -0.703125 -2.5 -2.015625l1.828125 -1.765625q0.75 0.921875 1.875 1.4375q1.140625 0.53125 2.421875 0.53125q0.765625 0 1.484375 -0.21875q0.71875 -0.203125 1.265625 -0.65625q0.546875 -0.453125 0.859375 -1.15625q0.3125 -0.6875 0.3125 -1.640625l0 -1.65625q-0.65625 1.125 -1.828125 1.75q-1.171875 0.609375 -2.515625 0.609375zm1.125 -2.671875q0.546875 0 1.046875 -0.171875q0.5 -0.1875 0.921875 -0.484375q0.421875 -0.296875 0.75 -0.6875q0.328125 -0.40625 0.5 -0.859375l0 -3.125q-0.453125 -1.15625 -1.421875 -1.84375q-0.953125 -0.703125 -2.0 -0.703125q-0.78125 0 -1.40625 0.34375q-0.625 0.328125 -1.078125 0.890625q-0.4375 0.5625 -0.6875 1.296875q-0.234375 0.71875 -0.234375 1.484375q0 0.796875 0.265625 1.5q0.28125 0.703125 0.765625 1.234375q0.5 0.515625 1.140625 0.828125q0.65625 0.296875 1.4375 0.296875z" fill-rule="nonzero"></path><path fill="#cfe2f3" d="m795.4093 10.496063l60.881897 0l0 63.74803l-60.881897 0z" fill-rule="evenodd"></path><path stroke="#3d85c6" stroke-width="3.0" stroke-linejoin="round" stroke-linecap="butt" d="m795.4093 10.496063l60.881897 0l0 63.74803l-60.881897 0z" fill-rule="evenodd"></path><path fill="#3d85c6" d="m819.67957 51.69008l0 -3.59375l2.75 0l0 3.59375l-2.75 0zm4.703125 0l0 -3.59375l2.75 0l0 3.59375l-2.75 0zm4.6875 0l0 -3.59375l2.75 0l0 3.59375l-2.75 0z" fill-rule="nonzero"></path><path fill="#e6b8af" d="m9.551181 10.496063l149.6378 0l0 63.74803l-149.6378 0z" fill-rule="evenodd"></path><path stroke="#a61c00" stroke-width="3.0" stroke-linejoin="round" stroke-linecap="butt" d="m9.551181 10.496063l149.6378 0l0 63.74803l-149.6378 0z" fill-rule="evenodd"></path><path fill="#a61c00" d="m51.02245 47.111954q0 1.125 -0.453125 1.984375q-0.453125 0.84375 -1.25 1.421875q-0.78125 0.578125 -1.828125 0.875q-1.03125 0.296875 -2.203125 0.296875l-8.578125 0l0 -17.75l9.5 0q0.9375 0 1.6875 0.40625q0.75 0.390625 1.265625 1.03125q0.53125 0.640625 0.8125 1.453125q0.296875 0.8125 0.296875 1.640625q0 1.296875 -0.65625 2.4375q-0.65625 1.125 -1.90625 1.6875q1.53125 0.4375 2.421875 1.609375q0.890625 1.15625 0.890625 2.90625zm-3.484375 -0.640625q0 -0.484375 -0.171875 -0.921875q-0.15625 -0.4375 -0.4375 -0.75q-0.265625 -0.328125 -0.640625 -0.515625q-0.375 -0.1875 -0.828125 -0.1875l-5.296875 0l0 4.671875l5.125 0q0.484375 0 0.890625 -0.171875q0.40625 -0.1875 0.703125 -0.5q0.3125 -0.3125 0.484375 -0.734375q0.171875 -0.421875 0.171875 -0.890625zm-7.375 -9.578125l0 4.46875l4.609375 0q0.875 0 1.484375 -0.59375q0.609375 -0.609375 0.609375 -1.65625q0 -1.015625 -0.5625 -1.609375q-0.5625 -0.609375 -1.390625 -0.609375l-4.75 0zm17.02002 15.046875q-0.9375 0 -1.765625 -0.3125q-0.828125 -0.3125 -1.4375 -0.875q-0.59375 -0.5625 -0.9375 -1.3125q-0.328125 -0.75 -0.328125 -1.65625q0 -0.921875 0.40625 -1.703125q0.421875 -0.796875 1.15625 -1.34375q0.734375 -0.546875 1.75 -0.859375q1.03125 -0.3125 2.265625 -0.3125q0.875 0 1.703125 0.15625q0.84375 0.140625 1.5 0.421875l0 -0.75q0 -1.296875 -0.75 -2.0q-0.734375 -0.703125 -2.1875 -0.703125q-1.046875 0 -2.046875 0.375q-1.0 0.375 -2.046875 1.09375l-1.03125 -2.125q2.53125 -1.671875 5.453125 -1.671875q2.828125 0 4.390625 1.390625q1.5624962 1.390625 1.5624962 4.015625l0 4.078125q0 0.515625 0.1875 0.75q0.1875 0.21875 0.609375 0.25l0 2.84375q-0.84375 0.171875 -1.46875 0.171875q-0.9531212 0 -1.4687462 -0.421875q-0.515625 -0.421875 -0.640625 -1.125l-0.0625 -0.71875q-0.875 1.140625 -2.125 1.75q-1.25 0.59375 -2.6875 0.59375zm0.953125 -2.453125q0.859375 0 1.609375 -0.296875q0.765625 -0.296875 1.1875 -0.796875q0.5625 -0.421875 0.5625 -0.953125l0 -1.5q-0.609375 -0.21875 -1.3125 -0.359375q-0.6875 -0.140625 -1.34375 -0.140625q-1.296875 0 -2.125 0.59375q-0.828125 0.578125 -0.828125 1.484375q0 0.84375 0.640625 1.40625q0.65625 0.5625 1.609375 0.5625zm22.194607 2.203125l-3.359375 0l0 -7.34375q0 -1.578125 -0.546875 -2.296875q-0.546875 -0.734375 -1.515625 -0.734375q-0.5 0 -1.03125 0.203125q-0.53125 0.203125 -1.0 0.5625q-0.453125 0.359375 -0.828125 0.859375q-0.375 0.5 -0.546875 1.09375l0 7.65625l-3.34375 0l0 -13.09375l3.015625 0l0 2.421875q0.734375 -1.25 2.109375 -1.953125q1.375 -0.703125 3.09375 -0.703125q1.21875 0 2.0 0.453125q0.78125 0.453125 1.203125 1.1875q0.421875 0.71875 0.578125 1.640625q0.171875 0.921875 0.171875 1.875l0 8.171875zm12.0638275 0l-3.796875 -5.671875l-1.796875 1.765625l0 3.90625l-3.34375 0l0 -18.25l3.34375 0l0 11.078125l5.25 -5.90625l3.578125 0l-4.875 5.546875l5.21875 7.53125l-3.578125 0zm5.1956177 0l0 -13.09375l3.34375 0l0 13.09375l-3.34375 0zm0 -14.921875l0 -3.328125l3.34375 0l0 3.328125l-3.34375 0zm18.630554 14.921875l-3.359375 0l0 -7.34375q0 -1.578125 -0.546875 -2.296875q-0.546875 -0.734375 -1.515625 -0.734375q-0.5 0 -1.03125 0.203125q-0.53125 0.203125 -1.0 0.5625q-0.453125 0.359375 -0.828125 0.859375q-0.375 0.5 -0.546875 1.09375l0 7.65625l-3.34375 0l0 -13.09375l3.015625 0l0 2.421875q0.734375 -1.25 2.109375 -1.953125q1.375 -0.703125 3.09375 -0.703125q1.21875 0 2.0 0.453125q0.78125 0.453125 1.203125 1.1875q0.421875 0.71875 0.578125 1.640625q0.171875 0.921875 0.171875 1.875l0 8.171875zm8.2513275 0.078125q-1.328125 0 -2.40625 -0.515625q-1.078125 -0.53125 -1.875 -1.4375q-0.78125 -0.921875 -1.203125 -2.125q-0.421875 -1.203125 -0.421875 -2.546875q0 -1.421875 0.453125 -2.640625q0.453125 -1.234375 1.25 -2.15625q0.796875 -0.9375 1.921875 -1.453125q1.125 -0.53125 2.46875 -0.53125q1.53125 0 2.671875 0.6875q1.15625 0.6875 1.90625 1.84375l0 -2.296875l2.921875 0l0 12.46875q0 1.453125 -0.546875 2.59375q-0.546875 1.15625 -1.515625 1.953125q-0.953125 0.796875 -2.296875 1.21875q-1.328125 0.4375 -2.90625 0.4375q-2.15625 0 -3.625 -0.71875q-1.453125 -0.703125 -2.5 -2.015625l1.828125 -1.765625q0.75 0.921875 1.875 1.4375q1.140625 0.53125 2.421875 0.53125q0.765625 0 1.484375 -0.21875q0.71875 -0.203125 1.265625 -0.65625q0.546875 -0.453125 0.859375 -1.15625q0.3125 -0.6875 0.3125 -1.640625l0 -1.65625q-0.65625 1.125 -1.828125 1.75q-1.171875 0.609375 -2.515625 0.609375zm1.125 -2.671875q0.546875 0 1.046875 -0.171875q0.5 -0.1875 0.921875 -0.484375q0.421875 -0.296875 0.75 -0.6875q0.328125 -0.40625 0.5 -0.859375l0 -3.125q-0.453125 -1.15625 -1.421875 -1.84375q-0.953125 -0.703125 -2.0 -0.703125q-0.78125 0 -1.40625 0.34375q-0.625 0.328125 -1.078125 0.890625q-0.4375 0.5625 -0.6875 1.296875q-0.234375 0.71875 -0.234375 1.484375q0 0.796875 0.265625 1.5q0.28125 0.703125 0.765625 1.234375q0.5 0.515625 1.140625 0.828125q0.65625 0.296875 1.4375 0.296875z" fill-rule="nonzero"></path></g></svg>

