<?xml version="1.0" standalone="yes"?>

<svg version="1.1" viewBox="0.0 0.0 859.7007874015748 492.2808398950131" fill="none" stroke="none" stroke-linecap="square" stroke-miterlimit="10" xmlns="http://www.w3.org/2000/svg" xmlns:xlink="http://www.w3.org/1999/xlink"><clipPath id="p.0"><path d="m0 0l859.7008 0l0 492.28085l-859.7008 0l0 -492.28085z" clip-rule="nonzero"></path></clipPath><g clip-path="url(#p.0)"><path fill="#000000" fill-opacity="0.0" d="m0 0l859.7008 0l0 492.28085l-859.7008 0z" fill-rule="evenodd"></path><path fill="#c9daf8" d="m7.5039372 107.73125l0 0c0 -16.142693 13.086239 -29.228928 29.228931 -29.228928l788.2823 0c7.752014 0 15.186523 3.0794678 20.66803 8.560951c5.4814453 5.481491 8.560913 12.915985 8.560913 20.667976l0 116.91222c0 16.1427 -13.086243 29.228928 -29.228943 29.228928l-788.2823 0c-16.142693 0 -29.228931 -13.086227 -29.228931 -29.228928z" fill-rule="evenodd"></path><path fill="#1155cc" d="m363.94907 157.13422q-0.28125 -0.28125 -1.015625 -0.765625q-0.734375 -0.484375 -1.796875 -0.9375q-1.0625 -0.46875 -2.3125 -0.78125q-1.234375 -0.328125 -2.515625 -0.328125q-2.28125 0 -3.40625 0.84375q-1.109375 0.84375 -1.109375 2.359375q0 0.875 0.421875 1.46875q0.421875 0.578125 1.21875 1.015625q0.796875 0.4375 2.015625 0.796875q1.21875 0.359375 2.828125 0.765625q2.078125 0.5625 3.78125 1.203125q1.703125 0.625 2.875 1.59375q1.1875 0.953125 1.8125 2.296875q0.640625 1.34375 0.640625 3.296875q0 2.28125 -0.859375 3.90625q-0.859375 1.625 -2.3125 2.625q-1.453125 1.0 -3.359375 1.453125q-1.90625 0.453125 -3.984375 0.453125q-3.203125 0 -6.328125 -0.953125q-3.109375 -0.953125 -5.59375 -2.71875l2.4375 -4.765625q0.375 0.359375 1.3125 0.953125q0.9375 0.578125 2.21875 1.15625q1.28125 0.578125 2.828125 0.984375q1.5625 0.390625 3.203125 0.390625q4.5625 0 4.5625 -2.921875q0 -0.921875 -0.515625 -1.5625q-0.515625 -0.640625 -1.484375 -1.109375q-0.953125 -0.484375 -2.3125 -0.875q-1.359375 -0.40625 -3.046875 -0.890625q-2.03125 -0.5625 -3.53125 -1.21875q-1.5 -0.65625 -2.5 -1.5625q-1.0 -0.90625 -1.5 -2.078125q-0.5 -1.1875 -0.5 -2.828125q0 -2.15625 0.796875 -3.828125q0.796875 -1.6875 2.21875 -2.796875q1.421875 -1.125 3.296875 -1.703125q1.875 -0.578125 4.046875 -0.578125q3.0 0 5.515625 0.9375q2.515625 0.9375 4.390625 2.21875l-2.4375 4.484375zm16.801239 21.359375q-2.515625 0 -4.5625 -0.859375q-2.03125 -0.859375 -3.46875 -2.34375q-1.4375 -1.484375 -2.21875 -3.4375q-0.78125 -1.96875 -0.78125 -4.125q0 -2.234375 0.75 -4.21875q0.765625 -1.984375 2.203125 -3.484375q1.4375 -1.5 3.5 -2.375q2.0625 -0.875 4.625 -0.875q2.5625 0 4.578125 0.875q2.015625 0.875 3.4375 2.359375q1.421875 1.484375 2.15625 3.4375q0.75 1.953125 0.75 4.078125q0 0.515625 -0.03125 1.0q-0.015625 0.484375 -0.09375 0.796875l-16.203125 0q0.125 1.25 0.59375 2.21875q0.484375 0.953125 1.25 1.640625q0.765625 0.671875 1.71875 1.03125q0.953125 0.359375 2.0 0.359375q1.59375 0 3.015625 -0.78125q1.421875 -0.78125 1.9375 -2.0625l4.609375 1.28125q-1.15625 2.390625 -3.703125 3.9375q-2.53125 1.546875 -6.0625 1.546875zm5.4375 -12.640625q-0.1875 -2.359375 -1.734375 -3.78125q-1.546875 -1.421875 -3.734375 -1.421875q-1.078125 0 -2.03125 0.375q-0.9375 0.375 -1.65625 1.0625q-0.71875 0.6875 -1.1875 1.640625q-0.453125 0.953125 -0.53125 2.125l10.875 0zm21.288116 -4.078125q-2.4375 0.03125 -4.359375 0.9375q-1.921875 0.890625 -2.765625 2.6875l0 12.6875l-5.359375 0l0 -20.953125l4.921875 0l0 4.46875q0.5625 -1.078125 1.3125 -1.9375q0.765625 -0.859375 1.640625 -1.5q0.890625 -0.640625 1.78125 -0.96875q0.90625 -0.34375 1.75 -0.34375q0.4375 0 0.65625 0q0.21875 0 0.421875 0.03125l0 4.890625zm8.63623 16.3125l-7.71875 -20.953125l5.515625 0l5.328125 16.59375l5.359375 -16.59375l5.03125 0l-7.71875 20.953125l-5.796875 0zm16.319336 0l0 -20.953125l5.359375 0l0 20.953125l-5.359375 0zm0 -23.875l0 -5.328125l5.359375 0l0 5.328125l-5.359375 0zm8.887512 13.390625q0 -2.203125 0.75 -4.15625q0.765625 -1.953125 2.203125 -3.4375q1.4375 -1.484375 3.46875 -2.359375q2.046875 -0.875 4.609375 -0.875q3.4375 0 5.859375 1.484375q2.421875 1.46875 3.625 3.875l-5.234375 1.59375q-0.6875 -1.15625 -1.8125 -1.78125q-1.109375 -0.625 -2.46875 -0.625q-1.171875 0 -2.171875 0.46875q-1.0 0.453125 -1.734375 1.28125q-0.734375 0.8125 -1.15625 1.984375q-0.421875 1.15625 -0.421875 2.546875q0 1.40625 0.4375 2.5625q0.4375 1.15625 1.171875 2.0q0.75 0.84375 1.75 1.3125q1.0 0.453125 2.125 0.453125q1.4375 0 2.65625 -0.71875q1.21875 -0.71875 1.703125 -1.765625l5.234375 1.59375q-1.078125 2.40625 -3.5625 3.9375q-2.46875 1.515625 -5.953125 1.515625q-2.5625 0 -4.609375 -0.875q-2.03125 -0.890625 -3.46875 -2.390625q-1.4375 -1.5 -2.21875 -3.46875q-0.78125 -1.984375 -0.78125 -4.15625zm33.591217 10.890625q-2.515625 0 -4.5625 -0.859375q-2.03125 -0.859375 -3.46875 -2.34375q-1.4375 -1.484375 -2.21875 -3.4375q-0.78125 -1.96875 -0.78125 -4.125q0 -2.234375 0.75 -4.21875q0.765625 -1.984375 2.203125 -3.484375q1.4375 -1.5 3.5 -2.375q2.0625 -0.875 4.625 -0.875q2.5625 0 4.578125 0.875q2.015625 0.875 3.4375 2.359375q1.421875 1.484375 2.15625 3.4375q0.75 1.953125 0.75 4.078125q0 0.515625 -0.03125 1.0q-0.015625 0.484375 -0.09375 0.796875l-16.203125 0q0.125 1.25 0.59375 2.21875q0.484375 0.953125 1.25 1.640625q0.765625 0.671875 1.71875 1.03125q0.953125 0.359375 2.0 0.359375q1.59375 0 3.015625 -0.78125q1.421875 -0.78125 1.9375 -2.0625l4.609375 1.28125q-1.15625 2.390625 -3.703125 3.9375q-2.53125 1.546875 -6.0625 1.546875zm5.4375 -12.640625q-0.1875 -2.359375 -1.734375 -3.78125q-1.546875 -1.421875 -3.734375 -1.421875q-1.078125 0 -2.03125 0.375q-0.9375 0.375 -1.65625 1.0625q-0.71875 0.6875 -1.1875 1.640625q-0.453125 0.953125 -0.53125 2.125l10.875 0zm18.919342 12.234375l0 -28.40625l5.53125 0l0 23.5625l14.4687805 0l0 4.84375l-20.00003 0zm28.56314 0.40625q-1.515625 0 -2.84375 -0.5q-1.3125 -0.5 -2.28125 -1.40625q-0.953125 -0.90625 -1.5 -2.09375q-0.53125 -1.203125 -0.53125 -2.640625q0 -1.484375 0.65625 -2.734375q0.65625 -1.265625 1.84375 -2.140625q1.1875 -0.890625 2.8125 -1.390625q1.640625 -0.5 3.609375 -0.5q1.390625 0 2.734375 0.25q1.34375 0.234375 2.390625 0.671875l0 -1.203125q0 -2.078125 -1.1875 -3.1875q-1.171875 -1.125 -3.5 -1.125q-1.671875 0 -3.28125 0.59375q-1.59375 0.59375 -3.28125 1.765625l-1.640625 -3.40625q4.046875 -2.671875 8.71875 -2.671875q4.53125 0 7.03125 2.21875q2.5 2.21875 2.5 6.40625l0 6.53125q0 0.84375 0.296875 1.203125q0.296875 0.359375 0.984375 0.390625l0 4.5625q-1.375 0.28125 -2.375 0.28125q-1.515625 0 -2.34375 -0.671875q-0.8125 -0.6875 -1.015625 -1.8125l-0.109375 -1.15625q-1.40625 1.84375 -3.40625 2.8125q-2.0 0.953125 -4.28125 0.953125zm1.53125 -3.921875q1.359375 0 2.578125 -0.484375q1.21875 -0.484375 1.890625 -1.28125q0.890625 -0.671875 0.890625 -1.515625l0 -2.40625q-0.96875 -0.359375 -2.09375 -0.578125q-1.109375 -0.21875 -2.15625 -0.21875q-2.078125 0 -3.40625 0.9375q-1.3125 0.9375 -1.3125 2.375q0 1.375 1.03125 2.28125q1.046875 0.890625 2.578125 0.890625zm16.14746 7.59375q0.6875 0.203125 1.328125 0.296875q0.640625 0.109375 1.078125 0.109375q0.515625 0 0.953125 -0.203125q0.453125 -0.203125 0.8125 -0.703125q0.359375 -0.5 0.71875 -1.390625q0.359375 -0.875 0.75 -2.1875l-8.28125 -20.953125l5.53125 0l5.671875 16.3125l5.046875 -16.3125l5.03125 0l-8.796875 25.109375q-0.765625 2.203125 -2.609375 3.59375q-1.828125 1.40625 -4.546875 1.40625q-0.640625 0 -1.3125 -0.109375q-0.65625 -0.09375 -1.375 -0.328125l0 -4.640625zm31.28125 -3.671875q-2.515625 0 -4.5625 -0.859375q-2.03125 -0.859375 -3.46875 -2.34375q-1.4375 -1.484375 -2.21875 -3.4375q-0.78125 -1.96875 -0.78125 -4.125q0 -2.234375 0.75 -4.21875q0.765625 -1.984375 2.203125 -3.484375q1.4375 -1.5 3.5 -2.375q2.0625 -0.875 4.625 -0.875q2.5625 0 4.578125 0.875q2.015625 0.875 3.4375 2.359375q1.421875 1.484375 2.15625 3.4375q0.75 1.953125 0.75 4.078125q0 0.515625 -0.03125 1.0q-0.015625 0.484375 -0.09375 0.796875l-16.203125 0q0.125 1.25 0.59375 2.21875q0.484375 0.953125 1.25 1.640625q0.765625 0.671875 1.71875 1.03125q0.953125 0.359375 2.0 0.359375q1.59375 0 3.015625 -0.78125q1.421875 -0.78125 1.9375 -2.0625l4.609375 1.28125q-1.15625 2.390625 -3.703125 3.9375q-2.53125 1.546875 -6.0625 1.546875zm5.4375 -12.640625q-0.1875 -2.359375 -1.734375 -3.78125q-1.546875 -1.421875 -3.734375 -1.421875q-1.078125 0 -2.03125 0.375q-0.9375 0.375 -1.65625 1.0625q-0.71875 0.6875 -1.1875 1.640625q-0.453125 0.953125 -0.53125 2.125l10.875 0zm21.288086 -4.078125q-2.4375 0.03125 -4.359375 0.9375q-1.921875 0.890625 -2.765625 2.6875l0 12.6875l-5.359375 0l0 -20.953125l4.921875 0l0 4.46875q0.5625 -1.078125 1.3125 -1.9375q0.765625 -0.859375 1.640625 -1.5q0.890625 -0.640625 1.78125 -0.96875q0.90625 -0.34375 1.75 -0.34375q0.4375 0 0.65625 0q0.21875 0 0.421875 0.03125l0 4.890625z" fill-rule="nonzero"></path><path fill="#f4cccc" d="m7.5039372 340.46487l0 0c0 -16.1427 13.086239 -29.228943 29.228931 -29.228943l788.2823 0c7.752014 0 15.186523 3.0794678 20.66803 8.560944c5.4814453 5.4815063 8.560913 12.915985 8.560913 20.668l0 116.9122c0 16.1427 -13.086243 29.228943 -29.228943 29.228943l-788.2823 0c-16.142693 0 -29.228931 -13.086243 -29.228931 -29.228943z" fill-rule="evenodd"></path><path fill="#cc0000" d="m301.00723 410.82095l0 -28.40625l5.53125 0l0 28.40625l-5.53125 0zm19.611877 0.40625q-2.171875 0 -4.015625 -0.84375q-1.828125 -0.84375 -3.15625 -2.3125q-1.3125 -1.484375 -2.0625 -3.46875q-0.734375 -1.984375 -0.734375 -4.265625q0 -2.28125 0.703125 -4.234375q0.703125 -1.96875 1.9375 -3.4375q1.25 -1.484375 2.96875 -2.3125q1.71875 -0.84375 3.75 -0.84375q2.328125 0 4.1875 1.125q1.859375 1.109375 2.890625 2.90625l0 -11.921875l5.359375 0l0 23.046875q0 0.84375 0.28125 1.203125q0.28125 0.359375 0.96875 0.390625l0 4.5625q-1.40625 0.28125 -2.28125 0.28125q-1.4375 0 -2.359375 -0.71875q-0.921875 -0.71875 -1.046875 -1.875l-0.109375 -1.328125q-1.171875 2.0 -3.15625 3.03125q-1.96875 1.015625 -4.125 1.015625zm1.390625 -4.5625q0.765625 0 1.5625 -0.265625q0.796875 -0.265625 1.46875 -0.734375q0.6875 -0.484375 1.21875 -1.125q0.546875 -0.640625 0.828125 -1.40625l0 -5.0q-0.3125 -0.875 -0.890625 -1.609375q-0.578125 -0.75 -1.328125 -1.28125q-0.734375 -0.546875 -1.5625 -0.859375q-0.8125 -0.328125 -1.609375 -0.328125q-1.203125 0 -2.234375 0.53125q-1.015625 0.515625 -1.734375 1.421875q-0.71875 0.890625 -1.125 2.0625q-0.390625 1.15625 -0.390625 2.390625q0 1.3125 0.4375 2.4375q0.4375 1.125 1.203125 1.96875q0.765625 0.828125 1.8125 1.3125q1.0625 0.484375 2.34375 0.484375zm25.440582 4.5625q-2.515625 0 -4.5625 -0.859375q-2.03125 -0.859375 -3.46875 -2.34375q-1.4375 -1.484375 -2.21875 -3.4375q-0.78125 -1.96875 -0.78125 -4.125q0 -2.234375 0.75 -4.21875q0.765625 -1.984375 2.203125 -3.484375q1.4375 -1.5 3.5 -2.375q2.0625 -0.875 4.625 -0.875q2.5625 0 4.578125 0.875q2.015625 0.875 3.4375 2.359375q1.421875 1.484375 2.15625 3.4375q0.75 1.953125 0.75 4.078125q0 0.515625 -0.03125 1.0q-0.015625 0.484375 -0.09375 0.796875l-16.203125 0q0.125 1.25 0.59375 2.21875q0.484375 0.953125 1.25 1.640625q0.765625 0.671875 1.71875 1.03125q0.953125 0.359375 2.0 0.359375q1.59375 0 3.015625 -0.78125q1.421875 -0.78125 1.9375 -2.0625l4.609375 1.28125q-1.15625 2.390625 -3.703125 3.9375q-2.53125 1.546875 -6.0625 1.546875zm5.4375 -12.640625q-0.1875 -2.359375 -1.734375 -3.78125q-1.546875 -1.421875 -3.734375 -1.421875q-1.078125 0 -2.03125 0.375q-0.9375 0.375 -1.65625 1.0625q-0.71875 0.6875 -1.1875 1.640625q-0.453125 0.953125 -0.53125 2.125l10.875 0zm28.288116 12.234375l-5.359375 0l0 -11.765625q0 -2.515625 -0.890625 -3.671875q-0.875 -1.15625 -2.4375 -1.15625q-0.796875 0 -1.640625 0.328125q-0.828125 0.3125 -1.578125 0.890625q-0.734375 0.578125 -1.34375 1.375q-0.59375 0.796875 -0.875 1.765625l0 12.234375l-5.359375 0l0 -20.953125l4.84375 0l0 3.875q1.15625 -2.0 3.359375 -3.109375q2.203125 -1.125 4.953125 -1.125q1.96875 0 3.203125 0.71875q1.25 0.71875 1.921875 1.875q0.6875 1.15625 0.9375 2.640625q0.265625 1.484375 0.265625 3.0l0 13.078125zm17.238098 -1.078125q-1.078125 0.484375 -2.640625 0.96875q-1.5625 0.46875 -3.28125 0.46875q-1.125 0 -2.109375 -0.28125q-0.96875 -0.28125 -1.71875 -0.890625q-0.734375 -0.625 -1.171875 -1.609375q-0.4375 -0.984375 -0.4375 -2.375l0 -12.046875l-2.765625 0l0 -4.109375l2.765625 0l0 -6.8125l5.359375 0l0 6.8125l4.40625 0l0 4.109375l-4.40625 0l0 10.25q0 1.109375 0.578125 1.578125q0.578125 0.453125 1.421875 0.453125q0.84375 0 1.640625 -0.28125q0.796875 -0.28125 1.28125 -0.46875l1.078125 4.234375zm2.7974854 1.078125l0 -20.953125l5.359375 0l0 20.953125l-5.359375 0zm0 -23.875l0 -5.328125l5.359375 0l0 5.328125l-5.359375 0zm22.762482 22.796875q-1.078125 0.484375 -2.640625 0.96875q-1.5625 0.46875 -3.28125 0.46875q-1.125 0 -2.109375 -0.28125q-0.96875 -0.28125 -1.71875 -0.890625q-0.734375 -0.625 -1.171875 -1.609375q-0.4375 -0.984375 -0.4375 -2.375l0 -12.046875l-2.765625 0l0 -4.109375l2.765625 0l0 -6.8125l5.359375 0l0 6.8125l4.40625 0l0 4.109375l-4.40625 0l0 10.25q0 1.109375 0.578125 1.578125q0.578125 0.453125 1.421875 0.453125q0.84375 0 1.640625 -0.28125q0.796875 -0.28125 1.28125 -0.46875l1.078125 4.234375zm3.2349854 5.15625q0.6875 0.203125 1.328125 0.296875q0.640625 0.109375 1.078125 0.109375q0.515625 0 0.953125 -0.203125q0.453125 -0.203125 0.8125 -0.703125q0.359375 -0.5 0.71875 -1.390625q0.359375 -0.875 0.75 -2.1875l-8.28125 -20.953125l5.53125 0l5.671875 16.3125l5.046875 -16.3125l5.03125 0l-8.796875 25.109375q-0.765625 2.203125 -2.609375 3.59375q-1.828125 1.40625 -4.546875 1.40625q-0.640625 0 -1.3125 -0.109375q-0.65625 -0.09375 -1.375 -0.328125l0 -4.640625zm31.6781 -4.078125l0 -28.40625l5.53125 0l0 23.5625l14.46875 0l0 4.84375l-20.0 0zm28.56311 0.40625q-1.515625 0 -2.84375 -0.5q-1.3125 -0.5 -2.28125 -1.40625q-0.953125 -0.90625 -1.5 -2.09375q-0.53125 -1.203125 -0.53125 -2.640625q0 -1.484375 0.65625 -2.734375q0.65625 -1.265625 1.84375 -2.140625q1.1875 -0.890625 2.8125 -1.390625q1.640625 -0.5 3.609375 -0.5q1.390625 0 2.734375 0.25q1.34375 0.234375 2.390625 0.671875l0 -1.203125q0 -2.078125 -1.1875 -3.1875q-1.171875 -1.125 -3.5 -1.125q-1.671875 0 -3.28125 0.59375q-1.59375 0.59375 -3.28125 1.765625l-1.640625 -3.40625q4.046875 -2.671875 8.71875 -2.671875q4.53125 0 7.03125 2.21875q2.5 2.21875 2.5 6.40625l0 6.53125q0 0.84375 0.296875 1.203125q0.296875 0.359375 0.984375 0.390625l0 4.5625q-1.375 0.28125 -2.375 0.28125q-1.515625 0 -2.34375 -0.671875q-0.8125 -0.6875 -1.015625 -1.8125l-0.109375 -1.15625q-1.40625 1.84375 -3.40625 2.8125q-2.0 0.953125 -4.28125 0.953125zm1.53125 -3.921875q1.359375 0 2.578125 -0.484375q1.21875 -0.484375 1.890625 -1.28125q0.890625 -0.671875 0.890625 -1.515625l0 -2.40625q-0.96875 -0.359375 -2.09375 -0.578125q-1.109375 -0.21875 -2.15625 -0.21875q-2.078125 0 -3.40625 0.9375q-1.3125 0.9375 -1.3125 2.375q0 1.375 1.03125 2.28125q1.046875 0.890625 2.578125 0.890625zm16.147491 7.59375q0.6875 0.203125 1.328125 0.296875q0.640625 0.109375 1.078125 0.109375q0.515625 0 0.953125 -0.203125q0.453125 -0.203125 0.8125 -0.703125q0.359375 -0.5 0.71875 -1.390625q0.359375 -0.875 0.75 -2.1875l-8.28125 -20.953125l5.53125 0l5.6719055 16.3125l5.046875 -16.3125l5.03125 0l-8.796875 25.109375q-0.765625 2.203125 -2.609375 3.59375q-1.8281555 1.40625 -4.5469055 1.40625q-0.640625 0 -1.3125 -0.109375q-0.65625 -0.09375 -1.375 -0.328125l0 -4.640625zm31.28122 -3.671875q-2.515625 0 -4.5625 -0.859375q-2.03125 -0.859375 -3.46875 -2.34375q-1.4375 -1.484375 -2.21875 -3.4375q-0.78125 -1.96875 -0.78125 -4.125q0 -2.234375 0.75 -4.21875q0.765625 -1.984375 2.203125 -3.484375q1.4375 -1.5 3.5 -2.375q2.0625 -0.875 4.625 -0.875q2.5625 0 4.578125 0.875q2.015625 0.875 3.4375 2.359375q1.421875 1.484375 2.15625 3.4375q0.75 1.953125 0.75 4.078125q0 0.515625 -0.03125 1.0q-0.015625 0.484375 -0.09375 0.796875l-16.203125 0q0.125 1.25 0.59375 2.21875q0.484375 0.953125 1.25 1.640625q0.765625 0.671875 1.71875 1.03125q0.953125 0.359375 2.0 0.359375q1.59375 0 3.015625 -0.78125q1.421875 -0.78125 1.9375 -2.0625l4.609375 1.28125q-1.15625 2.390625 -3.703125 3.9375q-2.53125 1.546875 -6.0625 1.546875zm5.4375 -12.640625q-0.1875 -2.359375 -1.734375 -3.78125q-1.546875 -1.421875 -3.734375 -1.421875q-1.078125 0 -2.03125 0.375q-0.9375 0.375 -1.65625 1.0625q-0.71875 0.6875 -1.1875 1.640625q-0.453125 0.953125 -0.53125 2.125l10.875 0zm21.288147 -4.078125q-2.4375 0.03125 -4.359375 0.9375q-1.921875 0.890625 -2.765625 2.6875l0 12.6875l-5.359375 0l0 -20.953125l4.921875 0l0 4.46875q0.5625 -1.078125 1.3125 -1.9375q0.765625 -0.859375 1.640625 -1.5q0.890625 -0.640625 1.78125 -0.96875q0.90625 -0.34375 1.75 -0.34375q0.4375 0 0.65625 0q0.21875 0 0.421875 0.03125l0 4.890625z" fill-rule="nonzero"></path><path fill="#000000" fill-opacity="0.0" d="m7.5039372 -12.666667l846.7401 0l0 510.51968l-846.7401 0z" fill-rule="evenodd"></path><path fill="#434343" d="m123.55072 14.327081l4.875 0l10.796875 28.40625l-5.671875 0l-2.640625 -7.078125l-9.921875 0l-2.609375 7.078125l-5.671875 0l10.84375 -28.40625zm6.359375 17.453125l-3.921875 -11.171875l-4.078125 11.171875l8.0 0zm11.879974 -18.25l5.359375 0l0 22.484375q0 1.15625 0.546875 1.796875q0.5625 0.640625 1.609375 0.640625q0.484375 0 1.0625 -0.15625q0.578125 -0.15625 1.09375 -0.40625l0.71875 4.078125q-1.078125 0.53125 -2.515625 0.796875q-1.4375 0.28125 -2.59375 0.28125q-2.53125 0 -3.90625 -1.328125q-1.375 -1.34375 -1.375 -3.828125l0 -24.359375zm12.711243 29.203125l0 -20.953123l5.359375 0l0 20.953123l-5.359375 0zm0 -23.874998l0 -5.328126l5.359375 0l0 5.328126l-5.359375 0zm8.887497 13.390623q0 -2.203123 0.75 -4.156248q0.765625 -1.953125 2.203125 -3.4375q1.4375 -1.484375 3.46875 -2.359375q2.046875 -0.875 4.609375 -0.875q3.4375 0 5.859375 1.484375q2.421875 1.46875 3.625 3.875l-5.234375 1.59375q-0.6875 -1.15625 -1.8125 -1.78125q-1.109375 -0.625 -2.46875 -0.625q-1.171875 0 -2.171875 0.46875q-1.0 0.453125 -1.734375 1.28125q-0.734375 0.8125 -1.15625 1.984375q-0.421875 1.15625 -0.421875 2.546873q0 1.40625 0.4375 2.5625q0.4375 1.15625 1.171875 2.0q0.75 0.84375 1.75 1.3125q1.0 0.453125 2.125 0.453125q1.4375 0 2.65625 -0.71875q1.21875 -0.71875 1.703125 -1.765625l5.234375 1.59375q-1.078125 2.40625 -3.5625 3.9375q-2.46875 1.515625 -5.953125 1.515625q-2.5625 0 -4.609375 -0.875q-2.03125 -0.890625 -3.46875 -2.390625q-1.4375 -1.5 -2.21875 -3.46875q-0.78125 -1.984375 -0.78125 -4.15625zm33.591232 10.890625q-2.515625 0 -4.5625 -0.859375q-2.03125 -0.859375 -3.46875 -2.34375q-1.4375 -1.484375 -2.21875 -3.4375q-0.78125 -1.96875 -0.78125 -4.125q0 -2.234373 0.75 -4.218748q0.765625 -1.984375 2.203125 -3.484375q1.4375 -1.5 3.5 -2.375q2.0625 -0.875 4.625 -0.875q2.5625 0 4.578125 0.875q2.015625 0.875 3.4375 2.359375q1.421875 1.484375 2.15625 3.4375q0.75 1.953125 0.75 4.078123q0 0.515625 -0.03125 1.0q-0.015625 0.484375 -0.09375 0.796875l-16.203125 0q0.125 1.25 0.59375 2.21875q0.484375 0.953125 1.25 1.640625q0.765625 0.671875 1.71875 1.03125q0.953125 0.359375 2.0 0.359375q1.59375 0 3.015625 -0.78125q1.421875 -0.78125 1.9375 -2.0625l4.609375 1.28125q-1.15625 2.390625 -3.703125 3.9375q-2.53125 1.546875 -6.0625 1.546875zm5.4375 -12.640623q-0.1875 -2.359375 -1.734375 -3.78125q-1.546875 -1.421875 -3.734375 -1.421875q-1.078125 0 -2.03125 0.375q-0.9375 0.375 -1.65625 1.0625q-0.71875 0.6875 -1.1875 1.640625q-0.453125 0.953125 -0.53125 2.125l10.875 0z" fill-rule="nonzero"></path><path fill="#000000" fill-opacity="0.0" d="m571.34644 -12.666667l290.89764 0l0 83.1811l-290.89764 0z" fill-rule="evenodd"></path><path fill="#434343" d="m704.2391 35.42083q0 1.796875 -0.71875 3.15625q-0.71875 1.359375 -1.984375 2.28125q-1.265625 0.921875 -2.921875 1.40625q-1.65625 0.46875 -3.53125 0.46875l-13.734375 0l0 -28.40625l15.203125 0q1.484375 0 2.6875 0.640625q1.203125 0.640625 2.03125 1.671876q0.84375 1.015625 1.296875 2.3125q0.46875 1.296875 0.46875 2.625q0 2.078125 -1.046875 3.90625q-1.03125 1.8125 -3.03125 2.6875q2.4375 0.71875 3.859375 2.578125q1.421875 1.8593731 1.421875 4.671873zm-5.5625 -1.046875q0 -0.765625 -0.265625 -1.453125q-0.25 -0.703125 -0.703125 -1.2187481q-0.4375 -0.53125 -1.03125 -0.828125q-0.59375 -0.296875 -1.328125 -0.296875l-8.46875 0l0 7.468748l8.203125 0q0.75 0 1.40625 -0.265625q0.671875 -0.28125 1.140625 -0.78125q0.484375 -0.5 0.765625 -1.171875q0.28125 -0.6875 0.28125 -1.453125zm-11.796875 -15.328123l0 7.171875l7.359375 0q1.390625 0 2.375 -0.953125q0.984375 -0.96875 0.984375 -2.65625q0 -1.640625 -0.90625 -2.59375q-0.890625 -0.96875 -2.21875 -0.96875l-7.59375 0zm30.840576 24.093748q-2.5625 0 -4.609375 -0.875q-2.03125 -0.890625 -3.453125 -2.390625q-1.421875 -1.5 -2.1875 -3.453125q-0.75 -1.96875 -0.75 -4.125q0 -2.203123 0.75 -4.156248q0.765625 -1.96875 2.1875 -3.46875q1.421875 -1.5 3.453125 -2.375q2.046875 -0.875 4.609375 -0.875q2.5625 0 4.578125 0.875q2.015625 0.875 3.4375 2.375q1.421875 1.5 2.171875 3.46875q0.765625 1.953125 0.765625 4.156248q0 2.15625 -0.765625 4.125q-0.75 1.953125 -2.15625 3.453125q-1.390625 1.5 -3.4375 2.390625q-2.03125 0.875 -4.59375 0.875zm-5.484375 -10.84375q0 1.390625 0.421875 2.53125q0.421875 1.140625 1.15625 1.984375q0.734375 0.84375 1.734375 1.3125q1.0 0.453125 2.171875 0.453125q1.15625 0 2.15625 -0.453125q1.0 -0.46875 1.734375 -1.3125q0.75 -0.84375 1.15625 -2.0q0.421875 -1.15625 0.421875 -2.5625q0 -1.3593731 -0.421875 -2.515623q-0.40625 -1.15625 -1.15625 -2.0q-0.734375 -0.84375 -1.734375 -1.296875q-1.0 -0.46875 -2.15625 -0.46875q-1.171875 0 -2.171875 0.484375q-1.0 0.484375 -1.734375 1.328125q-0.734375 0.828125 -1.15625 2.0q-0.421875 1.15625 -0.421875 2.515623zm31.95874 10.84375q-2.40625 0 -4.28125 -1.078125q-1.875 -1.09375 -2.953125 -2.96875l0 3.640625l-4.6875 0l0 -29.203125l5.359375 0l0 11.921876q1.125 -1.921875 2.9375 -2.96875q1.828125 -1.0625 4.265625 -1.0625q2.046875 0 3.71875 0.875q1.6875 0.875 2.90625 2.359375q1.21875 1.484375 1.875 3.484375q0.65625 2.0 0.65625 4.187498q0 2.28125 -0.734375 4.25q-0.734375 1.953125 -2.0625 3.421875q-1.3125 1.453125 -3.125 2.296875q-1.796875 0.84375 -3.875 0.84375zm-1.484375 -4.5625q1.28125 0 2.359375 -0.5q1.078125 -0.5 1.84375 -1.34375q0.765625 -0.84375 1.1875 -1.953125q0.421875 -1.125 0.421875 -2.40625q0 -1.2812481 -0.40625 -2.437498q-0.40625 -1.15625 -1.140625 -2.03125q-0.734375 -0.890625 -1.734375 -1.40625q-1.0 -0.53125 -2.203125 -0.53125q-1.796875 0 -3.21875 1.1875q-1.421875 1.171875 -2.1875 2.890625l0 4.999998q0.28125 0.8125 0.8125 1.453125q0.546875 0.640625 1.21875 1.09375q0.6875 0.453125 1.484375 0.71875q0.8125 0.265625 1.5625 0.265625z" fill-rule="nonzero"></path><path fill="#ea9999" d="m69.850395 357.75986c0 7.577606 33.624474 13.720459 75.10236 13.720459c41.47789 0 75.102356 -6.142853 75.102356 -13.720459l0 82.322815c0 7.577606 -33.624466 13.7204895 -75.102356 13.7204895c-41.47789 0 -75.10236 -6.1428833 -75.10236 -13.7204895z" fill-rule="evenodd"></path><path fill="#f2c1c1" d="m69.850395 357.75986c0 -7.5776367 33.624474 -13.7204895 75.10236 -13.7204895c41.47789 0 75.102356 6.142853 75.102356 13.7204895l0 0c0 7.577606 -33.624466 13.720459 -75.102356 13.720459c-41.47789 0 -75.10236 -6.142853 -75.10236 -13.720459z" fill-rule="evenodd"></path><path fill="#000000" fill-opacity="0.0" d="m220.05511 357.75986l0 0c0 7.577606 -33.624466 13.720459 -75.102356 13.720459c-41.47789 0 -75.10236 -6.142853 -75.10236 -13.720459c0 -7.5776367 33.624474 -13.7204895 75.10236 -13.7204895c41.47789 0 75.102356 6.142853 75.102356 13.7204895l0 82.322815c0 7.577606 -33.624466 13.7204895 -75.102356 13.7204895c-41.47789 0 -75.10236 -6.1428833 -75.10236 -13.7204895l0 -82.322815" fill-rule="evenodd"></path><path stroke="#cc0000" stroke-width="3.0" stroke-linejoin="round" stroke-linecap="butt" d="m220.05511 357.75986l0 0c0 7.577606 -33.624466 13.720459 -75.102356 13.720459c-41.47789 0 -75.10236 -6.142853 -75.10236 -13.720459c0 -7.5776367 33.624474 -13.7204895 75.10236 -13.7204895c41.47789 0 75.102356 6.142853 75.102356 13.7204895l0 82.322815c0 7.577606 -33.624466 13.7204895 -75.102356 13.7204895c-41.47789 0 -75.10236 -6.1428833 -75.10236 -13.7204895l0 -82.322815" fill-rule="evenodd"></path><path fill="#cc0000" d="m110.714905 400.73587q-0.21875 -0.21875 -0.8125 -0.609375q-0.59375 -0.390625 -1.453125 -0.75q-0.84375 -0.375 -1.84375 -0.625q-0.984375 -0.265625 -2.0 -0.265625q-1.828125 0 -2.734375 0.6875q-0.890625 0.671875 -0.890625 1.875q0 0.703125 0.328125 1.171875q0.34375 0.46875 0.984375 0.828125q0.640625 0.34375 1.609375 0.640625q0.984375 0.28125 2.265625 0.59375q1.671875 0.453125 3.03125 0.96875q1.359375 0.5 2.296875 1.28125q0.9375 0.765625 1.453125 1.84375q0.515625 1.0625 0.515625 2.625q0 1.828125 -0.6875 3.125q-0.6875 1.296875 -1.859375 2.09375q-1.171875 0.796875 -2.6875 1.171875q-1.515625 0.359375 -3.1875 0.359375q-2.546875 0 -5.046875 -0.765625q-2.5 -0.765625 -4.484375 -2.171875l1.953125 -3.8125q0.28125 0.296875 1.03125 0.765625q0.765625 0.453125 1.78125 0.921875q1.03125 0.453125 2.265625 0.78125q1.25 0.3125 2.5625 0.3125q3.65625 0 3.65625 -2.328125q0 -0.734375 -0.421875 -1.25q-0.40625 -0.515625 -1.1875 -0.890625q-0.765625 -0.390625 -1.859375 -0.703125q-1.078125 -0.328125 -2.421875 -0.703125q-1.625 -0.453125 -2.828125 -0.984375q-1.203125 -0.53125 -2.0 -1.25q-0.796875 -0.71875 -1.203125 -1.65625q-0.40625 -0.953125 -0.40625 -2.265625q0 -1.71875 0.640625 -3.0625q0.640625 -1.34375 1.78125 -2.234375q1.140625 -0.90625 2.640625 -1.359375q1.5 -0.46875 3.234375 -0.46875q2.390625 0 4.40625 0.75q2.03125 0.75 3.53125 1.765625l-1.953125 3.59375zm13.444168 17.078125q-2.015625 0 -3.65625 -0.6875q-1.625 -0.6875 -2.78125 -1.859375q-1.15625 -1.1875 -1.78125 -2.75q-0.625 -1.578125 -0.625 -3.296875q0 -1.796875 0.609375 -3.375q0.609375 -1.59375 1.765625 -2.78125q1.15625 -1.203125 2.796875 -1.90625q1.65625 -0.71875 3.703125 -0.71875q2.046875 0 3.65625 0.71875q1.625 0.703125 2.75 1.890625q1.140625 1.171875 1.734375 2.75q0.59375 1.5625 0.59375 3.25q0 0.421875 -0.015625 0.8125q-0.015625 0.375 -0.078125 0.625l-12.96875 0q0.09375 1.0 0.46875 1.765625q0.390625 0.765625 1.0 1.3125q0.609375 0.546875 1.375 0.84375q0.78125 0.28125 1.609375 0.28125q1.28125 0 2.40625 -0.625q1.140625 -0.625 1.5625 -1.65625l3.671875 1.03125q-0.921875 1.921875 -2.953125 3.15625q-2.03125 1.21875 -4.84375 1.21875zm4.34375 -10.109375q-0.15625 -1.890625 -1.390625 -3.015625q-1.234375 -1.140625 -2.984375 -1.140625q-0.875 0 -1.625 0.3125q-0.75 0.296875 -1.328125 0.84375q-0.578125 0.546875 -0.953125 1.3125q-0.359375 0.765625 -0.421875 1.6875l8.703125 0zm17.02742 -3.265625q-1.953125 0.03125 -3.5 0.765625q-1.53125 0.71875 -2.203125 2.15625l0 10.140625l-4.28125 0l0 -16.765625l3.9375 0l0 3.578125q0.453125 -0.859375 1.046875 -1.546875q0.609375 -0.6875 1.3125 -1.203125q0.703125 -0.515625 1.421875 -0.78125q0.734375 -0.265625 1.40625 -0.265625q0.34375 0 0.515625 0q0.1875 0 0.34375 0.03125l0 3.890625zm6.915268 13.0625l-6.1875 -16.765625l4.421875 0l4.25 13.28125l4.296875 -13.28125l4.03125 0l-6.171875 16.765625l-4.640625 0zm20.833664 0.3125q-2.015625 0 -3.65625 -0.6875q-1.625 -0.6875 -2.78125 -1.859375q-1.15625 -1.1875 -1.78125 -2.75q-0.625 -1.578125 -0.625 -3.296875q0 -1.796875 0.609375 -3.375q0.609375 -1.59375 1.765625 -2.78125q1.15625 -1.203125 2.796875 -1.90625q1.65625 -0.71875 3.703125 -0.71875q2.046875 0 3.65625 0.71875q1.625 0.703125 2.75 1.890625q1.140625 1.171875 1.734375 2.75q0.59375 1.5625 0.59375 3.25q0 0.421875 -0.015625 0.8125q-0.015625 0.375 -0.078125 0.625l-12.96875 0q0.09375 1.0 0.46875 1.765625q0.390625 0.765625 1.0 1.3125q0.609375 0.546875 1.375 0.84375q0.78125 0.28125 1.609375 0.28125q1.28125 0 2.40625 -0.625q1.140625 -0.625 1.5625 -1.65625l3.671875 1.03125q-0.921875 1.921875 -2.953125 3.15625q-2.03125 1.21875 -4.84375 1.21875zm4.34375 -10.109375q-0.15625 -1.890625 -1.390625 -3.015625q-1.234375 -1.140625 -2.984375 -1.140625q-0.875 0 -1.625 0.3125q-0.75 0.296875 -1.328125 0.84375q-0.578125 0.546875 -0.953125 1.3125q-0.359375 0.765625 -0.421875 1.6875l8.703125 0zm17.02742 -3.265625q-1.953125 0.03125 -3.5 0.765625q-1.53125 0.71875 -2.203125 2.15625l0 10.140625l-4.28125 0l0 -16.765625l3.9375 0l0 3.578125q0.453125 -0.859375 1.046875 -1.546875q0.609375 -0.6875 1.3125 -1.203125q0.703125 -0.515625 1.421875 -0.78125q0.734375 -0.265625 1.40625 -0.265625q0.34375 0 0.515625 0q0.1875 0 0.34375 0.03125l0 3.890625z" fill-rule="nonzero"></path><path fill="#c9daf8" d="m83.63331 138.7454l122.76377 0l0 82.32283l-122.76377 0z" fill-rule="evenodd"></path><path fill="#a0aec6" d="m206.39708 138.7454l27.440948 -27.440948l0 82.322845l-27.440948 27.440933z" fill-rule="evenodd"></path><path fill="#d3e1f9" d="m83.63331 138.7454l27.44094 -27.440948l122.76378 0l-27.440948 27.440948z" fill-rule="evenodd"></path><path fill="#000000" fill-opacity="0.0" d="m83.63331 138.7454l27.44094 -27.440948l122.76378 0l0 82.322845l-27.440948 27.440933l-122.76377 0zm0 0l122.76377 0l27.440948 -27.440948m-27.440948 27.440948l0 82.32283" fill-rule="evenodd"></path><path stroke="#1155cc" stroke-width="3.0" stroke-linejoin="round" stroke-linecap="butt" d="m83.63331 138.7454l27.44094 -27.440948l122.76378 0l0 82.322845l-27.440948 27.440933l-122.76377 0zm0 0l122.76377 0l27.440948 -27.440948m-27.440948 27.440948l0 82.32283" fill-rule="evenodd"></path><path fill="#1155cc" d="m100.47948 180.11119q0 -2.078125 0.75 -4.109375q0.765625 -2.03125 2.203125 -3.625q1.4375 -1.609375 3.515625 -2.59375q2.078125 -1.0 4.734375 -1.0q3.140625 0 5.421875 1.375q2.296875 1.375 3.421875 3.578125l-3.40625 2.34375q-0.4375 -0.96875 -1.078125 -1.625q-0.640625 -0.65625 -1.375 -1.03125q-0.734375 -0.390625 -1.546875 -0.5625q-0.796875 -0.171875 -1.5625 -0.171875q-1.65625 0 -2.890625 0.671875q-1.234375 0.671875 -2.0625 1.75q-0.8125 1.0625 -1.234375 2.421875q-0.40625 1.359375 -0.40625 2.703125q0 1.5 0.484375 2.890625q0.484375 1.390625 1.359375 2.453125q0.875 1.0625 2.109375 1.703125q1.234375 0.625 2.703125 0.625q0.765625 0 1.59375 -0.1875q0.84375 -0.1875 1.59375 -0.59375q0.75 -0.421875 1.390625 -1.078125q0.640625 -0.65625 1.03125 -1.59375l3.609375 2.078125q-0.546875 1.28125 -1.5625 2.265625q-1.0 0.96875 -2.265625 1.640625q-1.265625 0.671875 -2.703125 1.03125q-1.4375 0.34375 -2.8125 0.34375q-2.4375 0 -4.453125 -1.015625q-2.015625 -1.03125 -3.46875 -2.671875q-1.453125 -1.65625 -2.28125 -3.75q-0.8125 -2.09375 -0.8125 -4.265625zm22.889542 -11.84375l4.28125 0l0 17.984375q0 0.921875 0.453125 1.4375q0.453125 0.515625 1.28125 0.515625q0.375 0 0.84375 -0.125q0.46875 -0.140625 0.875 -0.328125l0.578125 3.265625q-0.859375 0.421875 -2.015625 0.640625q-1.140625 0.21875 -2.078125 0.21875q-2.015625 0 -3.125 -1.0625q-1.09375 -1.078125 -1.09375 -3.0625l0 -19.484375zm10.175278 23.359375l0 -16.765625l4.28125 0l0 16.765625l-4.28125 0zm0 -19.109375l0 -4.25l4.28125 0l0 4.25l-4.28125 0zm15.941269 19.421875q-2.015625 0 -3.65625 -0.6875q-1.625 -0.6875 -2.78125 -1.859375q-1.15625 -1.1875 -1.78125 -2.75q-0.625 -1.578125 -0.625 -3.296875q0 -1.796875 0.609375 -3.375q0.609375 -1.59375 1.765625 -2.78125q1.15625 -1.203125 2.796875 -1.90625q1.65625 -0.71875 3.703125 -0.71875q2.046875 0 3.65625 0.71875q1.625 0.703125 2.75 1.890625q1.140625 1.171875 1.734375 2.75q0.59375 1.5625 0.59375 3.25q0 0.421875 -0.015625 0.8125q-0.015625 0.375 -0.078125 0.625l-12.96875 0q0.09375 1.0 0.46875 1.765625q0.390625 0.765625 1.0 1.3125q0.609375 0.546875 1.375 0.84375q0.78125 0.28125 1.609375 0.28125q1.28125 0 2.40625 -0.625q1.140625 -0.625 1.5625 -1.65625l3.671875 1.03125q-0.921875 1.921875 -2.953125 3.15625q-2.03125 1.21875 -4.84375 1.21875zm4.34375 -10.109375q-0.15625 -1.890625 -1.390625 -3.015625q-1.234375 -1.140625 -2.984375 -1.140625q-0.875 0 -1.625 0.3125q-0.75 0.296875 -1.328125 0.84375q-0.578125 0.546875 -0.953125 1.3125q-0.359375 0.765625 -0.421875 1.6875l8.703125 0zm22.62117 9.796875l-4.28125 0l0 -9.40625q0 -2.015625 -0.703125 -2.9375q-0.703125 -0.9375 -1.953125 -0.9375q-0.640625 0 -1.3125 0.265625q-0.671875 0.25 -1.265625 0.71875q-0.59375 0.453125 -1.078125 1.09375q-0.46875 0.640625 -0.703125 1.40625l0 9.796875l-4.28125 0l0 -16.765625l3.875 0l0 3.109375q0.921875 -1.609375 2.671875 -2.5q1.765625 -0.90625 3.984375 -0.90625q1.5625 0 2.546875 0.578125q1.0 0.578125 1.546875 1.515625q0.546875 0.921875 0.75 2.109375q0.203125 1.171875 0.203125 2.390625l0 10.46875zm13.796783 -0.859375q-0.859375 0.375 -2.109375 0.765625q-1.25 0.375 -2.625 0.375q-0.890625 0 -1.6875 -0.21875q-0.78125 -0.21875 -1.375 -0.71875q-0.59375 -0.5 -0.953125 -1.28125q-0.34375 -0.78125 -0.34375 -1.90625l0 -9.625l-2.203125 0l0 -3.296875l2.203125 0l0 -5.4375l4.296875 0l0 5.4375l3.515625 0l0 3.296875l-3.515625 0l0 8.1875q0 0.890625 0.453125 1.265625q0.46875 0.375 1.140625 0.375q0.671875 0 1.3125 -0.21875q0.640625 -0.234375 1.03125 -0.390625l0.859375 3.390625z" fill-rule="nonzero"></path><path fill="#ea9999" d="m641.69293 357.75986c0 7.577606 33.62445 13.720459 75.102356 13.720459c41.477905 0 75.102356 -6.142853 75.102356 -13.720459l0 82.322815c0 7.577606 -33.62445 13.7204895 -75.102356 13.7204895c-41.477905 0 -75.102356 -6.1428833 -75.102356 -13.7204895z" fill-rule="evenodd"></path><path fill="#f2c1c1" d="m641.69293 357.75986c0 -7.5776367 33.62445 -13.7204895 75.102356 -13.7204895c41.477905 0 75.102356 6.142853 75.102356 13.7204895l0 0c0 7.577606 -33.62445 13.720459 -75.102356 13.720459c-41.477905 0 -75.102356 -6.142853 -75.102356 -13.720459z" fill-rule="evenodd"></path><path fill="#000000" fill-opacity="0.0" d="m791.89764 357.75986l0 0c0 7.577606 -33.62445 13.720459 -75.102356 13.720459c-41.477905 0 -75.102356 -6.142853 -75.102356 -13.720459c0 -7.5776367 33.62445 -13.7204895 75.102356 -13.7204895c41.477905 0 75.102356 6.142853 75.102356 13.7204895l0 82.322815c0 7.577606 -33.62445 13.7204895 -75.102356 13.7204895c-41.477905 0 -75.102356 -6.1428833 -75.102356 -13.7204895l0 -82.322815" fill-rule="evenodd"></path><path stroke="#cc0000" stroke-width="3.0" stroke-linejoin="round" stroke-linecap="butt" d="m791.89764 357.75986l0 0c0 7.577606 -33.62445 13.720459 -75.102356 13.720459c-41.477905 0 -75.102356 -6.142853 -75.102356 -13.720459c0 -7.5776367 33.62445 -13.7204895 75.102356 -13.7204895c41.477905 0 75.102356 6.142853 75.102356 13.7204895l0 82.322815c0 7.577606 -33.62445 13.7204895 -75.102356 13.7204895c-41.477905 0 -75.102356 -6.1428833 -75.102356 -13.7204895l0 -82.322815" fill-rule="evenodd"></path><path fill="#cc0000" d="m682.55743 400.73587q-0.21875 -0.21875 -0.8125 -0.609375q-0.59375 -0.390625 -1.453125 -0.75q-0.84375 -0.375 -1.84375 -0.625q-0.984375 -0.265625 -2.0 -0.265625q-1.828125 0 -2.734375 0.6875q-0.890625 0.671875 -0.890625 1.875q0 0.703125 0.328125 1.171875q0.34375 0.46875 0.984375 0.828125q0.640625 0.34375 1.609375 0.640625q0.984375 0.28125 2.265625 0.59375q1.671875 0.453125 3.03125 0.96875q1.359375 0.5 2.296875 1.28125q0.9375 0.765625 1.453125 1.84375q0.515625 1.0625 0.515625 2.625q0 1.828125 -0.6875 3.125q-0.6875 1.296875 -1.859375 2.09375q-1.171875 0.796875 -2.6875 1.171875q-1.515625 0.359375 -3.1875 0.359375q-2.546875 0 -5.046875 -0.765625q-2.5 -0.765625 -4.484375 -2.171875l1.953125 -3.8125q0.28125 0.296875 1.03125 0.765625q0.765625 0.453125 1.78125 0.921875q1.03125 0.453125 2.265625 0.78125q1.25 0.3125 2.5625 0.3125q3.65625 0 3.65625 -2.328125q0 -0.734375 -0.421875 -1.25q-0.40625 -0.515625 -1.1875 -0.890625q-0.765625 -0.390625 -1.859375 -0.703125q-1.078125 -0.328125 -2.421875 -0.703125q-1.625 -0.453125 -2.828125 -0.984375q-1.203125 -0.53125 -2.0 -1.25q-0.796875 -0.71875 -1.203125 -1.65625q-0.40625 -0.953125 -0.40625 -2.265625q0 -1.71875 0.640625 -3.0625q0.640625 -1.34375 1.78125 -2.234375q1.140625 -0.90625 2.640625 -1.359375q1.5 -0.46875 3.234375 -0.46875q2.390625 0 4.40625 0.75q2.03125 0.75 3.53125 1.765625l-1.953125 3.59375zm13.444153 17.078125q-2.015625 0 -3.65625 -0.6875q-1.625 -0.6875 -2.78125 -1.859375q-1.15625 -1.1875 -1.78125 -2.75q-0.625 -1.578125 -0.625 -3.296875q0 -1.796875 0.609375 -3.375q0.609375 -1.59375 1.765625 -2.78125q1.15625 -1.203125 2.796875 -1.90625q1.65625 -0.71875 3.703125 -0.71875q2.046875 0 3.65625 0.71875q1.625 0.703125 2.75 1.890625q1.140625 1.171875 1.734375 2.75q0.59375 1.5625 0.59375 3.25q0 0.421875 -0.015625 0.8125q-0.015625 0.375 -0.078125 0.625l-12.96875 0q0.09375 1.0 0.46875 1.765625q0.390625 0.765625 1.0 1.3125q0.609375 0.546875 1.375 0.84375q0.78125 0.28125 1.609375 0.28125q1.28125 0 2.40625 -0.625q1.140625 -0.625 1.5625 -1.65625l3.671875 1.03125q-0.921875 1.921875 -2.953125 3.15625q-2.03125 1.21875 -4.84375 1.21875zm4.34375 -10.109375q-0.15625 -1.890625 -1.390625 -3.015625q-1.234375 -1.140625 -2.984375 -1.140625q-0.875 0 -1.625 0.3125q-0.75 0.296875 -1.328125 0.84375q-0.578125 0.546875 -0.953125 1.3125q-0.359375 0.765625 -0.421875 1.6875l8.703125 0zm17.027405 -3.265625q-1.953125 0.03125 -3.5 0.765625q-1.53125 0.71875 -2.203125 2.15625l0 10.140625l-4.28125 0l0 -16.765625l3.9375 0l0 3.578125q0.453125 -0.859375 1.046875 -1.546875q0.609375 -0.6875 1.3125 -1.203125q0.703125 -0.515625 1.421875 -0.78125q0.734375 -0.265625 1.40625 -0.265625q0.34375 0 0.515625 0q0.1875 0 0.34375 0.03125l0 3.890625zm6.915283 13.0625l-6.1875 -16.765625l4.421875 0l4.25 13.28125l4.296875 -13.28125l4.03125 0l-6.171875 16.765625l-4.640625 0zm20.83368 0.3125q-2.015625 0 -3.65625 -0.6875q-1.625 -0.6875 -2.78125 -1.859375q-1.15625 -1.1875 -1.78125 -2.75q-0.625 -1.578125 -0.625 -3.296875q0 -1.796875 0.609375 -3.375q0.609375 -1.59375 1.765625 -2.78125q1.15625 -1.203125 2.796875 -1.90625q1.65625 -0.71875 3.703125 -0.71875q2.046875 0 3.65625 0.71875q1.625 0.703125 2.75 1.890625q1.140625 1.171875 1.734375 2.75q0.59375 1.5625 0.59375 3.25q0 0.421875 -0.015625 0.8125q-0.015625 0.375 -0.078125 0.625l-12.96875 0q0.09375 1.0 0.46875 1.765625q0.390625 0.765625 1.0 1.3125q0.609375 0.546875 1.375 0.84375q0.78125 0.28125 1.609375 0.28125q1.28125 0 2.40625 -0.625q1.140625 -0.625 1.5625 -1.65625l3.671875 1.03125q-0.921875 1.921875 -2.953125 3.15625q-2.03125 1.21875 -4.84375 1.21875zm4.34375 -10.109375q-0.15625 -1.890625 -1.390625 -3.015625q-1.234375 -1.140625 -2.984375 -1.140625q-0.875 0 -1.625 0.3125q-0.75 0.296875 -1.328125 0.84375q-0.578125 0.546875 -0.953125 1.3125q-0.359375 0.765625 -0.421875 1.6875l8.703125 0zm17.027405 -3.265625q-1.953125 0.03125 -3.5 0.765625q-1.53125 0.71875 -2.203125 2.15625l0 10.140625l-4.28125 0l0 -16.765625l3.9375 0l0 3.578125q0.453125 -0.859375 1.046875 -1.546875q0.609375 -0.6875 1.3125 -1.203125q0.703125 -0.515625 1.421875 -0.78125q0.734375 -0.265625 1.40625 -0.265625q0.34375 0 0.515625 0q0.1875 0 0.34375 0.03125l0 3.890625z" fill-rule="nonzero"></path><path fill="#c9daf8" d="m641.69293 125.02493c0 7.577606 33.62445 13.720474 75.102356 13.720474c41.477905 0 75.102356 -6.142868 75.102356 -13.720474l0 82.32283c0 7.577606 -33.62445 13.720474 -75.102356 13.720474c-41.477905 0 -75.102356 -6.142868 -75.102356 -13.720474z" fill-rule="evenodd"></path><path fill="#dee8fa" d="m641.69293 125.02493c0 -7.577606 33.62445 -13.720474 75.102356 -13.720474c41.477905 0 75.102356 6.142868 75.102356 13.720474l0 0c0 7.577606 -33.62445 13.720474 -75.102356 13.720474c-41.477905 0 -75.102356 -6.142868 -75.102356 -13.720474z" fill-rule="evenodd"></path><path fill="#000000" fill-opacity="0.0" d="m791.89764 125.02493l0 0c0 7.577606 -33.62445 13.720474 -75.102356 13.720474c-41.477905 0 -75.102356 -6.142868 -75.102356 -13.720474c0 -7.577606 33.62445 -13.720474 75.102356 -13.720474c41.477905 0 75.102356 6.142868 75.102356 13.720474l0 82.32283c0 7.577606 -33.62445 13.720474 -75.102356 13.720474c-41.477905 0 -75.102356 -6.142868 -75.102356 -13.720474l0 -82.32283" fill-rule="evenodd"></path><path stroke="#1155cc" stroke-width="3.0" stroke-linejoin="round" stroke-linecap="butt" d="m791.89764 125.02493l0 0c0 7.577606 -33.62445 13.720474 -75.102356 13.720474c-41.477905 0 -75.102356 -6.142868 -75.102356 -13.720474c0 -7.577606 33.62445 -13.720474 75.102356 -13.720474c41.477905 0 75.102356 6.142868 75.102356 13.720474l0 82.32283c0 7.577606 -33.62445 13.720474 -75.102356 13.720474c-41.477905 0 -75.102356 -6.142868 -75.102356 -13.720474l0 -82.32283" fill-rule="evenodd"></path><path fill="#1155cc" d="m682.55743 168.00096q-0.21875 -0.21875 -0.8125 -0.609375q-0.59375 -0.390625 -1.453125 -0.75q-0.84375 -0.375 -1.84375 -0.625q-0.984375 -0.265625 -2.0 -0.265625q-1.828125 0 -2.734375 0.6875q-0.890625 0.671875 -0.890625 1.875q0 0.703125 0.328125 1.171875q0.34375 0.46875 0.984375 0.828125q0.640625 0.34375 1.609375 0.640625q0.984375 0.28125 2.265625 0.59375q1.671875 0.453125 3.03125 0.96875q1.359375 0.5 2.296875 1.28125q0.9375 0.765625 1.453125 1.84375q0.515625 1.0625 0.515625 2.625q0 1.828125 -0.6875 3.125q-0.6875 1.296875 -1.859375 2.09375q-1.171875 0.796875 -2.6875 1.171875q-1.515625 0.359375 -3.1875 0.359375q-2.546875 0 -5.046875 -0.765625q-2.5 -0.765625 -4.484375 -2.171875l1.953125 -3.8125q0.28125 0.296875 1.03125 0.765625q0.765625 0.453125 1.78125 0.921875q1.03125 0.453125 2.265625 0.78125q1.25 0.3125 2.5625 0.3125q3.65625 0 3.65625 -2.328125q0 -0.734375 -0.421875 -1.25q-0.40625 -0.515625 -1.1875 -0.890625q-0.765625 -0.390625 -1.859375 -0.703125q-1.078125 -0.328125 -2.421875 -0.703125q-1.625 -0.453125 -2.828125 -0.984375q-1.203125 -0.53125 -2.0 -1.25q-0.796875 -0.71875 -1.203125 -1.65625q-0.40625 -0.953125 -0.40625 -2.265625q0 -1.71875 0.640625 -3.0625q0.640625 -1.34375 1.78125 -2.234375q1.140625 -0.90625 2.640625 -1.359375q1.5 -0.46875 3.234375 -0.46875q2.390625 0 4.40625 0.75q2.03125 0.75 3.53125 1.765625l-1.953125 3.59375zm13.444153 17.078125q-2.015625 0 -3.65625 -0.6875q-1.625 -0.6875 -2.78125 -1.859375q-1.15625 -1.1875 -1.78125 -2.75q-0.625 -1.578125 -0.625 -3.296875q0 -1.796875 0.609375 -3.375q0.609375 -1.59375 1.765625 -2.78125q1.15625 -1.203125 2.796875 -1.90625q1.65625 -0.71875 3.703125 -0.71875q2.046875 0 3.65625 0.71875q1.625 0.703125 2.75 1.890625q1.140625 1.171875 1.734375 2.75q0.59375 1.5625 0.59375 3.25q0 0.421875 -0.015625 0.8125q-0.015625 0.375 -0.078125 0.625l-12.96875 0q0.09375 1.0 0.46875 1.765625q0.390625 0.765625 1.0 1.3125q0.609375 0.546875 1.375 0.84375q0.78125 0.28125 1.609375 0.28125q1.28125 0 2.40625 -0.625q1.140625 -0.625 1.5625 -1.65625l3.671875 1.03125q-0.921875 1.921875 -2.953125 3.15625q-2.03125 1.21875 -4.84375 1.21875zm4.34375 -10.109375q-0.15625 -1.890625 -1.390625 -3.015625q-1.234375 -1.140625 -2.984375 -1.140625q-0.875 0 -1.625 0.3125q-0.75 0.296875 -1.328125 0.84375q-0.578125 0.546875 -0.953125 1.3125q-0.359375 0.765625 -0.421875 1.6875l8.703125 0zm17.027405 -3.265625q-1.953125 0.03125 -3.5 0.765625q-1.53125 0.71875 -2.203125 2.15625l0 10.140625l-4.28125 0l0 -16.765625l3.9375 0l0 3.578125q0.453125 -0.859375 1.046875 -1.546875q0.609375 -0.6875 1.3125 -1.203125q0.703125 -0.515625 1.421875 -0.78125q0.734375 -0.265625 1.40625 -0.265625q0.34375 0 0.515625 0q0.1875 0 0.34375 0.03125l0 3.890625zm6.915283 13.0625l-6.1875 -16.765625l4.421875 0l4.25 13.28125l4.296875 -13.28125l4.03125 0l-6.171875 16.765625l-4.640625 0zm20.83368 0.3125q-2.015625 0 -3.65625 -0.6875q-1.625 -0.6875 -2.78125 -1.859375q-1.15625 -1.1875 -1.78125 -2.75q-0.625 -1.578125 -0.625 -3.296875q0 -1.796875 0.609375 -3.375q0.609375 -1.59375 1.765625 -2.78125q1.15625 -1.203125 2.796875 -1.90625q1.65625 -0.71875 3.703125 -0.71875q2.046875 0 3.65625 0.71875q1.625 0.703125 2.75 1.890625q1.140625 1.171875 1.734375 2.75q0.59375 1.5625 0.59375 3.25q0 0.421875 -0.015625 0.8125q-0.015625 0.375 -0.078125 0.625l-12.96875 0q0.09375 1.0 0.46875 1.765625q0.390625 0.765625 1.0 1.3125q0.609375 0.546875 1.375 0.84375q0.78125 0.28125 1.609375 0.28125q1.28125 0 2.40625 -0.625q1.140625 -0.625 1.5625 -1.65625l3.671875 1.03125q-0.921875 1.921875 -2.953125 3.15625q-2.03125 1.21875 -4.84375 1.21875zm4.34375 -10.109375q-0.15625 -1.890625 -1.390625 -3.015625q-1.234375 -1.140625 -2.984375 -1.140625q-0.875 0 -1.625 0.3125q-0.75 0.296875 -1.328125 0.84375q-0.578125 0.546875 -0.953125 1.3125q-0.359375 0.765625 -0.421875 1.6875l8.703125 0zm17.027405 -3.265625q-1.953125 0.03125 -3.5 0.765625q-1.53125 0.71875 -2.203125 2.15625l0 10.140625l-4.28125 0l0 -16.765625l3.9375 0l0 3.578125q0.453125 -0.859375 1.046875 -1.546875q0.609375 -0.6875 1.3125 -1.203125q0.703125 -0.515625 1.421875 -0.78125q0.734375 -0.265625 1.40625 -0.265625q0.34375 0 0.515625 0q0.1875 0 0.34375 0.03125l0 3.890625z" fill-rule="nonzero"></path><path fill="#000000" fill-opacity="0.0" d="m144.95276 344.03937l0.06298828 -122.96063" fill-rule="evenodd"></path><path stroke="#cc0000" stroke-width="3.0" stroke-linejoin="round" stroke-linecap="butt" d="m144.95276 344.03937l0.057724 -112.67938" fill-rule="evenodd"></path><path fill="#cc0000" stroke="#cc0000" stroke-width="3.0" stroke-linecap="butt" d="m145.01048 231.36l3.3720245 3.375473l-3.3690033 -9.271027l-3.3784943 9.267578z" fill-rule="evenodd"></path><path fill="#000000" fill-opacity="0.0" d="m233.83803 152.46588l407.84253 246.4567" fill-rule="evenodd"></path><path stroke="#cc0000" stroke-width="3.0" stroke-linejoin="round" stroke-linecap="butt" d="m233.83803 152.46588l399.04315 241.13928" fill-rule="evenodd"></path><path fill="#cc0000" stroke="#cc0000" stroke-width="3.0" stroke-linecap="butt" d="m632.88116 393.60516l-4.6323853 1.1425781l9.678223 1.9065552l-6.1884155 -7.6815186z" fill-rule="evenodd"></path><path fill="#000000" fill-opacity="0.0" d="m716.7953 344.03937l0 -122.96063" fill-rule="evenodd"></path><path stroke="#1155cc" stroke-width="3.0" stroke-linejoin="round" stroke-linecap="butt" stroke-dasharray="3.0,9.0" d="m716.7953 344.03937l0 -112.67938" fill-rule="evenodd"></path><path fill="#1155cc" stroke="#1155cc" stroke-width="3.0" stroke-linecap="butt" d="m716.7953 231.36l3.3737183 3.3737488l-3.3737183 -9.269302l-3.3737793 9.269302z" fill-rule="evenodd"></path><path fill="#000000" fill-opacity="0.0" d="m172.45615 111.30446c0 -12.5 136.08661 -25.007874 272.17322 -25.0c136.08664 0.007873535 272.17325 12.531502 272.17325 25.062996" fill-rule="evenodd"></path><path stroke="#1155cc" stroke-width="3.0" stroke-linejoin="round" stroke-linecap="butt" d="m172.45615 111.30446c0 -12.5 136.08661 -25.007874 272.17325 -25.0c68.043274 0.0039367676 136.08661 3.136818 187.11902 7.835144c25.516296 2.3491592 46.779785 5.0896835 61.664307 8.026138c3.7210693 0.734108 7.043457 1.4804688 9.934082 2.2360306c1.4451904 0.37776947 2.7824707 0.757843 4.0076294 1.1398315l0.8054199 0.25735474" fill-rule="evenodd"></path><path fill="#1155cc" stroke="#1155cc" stroke-width="3.0" stroke-linecap="butt" d="m708.1599 105.79896l-4.663391 1.0087814l9.619324 2.1843414l-5.9647217 -7.856468z" fill-rule="evenodd"></path><path fill="#000000" fill-opacity="0.0" d="m153.97899 258.42783l257.82678 0l0 48.251953l-257.82678 0z" fill-rule="evenodd"></path><path fill="#cc0000" d="m175.96336 292.28943l0 1.984375l-10.84375 0l0 -1.984375l4.546875 0l0 -13.703125q-0.25 0.390625 -0.875 0.84375q-0.625 0.4375 -1.375 0.828125q-0.75 0.390625 -1.5625 0.640625q-0.796875 0.25 -1.40625 0.25l0 -2.109375q0.734375 0 1.609375 -0.40625q0.890625 -0.421875 1.671875 -0.96875q0.78125 -0.546875 1.328125 -1.015625q0.546875 -0.484375 0.609375 -0.640625l2.234375 0l0 16.28125l4.0625 0zm2.7897797 1.984375l0 -3.140625l1.890625 0l0 3.140625l-1.890625 0zm22.020538 -22.71875l1.890625 0l9.4375 22.71875l-2.375 0l-2.9375 -7.109375l-10.203125 0l-2.921875 7.109375l-2.390625 0l9.5 -22.71875zm5.5 13.859375l-4.578125 -11.234375l-4.640625 11.234375l9.21875 0zm13.8508 9.171875q-2.71875 0 -4.046875 -1.796875q-1.328125 -1.8125 -1.328125 -5.390625l0 -9.796875l2.1875 0l0 9.40625q0 5.671875 3.859375 5.671875q0.96875 0 1.890625 -0.3125q0.9375 -0.328125 1.71875 -0.9375q0.78125 -0.609375 1.40625 -1.4375q0.625 -0.84375 1.0 -1.890625l0 -10.5l2.1875 0l0 13.859375q0 0.890625 0.765625 0.890625l0 1.921875q-0.390625 0.0625 -0.625 0.0625q-0.234375 0 -0.34375 0q-0.765625 -0.03125 -1.25 -0.53125q-0.46875 -0.515625 -0.46875 -1.390625l0 -1.921875q-1.09375 1.953125 -2.96875 3.03125q-1.859375 1.0625 -3.984375 1.0625zm21.804916 -1.109375q-0.203125 0.09375 -0.578125 0.25q-0.359375 0.15625 -0.84375 0.328125q-0.46875 0.15625 -1.078125 0.28125q-0.609375 0.125 -1.28125 0.125q-0.703125 0 -1.34375 -0.1875q-0.640625 -0.1875 -1.125 -0.578125q-0.46875 -0.40625 -0.765625 -1.015625q-0.28125 -0.609375 -0.28125 -1.421875l0 -11.921875l-2.3125 0l0 -1.734375l2.3125 0l0 -5.625l2.171875 0l0 5.625l3.84375 0l0 1.734375l-3.84375 0l0 11.328125q0.0625 0.921875 0.65625 1.359375q0.59375 0.421875 1.359375 0.421875q0.921875 0 1.625 -0.296875q0.703125 -0.3125 0.90625 -0.4375l0.578125 1.765625zm16.735641 0.796875l-2.1875 0l0 -9.3125q0 -2.84375 -0.984375 -4.25q-0.96875 -1.40625 -2.84375 -1.40625q-0.9375 0 -1.859375 0.375q-0.90625 0.359375 -1.703125 1.0q-0.796875 0.640625 -1.390625 1.5q-0.59375 0.859375 -0.875 1.890625l0 10.203125l-2.171875 0l0 -23.359375l2.171875 0l0 10.46875q0.984375 -1.890625 2.75 -2.96875q1.765625 -1.09375 3.8125 -1.09375q1.4375 0 2.421875 0.53125q1.0 0.515625 1.640625 1.46875q0.640625 0.9375 0.921875 2.265625q0.296875 1.328125 0.296875 2.921875l0 9.765625zm11.734161 0.3125q-1.8125 0 -3.328125 -0.6875q-1.5 -0.6875 -2.609375 -1.859375q-1.09375 -1.1875 -1.703125 -2.75q-0.609375 -1.578125 -0.609375 -3.296875q0 -1.765625 0.625 -3.328125q0.625 -1.578125 1.71875 -2.75q1.109375 -1.1875 2.609375 -1.890625q1.515625 -0.703125 3.296875 -0.703125q1.796875 0 3.3125 0.703125q1.53125 0.703125 2.625 1.890625q1.109375 1.171875 1.734375 2.75q0.625 1.5625 0.625 3.328125q0 1.71875 -0.609375 3.296875q-0.609375 1.5625 -1.71875 2.75q-1.09375 1.171875 -2.625 1.859375q-1.515625 0.6875 -3.34375 0.6875zm-6.046875 -8.5625q0 1.40625 0.484375 2.609375q0.484375 1.1875 1.296875 2.109375q0.8125 0.90625 1.90625 1.421875q1.109375 0.515625 2.359375 0.515625q1.25 0 2.34375 -0.53125q1.109375 -0.53125 1.9375 -1.4375q0.84375 -0.921875 1.3125 -2.125q0.484375 -1.21875 0.484375 -2.625q0 -1.390625 -0.484375 -2.609375q-0.46875 -1.234375 -1.3125 -2.140625q-0.828125 -0.921875 -1.9375 -1.453125q-1.09375 -0.53125 -2.34375 -0.53125q-1.25 0 -2.34375 0.53125q-1.078125 0.53125 -1.90625 1.46875q-0.828125 0.921875 -1.3125 2.15625q-0.484375 1.234375 -0.484375 2.640625zm26.305664 -6.5q-2.203125 0.0625 -3.84375 1.21875q-1.625 1.140625 -2.296875 3.15625l0 10.375l-2.171875 0l0 -16.671875l2.046875 0l0 4.0q0.921875 -1.921875 2.484375 -3.0q1.578125 -1.09375 3.359375 -1.09375q0.265625 0 0.421875 0.03125l0 1.984375zm2.9195251 14.75l0 -16.671875l2.171875 0l0 16.671875l-2.171875 0zm0 -20.15625l0 -3.203125l2.171875 0l0 3.203125l-2.171875 0zm5.554138 18.6875l11.265625 -13.578125l-11.0 0l0 -1.625l13.375 0l0 1.46875l-11.234375 13.578125l11.203125 0l0 1.625l-13.609375 0l0 -1.46875zm21.353394 1.78125q-1.1875 0 -2.203125 -0.390625q-1.0 -0.40625 -1.75 -1.109375q-0.75 -0.703125 -1.171875 -1.640625q-0.40625 -0.953125 -0.40625 -2.03125q0 -1.09375 0.5 -2.015625q0.515625 -0.9375 1.4375 -1.609375q0.9375 -0.671875 2.21875 -1.03125q1.28125 -0.375 2.8125 -0.375q1.28125 0 2.59375 0.234375q1.3125 0.21875 2.328125 0.625l0 -1.5q0 -2.203125 -1.25 -3.5q-1.234375 -1.296875 -3.453125 -1.296875q-1.28125 0 -2.625 0.515625q-1.34375 0.515625 -2.71875 1.46875l-0.765625 -1.4375q3.234375 -2.171875 6.28125 -2.171875q3.125 0 4.921875 1.765625q1.796875 1.75 1.796875 4.84375l0 7.53125q0 0.890625 0.796875 0.890625l0 1.921875q-0.546875 0.09375 -0.828125 0.09375q-0.84375 0 -1.3125 -0.40625q-0.453125 -0.421875 -0.484375 -1.15625l-0.0625 -1.3125q-1.15625 1.5 -2.90625 2.296875q-1.734375 0.796875 -3.75 0.796875zm0.515625 -1.65625q1.6875 0 3.109375 -0.640625q1.421875 -0.640625 2.171875 -1.703125q0.28125 -0.28125 0.421875 -0.609375q0.140625 -0.34375 0.140625 -0.625l0 -2.71875q-1.078125 -0.421875 -2.25 -0.640625q-1.171875 -0.234375 -2.390625 -0.234375q-2.296875 0 -3.734375 0.96875q-1.4375 0.953125 -1.4375 2.515625q0 0.78125 0.296875 1.453125q0.3125 0.671875 0.828125 1.171875q0.53125 0.484375 1.265625 0.78125q0.734375 0.28125 1.578125 0.28125zm20.736908 0.546875q-0.203125 0.09375 -0.578125 0.25q-0.359375 0.15625 -0.84375 0.328125q-0.46875 0.15625 -1.078125 0.28125q-0.609375 0.125 -1.28125 0.125q-0.703125 0 -1.34375 -0.1875q-0.640625 -0.1875 -1.125 -0.578125q-0.46875 -0.40625 -0.765625 -1.015625q-0.28125 -0.609375 -0.28125 -1.421875l0 -11.921875l-2.3125 0l0 -1.734375l2.3125 0l0 -5.625l2.171875 0l0 5.625l3.84375 0l0 1.734375l-3.84375 0l0 11.328125q0.0625 0.921875 0.65625 1.359375q0.59375 0.421875 1.359375 0.421875q0.921875 0 1.625 -0.296875q0.703125 -0.3125 0.90625 -0.4375l0.578125 1.765625zm2.7200317 0.796875l0 -16.671875l2.171875 0l0 16.671875l-2.171875 0zm0 -20.15625l0 -3.203125l2.171875 0l0 3.203125l-2.171875 0zm14.069763 20.46875q-1.8125 0 -3.328125 -0.6875q-1.5 -0.6875 -2.609375 -1.859375q-1.09375 -1.1875 -1.703125 -2.75q-0.609375 -1.578125 -0.609375 -3.296875q0 -1.765625 0.625 -3.328125q0.625 -1.578125 1.71875 -2.75q1.109375 -1.1875 2.609375 -1.890625q1.515625 -0.703125 3.296875 -0.703125q1.796875 0 3.3125 0.703125q1.53125 0.703125 2.625 1.890625q1.109375 1.171875 1.734375 2.75q0.625 1.5625 0.625 3.328125q0 1.71875 -0.609375 3.296875q-0.609375 1.5625 -1.71875 2.75q-1.09375 1.171875 -2.625 1.859375q-1.515625 0.6875 -3.34375 0.6875zm-6.046875 -8.5625q0 1.40625 0.484375 2.609375q0.484375 1.1875 1.296875 2.109375q0.8125 0.90625 1.90625 1.421875q1.109375 0.515625 2.359375 0.515625q1.25 0 2.34375 -0.53125q1.109375 -0.53125 1.9375 -1.4375q0.84375 -0.921875 1.3125 -2.125q0.484375 -1.21875 0.484375 -2.625q0 -1.390625 -0.484375 -2.609375q-0.46875 -1.234375 -1.3125 -2.140625q-0.828125 -0.921875 -1.9375 -1.453125q-1.09375 -0.53125 -2.34375 -0.53125q-1.25 0 -2.34375 0.53125q-1.078125 0.53125 -1.90625 1.46875q-0.828125 0.921875 -1.3125 2.15625q-0.484375 1.234375 -0.484375 2.640625zm32.00879 8.25l-2.1875 0l0 -9.3125q0 -2.96875 -0.875 -4.3125q-0.875 -1.34375 -2.703125 -1.34375q-0.953125 0 -1.921875 0.359375q-0.953125 0.34375 -1.78125 0.984375q-0.8125 0.640625 -1.453125 1.515625q-0.640625 0.875 -0.921875 1.90625l0 10.203125l-2.171875 0l0 -16.671875l1.984375 0l0 3.78125q1.015625 -1.828125 2.921875 -2.9375q1.90625 -1.125 4.140625 -1.125q1.375 0 2.328125 0.515625q0.96875 0.5 1.546875 1.4375q0.578125 0.921875 0.828125 2.265625q0.265625 1.34375 0.265625 2.96875l0 9.765625z" fill-rule="nonzero"></path><path fill="#000000" fill-opacity="0.0" d="m488.7604 258.42783l169.0394 0l0 48.251953l-169.0394 0z" fill-rule="evenodd"></path><path fill="#cc0000" d="m499.16666 294.2738q0 -1.09375 0.1875 -2.1875q0.203125 -1.109375 0.75 -2.1875q0.5625 -1.09375 1.59375 -2.09375q1.046875 -1.015625 2.78125 -1.921875q0.921875 -0.46875 1.921875 -0.9375q1.015625 -0.46875 1.859375 -1.03125q0.859375 -0.578125 1.40625 -1.296875q0.546875 -0.734375 0.546875 -1.6875q0 -0.609375 -0.28125 -1.203125q-0.265625 -0.59375 -0.796875 -1.046875q-0.53125 -0.46875 -1.3125 -0.75q-0.78125 -0.296875 -1.84375 -0.296875q-1.046875 0 -1.890625 0.3125q-0.828125 0.296875 -1.453125 0.71875q-0.625 0.40625 -1.078125 0.875q-0.4375 0.46875 -0.65625 0.75l-1.4375 -1.5625q0.1875 -0.203125 0.71875 -0.703125q0.546875 -0.515625 1.421875 -1.03125q0.890625 -0.515625 2.078125 -0.90625q1.1875 -0.40625 2.65625 -0.40625q1.46875 0 2.625 0.40625q1.15625 0.390625 1.953125 1.09375q0.796875 0.703125 1.2031555 1.625q0.421875 0.90625 0.421875 1.90625q0 1.3125 -0.5781555 2.265625q-0.578125 0.953125 -1.421875 1.671875q-0.84375 0.703125 -1.8125 1.203125q-0.953125 0.484375 -1.71875 0.84375q-1.03125 0.4375 -2.015625 1.0q-0.96875 0.5625 -1.734375 1.234375q-0.765625 0.671875 -1.265625 1.5q-0.484375 0.828125 -0.484375 1.859375l11.3906555 0l0 1.984375l-13.7344055 0zm17.343903 0l0 -3.140625l1.890625 0l0 3.140625l-1.890625 0zm14.973694 0l0 -22.71875l2.25 0l0 20.734375l13.109375 0l0 1.984375l-15.359375 0zm25.312256 0.3125q-1.8125 0 -3.328125 -0.6875q-1.5 -0.6875 -2.609375 -1.859375q-1.09375 -1.1875 -1.703125 -2.75q-0.609375 -1.578125 -0.609375 -3.296875q0 -1.765625 0.625 -3.328125q0.625 -1.578125 1.71875 -2.75q1.109375 -1.1875 2.609375 -1.890625q1.515625 -0.703125 3.296875 -0.703125q1.796875 0 3.3125 0.703125q1.53125 0.703125 2.625 1.890625q1.109375 1.171875 1.734375 2.75q0.625 1.5625 0.625 3.328125q0 1.71875 -0.609375 3.296875q-0.609375 1.5625 -1.71875 2.75q-1.09375 1.171875 -2.625 1.859375q-1.515625 0.6875 -3.34375 0.6875zm-6.046875 -8.5625q0 1.40625 0.484375 2.609375q0.484375 1.1875 1.296875 2.109375q0.8125 0.90625 1.90625 1.421875q1.109375 0.515625 2.359375 0.515625q1.25 0 2.34375 -0.53125q1.109375 -0.53125 1.9375 -1.4375q0.84375 -0.921875 1.3125 -2.125q0.484375 -1.21875 0.484375 -2.625q0 -1.390625 -0.484375 -2.609375q-0.46875 -1.234375 -1.3125 -2.140625q-0.828125 -0.921875 -1.9375 -1.453125q-1.09375 -0.53125 -2.34375 -0.53125q-1.25 0 -2.34375 0.53125q-1.078125 0.53125 -1.90625 1.46875q-0.828125 0.921875 -1.3125 2.15625q-0.484375 1.234375 -0.484375 2.640625zm25.086914 8.5625q-1.8125 0 -3.328125 -0.6875q-1.5 -0.6875 -2.609375 -1.859375q-1.09375 -1.1875 -1.703125 -2.75q-0.609375 -1.578125 -0.609375 -3.296875q0 -1.765625 0.625 -3.328125q0.625 -1.578125 1.71875 -2.75q1.109375 -1.1875 2.609375 -1.890625q1.515625 -0.703125 3.296875 -0.703125q1.796875 0 3.3125 0.703125q1.53125 0.703125 2.625 1.890625q1.109375 1.171875 1.734375 2.75q0.625 1.5625 0.625 3.328125q0 1.71875 -0.609375 3.296875q-0.609375 1.5625 -1.71875 2.75q-1.09375 1.171875 -2.625 1.859375q-1.515625 0.6875 -3.34375 0.6875zm-6.046875 -8.5625q0 1.40625 0.484375 2.609375q0.484375 1.1875 1.296875 2.109375q0.8125 0.90625 1.90625 1.421875q1.109375 0.515625 2.359375 0.515625q1.25 0 2.34375 -0.53125q1.109375 -0.53125 1.9375 -1.4375q0.84375 -0.921875 1.3125 -2.125q0.484375 -1.21875 0.484375 -2.625q0 -1.390625 -0.484375 -2.609375q-0.46875 -1.234375 -1.3125 -2.140625q-0.828125 -0.921875 -1.9375 -1.453125q-1.09375 -0.53125 -2.34375 -0.53125q-1.25 0 -2.34375 0.53125q-1.078125 0.53125 -1.90625 1.46875q-0.828125 0.921875 -1.3125 2.15625q-0.484375 1.234375 -0.484375 2.640625zm29.88379 8.25l-6.140625 -8.546875l-3.578125 3.328125l0 5.21875l-2.171875 0l0 -23.359375l2.171875 0l0 15.875l9.375 -9.15625l2.46875 0l-6.828125 6.8125l7.078125 9.828125l-2.375 0zm10.272522 0.3125q-2.71875 0 -4.046875 -1.796875q-1.328125 -1.8125 -1.328125 -5.390625l0 -9.796875l2.1875 0l0 9.40625q0 5.671875 3.859375 5.671875q0.96875 0 1.890625 -0.3125q0.9375 -0.328125 1.71875 -0.9375q0.78125 -0.609375 1.40625 -1.4375q0.625 -0.84375 1.0 -1.890625l0 -10.5l2.1875 0l0 13.859375q0 0.890625 0.765625 0.890625l0 1.921875q-0.390625 0.0625 -0.625 0.0625q-0.234375 0 -0.34375 0q-0.765625 -0.03125 -1.25 -0.53125q-0.46875 -0.515625 -0.46875 -1.390625l0 -1.921875q-1.09375 1.953125 -2.96875 3.03125q-1.859375 1.0625 -3.984375 1.0625zm22.304932 0q-2.109375 0 -3.734375 -1.0625q-1.609375 -1.078125 -2.59375 -2.703125l0 10.265625l-2.171875 0l0 -23.484375l1.953125 0l0 3.234375q1.015625 -1.578125 2.640625 -2.546875q1.640625 -0.96875 3.5625 -0.96875q1.71875 0 3.15625 0.71875q1.453125 0.71875 2.5 1.921875q1.0625 1.1875 1.65625 2.765625q0.59375 1.5625 0.59375 3.234375q0 1.75 -0.546875 3.328125q-0.546875 1.5625 -1.5625 2.75q-1.0 1.171875 -2.390625 1.859375q-1.390625 0.6875 -3.0625 0.6875zm-0.609375 -1.90625q1.34375 0 2.453125 -0.578125q1.109375 -0.578125 1.890625 -1.515625q0.78125 -0.953125 1.1875 -2.15625q0.421875 -1.203125 0.421875 -2.46875q0 -1.34375 -0.484375 -2.5625q-0.46875 -1.21875 -1.3125 -2.140625q-0.828125 -0.9375 -1.96875 -1.484375q-1.125 -0.546875 -2.4375 -0.546875q-0.828125 0 -1.75 0.34375q-0.90625 0.328125 -1.6875 0.890625q-0.78125 0.5625 -1.34375 1.3125q-0.5625 0.75 -0.6875 1.59375l0 5.109375q0.375 0.90625 0.96875 1.671875q0.59375 0.765625 1.34375 1.328125q0.75 0.5625 1.609375 0.890625q0.875 0.3125 1.796875 0.3125z" fill-rule="nonzero"></path><path fill="#000000" fill-opacity="0.0" d="m725.9895 258.42783l115.590576 0l0 48.251953l-115.590576 0z" fill-rule="evenodd"></path><path fill="#1155cc" d="m737.2551 279.56757l1.21875 0l-0.515625 2.375q0.734375 -1.078125 1.671875 -1.703125q0.953125 -0.640625 1.921875 -0.6875q0.140625 0 0.25 0.015625q0.109375 0 0.203125 0.03125l-0.25 1.109375q-1.234375 0.046875 -2.296875 0.734375q-1.0625 0.671875 -1.71875 1.875l-1.28125 6.15625l-1.296875 0l2.09375 -9.90625zm8.430359 10.09375q-0.921875 0 -1.640625 -0.3125q-0.703125 -0.328125 -1.1875 -0.890625q-0.484375 -0.578125 -0.75 -1.328125q-0.25 -0.765625 -0.25 -1.640625q0 -1.1875 0.453125 -2.28125q0.46875 -1.09375 1.265625 -1.9375q0.796875 -0.84375 1.890625 -1.34375q1.09375 -0.515625 2.359375 -0.515625q0.65625 0 1.234375 0.171875q0.578125 0.15625 1.0 0.5q0.421875 0.328125 0.671875 0.828125q0.25 0.5 0.25 1.15625q0 1.453125 -1.296875 2.203125q-1.28125 0.734375 -3.984375 0.734375q-0.53125 0 -1.15625 -0.015625q-0.609375 -0.015625 -1.328125 -0.078125q-0.015625 0.15625 -0.03125 0.296875q-0.015625 0.125 -0.015625 0.25q0 0.65625 0.171875 1.234375q0.171875 0.578125 0.515625 1.03125q0.34375 0.4375 0.859375 0.703125q0.515625 0.25 1.1875 0.25q0.46875 0 0.9375 -0.125q0.46875 -0.140625 0.890625 -0.375q0.4375 -0.234375 0.796875 -0.578125q0.359375 -0.34375 0.609375 -0.765625l1.0625 0.328125q-0.34375 0.546875 -0.84375 1.015625q-0.484375 0.453125 -1.09375 0.796875q-0.59375 0.328125 -1.25 0.5q-0.640625 0.1875 -1.328125 0.1875zm2.015625 -9.25q-0.859375 0 -1.5625 0.3125q-0.703125 0.296875 -1.265625 0.796875q-0.546875 0.484375 -0.921875 1.140625q-0.375 0.640625 -0.5625 1.328125q0.671875 0.03125 1.25 0.0625q0.59375 0.03125 1.125 0.03125q1.109375 0 1.890625 -0.15625q0.78125 -0.15625 1.25 -0.421875q0.484375 -0.265625 0.6875 -0.640625q0.21875 -0.375 0.21875 -0.8125q0 -0.859375 -0.640625 -1.25q-0.625 -0.390625 -1.46875 -0.390625zm6.1186523 0.1875l-1.296875 0l0.21875 -1.03125l1.3125 0l0.03125 -0.265625q0.140625 -0.90625 0.46875 -1.625q0.34375 -0.71875 0.828125 -1.21875q0.484375 -0.515625 1.078125 -0.78125q0.609375 -0.265625 1.25 -0.265625q0.5625 0 1.046875 0.171875q0.484375 0.171875 0.828125 0.453125l-0.59375 0.9375q-0.21875 -0.21875 -0.5625 -0.328125q-0.328125 -0.109375 -0.6875 -0.109375q-0.859375 0 -1.46875 0.703125q-0.59375 0.703125 -0.875 2.03125l-0.0625 0.296875l2.578125 0l-0.21875 1.03125l-2.578125 0l-2.734375 12.90625l-1.296875 0l2.734375 -12.90625zm7.835449 9.0625q-0.921875 0 -1.640625 -0.3125q-0.703125 -0.328125 -1.1875 -0.890625q-0.484375 -0.578125 -0.75 -1.328125q-0.25 -0.765625 -0.25 -1.640625q0 -1.1875 0.453125 -2.28125q0.46875 -1.09375 1.265625 -1.9375q0.796875 -0.84375 1.890625 -1.34375q1.09375 -0.515625 2.359375 -0.515625q0.65625 0 1.234375 0.171875q0.578125 0.15625 1.0 0.5q0.421875 0.328125 0.671875 0.828125q0.25 0.5 0.25 1.15625q0 1.453125 -1.296875 2.203125q-1.28125 0.734375 -3.984375 0.734375q-0.53125 0 -1.15625 -0.015625q-0.609375 -0.015625 -1.328125 -0.078125q-0.015625 0.15625 -0.03125 0.296875q-0.015625 0.125 -0.015625 0.25q0 0.65625 0.171875 1.234375q0.171875 0.578125 0.515625 1.03125q0.34375 0.4375 0.859375 0.703125q0.515625 0.25 1.1875 0.25q0.46875 0 0.9375 -0.125q0.46875 -0.140625 0.890625 -0.375q0.4375 -0.234375 0.796875 -0.578125q0.359375 -0.34375 0.609375 -0.765625l1.0625 0.328125q-0.34375 0.546875 -0.84375 1.015625q-0.484375 0.453125 -1.09375 0.796875q-0.59375 0.328125 -1.25 0.5q-0.640625 0.1875 -1.328125 0.1875zm2.015625 -9.25q-0.859375 0 -1.5625 0.3125q-0.703125 0.296875 -1.265625 0.796875q-0.546875 0.484375 -0.921875 1.140625q-0.375 0.640625 -0.5625 1.328125q0.671875 0.03125 1.25 0.0625q0.59375 0.03125 1.125 0.03125q1.109375 0 1.890625 -0.15625q0.78125 -0.15625 1.25 -0.421875q0.484375 -0.265625 0.6875 -0.640625q0.21875 -0.375 0.21875 -0.8125q0 -0.859375 -0.640625 -1.25q-0.625 -0.390625 -1.46875 -0.390625zm5.9155273 -0.84375l1.21875 0l-0.515625 2.375q0.734375 -1.078125 1.671875 -1.703125q0.953125 -0.640625 1.921875 -0.6875q0.140625 0 0.25 0.015625q0.109375 0 0.203125 0.03125l-0.25 1.109375q-1.234375 0.046875 -2.296875 0.734375q-1.0625 0.671875 -1.71875 1.875l-1.28125 6.15625l-1.296875 0l2.09375 -9.90625zm8.430359 10.09375q-0.921875 0 -1.640625 -0.3125q-0.703125 -0.328125 -1.1875 -0.890625q-0.484375 -0.578125 -0.75 -1.328125q-0.25 -0.765625 -0.25 -1.640625q0 -1.1875 0.453125 -2.28125q0.46875 -1.09375 1.265625 -1.9375q0.796875 -0.84375 1.890625 -1.34375q1.09375 -0.515625 2.359375 -0.515625q0.65625 0 1.234375 0.171875q0.578125 0.15625 1.0 0.5q0.421875 0.328125 0.671875 0.828125q0.25 0.5 0.25 1.15625q0 1.453125 -1.296875 2.203125q-1.28125 0.734375 -3.984375 0.734375q-0.53125 0 -1.15625 -0.015625q-0.609375 -0.015625 -1.328125 -0.078125q-0.015625 0.15625 -0.03125 0.296875q-0.015625 0.125 -0.015625 0.25q0 0.65625 0.171875 1.234375q0.171875 0.578125 0.515625 1.03125q0.34375 0.4375 0.859375 0.703125q0.515625 0.25 1.1875 0.25q0.46875 0 0.9375 -0.125q0.46875 -0.140625 0.890625 -0.375q0.4375 -0.234375 0.796875 -0.578125q0.359375 -0.34375 0.609375 -0.765625l1.0625 0.328125q-0.34375 0.546875 -0.84375 1.015625q-0.484375 0.453125 -1.09375 0.796875q-0.59375 0.328125 -1.25 0.5q-0.640625 0.1875 -1.328125 0.1875zm2.015625 -9.25q-0.859375 0 -1.5625 0.3125q-0.703125 0.296875 -1.265625 0.796875q-0.546875 0.484375 -0.921875 1.140625q-0.375 0.640625 -0.5625 1.328125q0.671875 0.03125 1.25 0.0625q0.59375 0.03125 1.125 0.03125q1.109375 0 1.890625 -0.15625q0.78125 -0.15625 1.25 -0.421875q0.484375 -0.265625 0.6875 -0.640625q0.21875 -0.375 0.21875 -0.8125q0 -0.859375 -0.640625 -1.25q-0.625 -0.390625 -1.46875 -0.390625zm5.9155884 -0.84375l1.1875 0l-0.484375 2.25q0.390625 -0.53125 0.90625 -0.96875q0.53125 -0.453125 1.109375 -0.78125q0.578125 -0.328125 1.203125 -0.484375q0.640625 -0.171875 1.265625 -0.171875q1.15625 0 1.640625 0.625q0.5 0.625 0.5 1.71875q0 0.4375 -0.0625 0.90625q-0.0625 0.46875 -0.1875 1.015625l-1.21875 5.796875l-1.28125 0l1.171875 -5.53125q0.1875 -0.921875 0.1875 -1.609375q0 -1.75 -1.484375 -1.75q-0.53125 0 -1.109375 0.21875q-0.578125 0.203125 -1.125 0.578125q-0.53125 0.375 -0.984375 0.90625q-0.453125 0.515625 -0.765625 1.125l-1.265625 6.0625l-1.296875 0l2.09375 -9.90625zm12.397583 10.09375q-0.875 0 -1.578125 -0.328125q-0.703125 -0.328125 -1.1875 -0.890625q-0.484375 -0.578125 -0.75 -1.34375q-0.25 -0.765625 -0.25 -1.609375q0 -1.203125 0.46875 -2.296875q0.484375 -1.109375 1.296875 -1.953125q0.8125 -0.84375 1.875 -1.328125q1.078125 -0.5 2.296875 -0.5q1.34375 0 2.203125 0.640625q0.875 0.625 1.140625 1.703125l-1.328125 0.40625q-0.234375 -0.765625 -0.84375 -1.1875q-0.609375 -0.4375 -1.453125 -0.4375q-0.84375 0 -1.609375 0.390625q-0.765625 0.375 -1.375 1.03125q-0.609375 0.640625 -0.96875 1.515625q-0.359375 0.875 -0.359375 1.84375q0 0.671875 0.1875 1.265625q0.1875 0.578125 0.53125 1.015625q0.34375 0.4375 0.828125 0.6875q0.484375 0.234375 1.0625 0.234375q0.46875 0 0.921875 -0.125q0.46875 -0.140625 0.890625 -0.375q0.421875 -0.234375 0.75 -0.53125q0.328125 -0.3125 0.5 -0.65625l1.203125 0.375q-0.3125 0.53125 -0.796875 0.984375q-0.46875 0.4375 -1.0625 0.78125q-0.578125 0.328125 -1.25 0.5q-0.65625 0.1875 -1.34375 0.1875zm9.875671 0q-0.921875 0 -1.640625 -0.3125q-0.703125 -0.328125 -1.1875 -0.890625q-0.484375 -0.578125 -0.75 -1.328125q-0.25 -0.765625 -0.25 -1.640625q0 -1.1875 0.453125 -2.28125q0.46875 -1.09375 1.265625 -1.9375q0.796875 -0.84375 1.890625 -1.34375q1.09375 -0.515625 2.359375 -0.515625q0.65625 0 1.234375 0.171875q0.578125 0.15625 1.0 0.5q0.421875 0.328125 0.671875 0.828125q0.25 0.5 0.25 1.15625q0 1.453125 -1.296875 2.203125q-1.28125 0.734375 -3.984375 0.734375q-0.53125 0 -1.15625 -0.015625q-0.609375 -0.015625 -1.328125 -0.078125q-0.015625 0.15625 -0.03125 0.296875q-0.015625 0.125 -0.015625 0.25q0 0.65625 0.171875 1.234375q0.171875 0.578125 0.515625 1.03125q0.34375 0.4375 0.859375 0.703125q0.515625 0.25 1.1875 0.25q0.46875 0 0.9375 -0.125q0.46875 -0.140625 0.890625 -0.375q0.4375 -0.234375 0.796875 -0.578125q0.359375 -0.34375 0.609375 -0.765625l1.0625 0.328125q-0.34375 0.546875 -0.84375 1.015625q-0.484375 0.453125 -1.09375 0.796875q-0.59375 0.328125 -1.25 0.5q-0.640625 0.1875 -1.328125 0.1875zm2.015625 -9.25q-0.859375 0 -1.5625 0.3125q-0.703125 0.296875 -1.265625 0.796875q-0.546875 0.484375 -0.921875 1.140625q-0.375 0.640625 -0.5625 1.328125q0.671875 0.03125 1.25 0.0625q0.59375 0.03125 1.125 0.03125q1.109375 0 1.890625 -0.15625q0.78125 -0.15625 1.25 -0.421875q0.484375 -0.265625 0.6875 -0.640625q0.21875 -0.375 0.21875 -0.8125q0 -0.859375 -0.640625 -1.25q-0.625 -0.390625 -1.46875 -0.390625zm6.9155884 9.25q-1.09375 0 -2.0625 -0.375q-0.96875 -0.375 -1.578125 -1.109375l0.75 -0.875q1.28125 1.375 3.078125 1.375q1.265625 0 2.0625 -0.578125q0.8125 -0.578125 0.8125 -1.546875q0 -0.34375 -0.15625 -0.5625q-0.15625 -0.234375 -0.453125 -0.40625q-0.296875 -0.1875 -0.765625 -0.34375q-0.453125 -0.15625 -1.046875 -0.3125q-0.671875 -0.1875 -1.1875 -0.359375q-0.5 -0.1875 -0.828125 -0.40625q-0.328125 -0.234375 -0.5 -0.546875q-0.171875 -0.3125 -0.171875 -0.75q0 -0.8125 0.34375 -1.453125q0.359375 -0.65625 0.9375 -1.09375q0.578125 -0.453125 1.34375 -0.671875q0.765625 -0.234375 1.609375 -0.234375q1.078125 0 1.875 0.375q0.796875 0.359375 1.234375 0.96875l-0.796875 0.75q-0.390625 -0.5625 -1.09375 -0.84375q-0.6875 -0.28125 -1.484375 -0.28125q-0.53125 0 -1.03125 0.140625q-0.484375 0.125 -0.859375 0.390625q-0.375 0.265625 -0.59375 0.671875q-0.21875 0.390625 -0.21875 0.9375q0 0.609375 0.484375 0.875q0.484375 0.25 1.515625 0.515625q1.53125 0.375 2.34375 0.859375q0.8125 0.484375 0.8125 1.46875q0 0.75 -0.328125 1.375q-0.328125 0.625 -0.90625 1.078125q-0.578125 0.453125 -1.390625 0.71875q-0.796875 0.25 -1.75 0.25z" fill-rule="nonzero"></path><path fill="#000000" fill-opacity="0.0" d="m334.98425 82.88189l191.77954 0l0 48.251976l-191.77954 0z" fill-rule="evenodd"></path><path fill="#1155cc" d="m364.4346 111.181q2.125 0.34375 3.375 1.921875q1.265625 1.5625 1.265625 3.859375q0 1.453125 -0.53125 2.640625q-0.515625 1.203125 -1.5 2.046875q-0.96875 0.859375 -2.328125 1.3125q-1.359375 0.46875 -3.03125 0.46875q-2.421875 0 -4.25 -0.984375q-1.828125 -0.96875 -2.75 -2.6875l1.5 -1.390625q0.671875 1.421875 2.046875 2.25q1.375 0.828125 3.453125 0.828125q2.40625 0 3.78125 -1.171875q1.375 -1.15625 1.375 -3.34375q0 -2.203125 -1.4375 -3.484375q-1.4375 -1.28125 -4.15625 -1.28125l-0.8125 0l0 -1.859375l0.875 0q2.453125 0 3.765625 -1.125q1.3125 -1.140625 1.3125 -2.96875q0 -0.953125 -0.359375 -1.6875q-0.34375 -0.734375 -0.96875 -1.234375q-0.625 -0.5 -1.46875 -0.75q-0.84375 -0.265625 -1.84375 -0.265625q-1.8125 0 -3.203125 0.828125q-1.390625 0.8125 -2.109375 2.25l-1.40625 -1.34375q0.390625 -0.828125 1.09375 -1.515625q0.703125 -0.6875 1.59375 -1.171875q0.90625 -0.484375 1.984375 -0.75q1.09375 -0.28125 2.25 -0.28125q1.46875 0 2.703125 0.421875q1.234375 0.421875 2.125 1.171875q0.890625 0.75 1.390625 1.8125q0.5 1.046875 0.5 2.328125q0 0.953125 -0.296875 1.84375q-0.28125 0.875 -0.828125 1.5625q-0.546875 0.6875 -1.328125 1.15625q-0.78125 0.453125 -1.78125 0.59375zm8.197418 7.546875l0 -3.140625l1.890625 0l0 3.140625l-1.890625 0zm14.973663 0l0 -22.71875l9.609375 0q1.46875 0 2.703125 0.625q1.234375 0.625 2.125 1.640625q0.890625 1.0 1.390625 2.28125q0.5 1.28125 0.5 2.59375q0 1.234375 -0.375 2.375q-0.359375 1.140625 -1.015625 2.0625q-0.65625 0.90625 -1.59375 1.53125q-0.921875 0.625 -2.078125 0.84375l5.578125 8.765625l-2.53125 0l-5.34375 -8.390625l-6.71875 0l0 8.390625l-2.25 0zm2.25 -10.375l7.421875 0q0.984375 0 1.796875 -0.421875q0.828125 -0.4375 1.390625 -1.171875q0.578125 -0.734375 0.890625 -1.65625q0.328125 -0.9375 0.328125 -1.953125q0 -1.03125 -0.375 -1.96875q-0.359375 -0.953125 -0.984375 -1.65625q-0.625 -0.703125 -1.46875 -1.109375q-0.84375 -0.421875 -1.78125 -0.421875l-7.21875 0l0 10.359375zm25.396027 10.6875q-1.8125 0 -3.34375 -0.6875q-1.515625 -0.6875 -2.640625 -1.875q-1.109375 -1.203125 -1.734375 -2.765625q-0.625 -1.578125 -0.625 -3.375q0 -1.75 0.625 -3.296875q0.625 -1.5625 1.71875 -2.71875q1.109375 -1.171875 2.640625 -1.859375q1.546875 -0.6875 3.328125 -0.6875q1.828125 0 3.34375 0.6875q1.53125 0.6875 2.609375 1.875q1.09375 1.171875 1.703125 2.71875q0.609375 1.53125 0.609375 3.25q0 0.265625 0 0.53125q0 0.25 -0.03125 0.34375l-14.28125 0q0.09375 1.34375 0.625 2.484375q0.53125 1.125 1.359375 1.96875q0.84375 0.828125 1.90625 1.296875q1.078125 0.453125 2.296875 0.453125q0.796875 0 1.59375 -0.21875q0.796875 -0.234375 1.46875 -0.609375q0.671875 -0.390625 1.21875 -0.953125q0.546875 -0.5625 0.828125 -1.234375l1.890625 0.515625q-0.390625 0.9375 -1.09375 1.6875q-0.703125 0.75 -1.625 1.3125q-0.921875 0.5625 -2.046875 0.859375q-1.125 0.296875 -2.34375 0.296875zm6.15625 -9.53125q-0.109375 -1.34375 -0.640625 -2.4375q-0.515625 -1.109375 -1.34375 -1.90625q-0.8125 -0.8125 -1.890625 -1.25q-1.0625 -0.453125 -2.28125 -0.453125q-1.203125 0 -2.296875 0.453125q-1.09375 0.4375 -1.90625 1.25q-0.8125 0.796875 -1.3125 1.921875q-0.5 1.109375 -0.59375 2.421875l12.265625 0zm11.862183 9.53125q-1.6875 0 -3.078125 -0.71875q-1.390625 -0.71875 -2.390625 -1.90625q-0.984375 -1.203125 -1.53125 -2.75q-0.546875 -1.5625 -0.546875 -3.25q0 -1.734375 0.609375 -3.296875q0.609375 -1.578125 1.671875 -2.75q1.078125 -1.1875 2.53125 -1.890625q1.453125 -0.703125 3.125 -0.703125q0.953125 0 1.859375 0.265625q0.921875 0.265625 1.71875 0.734375q0.796875 0.46875 1.453125 1.125q0.65625 0.65625 1.140625 1.421875l0 -3.265625l1.953125 0l0 20.578125q0 0.890625 0.796875 0.921875l0 1.890625q-0.3125 0.0625 -0.625 0.0625q-0.296875 0 -0.59375 0q-0.734375 -0.0625 -1.25 -0.625q-0.5 -0.5625 -0.5 -1.328125l0 -8.28125q-1.21875 1.859375 -2.828125 2.8125q-1.59375 0.953125 -3.515625 0.953125zm0.671875 -1.90625q0.96875 0 1.8125 -0.3125q0.84375 -0.328125 1.5625 -0.859375q0.71875 -0.53125 1.296875 -1.25q0.578125 -0.71875 1.0 -1.515625l0 -5.15625q-0.125 -0.859375 -0.671875 -1.640625q-0.546875 -0.796875 -1.328125 -1.40625q-0.78125 -0.609375 -1.71875 -0.953125q-0.921875 -0.359375 -1.828125 -0.359375q-1.34375 0 -2.484375 0.578125q-1.125 0.578125 -1.9375 1.53125q-0.8125 0.9375 -1.265625 2.15625q-0.453125 1.21875 -0.453125 2.5q0 1.34375 0.453125 2.5625q0.453125 1.203125 1.25 2.125q0.796875 0.90625 1.890625 1.453125q1.109375 0.546875 2.421875 0.546875zm17.853394 1.90625q-2.71875 0 -4.046875 -1.796875q-1.328125 -1.8125 -1.328125 -5.390625l0 -9.796875l2.1875 0l0 9.40625q0 5.671875 3.859375 5.671875q0.96875 0 1.890625 -0.3125q0.9375 -0.328125 1.71875 -0.9375q0.78125 -0.609375 1.40625 -1.4375q0.625 -0.84375 1.0 -1.890625l0 -10.5l2.1875 0l0 13.859375q0 0.890625 0.765625 0.890625l0 1.921875q-0.390625 0.0625 -0.625 0.0625q-0.234375 0 -0.34375 0q-0.765625 -0.03125 -1.25 -0.53125q-0.46875 -0.515625 -0.46875 -1.390625l0 -1.921875q-1.09375 1.953125 -2.96875 3.03125q-1.859375 1.0625 -3.984375 1.0625zm20.992432 0q-1.8125 0 -3.34375 -0.6875q-1.515625 -0.6875 -2.640625 -1.875q-1.109375 -1.203125 -1.734375 -2.765625q-0.625 -1.578125 -0.625 -3.375q0 -1.75 0.625 -3.296875q0.625 -1.5625 1.71875 -2.71875q1.109375 -1.171875 2.640625 -1.859375q1.546875 -0.6875 3.328125 -0.6875q1.828125 0 3.34375 0.6875q1.53125 0.6875 2.609375 1.875q1.09375 1.171875 1.703125 2.71875q0.609375 1.53125 0.609375 3.25q0 0.265625 0 0.53125q0 0.25 -0.03125 0.34375l-14.28125 0q0.09375 1.34375 0.625 2.484375q0.53125 1.125 1.359375 1.96875q0.84375 0.828125 1.90625 1.296875q1.078125 0.453125 2.296875 0.453125q0.796875 0 1.59375 -0.21875q0.796875 -0.234375 1.46875 -0.609375q0.671875 -0.390625 1.21875 -0.953125q0.546875 -0.5625 0.828125 -1.234375l1.890625 0.515625q-0.390625 0.9375 -1.09375 1.6875q-0.703125 0.75 -1.625 1.3125q-0.921875 0.5625 -2.046875 0.859375q-1.125 0.296875 -2.34375 0.296875zm6.15625 -9.53125q-0.109375 -1.34375 -0.640625 -2.4375q-0.515625 -1.109375 -1.34375 -1.90625q-0.8125 -0.8125 -1.890625 -1.25q-1.0625 -0.453125 -2.28125 -0.453125q-1.203125 0 -2.296875 0.453125q-1.09375 0.4375 -1.90625 1.25q-0.8125 0.796875 -1.3125 1.921875q-0.5 1.109375 -0.59375 2.421875l12.265625 0zm10.971527 9.53125q-1.953125 0 -3.8125 -0.625q-1.859375 -0.640625 -3.203125 -1.859375l1.0 -1.46875q1.40625 1.140625 2.859375 1.71875q1.453125 0.578125 3.125 0.578125q2.015625 0 3.203125 -0.8125q1.203125 -0.8125 1.203125 -2.328125q0 -0.703125 -0.3125 -1.15625q-0.3125 -0.46875 -0.9375 -0.8125q-0.625 -0.359375 -1.578125 -0.625q-0.9375 -0.28125 -2.1875 -0.5625q-1.4375 -0.359375 -2.5 -0.703125q-1.046875 -0.359375 -1.734375 -0.796875q-0.6875 -0.453125 -1.03125 -1.109375q-0.328125 -0.65625 -0.328125 -1.65625q0 -1.25 0.484375 -2.203125q0.5 -0.96875 1.34375 -1.578125q0.859375 -0.625 1.984375 -0.9375q1.140625 -0.328125 2.421875 -0.328125q1.921875 0 3.484375 0.625q1.5625 0.609375 2.53125 1.640625l-1.0625 1.28125q-0.921875 -0.96875 -2.25 -1.4375q-1.328125 -0.484375 -2.765625 -0.484375q-0.859375 0 -1.609375 0.1875q-0.734375 0.171875 -1.296875 0.5625q-0.546875 0.375 -0.875 0.96875q-0.3125 0.578125 -0.3125 1.390625q0 0.671875 0.21875 1.09375q0.21875 0.40625 0.734375 0.71875q0.515625 0.296875 1.296875 0.546875q0.78125 0.234375 1.90625 0.484375q1.59375 0.390625 2.8125 0.78125q1.21875 0.375 2.03125 0.890625q0.8125 0.5 1.234375 1.234375q0.421875 0.734375 0.421875 1.796875q0 2.296875 -1.765625 3.640625q-1.765625 1.34375 -4.734375 1.34375zm18.052795 -1.109375q-0.203125 0.09375 -0.578125 0.25q-0.359375 0.15625 -0.84375 0.328125q-0.46875 0.15625 -1.078125 0.28125q-0.609375 0.125 -1.28125 0.125q-0.703125 0 -1.34375 -0.1875q-0.640625 -0.1875 -1.125 -0.578125q-0.46875 -0.40625 -0.765625 -1.015625q-0.28125 -0.609375 -0.28125 -1.421875l0 -11.921875l-2.3125 0l0 -1.734375l2.3125 0l0 -5.625l2.171875 0l0 5.625l3.84375 0l0 1.734375l-3.84375 0l0 11.328125q0.0625 0.921875 0.65625 1.359375q0.59375 0.421875 1.359375 0.421875q0.921875 0 1.625 -0.296875q0.703125 -0.3125 0.90625 -0.4375l0.578125 1.765625z" fill-rule="nonzero"></path></g></svg>

