<?xml version="1.0" standalone="yes"?>

<svg version="1.1" viewBox="0.0 0.0 768.4304461942257 518.7454068241469" fill="none" stroke="none" stroke-linecap="square" stroke-miterlimit="10" xmlns="http://www.w3.org/2000/svg" xmlns:xlink="http://www.w3.org/1999/xlink"><clipPath id="p.0"><path d="m0 0l768.4304 0l0 518.7454l-768.4304 0l0 -518.7454z" clip-rule="nonzero"></path></clipPath><g clip-path="url(#p.0)"><path fill="#000000" fill-opacity="0.0" d="m0 0l768.4304 0l0 518.7454l-768.4304 0z" fill-rule="evenodd"></path><path fill="#2c3e50" d="m1.076233 101.04766l0 0c0 -14.814865 12.00982 -26.824684 26.824684 -26.824684l248.87033 0c7.1143494 0 13.937317 2.8261642 18.967896 7.8567734c5.030609 5.0306015 7.856781 11.853561 7.856781 18.96791l0 107.295525c0 14.81485 -12.009827 26.824677 -26.824677 26.824677l-248.87033 0c-14.814864 0 -26.824684 -12.009827 -26.824684 -26.824677z" fill-rule="evenodd"></path><path fill="#ffffff" d="m87.26577 98.95591l3.609375 15.546875l0.0625 0l3.96875 -15.546875l4.703125 0l3.90625 15.734375l0.0625 0l3.75 -15.734375l4.921875 0l-6.140625 22.84375l-5.0 0l-3.859375 -15.546875l-0.0625 0l-3.8125 15.546875l-5.09375 0l-6.046875 -22.84375l5.03125 0zm34.453125 5.859375q3.671875 0 5.859375 2.53125q2.2031174 2.515625 2.2031174 6.4375l-0.03125 0.84375l-11.937492 0q0.09375 2.140625 1.109375 3.171875q1.03125 1.03125 2.9375 1.03125q1.234375 0 2.28125 -0.625q1.046875 -0.640625 1.328125 -1.53125l3.9999924 0q-0.921875 2.8125 -2.8437424 4.203125q-1.921875 1.375 -4.90625 1.375q-3.828125 0 -6.140625 -2.421875q-2.3125 -2.421875 -2.3125 -6.28125q0 -3.703125 2.359375 -6.21875q2.375 -2.515625 6.09375 -2.515625zm-3.90625 6.9375l7.390625 0q-0.328125 -1.828125 -1.1875 -2.671875q-0.84375 -0.84375 -2.453125 -0.84375q-1.65625 0 -2.625 0.9375q-0.96875 0.9375 -1.125 2.578125zm19.171867 -12.796875l0 8.3125l0.078125 0q0.734375 -1.125 2.109375 -1.78125q1.375 -0.671875 3.09375 -0.671875q2.90625 0 4.875 2.359375q1.984375 2.34375 1.984375 6.34375q0 3.96875 -1.984375 6.359375q-1.96875 2.375 -4.890625 2.375q-2.0 0 -3.375 -0.65625q-1.375 -0.671875 -2.046875 -1.90625l-0.0625 0l0 2.109375l-4.3125 0l0 -22.84375l4.53125 0zm-0.15625 14.59375q0 2.375 1.046875 3.828125q1.046875 1.453125 2.828125 1.453125q1.78125 0 2.828125 -1.453125q1.046875 -1.453125 1.046875 -3.828125q0 -2.390625 -1.03125 -3.84375q-1.015625 -1.46875 -2.875 -1.46875q-1.734375 0 -2.796875 1.4375q-1.046875 1.421875 -1.046875 3.875zm21.953125 -8.734375q3.375 0 5.203125 1.34375q1.84375 1.328125 2.09375 3.921875l-4.328125 0q-0.09375 -1.171875 -0.875 -1.703125q-0.78125 -0.53125 -2.234375 -0.53125q-1.3125 0 -1.921875 0.390625q-0.59375 0.390625 -0.59375 1.140625q0 0.765625 0.78125 1.265625q0.796875 0.484375 3.1875 0.9375q3.8125 0.734375 5.109375 1.890625q1.3125 1.15625 1.3125 3.03125q0 2.8125 -2.0625 4.28125q-2.046875 1.46875 -5.484375 1.46875q-3.4375 0 -5.546875 -1.453125q-2.09375 -1.46875 -2.234375 -4.375l4.328125 0q0 1.3125 0.984375 2.046875q1.0 0.734375 2.5 0.734375q1.328125 0 2.15625 -0.5625q0.828125 -0.578125 0.828125 -1.546875q0 -0.859375 -1.078125 -1.40625q-1.078125 -0.546875 -3.953125 -1.140625q-2.84375 -0.5625 -4.109375 -1.609375q-1.265625 -1.046875 -1.265625 -2.828125q0 -2.625 1.859375 -3.953125q1.859375 -1.34375 5.34375 -1.34375zm15.078125 -5.859375l0 3.734375l-4.546875 0l0 -3.734375l4.546875 0zm0 6.296875l0 16.546875l-4.546875 0l0 -16.546875l4.546875 0zm9.328125 -4.953125l0 4.953125l3.328125 0l0 3.046875l-3.328125 0l0 8.296875q0 1.015625 0.375 1.421875q0.390625 0.390625 1.546875 0.390625q0.390625 0 0.75 -0.03125q0.359375 -0.03125 0.65625 -0.09375l0 3.546875q-0.5625 0.09375 -1.265625 0.125q-0.6875 0.03125 -1.359375 0.03125q-2.953125 0 -4.109375 -1.0q-1.140625 -1.015625 -1.140625 -2.828125l0 -9.859375l-2.75 0l0 -3.046875l2.75 0l0 -4.953125l4.546875 0zm13.15625 4.515625q3.671875 0 5.859375 2.53125q2.203125 2.515625 2.203125 6.4375l-0.03125 0.84375l-11.9375 0q0.09375 2.140625 1.109375 3.171875q1.03125 1.03125 2.9375 1.03125q1.234375 0 2.28125 -0.625q1.046875 -0.640625 1.328125 -1.53125l4.0 0q-0.921875 2.8125 -2.84375 4.203125q-1.921875 1.375 -4.90625 1.375q-3.828125 0 -6.140625 -2.421875q-2.3125 -2.421875 -2.3125 -6.28125q0 -3.703125 2.359375 -6.21875q2.375 -2.515625 6.09375 -2.515625zm-3.90625 6.9375l7.390625 0q-0.328125 -1.828125 -1.1875 -2.671875q-0.84375 -0.84375 -2.453125 -0.84375q-1.65625 0 -2.625 0.9375q-0.96875 0.9375 -1.125 2.578125zm21.421875 -6.9375q3.375 0 5.203125 1.34375q1.84375 1.328125 2.09375 3.921875l-4.328125 0q-0.09375 -1.171875 -0.875 -1.703125q-0.78125 -0.53125 -2.234375 -0.53125q-1.3125 0 -1.921875 0.390625q-0.59375 0.390625 -0.59375 1.140625q0 0.765625 0.78125 1.265625q0.796875 0.484375 3.1875 0.9375q3.8125 0.734375 5.109375 1.890625q1.3125 1.15625 1.3125 3.03125q0 2.8125 -2.0625 4.28125q-2.046875 1.46875 -5.484375 1.46875q-3.4375 0 -5.546875 -1.453125q-2.09375 -1.46875 -2.234375 -4.375l4.328125 0q0 1.3125 0.984375 2.046875q1.0 0.734375 2.5 0.734375q1.328125 0 2.15625 -0.5625q0.828125 -0.578125 0.828125 -1.546875q0 -0.859375 -1.078125 -1.40625q-1.078125 -0.546875 -3.953125 -1.140625q-2.84375 -0.5625 -4.109375 -1.609375q-1.265625 -1.046875 -1.265625 -2.828125q0 -2.625 1.859375 -3.953125q1.859375 -1.34375 5.34375 -1.34375z" fill-rule="nonzero"></path><path fill="#0ad2f5" d="m22.257336 156.91612l0 0c0 -6.2390594 5.0577564 -11.296814 11.296814 -11.296814l237.56386 0c2.9960938 0 5.8694763 1.1901855 7.988037 3.3087616c2.1185608 2.1185608 3.3087769 4.9919434 3.3087769 7.9880524l0 45.185898c0 6.2390594 -5.05777 11.296814 -11.296814 11.296814l-237.56386 0c-6.2390575 0 -11.296814 -5.0577545 -11.296814 -11.296814z" fill-rule="evenodd"></path><path fill="#2c3e50" d="m54.547016 165.80428l8.546875 22.828125l-5.21875 0l-1.71875 -5.078125l-8.546875 0l-1.796875 5.09375l-5.078125 0l8.671875 -22.84375l5.140625 0zm-2.65625 5.625l-2.96875 8.390625l5.921875 0l-2.875 -8.390625l-0.078125 0zm17.250004 0.671875l0 9.484375q0 1.875 0.65625 2.90625q0.65625 1.015625 2.265625 1.015625q1.875 0 2.6875 -1.125q0.828125 -1.140625 0.828125 -3.453125l0 -8.828125l4.546875 0l0 16.546875l-4.328125 0l0 -2.296875l-0.09375 0q-0.859375 1.375 -2.21875 2.0625q-1.359375 0.6875 -2.859375 0.6875q-3.078125 0 -4.546875 -1.5625q-1.46875 -1.578125 -1.46875 -5.078125l0 -10.359375l4.53125 0zm20.1875 -4.953125l0 4.953125l3.328125 0l0 3.046875l-3.328125 0l0 8.296875q0 1.015625 0.375 1.421875q0.390625 0.390625 1.546875 0.390625q0.390625 0 0.75 -0.03125q0.359375 -0.03125 0.65625 -0.09375l0 3.546875q-0.5625 0.09375 -1.265625 0.125q-0.6875 0.03125 -1.359375 0.03125q-2.953125 0 -4.109375 -1.0q-1.140625 -1.015625 -1.140625 -2.828125l0 -9.859375l-2.75 0l0 -3.046875l2.75 0l0 -4.953125l4.546875 0zm10.046875 -1.34375l0 8.609375l0.109375 0q0.71875 -1.234375 2.03125 -1.984375q1.328125 -0.765625 2.828125 -0.765625q3.15625 0 4.578125 1.609375q1.4375 1.609375 1.4375 5.03125l0 10.34375l-4.546875 0l0 -9.484375q0 -1.9375 -0.671875 -2.921875q-0.65625 -1.0 -2.234375 -1.0q-1.890625 0 -2.71875 1.125q-0.8125 1.125 -0.8125 3.453125l0 8.828125l-4.53125 0l0 -22.84375l4.53125 0zm22.078125 5.859375q3.671875 0 5.859375 2.53125q2.2031174 2.515625 2.2031174 6.4375l-0.03125 0.84375l-11.937492 0q0.09375 2.140625 1.109375 3.171875q1.03125 1.03125 2.9375 1.03125q1.234375 0 2.28125 -0.625q1.046875 -0.640625 1.328125 -1.53125l3.9999924 0q-0.921875 2.8125 -2.8437424 4.203125q-1.921875 1.375 -4.90625 1.375q-3.828125 0 -6.140625 -2.421875q-2.3125 -2.421875 -2.3125 -6.28125q0 -3.703125 2.359375 -6.21875q2.375 -2.515625 6.09375 -2.515625zm-3.90625 6.9375l7.390625 0q-0.328125 -1.828125 -1.1875 -2.671875q-0.84375 -0.84375 -2.453125 -0.84375q-1.65625 0 -2.625 0.9375q-0.96875 0.9375 -1.125 2.578125zm24.124992 -6.9375q3.171875 0 4.59375 1.609375q1.4375 1.59375 1.4375 5.03125l0 10.34375l-4.546875 0l0 -9.484375q0 -1.9375 -0.671875 -2.921875q-0.65625 -1.0 -2.234375 -1.0q-1.890625 0 -2.71875 1.125q-0.8125 1.125 -0.8125 3.453125l0 8.828125l-4.53125 0l0 -16.546875l4.3125 0l0 2.3125l0.09375 0q0.828125 -1.328125 2.15625 -2.03125q1.328125 -0.71875 2.921875 -0.71875zm15.234375 -4.515625l0 4.953125l3.328125 0l0 3.046875l-3.328125 0l0 8.296875q0 1.015625 0.375 1.421875q0.390625 0.390625 1.546875 0.390625q0.390625 0 0.75 -0.03125q0.359375 -0.03125 0.65625 -0.09375l0 3.546875q-0.5625 0.09375 -1.265625 0.125q-0.6875 0.03125 -1.359375 0.03125q-2.953125 0 -4.109375 -1.0q-1.140625 -1.015625 -1.140625 -2.828125l0 -9.859375l-2.75 0l0 -3.046875l2.75 0l0 -4.953125l4.546875 0zm10.1875 -1.34375l0 3.734375l-4.546875 0l0 -3.734375l4.546875 0zm0 6.296875l0 16.546875l-4.546875 0l0 -16.546875l4.546875 0zm11.5 -0.4375q3.203125 0 5.390625 1.65625q2.203125 1.65625 2.390625 4.609375l-4.453125 0q-0.203125 -1.421875 -1.046875 -2.125q-0.84375 -0.71875 -2.3125 -0.71875q-1.828125 0 -2.84375 1.5q-1.015625 1.5 -1.015625 3.875q0 2.375 1.0 3.796875q1.0 1.421875 2.765625 1.421875q1.515625 0 2.453125 -0.859375q0.9375 -0.875 1.171875 -2.515625l4.375 0q-0.453125 3.28125 -2.5625 5.046875q-2.109375 1.75 -5.40625 1.75q-3.6875 0 -6.015625 -2.359375q-2.328125 -2.375 -2.328125 -6.125q0 -4.015625 2.28125 -6.484375q2.296875 -2.46875 6.15625 -2.46875zm18.046875 0q3.671875 0 5.453125 1.203125q1.796875 1.203125 1.796875 3.390625l0 8.875q0 1.0 0.125 2.0q0.140625 1.0 0.453125 1.515625l-4.609375 0q-0.125 -0.375 -0.21875 -0.765625q-0.078125 -0.40625 -0.109375 -0.8125q-0.953125 0.984375 -2.375 1.515625q-1.40625 0.515625 -3.1875 0.515625q-2.5625 0 -4.09375 -1.28125q-1.53125 -1.296875 -1.53125 -3.6875q0 -2.3125 1.4375 -3.53125q1.4375 -1.234375 5.234375 -1.65625q2.640625 -0.25 3.484375 -0.640625q0.84375 -0.40625 0.84375 -1.390625q0 -1.109375 -0.65625 -1.65625q-0.640625 -0.5625 -2.265625 -0.5625q-1.40625 0 -2.15625 0.609375q-0.75 0.59375 -0.875 1.890625l-4.546875 0q0.1875 -2.71875 2.234375 -4.125q2.0625 -1.40625 5.5625 -1.40625zm-3.765625 12.28125q0 0.984375 0.671875 1.546875q0.671875 0.5625 2.125 0.5625q1.8125 0 2.734375 -0.953125q0.9375 -0.953125 0.9375 -2.78125l0 -1.765625q-0.40625 0.328125 -1.078125 0.5q-0.65625 0.15625 -2.390625 0.40625q-1.546875 0.203125 -2.28125 0.8125q-0.71875 0.59375 -0.71875 1.671875zm20.296875 -16.796875l0 4.953125l3.328125 0l0 3.046875l-3.328125 0l0 8.296875q0 1.015625 0.375 1.421875q0.390625 0.390625 1.546875 0.390625q0.390625 0 0.75 -0.03125q0.359375 -0.03125 0.65625 -0.09375l0 3.546875q-0.5625 0.09375 -1.265625 0.125q-0.6875 0.03125 -1.359375 0.03125q-2.953125 0 -4.109375 -1.0q-1.140625 -1.015625 -1.140625 -2.828125l0 -9.859375l-2.75 0l0 -3.046875l2.75 0l0 -4.953125l4.546875 0zm10.1875 -1.34375l0 3.734375l-4.546875 0l0 -3.734375l4.546875 0zm0 6.296875l0 16.546875l-4.546875 0l0 -16.546875l4.546875 0zm11.609375 -0.4375q3.890625 0 6.234375 2.40625q2.34375 2.390625 2.34375 6.328125q0 3.953125 -2.375 6.328125q-2.359375 2.375 -6.203125 2.375q-3.84375 0 -6.203125 -2.390625q-2.34375 -2.390625 -2.34375 -6.3125q0 -3.921875 2.3125 -6.328125q2.3125 -2.40625 6.234375 -2.40625zm-4.0 8.734375q0 2.609375 1.0625 3.953125q1.078125 1.328125 2.9375 1.328125q1.9375 0 2.984375 -1.375q1.046875 -1.390625 1.046875 -3.90625q0 -2.46875 -1.015625 -3.890625q-1.015625 -1.421875 -3.046875 -1.421875q-1.828125 0 -2.90625 1.328125q-1.0625 1.3125 -1.0625 3.984375zm25.0 -8.734375q3.1718903 0 4.5937653 1.609375q1.4375 1.59375 1.4375 5.03125l0 10.34375l-4.546875 0l0 -9.484375q0 -1.9375 -0.671875 -2.921875q-0.65625 -1.0 -2.2343903 -1.0q-1.890625 0 -2.71875 1.125q-0.8125 1.125 -0.8125 3.453125l0 8.828125l-4.53125 0l0 -16.546875l4.3125 0l0 2.3125l0.09375 0q0.828125 -1.328125 2.15625 -2.03125q1.328125 -0.71875 2.921875 -0.71875z" fill-rule="nonzero"></path><path fill="#2c3e50" d="m464.60892 188.27602l0 0c0 -14.814865 12.009827 -26.824692 26.824677 -26.824692l248.87036 0c7.114319 0 13.937256 2.8261719 18.967896 7.8567657c5.0305786 5.030609 7.8567505 11.853577 7.8567505 18.967926l0 107.29552c0 14.81485 -12.009827 26.824677 -26.824646 26.824677l-248.87036 0c-14.81485 0 -26.824677 -12.009827 -26.824677 -26.824677z" fill-rule="evenodd"></path><path fill="#ffffff" d="m521.025 186.18427q3.578125 0 5.65625 2.015625q2.09375 2.0 2.09375 5.3125q0 3.296875 -2.09375 5.3125q-2.078125 2.015625 -5.65625 2.015625l-5.4375 0l0 8.1875l-5.03125 0l0 -22.84375l10.46875 0zm-1.390625 10.75q2.15625 0 3.203125 -0.8125q1.0625 -0.8125 1.0625 -2.609375q0 -1.75 -1.015625 -2.578125q-1.015625 -0.84375 -3.234375 -0.84375l-4.0625 0l0 6.84375l4.046875 0zm21.4375 -4.890625q0.296875 0 0.546875 0.046875q0.25 0.03125 0.46875 0.109375l0 4.21875q-0.390625 -0.078125 -0.765625 -0.109375q-0.359375 -0.046875 -0.859375 -0.046875q-2.296875 0 -3.40625 1.40625q-1.09375 1.40625 -1.09375 3.765625l0 7.59375l-4.53125 0l0 -16.546875l4.3125 0l0 3.078125l0.0625 0q0.71875 -1.625 2.140625 -2.5625q1.4375 -0.953125 3.125 -0.953125zm10.84375 0q3.890625 0 6.234375 2.40625q2.34375 2.390625 2.34375 6.328125q0 3.953125 -2.375 6.328125q-2.359375 2.375 -6.203125 2.375q-3.84375 0 -6.203125 -2.390625q-2.34375 -2.390625 -2.34375 -6.3125q0 -3.921875 2.3125 -6.328125q2.3125 -2.40625 6.234375 -2.40625zm-4.0 8.734375q0 2.609375 1.0625 3.953125q1.078125 1.328125 2.9375 1.328125q1.9375 0 2.984375 -1.375q1.046875 -1.390625 1.046875 -3.90625q0 -2.46875 -1.015625 -3.890625q-1.015625 -1.421875 -3.046875 -1.421875q-1.828125 0 -2.90625 1.328125q-1.0625 1.3125 -1.0625 3.984375zm21.265625 -13.25l0 4.953125l3.328125 0l0 3.046875l-3.328125 0l0 8.296875q0 1.015625 0.375 1.421875q0.390625 0.390625 1.546875 0.390625q0.390625 0 0.75 -0.03125q0.359375 -0.03125 0.65625 -0.09375l0 3.546875q-0.5625 0.09375 -1.265625 0.125q-0.6875 0.03125 -1.359375 0.03125q-2.953125 0 -4.109375 -1.0q-1.140625 -1.015625 -1.140625 -2.828125l0 -9.859375l-2.75 0l0 -3.046875l2.75 0l0 -4.953125l4.546875 0zm13.546875 4.515625q3.890625 0 6.234375 2.40625q2.34375 2.390625 2.34375 6.328125q0 3.953125 -2.375 6.328125q-2.359375 2.375 -6.203125 2.375q-3.84375 0 -6.203125 -2.390625q-2.34375 -2.390625 -2.34375 -6.3125q0 -3.921875 2.3125 -6.328125q2.3125 -2.40625 6.234375 -2.40625zm-4.0 8.734375q0 2.609375 1.0625 3.953125q1.078125 1.328125 2.9375 1.328125q1.9375 0 2.984375 -1.375q1.046875 -1.390625 1.046875 -3.90625q0 -2.46875 -1.015625 -3.890625q-1.015625 -1.421875 -3.046875 -1.421875q-1.828125 0 -2.90625 1.328125q-1.0625 1.3125 -1.0625 3.984375zm23.4375 -8.734375q3.203125 0 5.390625 1.65625q2.203125 1.65625 2.390625 4.609375l-4.453125 0q-0.203125 -1.421875 -1.046875 -2.125q-0.84375 -0.71875 -2.3125 -0.71875q-1.828125 0 -2.84375 1.5q-1.015625 1.5 -1.015625 3.875q0 2.375 1.0 3.796875q1.0 1.421875 2.765625 1.421875q1.515625 0 2.453125 -0.859375q0.9375 -0.875 1.171875 -2.515625l4.375 0q-0.453125 3.28125 -2.5625 5.046875q-2.109375 1.75 -5.40625 1.75q-3.6875 0 -6.015625 -2.359375q-2.328125 -2.375 -2.328125 -6.125q0 -4.015625 2.28125 -6.484375q2.296875 -2.46875 6.15625 -2.46875zm18.484375 0q3.890625 0 6.234375 2.40625q2.34375 2.390625 2.34375 6.328125q0 3.953125 -2.375 6.328125q-2.359375 2.375 -6.203125 2.375q-3.84375 0 -6.203125 -2.390625q-2.34375 -2.390625 -2.34375 -6.3125q0 -3.921875 2.3125 -6.328125q2.3125 -2.40625 6.234375 -2.40625zm-4.0 8.734375q0 2.609375 1.0625 3.953125q1.078125 1.328125 2.9375 1.328125q1.9375 0 2.984375 -1.375q1.046875 -1.390625 1.046875 -3.90625q0 -2.46875 -1.015625 -3.890625q-1.015625 -1.421875 -3.046875 -1.421875q-1.828125 0 -2.90625 1.328125q-1.0625 1.3125 -1.0625 3.984375zm20.1875 -14.59375l0 22.84375l-4.546875 0l0 -22.84375l4.546875 0zm20.4375 -0.546875q-1.703125 3.171875 -2.609375 6.890625q-0.890625 3.703125 -0.890625 7.609375q0 3.921875 0.828125 7.578125q0.84375 3.65625 2.625 7.140625l-3.765625 0q-2.078125 -3.421875 -3.15625 -7.125q-1.078125 -3.71875 -1.078125 -7.28125q0 -3.71875 1.09375 -7.75q1.09375 -4.046875 3.140625 -7.0625l3.8125 0zm11.984375 0.546875q4.5625 0 7.390625 2.984375q2.828125 2.96875 2.828125 8.3125q0 5.34375 -2.765625 8.453125q-2.765625 3.09375 -7.453125 3.09375l-10.015625 0l0 -22.84375l10.015625 0zm-0.390625 18.625q2.40625 0 3.984375 -1.71875q1.59375 -1.734375 1.59375 -5.15625q0 -3.953125 -1.65625 -5.734375q-1.65625 -1.796875 -4.796875 -1.796875l-3.71875 0l0 14.40625l4.59375 0zm19.125 -18.625l0 22.84375l-5.03125 0l0 -22.84375l5.03125 0zm14.421875 0q4.5625 0 7.390625 2.984375q2.828125 2.96875 2.828125 8.3125q0 5.34375 -2.765625 8.453125q-2.765625 3.09375 -7.453125 3.09375l-10.015625 0l0 -22.84375l10.015625 0zm-0.390625 18.625q2.40625 0 3.984375 -1.71875q1.59375 -1.734375 1.59375 -5.15625q0 -3.953125 -1.65625 -5.734375q-1.65625 -1.796875 -4.796875 -1.796875l-3.71875 0l0 14.40625l4.59375 0zm15.46875 -19.171875q2.078125 3.40625 3.15625 7.109375q1.078125 3.703125 1.078125 7.328125q0 3.65625 -1.09375 7.71875q-1.078125 4.0625 -3.125 7.046875l-3.8125 0q1.75 -3.328125 2.609375 -6.96875q0.875 -3.640625 0.875 -7.484375q0 -3.984375 -0.859375 -7.671875q-0.859375 -3.703125 -2.59375 -7.078125l3.765625 0z" fill-rule="nonzero"></path><path fill="#0ad2f5" d="m485.79004 248.39644l0 0c0 -6.2390594 5.0577393 -11.296814 11.296814 -11.296814l237.56384 0c2.9960938 0 5.869507 1.1901855 7.988037 3.3087616c2.1185913 2.1185608 3.3087769 4.9919434 3.3087769 7.9880524l0 45.185898c0 6.239044 -5.0577393 11.296814 -11.296814 11.296814l-237.56384 0c-6.2390747 0 -11.296814 -5.05777 -11.296814 -11.296814z" fill-rule="evenodd"></path><path fill="#2c3e50" d="m518.0797 257.2846l8.546875 22.828125l-5.21875 0l-1.71875 -5.078125l-8.546875 0l-1.796875 5.09375l-5.078125 0l8.671875 -22.84375l5.140625 0zm-2.65625 5.625l-2.96875 8.390625l5.921875 0l-2.875 -8.390625l-0.078125 0zm17.25 0.671875l0 9.484375q0 1.875 0.65625 2.90625q0.65625 1.015625 2.265625 1.015625q1.875 0 2.6875 -1.125q0.828125 -1.140625 0.828125 -3.453125l0 -8.828125l4.546875 0l0 16.546875l-4.328125 0l0 -2.296875l-0.09375 0q-0.859375 1.375 -2.21875 2.0625q-1.359375 0.6875 -2.859375 0.6875q-3.078125 0 -4.546875 -1.5625q-1.46875 -1.578125 -1.46875 -5.078125l0 -10.359375l4.53125 0zm20.1875 -4.953125l0 4.953125l3.328125 0l0 3.046875l-3.328125 0l0 8.296875q0 1.015625 0.375 1.421875q0.390625 0.390625 1.546875 0.390625q0.390625 0 0.75 -0.03125q0.359375 -0.03125 0.65625 -0.09375l0 3.546875q-0.5625 0.09375 -1.265625 0.125q-0.6875 0.03125 -1.359375 0.03125q-2.953125 0 -4.109375 -1.0q-1.140625 -1.015625 -1.140625 -2.828125l0 -9.859375l-2.75 0l0 -3.046875l2.75 0l0 -4.953125l4.546875 0zm10.046875 -1.34375l0 8.609375l0.109375 0q0.71875 -1.234375 2.03125 -1.984375q1.328125 -0.765625 2.828125 -0.765625q3.15625 0 4.578125 1.609375q1.4375 1.609375 1.4375 5.03125l0 10.34375l-4.546875 0l0 -9.484375q0 -1.9375 -0.671875 -2.921875q-0.65625 -1.0 -2.234375 -1.0q-1.890625 0 -2.71875 1.125q-0.8125 1.125 -0.8125 3.453125l0 8.828125l-4.53125 0l0 -22.84375l4.53125 0zm22.078125 5.859375q3.671875 0 5.859375 2.53125q2.203125 2.515625 2.203125 6.4375l-0.03125 0.84375l-11.9375 0q0.09375 2.140625 1.109375 3.171875q1.03125 1.03125 2.9375 1.03125q1.234375 0 2.28125 -0.625q1.046875 -0.640625 1.328125 -1.53125l4.0 0q-0.921875 2.8125 -2.84375 4.203125q-1.921875 1.375 -4.90625 1.375q-3.828125 0 -6.140625 -2.421875q-2.3125 -2.421875 -2.3125 -6.28125q0 -3.703125 2.359375 -6.21875q2.375 -2.515625 6.09375 -2.515625zm-3.90625 6.9375l7.390625 0q-0.328125 -1.828125 -1.1875 -2.671875q-0.84375 -0.84375 -2.453125 -0.84375q-1.65625 0 -2.625 0.9375q-0.96875 0.9375 -1.125 2.578125zm24.125 -6.9375q3.171875 0 4.59375 1.609375q1.4375 1.59375 1.4375 5.03125l0 10.34375l-4.546875 0l0 -9.484375q0 -1.9375 -0.671875 -2.921875q-0.65625 -1.0 -2.234375 -1.0q-1.890625 0 -2.71875 1.125q-0.8125 1.125 -0.8125 3.453125l0 8.828125l-4.53125 0l0 -16.546875l4.3125 0l0 2.3125l0.09375 0q0.828125 -1.328125 2.15625 -2.03125q1.328125 -0.71875 2.921875 -0.71875zm15.234375 -4.515625l0 4.953125l3.328125 0l0 3.046875l-3.328125 0l0 8.296875q0 1.015625 0.375 1.421875q0.390625 0.390625 1.546875 0.390625q0.390625 0 0.75 -0.03125q0.359375 -0.03125 0.65625 -0.09375l0 3.546875q-0.5625 0.09375 -1.265625 0.125q-0.6875 0.03125 -1.359375 0.03125q-2.953125 0 -4.109375 -1.0q-1.140625 -1.015625 -1.140625 -2.828125l0 -9.859375l-2.75 0l0 -3.046875l2.75 0l0 -4.953125l4.546875 0zm10.1875 -1.34375l0 3.734375l-4.546875 0l0 -3.734375l4.546875 0zm0 6.296875l0 16.546875l-4.546875 0l0 -16.546875l4.546875 0zm11.5 -0.4375q3.203125 0 5.390625 1.65625q2.203125 1.65625 2.390625 4.609375l-4.453125 0q-0.203125 -1.421875 -1.046875 -2.125q-0.84375 -0.71875 -2.3125 -0.71875q-1.828125 0 -2.84375 1.5q-1.015625 1.5 -1.015625 3.875q0 2.375 1.0 3.796875q1.0 1.421875 2.765625 1.421875q1.515625 0 2.453125 -0.859375q0.9375 -0.875 1.171875 -2.515625l4.375 0q-0.453125 3.28125 -2.5625 5.046875q-2.109375 1.75 -5.40625 1.75q-3.6875 0 -6.015625 -2.359375q-2.328125 -2.375 -2.328125 -6.125q0 -4.015625 2.28125 -6.484375q2.296875 -2.46875 6.15625 -2.46875zm18.046875 0q3.671875 0 5.453125 1.203125q1.796875 1.203125 1.796875 3.390625l0 8.875q0 1.0 0.125 2.0q0.140625 1.0 0.453125 1.515625l-4.609375 0q-0.125 -0.375 -0.21875 -0.765625q-0.078125 -0.40625 -0.109375 -0.8125q-0.953125 0.984375 -2.375 1.515625q-1.40625 0.515625 -3.1875 0.515625q-2.5625 0 -4.09375 -1.28125q-1.53125 -1.296875 -1.53125 -3.6875q0 -2.3125 1.4375 -3.53125q1.4375 -1.234375 5.234375 -1.65625q2.640625 -0.25 3.484375 -0.640625q0.84375 -0.40625 0.84375 -1.390625q0 -1.109375 -0.65625 -1.65625q-0.640625 -0.5625 -2.265625 -0.5625q-1.40625 0 -2.15625 0.609375q-0.75 0.59375 -0.875 1.890625l-4.546875 0q0.1875 -2.71875 2.234375 -4.125q2.0625 -1.40625 5.5625 -1.40625zm-3.765625 12.28125q0 0.984375 0.671875 1.546875q0.671875 0.5625 2.125 0.5625q1.8125 0 2.734375 -0.953125q0.9375 -0.953125 0.9375 -2.78125l0 -1.765625q-0.40625 0.328125 -1.078125 0.5q-0.65625 0.15625 -2.390625 0.40625q-1.546875 0.203125 -2.28125 0.8125q-0.71875 0.59375 -0.71875 1.671875zm20.296875 -16.796875l0 4.953125l3.328125 0l0 3.046875l-3.328125 0l0 8.296875q0 1.015625 0.375 1.421875q0.390625 0.390625 1.546875 0.390625q0.390625 0 0.75 -0.03125q0.359375 -0.03125 0.65625 -0.09375l0 3.546875q-0.5625 0.09375 -1.265625 0.125q-0.6875 0.03125 -1.359375 0.03125q-2.953125 0 -4.109375 -1.0q-1.140625 -1.015625 -1.140625 -2.828125l0 -9.859375l-2.75 0l0 -3.046875l2.75 0l0 -4.953125l4.546875 0zm10.1875 -1.34375l0 3.734375l-4.546875 0l0 -3.734375l4.546875 0zm0 6.296875l0 16.546875l-4.546875 0l0 -16.546875l4.546875 0zm11.609375 -0.4375q3.890625 0 6.234375 2.40625q2.34375 2.390625 2.34375 6.328125q0 3.953125 -2.375 6.328125q-2.359375 2.375 -6.203125 2.375q-3.84375 0 -6.203125 -2.390625q-2.34375 -2.390625 -2.34375 -6.3125q0 -3.921875 2.3125 -6.328125q2.3125 -2.40625 6.234375 -2.40625zm-4.0 8.734375q0 2.609375 1.0625 3.953125q1.078125 1.328125 2.9375 1.328125q1.9375 0 2.984375 -1.375q1.046875 -1.390625 1.046875 -3.90625q0 -2.46875 -1.015625 -3.890625q-1.015625 -1.421875 -3.046875 -1.421875q-1.828125 0 -2.90625 1.328125q-1.0625 1.3125 -1.0625 3.984375zm25.0 -8.734375q3.171875 0 4.59375 1.609375q1.4375 1.59375 1.4375 5.03125l0 10.34375l-4.546875 0l0 -9.484375q0 -1.9375 -0.671875 -2.921875q-0.65625 -1.0 -2.234375 -1.0q-1.890625 0 -2.71875 1.125q-0.8125 1.125 -0.8125 3.453125l0 8.828125l-4.53125 0l0 -16.546875l4.3125 0l0 2.3125l0.09375 0q0.828125 -1.328125 2.15625 -2.03125q1.328125 -0.71875 2.921875 -0.71875z" fill-rule="nonzero"></path><path fill="#2c3e50" d="m1.076233 265.9123l0 0c0 -6.239044 5.057756 -11.296814 11.296814 -11.296814l279.92606 0c2.9960938 0 5.869507 1.1902008 7.9880676 3.3087769c2.1185608 2.1185608 3.3087463 4.9919434 3.3087463 7.988037l0 45.185913c0 6.239044 -5.0577393 11.296814 -11.296814 11.296814l-279.92606 0c-6.239058 0 -11.296814 -5.05777 -11.296814 -11.296814z" fill-rule="evenodd"></path><path fill="#ffffff" d="m43.851707 274.80045q3.578125 0 5.65625 2.015625q2.09375 2.0 2.09375 5.3125q0 3.296875 -2.09375 5.3125q-2.078125 2.015625 -5.65625 2.015625l-5.4375 0l0 8.1875l-5.03125 0l0 -22.84375l10.46875 0zm-1.390625 10.75q2.15625 0 3.203125 -0.8125q1.0625 -0.8125 1.0625 -2.609375q0 -1.75 -1.015625 -2.578125q-1.015625 -0.84375 -3.234375 -0.84375l-4.0625 0l0 6.84375l4.046875 0zm21.4375 -4.890625q0.296875 0 0.546875 0.046875q0.25 0.03125 0.46875 0.109375l0 4.21875q-0.390625 -0.078125 -0.765625 -0.109375q-0.359375 -0.046875 -0.859375 -0.046875q-2.296875 0 -3.40625 1.40625q-1.09375 1.40625 -1.09375 3.765625l0 7.59375l-4.53125 0l0 -16.546875l4.3125 0l0 3.078125l0.0625 0q0.71875 -1.625 2.140625 -2.5625q1.4375 -0.953125 3.125 -0.953125zm10.84375 0q3.890625 0 6.234375 2.40625q2.34375 2.390625 2.34375 6.328125q0 3.953125 -2.375 6.328125q-2.359375 2.375 -6.203125 2.375q-3.84375 0 -6.203125 -2.390625q-2.34375 -2.390625 -2.34375 -6.3125q0 -3.921875 2.3125 -6.328125q2.3125 -2.40625 6.234375 -2.40625zm-4.0 8.734375q0 2.609375 1.0625 3.953125q1.078125 1.328125 2.9375 1.328125q1.9375 0 2.984375 -1.375q1.046875 -1.390625 1.046875 -3.90625q0 -2.46875 -1.015625 -3.890625q-1.015625 -1.421875 -3.046875 -1.421875q-1.828125 0 -2.90625 1.328125q-1.0625 1.3125 -1.0625 3.984375zm21.265625 -13.25l0 4.953125l3.328125 0l0 3.046875l-3.328125 0l0 8.296875q0 1.015625 0.375 1.421875q0.390625 0.390625 1.546875 0.390625q0.390625 0 0.75 -0.03125q0.359375 -0.03125 0.65625 -0.09375l0 3.546875q-0.5625 0.09375 -1.265625 0.125q-0.6875 0.03125 -1.359375 0.03125q-2.953125 0 -4.109375 -1.0q-1.140625 -1.015625 -1.140625 -2.828125l0 -9.859375l-2.75 0l0 -3.046875l2.75 0l0 -4.953125l4.546875 0zm13.546875 4.515625q3.890625 0 6.234375 2.40625q2.34375 2.390625 2.34375 6.328125q0 3.953125 -2.375 6.328125q-2.359375 2.375 -6.203125 2.375q-3.84375 0 -6.203125 -2.390625q-2.34375 -2.390625 -2.34375 -6.3125q0 -3.921875 2.3125 -6.328125q2.3125 -2.40625 6.234375 -2.40625zm-4.0 8.734375q0 2.609375 1.0625 3.953125q1.078125 1.328125 2.9375 1.328125q1.9375 0 2.984375 -1.375q1.046875 -1.390625 1.046875 -3.90625q0 -2.46875 -1.015625 -3.890625q-1.015625 -1.421875 -3.046875 -1.421875q-1.828125 0 -2.90625 1.328125q-1.0625 1.3125 -1.0625 3.984375zm23.4375 -8.734375q3.2031326 0 5.3906326 1.65625q2.203125 1.65625 2.390625 4.609375l-4.453125 0q-0.203125 -1.421875 -1.0468826 -2.125q-0.84375 -0.71875 -2.3125 -0.71875q-1.828125 0 -2.84375 1.5q-1.015625 1.5 -1.015625 3.875q0 2.375 1.0 3.796875q1.0 1.421875 2.765625 1.421875q1.515625 0 2.453125 -0.859375q0.9375076 -0.875 1.1718826 -2.515625l4.375 0q-0.453125 3.28125 -2.5625 5.046875q-2.109375 1.75 -5.4062576 1.75q-3.6875 0 -6.015625 -2.359375q-2.328125 -2.375 -2.328125 -6.125q0 -4.015625 2.28125 -6.484375q2.296875 -2.46875 6.15625 -2.46875zm18.484383 0q3.890625 0 6.234375 2.40625q2.34375 2.390625 2.34375 6.328125q0 3.953125 -2.375 6.328125q-2.359375 2.375 -6.203125 2.375q-3.84375 0 -6.203125 -2.390625q-2.34375 -2.390625 -2.34375 -6.3125q0 -3.921875 2.3125 -6.328125q2.3125 -2.40625 6.234375 -2.40625zm-4.0 8.734375q0 2.609375 1.0625 3.953125q1.078125 1.328125 2.9375 1.328125q1.9375 0 2.984375 -1.375q1.046875 -1.390625 1.046875 -3.90625q0 -2.46875 -1.015625 -3.890625q-1.015625 -1.421875 -3.046875 -1.421875q-1.828125 0 -2.90625 1.328125q-1.0625 1.3125 -1.0625 3.984375zm20.1875 -14.59375l0 22.84375l-4.546875 0l0 -22.84375l4.546875 0zm20.4375 -0.546875q-1.703125 3.171875 -2.609375 6.890625q-0.890625 3.703125 -0.890625 7.609375q0 3.921875 0.828125 7.578125q0.84375 3.65625 2.625 7.140625l-3.765625 0q-2.078125 -3.421875 -3.15625 -7.125q-1.078125 -3.71875 -1.078125 -7.28125q0 -3.71875 1.09375 -7.75q1.09375 -4.046875 3.140625 -7.0625l3.8125 0zm7.0 0.546875l0 8.765625l9.25 0l0 -8.765625l5.015625 0l0 22.84375l-5.015625 0l0 -9.859375l-9.25 0l0 9.859375l-5.03125 0l0 -22.84375l5.03125 0zm35.625 0l0 4.21875l-6.859375 0l0 18.625l-5.015625 0l0 -18.625l-6.84375 0l0 -4.21875l18.71875 0zm19.546875 0l0 4.21875l-6.859375 0l0 18.625l-5.015625 0l0 -18.625l-6.84375 0l0 -4.21875l18.71875 0zm13.078125 0q3.578125 0 5.6562195 2.015625q2.09375 2.0 2.09375 5.3125q0 3.296875 -2.09375 5.3125q-2.0780945 2.015625 -5.6562195 2.015625l-5.4375 0l0 8.1875l-5.03125 0l0 -22.84375l10.46875 0zm-1.390625 10.75q2.15625 0 3.203125 -0.8125q1.0625 -0.8125 1.0625 -2.609375q0 -1.75 -1.015625 -2.578125q-1.015625 -0.84375 -3.234375 -0.84375l-4.0625 0l0 6.84375l4.046875 0zm13.6405945 -11.296875q2.078125 3.40625 3.15625 7.109375q1.078125 3.703125 1.078125 7.328125q0 3.65625 -1.09375 7.71875q-1.078125 4.0625 -3.125 7.046875l-3.8125 0q1.75 -3.328125 2.609375 -6.96875q0.875 -3.640625 0.875 -7.484375q0 -3.984375 -0.859375 -7.671875q-0.859375 -3.703125 -2.59375 -7.078125l3.765625 0z" fill-rule="nonzero"></path><path fill="#2c3e50" d="m464.60892 85.51848l0 0c0 -6.239052 5.05777 -11.296814 11.296814 -11.296814l279.92606 0c2.9960938 0 5.869507 1.1902008 7.988037 3.3087616c2.1185913 2.1185684 3.3087769 4.991951 3.3087769 7.9880524l0 45.185898c0 6.2390594 -5.0577393 11.296814 -11.296814 11.296814l-279.92606 0c-6.239044 0 -11.296814 -5.0577545 -11.296814 -11.296814z" fill-rule="evenodd"></path><path fill="#ffffff" d="m534.72034 94.40664l8.546875 22.828125l-5.21875 0l-1.71875 -5.078125l-8.546875 0l-1.796875 5.09375l-5.078125 0l8.671875 -22.84375l5.140625 0zm-2.65625 5.625l-2.96875 8.390625l5.921875 0l-2.875 -8.390625l-0.078125 0zm22.03125 0.234375q3.515625 0 5.515625 2.46875q2.0 2.453125 2.0 6.421875q0 3.671875 -1.96875 6.109375q-1.96875 2.4375 -5.296875 2.4375q-1.515625 0 -2.828125 -0.640625q-1.3125 -0.65625 -2.125 -1.859375l-0.078125 0l0 7.875l-4.53125 0l0 -22.375l4.3125 0l0 2.109375l0.0625 0q0.8125 -1.296875 2.0625 -1.921875q1.265625 -0.625 2.875 -0.625zm-4.9375 8.765625q0 2.375 1.015625 3.8125q1.015625 1.4375 2.953125 1.4375q1.890625 0 2.90625 -1.375q1.03125 -1.375 1.03125 -3.875q0 -2.375 -1.015625 -3.859375q-1.015625 -1.484375 -2.984375 -1.484375q-1.875 0 -2.890625 1.40625q-1.015625 1.40625 -1.015625 3.9375zm24.484375 -8.765625q3.515625 0 5.515625 2.46875q2.0 2.453125 2.0 6.421875q0 3.671875 -1.96875 6.109375q-1.96875 2.4375 -5.296875 2.4375q-1.515625 0 -2.828125 -0.640625q-1.3125 -0.65625 -2.125 -1.859375l-0.078125 0l0 7.875l-4.53125 0l0 -22.375l4.3125 0l0 2.109375l0.0625 0q0.8125 -1.296875 2.0625 -1.921875q1.265625 -0.625 2.875 -0.625zm-4.9375 8.765625q0 2.375 1.015625 3.8125q1.015625 1.4375 2.953125 1.4375q1.890625 0 2.90625 -1.375q1.03125 -1.375 1.03125 -3.875q0 -2.375 -1.015625 -3.859375q-1.015625 -1.484375 -2.984375 -1.484375q-1.875 0 -2.890625 1.40625q-1.015625 1.40625 -1.015625 3.9375zm19.84375 -14.625l0 22.84375l-4.546875 0l0 -22.84375l4.546875 0zm8.25 0l0 3.734375l-4.546875 0l0 -3.734375l4.546875 0zm0 6.296875l0 16.546875l-4.546875 0l0 -16.546875l4.546875 0zm11.5 -0.4375q3.203125 0 5.390625 1.65625q2.203125 1.65625 2.390625 4.609375l-4.453125 0q-0.203125 -1.421875 -1.046875 -2.125q-0.84375 -0.71875 -2.3125 -0.71875q-1.828125 0 -2.84375 1.5q-1.015625 1.5 -1.015625 3.875q0 2.375 1.0 3.796875q1.0 1.421875 2.765625 1.421875q1.515625 0 2.453125 -0.859375q0.9375 -0.875 1.171875 -2.515625l4.375 0q-0.453125 3.28125 -2.5625 5.046875q-2.109375 1.75 -5.40625 1.75q-3.6875 0 -6.015625 -2.359375q-2.328125 -2.375 -2.328125 -6.125q0 -4.015625 2.28125 -6.484375q2.296875 -2.46875 6.15625 -2.46875zm18.046875 0q3.671875 0 5.453125 1.203125q1.796875 1.203125 1.796875 3.390625l0 8.875q0 1.0 0.125 2.0q0.140625 1.0 0.453125 1.515625l-4.609375 0q-0.125 -0.375 -0.21875 -0.765625q-0.078125 -0.40625 -0.109375 -0.8125q-0.953125 0.984375 -2.375 1.515625q-1.40625 0.515625 -3.1875 0.515625q-2.5625 0 -4.09375 -1.28125q-1.53125 -1.296875 -1.53125 -3.6875q0 -2.3125 1.4375 -3.53125q1.4375 -1.234375 5.234375 -1.65625q2.640625 -0.25 3.484375 -0.640625q0.84375 -0.40625 0.84375 -1.390625q0 -1.109375 -0.65625 -1.65625q-0.640625 -0.5625 -2.265625 -0.5625q-1.40625 0 -2.15625 0.609375q-0.75 0.59375 -0.875 1.890625l-4.546875 0q0.1875 -2.71875 2.234375 -4.125q2.0625 -1.40625 5.5625 -1.40625zm-3.765625 12.28125q0 0.984375 0.671875 1.546875q0.671875 0.5625 2.125 0.5625q1.8125 0 2.734375 -0.953125q0.9375 -0.953125 0.9375 -2.78125l0 -1.765625q-0.40625 0.328125 -1.078125 0.5q-0.65625 0.15625 -2.390625 0.40625q-1.546875 0.203125 -2.28125 0.8125q-0.71875 0.59375 -0.71875 1.671875zm20.296875 -16.796875l0 4.953125l3.328125 0l0 3.046875l-3.328125 0l0 8.296875q0 1.015625 0.375 1.421875q0.390625 0.390625 1.546875 0.390625q0.390625 0 0.75 -0.03125q0.359375 -0.03125 0.65625 -0.09375l0 3.546875q-0.5625 0.09375 -1.265625 0.125q-0.6875 0.03125 -1.359375 0.03125q-2.953125 0 -4.109375 -1.0q-1.140625 -1.015625 -1.140625 -2.828125l0 -9.859375l-2.75 0l0 -3.046875l2.75 0l0 -4.953125l4.546875 0zm10.1875 -1.34375l0 3.734375l-4.546875 0l0 -3.734375l4.546875 0zm0 6.296875l0 16.546875l-4.546875 0l0 -16.546875l4.546875 0zm11.609375 -0.4375q3.890625 0 6.234375 2.40625q2.34375 2.390625 2.34375 6.328125q0 3.953125 -2.375 6.328125q-2.359375 2.375 -6.203125 2.375q-3.84375 0 -6.203125 -2.390625q-2.34375 -2.390625 -2.34375 -6.3125q0 -3.921875 2.3125 -6.328125q2.3125 -2.40625 6.234375 -2.40625zm-4.0 8.734375q0 2.609375 1.0625 3.953125q1.078125 1.328125 2.9375 1.328125q1.9375 0 2.984375 -1.375q1.046875 -1.390625 1.046875 -3.90625q0 -2.46875 -1.015625 -3.890625q-1.015625 -1.421875 -3.046875 -1.421875q-1.828125 0 -2.90625 1.328125q-1.0625 1.3125 -1.0625 3.984375zm25.0 -8.734375q3.171875 0 4.59375 1.609375q1.4375 1.59375 1.4375 5.03125l0 10.34375l-4.546875 0l0 -9.484375q0 -1.9375 -0.671875 -2.921875q-0.65625 -1.0 -2.234375 -1.0q-1.890625 0 -2.71875 1.125q-0.8125 1.125 -0.8125 3.453125l0 8.828125l-4.53125 0l0 -16.546875l4.3125 0l0 2.3125l0.09375 0q0.828125 -1.328125 2.15625 -2.03125q1.328125 -0.71875 2.921875 -0.71875zm16.265625 0q3.375 0 5.203125 1.34375q1.84375 1.328125 2.09375 3.921875l-4.328125 0q-0.09375 -1.171875 -0.875 -1.703125q-0.78125 -0.53125 -2.234375 -0.53125q-1.3125 0 -1.921875 0.390625q-0.59375 0.390625 -0.59375 1.140625q0 0.765625 0.78125 1.265625q0.796875 0.484375 3.1875 0.9375q3.8125 0.734375 5.109375 1.890625q1.3125 1.15625 1.3125 3.03125q0 2.8125 -2.0625 4.28125q-2.046875 1.46875 -5.484375 1.46875q-3.4375 0 -5.546875 -1.453125q-2.09375 -1.46875 -2.234375 -4.375l4.328125 0q0 1.3125 0.984375 2.046875q1.0 0.734375 2.5 0.734375q1.328125 0 2.15625 -0.5625q0.828125 -0.578125 0.828125 -1.546875q0 -0.859375 -1.078125 -1.40625q-1.078125 -0.546875 -3.953125 -1.140625q-2.84375 -0.5625 -4.109375 -1.609375q-1.265625 -1.046875 -1.265625 -2.828125q0 -2.625 1.859375 -3.953125q1.859375 -1.34375 5.34375 -1.34375z" fill-rule="nonzero"></path><path fill="#000000" fill-opacity="0.0" d="m1.076233 -41.829514l300.56693 0l0 116.031494l-300.56693 0z" fill-rule="evenodd"></path><path fill="#2c3e50" d="m39.31302 0.20873225q5.234375 0 8.90625 2.953125q3.6875 2.953125 4.328125 8.09375l-6.53125 0q-0.453125 -2.40625 -2.40625 -3.8906255q-1.953125 -1.484375 -4.3125 -1.484375q-3.953125 0 -6.15625 2.8906255q-2.1875 2.890625 -2.1875 7.65625q0 4.546875 2.171875 7.40625q2.171875 2.859375 6.1875 2.859375q2.921875 0 4.71875 -1.796875q1.8125 -1.796875 2.234375 -5.078125l6.546875 0q-0.59375 5.859375 -4.265625 9.21875q-3.65625 3.34375 -9.234375 3.34375q-4.4375 0 -7.890625 -2.015625q-3.453125 -2.03125 -5.328125 -5.71875q-1.875 -3.703125 -1.875 -8.21875q0 -7.078125 4.125 -11.640625q4.140625 -4.578125 10.96875 -4.578125zm23.30478 9.203125l0 12.75q0 2.515625 0.875 3.890625q0.890625 1.375 3.046875 1.375q2.515625 0 3.609375 -1.515625q1.109375 -1.53125 1.109375 -4.640625l0 -11.859375l6.125 0l0 22.234375l-5.828125 0l0 -3.09375l-0.125 0q-1.15625 1.859375 -2.984375 2.78125q-1.8125 0.921875 -3.828125 0.921875q-4.140625 0 -6.125 -2.109375q-1.96875 -2.109375 -1.96875 -6.8125l0 -13.921875l6.09375 0zm32.144867 -0.59375q0.40625 0 0.734375 0.0625q0.34375 0.046875 0.640625 0.15625l0 5.671875q-0.53125 -0.109375 -1.03125 -0.15625q-0.484375 -0.0625 -1.15625 -0.0625q-3.09375 0 -4.578125 1.890625q-1.46875 1.890625 -1.46875 5.0625l0 10.203125l-6.09375 0l0 -22.234375l5.796875 0l0 4.140625l0.078125 0q0.96875 -2.1875 2.890625 -3.453125q1.921875 -1.28125 4.1875 -1.28125zm16.600113 0q0.40625 0 0.734375 0.0625q0.34375 0.046875 0.640625 0.15625l0 5.671875q-0.53125 -0.109375 -1.03125 -0.15625q-0.484375 -0.0625 -1.15625 -0.0625q-3.09375 0 -4.578125 1.890625q-1.46875 1.890625 -1.46875 5.0625l0 10.203125l-6.09375 0l0 -22.234375l5.796875 0l0 4.140625l0.078125 0q0.96875 -2.1875 2.890625 -3.453125q1.921875 -1.28125 4.1875 -1.28125zm13.912613 0q4.9375 0 7.890625 3.390625q2.953125 3.390625 2.953125 8.671875l-0.046875 1.125l-16.046875 0q0.125 2.875 1.5 4.265625q1.375 1.390625 3.9375 1.390625q1.671875 0 3.078125 -0.84375q1.40625 -0.859375 1.78125 -2.0625l5.375 0q-1.25 3.78125 -3.828125 5.640625q-2.578125 1.859375 -6.59375 1.859375q-5.140625 0 -8.25 -3.25q-3.109375 -3.265625 -3.109375 -8.453125q0 -4.96875 3.171875 -8.34375q3.1875 -3.390625 8.1875 -3.390625zm-5.25 9.328125l9.9375 0q-0.4375 -2.453125 -1.59375 -3.578125q-1.140625 -1.140625 -3.296875 -1.140625q-2.234375 0 -3.53125 1.265625q-1.296875 1.25 -1.515625 3.453125zm32.228394 -9.328125q4.265625 0 6.1875 2.15625q1.921875 2.15625 1.921875 6.765625l0 13.90625l-6.125 0l0 -12.75q0 -2.59375 -0.890625 -3.921875q-0.890625 -1.34375 -3.0 -1.34375q-2.546875 0 -3.65625 1.515625q-1.09375 1.515625 -1.09375 4.640625l0 11.859375l-6.09375 0l0 -22.234375l5.796875 0l0 3.109375l0.125 0q1.109375 -1.78125 2.890625 -2.734375q1.796875 -0.96875 3.9375 -0.96875zm20.269867 -6.0625005l0 6.6562505l4.46875 0l0 4.09375l-4.46875 0l0 11.15625q0 1.359375 0.515625 1.890625q0.515625 0.53125 2.0625 0.53125q0.53125 0 1.0 -0.03125q0.484375 -0.046875 0.890625 -0.125l0 4.765625q-0.75 0.125 -1.6875 0.15625q-0.9375 0.046875 -1.84375 0.046875q-3.96875 0 -5.515625 -1.34375q-1.53125 -1.359375 -1.53125 -3.796875l0 -13.25l-3.703125 0l0 -4.09375l3.703125 0l0 -6.6562505l6.109375 0zm23.696564 -1.8124999l4.84375 20.890625l0.09375 0l5.328125 -20.890625l6.3125 0l5.25 21.15625l0.09375 0l5.03125 -21.15625l6.609375 0l-8.25 30.703125l-6.71875 0l-5.1875 -20.890625l-0.078125 0l-5.125 20.890625l-6.84375 0l-8.125 -30.703125l6.765625 0zm45.964127 7.8750005q4.9375 0 7.890625 3.390625q2.953125 3.390625 2.953125 8.671875l-0.046875 1.125l-16.046875 0q0.125 2.875 1.5 4.265625q1.375 1.390625 3.9375 1.390625q1.671875 0 3.078125 -0.84375q1.40625 -0.859375 1.78125 -2.0625l5.375 0q-1.25 3.78125 -3.828125 5.640625q-2.578125 1.859375 -6.59375 1.859375q-5.140625 0 -8.25 -3.25q-3.109375 -3.265625 -3.109375 -8.453125q0 -4.96875 3.171875 -8.34375q3.1875 -3.390625 8.1875 -3.390625zm-5.25 9.328125l9.9375 0q-0.4375 -2.453125 -1.59375 -3.578125q-1.140625 -1.140625 -3.296875 -1.140625q-2.234375 0 -3.53125 1.265625q-1.296875 1.25 -1.515625 3.453125zm25.572128 -17.203125l0 11.171875l0.109375 0q0.984375 -1.5 2.828125 -2.390625q1.84375 -0.90625 4.15625 -0.90625q3.90625 0 6.5625 3.171875q2.65625 3.15625 2.65625 8.53125q0 5.328125 -2.65625 8.53125q-2.65625 3.203125 -6.578125 3.203125q-2.6875 0 -4.546875 -0.890625q-1.84375 -0.890625 -2.75 -2.546875l-0.078125 0l0 2.828125l-5.7968445 0l0 -30.703125l6.0937195 0zm-0.21875 19.609375q0 3.203125 1.40625 5.15625q1.40625 1.953125 3.8125 1.953125q2.390625 0 3.796875 -1.953125q1.40625 -1.953125 1.40625 -5.15625q0 -3.203125 -1.375 -5.15625q-1.375 -1.96875 -3.875 -1.96875q-2.328125 0 -3.75 1.921875q-1.421875 1.921875 -1.421875 5.203125z" fill-rule="nonzero"></path><path fill="#000000" fill-opacity="0.0" d="m465.5853 -41.829514l300.56693 0l0 116.031494l-300.56693 0z" fill-rule="evenodd"></path><path fill="#2c3e50" d="m539.178 0.94310725q6.125 0 9.921875 4.0q3.8125 4.0000005 3.8125 11.1875q0 7.1875 -3.71875 11.359375q-3.71875 4.15625 -10.015625 4.15625l-13.46875 0l0 -30.703125l13.46875 0zm-0.53125 25.03125q3.234375 0 5.359375 -2.3125q2.140625 -2.328125 2.140625 -6.921875q0 -5.3125 -2.234375 -7.71875q-2.21875 -2.4062505 -6.4375 -2.4062505l-5.0 0l0 19.359375l6.171875 0zm24.335999 -25.03125l0 5.03125l-6.109375 0l0 -5.03125l6.109375 0zm0 8.46875l0 22.234375l-6.109375 0l0 -22.234375l6.109375 0zm13.559814 -0.59375q2.4375 0 4.03125 0.90625q1.59375 0.90625 2.609375 2.640625l0.078125 0l0 -2.953125l5.796875 0l0 21.0q0 4.46875 -2.84375 7.0625q-2.84375 2.59375 -8.640625 2.59375q-3.9375 0 -6.75 -1.890625q-2.8125 -1.875 -3.078125 -5.25l6.046875 0q0.421875 1.609375 1.59375 2.328125q1.171875 0.734375 2.953125 0.734375q2.359375 0 3.640625 -1.421875q1.28125 -1.40625 1.28125 -3.9375l0 -3.078125l-0.078125 0q-0.90625 1.640625 -2.671875 2.546875q-1.75 0.890625 -4.015625 0.890625q-4.484375 0 -6.984375 -2.96875q-2.5 -2.984375 -2.5 -8.203125q0 -4.703125 2.609375 -7.84375q2.609375 -3.15625 6.921875 -3.15625zm-3.421875 10.921875q0 3.125 1.28125 4.890625q1.296875 1.765625 3.65625 1.765625q2.40625 0 3.796875 -1.765625q1.40625 -1.765625 1.40625 -4.40625q0 -3.25 -1.328125 -5.015625q-1.3125 -1.78125 -3.90625 -1.78125q-2.265625 0 -3.59375 1.71875q-1.3125 1.71875 -1.3125 4.59375zm26.915527 -18.796875l0 5.03125l-6.109375 0l0 -5.03125l6.109375 0zm0 8.46875l0 22.234375l-6.109375 0l0 -22.234375l6.109375 0zm12.450439 -6.6562505l0 6.6562505l4.46875 0l0 4.09375l-4.46875 0l0 11.15625q0 1.359375 0.515625 1.890625q0.515625 0.53125 2.0625 0.53125q0.53125 0 1.0 -0.03125q0.484375 -0.046875 0.890625 -0.125l0 4.765625q-0.75 0.125 -1.6875 0.15625q-0.9375 0.046875 -1.84375 0.046875q-3.96875 0 -5.515625 -1.34375q-1.53125 -1.359375 -1.53125 -3.796875l0 -13.25l-3.703125 0l0 -4.09375l3.703125 0l0 -6.6562505l6.109375 0zm17.4859 6.0625005q4.9375 0 7.34375 1.625q2.40625 1.609375 2.40625 4.546875l0 11.9375q0 1.34375 0.171875 2.6875q0.1875 1.34375 0.59375 2.03125l-6.1875 0q-0.171875 -0.5 -0.28125 -1.03125q-0.109375 -0.546875 -0.15625 -1.09375q-1.28125 1.328125 -3.1875 2.03125q-1.890625 0.703125 -4.296875 0.703125q-3.4375 0 -5.5 -1.734375q-2.046875 -1.734375 -2.046875 -4.9375q0 -3.109375 1.921875 -4.75q1.9375 -1.65625 7.03125 -2.21875q3.5625 -0.34375 4.6875 -0.875q1.140625 -0.546875 1.140625 -1.859375q0 -1.5 -0.875 -2.234375q-0.875 -0.75 -3.0625 -0.75q-1.890625 0 -2.90625 0.8125q-1.0 0.796875 -1.15625 2.546875l-6.109375 0q0.25 -3.65625 3.0 -5.546875q2.765625 -1.890625 7.46875 -1.890625zm-5.0625 16.515625q0 1.3125 0.90625 2.078125q0.90625 0.75 2.859375 0.75q2.4375 0 3.6875 -1.28125q1.25 -1.28125 1.25 -3.734375l0 -2.375q-0.546875 0.4375 -1.4375 0.65625q-0.890625 0.21875 -3.234375 0.5625q-2.078125 0.265625 -3.0625 1.078125q-0.96875 0.8125 -0.96875 2.265625zm25.634644 -24.390625l0 30.703125l-6.109375 0l0 -30.703125l6.109375 0zm23.958008 0l0 30.703125l-6.765625 0l0 -30.703125l6.765625 0zm19.283386 0q6.125 0 9.921875 4.0q3.8125 4.0000005 3.8125 11.1875q0 7.1875 -3.71875 11.359375q-3.71875 4.15625 -10.015625 4.15625l-13.46875 0l0 -30.703125l13.46875 0zm-0.53125 25.03125q3.234375 0 5.359375 -2.3125q2.140625 -2.328125 2.140625 -6.921875q0 -5.3125 -2.234375 -7.71875q-2.21875 -2.4062505 -6.4375 -2.4062505l-5.0 0l0 19.359375l6.171875 0z" fill-rule="nonzero"></path><path fill="#000000" fill-opacity="0.0" d="m2.5408 338.3962l300.56693 0l0 95.590546l-300.56693 0z" fill-rule="evenodd"></path><path fill="#2c3e50" d="m67.761765 361.9271q3.890625 0 6.234375 2.40625q2.34375 2.390625 2.34375 6.328125q0 3.953125 -2.375 6.328125q-2.359375 2.375 -6.203125 2.375q-3.8437538 0 -6.203129 -2.390625q-2.34375 -2.390625 -2.34375 -6.3125q0 -3.921875 2.3125 -6.328125q2.3125 -2.40625 6.234379 -2.40625zm-4.000004 8.734375q0 2.609375 1.0625038 3.953125q1.078125 1.328125 2.9375 1.328125q1.9375 0 2.984375 -1.375q1.046875 -1.390625 1.046875 -3.90625q0 -2.46875 -1.015625 -3.890625q-1.015625 -1.421875 -3.046875 -1.421875q-1.828125 0 -2.90625 1.328125q-1.0625038 1.3125 -1.0625038 3.984375zm25.000004 -8.734375q3.171875 0 4.59375 1.609375q1.4375 1.59375 1.4375 5.03125l0 10.34375l-4.546875 0l0 -9.484375q0 -1.9375 -0.671875 -2.921875q-0.65625 -1.0 -2.234375 -1.0q-1.890625 0 -2.71875 1.125q-0.8125 1.125 -0.8125 3.453125l0 8.828125l-4.53125 0l0 -16.546875l4.3125 0l0 2.3125l0.09375 0q0.828125 -1.328125 2.15625 -2.03125q1.328125 -0.71875 2.921875 -0.71875zm17.125 0q3.671875 0 5.859375 2.53125q2.203125 2.515625 2.203125 6.4375l-0.03125 0.84375l-11.9375 0q0.09375 2.140625 1.109375 3.171875q1.03125 1.03125 2.9375 1.03125q1.234375 0 2.28125 -0.625q1.046875 -0.640625 1.328125 -1.53125l4.0 0q-0.921875 2.8125 -2.84375 4.203125q-1.921875 1.375 -4.90625 1.375q-3.828125 0 -6.140625 -2.421875q-2.3125 -2.421875 -2.3125 -6.28125q0 -3.703125 2.359375 -6.21875q2.375 -2.515625 6.09375 -2.515625zm-3.90625 6.9375l7.390625 0q-0.328125 -1.828125 -1.1875 -2.671875q-0.84375 -0.84375 -2.453125 -0.84375q-1.65625 0 -2.625 0.9375q-0.96875 0.9375 -1.125 2.578125zm31.125 -6.9375q3.671875 0 5.453125 1.203125q1.796875 1.203125 1.796875 3.390625l0 8.875q0 1.0 0.125 2.0q0.140625 1.0 0.453125 1.515625l-4.609375 0q-0.125 -0.375 -0.21875 -0.765625q-0.078125 -0.40625 -0.109375 -0.8125q-0.953125 0.984375 -2.375 1.515625q-1.40625 0.515625 -3.1875 0.515625q-2.5625 0 -4.09375 -1.28125q-1.53125 -1.296875 -1.53125 -3.6875q0 -2.3125 1.4375 -3.53125q1.4375 -1.234375 5.234375 -1.65625q2.640625 -0.25 3.484375 -0.640625q0.84375 -0.40625 0.84375 -1.390625q0 -1.109375 -0.65625 -1.65625q-0.640625 -0.5625 -2.265625 -0.5625q-1.40625 0 -2.15625 0.609375q-0.75 0.59375 -0.875 1.890625l-4.546875 0q0.1875 -2.71875 2.234375 -4.125q2.0625 -1.40625 5.5625 -1.40625zm-3.765625 12.28125q0 0.984375 0.671875 1.546875q0.671875 0.5625 2.125 0.5625q1.8125 0 2.734375 -0.953125q0.9375 -0.953125 0.9375 -2.78125l0 -1.765625q-0.40625 0.328125 -1.078125 0.5q-0.65625 0.15625 -2.390625 0.40625q-1.546875 0.203125 -2.28125 0.8125q-0.71875 0.59375 -0.71875 1.671875zm22.46875 -12.28125q3.203125 0 5.390625 1.65625q2.203125 1.65625 2.390625 4.609375l-4.453125 0q-0.203125 -1.421875 -1.046875 -2.125q-0.84375 -0.71875 -2.3125 -0.71875q-1.828125 0 -2.84375 1.5q-1.015625 1.5 -1.015625 3.875q0 2.375 1.0 3.796875q1.0 1.421875 2.765625 1.421875q1.515625 0 2.453125 -0.859375q0.9375 -0.875 1.171875 -2.515625l4.375 0q-0.453125 3.28125 -2.5625 5.046875q-2.109375 1.75 -5.40625 1.75q-3.6875 0 -6.015625 -2.359375q-2.328125 -2.375 -2.328125 -6.125q0 -4.015625 2.28125 -6.484375q2.296875 -2.46875 6.15625 -2.46875zm18.375 0q3.203125 0 5.390625 1.65625q2.203125 1.65625 2.390625 4.609375l-4.453125 0q-0.203125 -1.421875 -1.046875 -2.125q-0.84375 -0.71875 -2.3125 -0.71875q-1.828125 0 -2.84375 1.5q-1.015625 1.5 -1.015625 3.875q0 2.375 1.0 3.796875q1.0 1.421875 2.765625 1.421875q1.515625 0 2.453125 -0.859375q0.9375 -0.875 1.171875 -2.515625l4.375 0q-0.453125 3.28125 -2.5625 5.046875q-2.109375 1.75 -5.40625 1.75q-3.6875 0 -6.015625 -2.359375q-2.328125 -2.375 -2.328125 -6.125q0 -4.015625 2.28125 -6.484375q2.296875 -2.46875 6.15625 -2.46875zm18.484375 0q3.890625 0 6.234375 2.40625q2.34375 2.390625 2.34375 6.328125q0 3.953125 -2.375 6.328125q-2.359375 2.375 -6.203125 2.375q-3.84375 0 -6.203125 -2.390625q-2.34375 -2.390625 -2.34375 -6.3125q0 -3.921875 2.3125 -6.328125q2.3125 -2.40625 6.234375 -2.40625zm-4.0 8.734375q0 2.609375 1.0625 3.953125q1.078125 1.328125 2.9375 1.328125q1.9375 0 2.984375 -1.375q1.046875 -1.390625 1.046875 -3.90625q0 -2.46875 -1.015625 -3.890625q-1.015625 -1.421875 -3.046875 -1.421875q-1.828125 0 -2.90625 1.328125q-1.0625 1.3125 -1.0625 3.984375zm20.046875 -8.296875l0 9.484375q0 1.875 0.65625 2.90625q0.65625 1.015625 2.265625 1.015625q1.875 0 2.6875 -1.125q0.828125 -1.140625 0.828125 -3.453125l0 -8.828125l4.546875 0l0 16.546875l-4.328125 0l0 -2.296875l-0.09375 0q-0.859375 1.375 -2.21875 2.0625q-1.359375 0.6875 -2.859375 0.6875q-3.078125 0 -4.546875 -1.5625q-1.46875 -1.578125 -1.46875 -5.078125l0 -10.359375l4.53125 0zm23.921875 -0.4375q3.171875 0 4.59375 1.609375q1.4375 1.59375 1.4375 5.03125l0 10.34375l-4.546875 0l0 -9.484375q0 -1.9375 -0.671875 -2.921875q-0.65625 -1.0 -2.234375 -1.0q-1.890625 0 -2.71875 1.125q-0.8125 1.125 -0.8125 3.453125l0 8.828125l-4.53125 0l0 -16.546875l4.3125 0l0 2.3125l0.09375 0q0.828125 -1.328125 2.15625 -2.03125q1.328125 -0.71875 2.921875 -0.71875zm15.234375 -4.515625l0 4.953125l3.328125 0l0 3.046875l-3.328125 0l0 8.296875q0 1.015625 0.375 1.421875q0.390625 0.390625 1.546875 0.390625q0.390625 0 0.75 -0.03125q0.359375 -0.03125 0.65625 -0.09375l0 3.546875q-0.5625 0.09375 -1.265625 0.125q-0.6875 0.03125 -1.359375 0.03125q-2.953125 0 -4.109375 -1.0q-1.140625 -1.015625 -1.140625 -2.828125l0 -9.859375l-2.75 0l0 -3.046875l2.75 0l0 -4.953125l4.546875 0z" fill-rule="nonzero"></path><path fill="#2c3e50" d="m74.71489 399.9271q3.515625 0 5.515625 2.46875q2.0 2.453125 2.0 6.421875q0 3.671875 -1.96875 6.109375q-1.96875 2.4375 -5.296875 2.4375q-1.515625 0 -2.828125 -0.640625q-1.3125 -0.65625 -2.125 -1.859375l-0.078125 0l0 7.875l-4.53125 0l0 -22.375l4.3125 0l0 2.109375l0.0625 0q0.8125 -1.296875 2.0625 -1.921875q1.265625 -0.625 2.875 -0.625zm-4.9375 8.765625q0 2.375 1.015625 3.8125q1.015625 1.4375 2.953125 1.4375q1.890625 0 2.90625 -1.375q1.03125 -1.375 1.03125 -3.875q0 -2.375 -1.015625 -3.859375q-1.015625 -1.484375 -2.984375 -1.484375q-1.875 0 -2.890625 1.40625q-1.015625 1.40625 -1.015625 3.9375zm22.8125 -8.765625q3.671875 0 5.859375 2.53125q2.203125 2.515625 2.203125 6.4375l-0.03125 0.84375l-11.9375 0q0.09375 2.140625 1.109375 3.171875q1.03125 1.03125 2.9375 1.03125q1.234375 0 2.28125 -0.625q1.046875 -0.640625 1.328125 -1.53125l4.0 0q-0.921875 2.8125 -2.84375 4.203125q-1.921875 1.375 -4.90625 1.375q-3.828125 0 -6.140625 -2.421875q-2.3125 -2.421875 -2.3125 -6.28125q0 -3.703125 2.359375 -6.21875q2.375 -2.515625 6.09375 -2.515625zm-3.90625 6.9375l7.390625 0q-0.328125 -1.828125 -1.1875 -2.671875q-0.84375 -0.84375 -2.453125 -0.84375q-1.65625 0 -2.625 0.9375q-0.96875 0.9375 -1.125 2.578125zm24.28125 -6.9375q0.296875 0 0.546875 0.046875q0.25 0.03125 0.46875 0.109375l0 4.21875q-0.390625 -0.078125 -0.765625 -0.109375q-0.359375 -0.046875 -0.859375 -0.046875q-2.296875 0 -3.40625 1.40625q-1.09375 1.40625 -1.09375 3.765625l0 7.59375l-4.53125 0l0 -16.546875l4.3125 0l0 3.078125l0.0625 0q0.71875 -1.625 2.140625 -2.5625q1.4375 -0.953125 3.125 -0.953125zm14.953125 0.4375l3.046875 11.234375l0.0625 0l2.75 -11.234375l4.421875 0l2.8125 11.203125l0.0625 0l3.046875 -11.203125l4.671875 0l-5.234375 16.546875l-4.65625 0l-2.9375 -11.109375l-0.078125 0l-2.8125 11.109375l-4.703125 0l-5.25 -16.546875l4.796875 0zm30.4375 -0.4375q3.671875 0 5.859375 2.53125q2.203125 2.515625 2.203125 6.4375l-0.03125 0.84375l-11.9375 0q0.09375 2.140625 1.109375 3.171875q1.03125 1.03125 2.9375 1.03125q1.234375 0 2.28125 -0.625q1.046875 -0.640625 1.328125 -1.53125l4.0 0q-0.921875 2.8125 -2.84375 4.203125q-1.921875 1.375 -4.90625 1.375q-3.828125 0 -6.140625 -2.421875q-2.3125 -2.421875 -2.3125 -6.28125q0 -3.703125 2.359375 -6.21875q2.375 -2.515625 6.09375 -2.515625zm-3.90625 6.9375l7.390625 0q-0.328125 -1.828125 -1.1875 -2.671875q-0.84375 -0.84375 -2.453125 -0.84375q-1.65625 0 -2.625 0.9375q-0.96875 0.9375 -1.125 2.578125zm19.171875 -12.796875l0 8.3125l0.078125 0q0.734375 -1.125 2.109375 -1.78125q1.375 -0.671875 3.09375 -0.671875q2.90625 0 4.875 2.359375q1.984375 2.34375 1.984375 6.34375q0 3.96875 -1.984375 6.359375q-1.96875 2.375 -4.890625 2.375q-2.0 0 -3.375 -0.65625q-1.375 -0.671875 -2.046875 -1.90625l-0.0625 0l0 2.109375l-4.3125 0l0 -22.84375l4.53125 0zm-0.15625 14.59375q0 2.375 1.046875 3.828125q1.046875 1.453125 2.828125 1.453125q1.78125 0 2.828125 -1.453125q1.046875 -1.453125 1.046875 -3.828125q0 -2.390625 -1.03125 -3.84375q-1.015625 -1.46875 -2.875 -1.46875q-1.734375 0 -2.796875 1.4375q-1.046875 1.421875 -1.046875 3.875zm21.953125 -8.734375q3.375 0 5.203125 1.34375q1.84375 1.328125 2.09375 3.921875l-4.328125 0q-0.09375 -1.171875 -0.875 -1.703125q-0.78125 -0.53125 -2.234375 -0.53125q-1.3125 0 -1.921875 0.390625q-0.59375 0.390625 -0.59375 1.140625q0 0.765625 0.78125 1.265625q0.796875 0.484375 3.1875 0.9375q3.8125 0.734375 5.109375 1.890625q1.3125 1.15625 1.3125 3.03125q0 2.8125 -2.0625 4.28125q-2.046875 1.46875 -5.484375 1.46875q-3.4375 0 -5.546875 -1.453125q-2.09375 -1.46875 -2.234375 -4.375l4.328125 0q0 1.3125 0.984375 2.046875q1.0 0.734375 2.5 0.734375q1.328125 0 2.15625 -0.5625q0.828125 -0.578125 0.828125 -1.546875q0 -0.859375 -1.078125 -1.40625q-1.078125 -0.546875 -3.953125 -1.140625q-2.84375 -0.5625 -4.109375 -1.609375q-1.265625 -1.046875 -1.265625 -2.828125q0 -2.625 1.859375 -3.953125q1.859375 -1.34375 5.34375 -1.34375zm15.078125 -5.859375l0 3.734375l-4.546875 0l0 -3.734375l4.546875 0zm0 6.296875l0 16.546875l-4.546875 0l0 -16.546875l4.546875 0zm9.328125 -4.953125l0 4.953125l3.328125 0l0 3.046875l-3.328125 0l0 8.296875q0 1.015625 0.375 1.421875q0.390625 0.390625 1.546875 0.390625q0.390625 0 0.75 -0.03125q0.359375 -0.03125 0.65625 -0.09375l0 3.546875q-0.5625 0.09375 -1.265625 0.125q-0.6875 0.03125 -1.359375 0.03125q-2.953125 0 -4.109375 -1.0q-1.140625 -1.015625 -1.140625 -2.828125l0 -9.859375l-2.75 0l0 -3.046875l2.75 0l0 -4.953125l4.546875 0zm13.15625 4.515625q3.671875 0 5.859375 2.53125q2.203125 2.515625 2.203125 6.4375l-0.03125 0.84375l-11.9375 0q0.09375 2.140625 1.109375 3.171875q1.03125 1.03125 2.9375 1.03125q1.234375 0 2.28125 -0.625q1.046875 -0.640625 1.328125 -1.53125l4.0 0q-0.921875 2.8125 -2.84375 4.203125q-1.921875 1.375 -4.90625 1.375q-3.828125 0 -6.140625 -2.421875q-2.3125 -2.421875 -2.3125 -6.28125q0 -3.703125 2.359375 -6.21875q2.375 -2.515625 6.09375 -2.515625zm-3.90625 6.9375l7.390625 0q-0.328125 -1.828125 -1.1875 -2.671875q-0.84375 -0.84375 -2.453125 -0.84375q-1.65625 0 -2.625 0.9375q-0.96875 0.9375 -1.125 2.578125z" fill-rule="nonzero"></path><path fill="#000000" fill-opacity="0.0" d="m465.0971 338.3962l300.56696 0l0 95.590546l-300.56696 0z" fill-rule="evenodd"></path><path fill="#2c3e50" d="m531.5446 361.9271q3.890625 0 6.234375 2.40625q2.34375 2.390625 2.34375 6.328125q0 3.953125 -2.375 6.328125q-2.359375 2.375 -6.203125 2.375q-3.84375 0 -6.203125 -2.390625q-2.34375 -2.390625 -2.34375 -6.3125q0 -3.921875 2.3125 -6.328125q2.3125 -2.40625 6.234375 -2.40625zm-4.0 8.734375q0 2.609375 1.0625 3.953125q1.078125 1.328125 2.9375 1.328125q1.9375 0 2.984375 -1.375q1.046875 -1.390625 1.046875 -3.90625q0 -2.46875 -1.015625 -3.890625q-1.015625 -1.421875 -3.046875 -1.421875q-1.828125 0 -2.90625 1.328125q-1.0625 1.3125 -1.0625 3.984375zm25.0 -8.734375q3.171875 0 4.59375 1.609375q1.4375 1.59375 1.4375 5.03125l0 10.34375l-4.546875 0l0 -9.484375q0 -1.9375 -0.671875 -2.921875q-0.65625 -1.0 -2.234375 -1.0q-1.890625 0 -2.71875 1.125q-0.8125 1.125 -0.8125 3.453125l0 8.828125l-4.53125 0l0 -16.546875l4.3125 0l0 2.3125l0.09375 0q0.828125 -1.328125 2.15625 -2.03125q1.328125 -0.71875 2.921875 -0.71875zm17.125 0q3.671875 0 5.859375 2.53125q2.203125 2.515625 2.203125 6.4375l-0.03125 0.84375l-11.9375 0q0.09375 2.140625 1.109375 3.171875q1.03125 1.03125 2.9375 1.03125q1.234375 0 2.28125 -0.625q1.046875 -0.640625 1.328125 -1.53125l4.0 0q-0.921875 2.8125 -2.84375 4.203125q-1.921875 1.375 -4.90625 1.375q-3.828125 0 -6.140625 -2.421875q-2.3125 -2.421875 -2.3125 -6.28125q0 -3.703125 2.359375 -6.21875q2.375 -2.515625 6.09375 -2.515625zm-3.90625 6.9375l7.390625 0q-0.328125 -1.828125 -1.1875 -2.671875q-0.84375 -0.84375 -2.453125 -0.84375q-1.65625 0 -2.625 0.9375q-0.96875 0.9375 -1.125 2.578125zm28.203125 -12.796875l0 3.734375l-4.546875 0l0 -3.734375l4.546875 0zm0 6.296875l0 16.546875l-4.546875 0l0 -16.546875l4.546875 0zm19.703125 -6.296875l0 22.84375l-4.328125 0l0 -2.109375l-0.0625 0q-0.734375 1.265625 -2.03125 1.921875q-1.28125 0.640625 -2.984375 0.640625q-3.390625 0 -5.40625 -2.484375q-2.015625 -2.5 -2.015625 -6.390625q0 -3.6875 1.984375 -6.125q1.984375 -2.4375 5.34375 -2.4375q1.546875 0 2.828125 0.625q1.28125 0.625 2.0625 1.828125l0.0625 0l0 -8.3125l4.546875 0zm-12.296875 14.546875q0 2.3125 1.078125 3.828125q1.078125 1.5 2.921875 1.5q1.890625 0 2.890625 -1.390625q1.015625 -1.40625 1.015625 -3.953125q0 -2.421875 -0.984375 -3.828125q-0.984375 -1.421875 -2.9375 -1.421875q-1.890625 0 -2.9375 1.421875q-1.046875 1.40625 -1.046875 3.84375zm23.359375 -8.6875q3.671875 0 5.859375 2.53125q2.203125 2.515625 2.203125 6.4375l-0.03125 0.84375l-11.9375 0q0.09375 2.140625 1.109375 3.171875q1.03125 1.03125 2.9375 1.03125q1.234375 0 2.28125 -0.625q1.046875 -0.640625 1.328125 -1.53125l4.0 0q-0.921875 2.8125 -2.84375 4.203125q-1.921875 1.375 -4.90625 1.375q-3.828125 0 -6.140625 -2.421875q-2.3125 -2.421875 -2.3125 -6.28125q0 -3.703125 2.359375 -6.21875q2.375 -2.515625 6.09375 -2.515625zm-3.90625 6.9375l7.390625 0q-0.328125 -1.828125 -1.1875 -2.671875q-0.84375 -0.84375 -2.453125 -0.84375q-1.65625 0 -2.625 0.9375q-0.96875 0.9375 -1.125 2.578125zm24.125 -6.9375q3.171875 0 4.59375 1.609375q1.4375 1.59375 1.4375 5.03125l0 10.34375l-4.546875 0l0 -9.484375q0 -1.9375 -0.671875 -2.921875q-0.65625 -1.0 -2.234375 -1.0q-1.890625 0 -2.71875 1.125q-0.8125 1.125 -0.8125 3.453125l0 8.828125l-4.53125 0l0 -16.546875l4.3125 0l0 2.3125l0.09375 0q0.828125 -1.328125 2.15625 -2.03125q1.328125 -0.71875 2.921875 -0.71875zm15.234375 -4.515625l0 4.953125l3.328125 0l0 3.046875l-3.328125 0l0 8.296875q0 1.015625 0.375 1.421875q0.390625 0.390625 1.546875 0.390625q0.390625 0 0.75 -0.03125q0.359375 -0.03125 0.65625 -0.09375l0 3.546875q-0.5625 0.09375 -1.265625 0.125q-0.6875 0.03125 -1.359375 0.03125q-2.953125 0 -4.109375 -1.0q-1.140625 -1.015625 -1.140625 -2.828125l0 -9.859375l-2.75 0l0 -3.046875l2.75 0l0 -4.953125l4.546875 0zm10.1875 -1.34375l0 3.734375l-4.546875 0l0 -3.734375l4.546875 0zm0 6.296875l0 16.546875l-4.546875 0l0 -16.546875l4.546875 0zm9.328125 -4.953125l0 4.953125l3.328125 0l0 3.046875l-3.328125 0l0 8.296875q0 1.015625 0.375 1.421875q0.390625 0.390625 1.546875 0.390625q0.390625 0 0.75 -0.03125q0.359375 -0.03125 0.65625 -0.09375l0 3.546875q-0.5625 0.09375 -1.265625 0.125q-0.6875 0.03125 -1.359375 0.03125q-2.953125 0 -4.109375 -1.0q-1.140625 -1.015625 -1.140625 -2.828125l0 -9.859375l-2.75 0l0 -3.046875l2.75 0l0 -4.953125l4.546875 0zm8.453125 4.953125l3.75 11.328125l0.0625 0l3.609375 -11.328125l4.703125 0l-7.03125 18.9375q-0.625 1.65625 -1.921875 2.546875q-1.296875 0.890625 -3.359375 0.890625q-0.984375 0 -1.671875 -0.046875q-0.671875 -0.046875 -1.390625 -0.125l0 -3.734375q0.828125 0.09375 1.359375 0.125q0.53125 0.03125 1.015625 0.03125q0.96875 0 1.5 -0.59375q0.53125 -0.59375 0.53125 -1.484375q0 -0.234375 -0.03125 -0.453125q-0.03125 -0.234375 -0.171875 -0.578125l-5.828125 -15.515625l4.875 0zm18.90625 11.625l0 5.015625q0 1.84375 -1.296875 3.3125q-1.28125 1.484375 -3.6875 1.90625l0 -2.296875q1.046875 -0.25 1.65625 -1.078125q0.625 -0.8125 0.625 -1.71875l0 -0.21875l-2.3125 0l0 -4.921875l5.015625 0z" fill-rule="nonzero"></path><path fill="#2c3e50" d="m532.3649 399.9271q3.171875 0 4.59375 1.609375q1.4375 1.59375 1.4375 5.03125l0 10.34375l-4.546875 0l0 -9.484375q0 -1.9375 -0.671875 -2.921875q-0.65625 -1.0 -2.234375 -1.0q-1.890625 0 -2.71875 1.125q-0.8125 1.125 -0.8125 3.453125l0 8.828125l-4.53125 0l0 -16.546875l4.3125 0l0 2.3125l0.09375 0q0.828125 -1.328125 2.15625 -2.03125q1.328125 -0.71875 2.921875 -0.71875zm17.515625 0q3.890625 0 6.234375 2.40625q2.34375 2.390625 2.34375 6.328125q0 3.953125 -2.375 6.328125q-2.359375 2.375 -6.203125 2.375q-3.84375 0 -6.203125 -2.390625q-2.34375 -2.390625 -2.34375 -6.3125q0 -3.921875 2.3125 -6.328125q2.3125 -2.40625 6.234375 -2.40625zm-4.0 8.734375q0 2.609375 1.0625 3.953125q1.078125 1.328125 2.9375 1.328125q1.9375 0 2.984375 -1.375q1.046875 -1.390625 1.046875 -3.90625q0 -2.46875 -1.015625 -3.890625q-1.015625 -1.421875 -3.046875 -1.421875q-1.828125 0 -2.90625 1.328125q-1.0625 1.3125 -1.0625 3.984375zm32.0 -8.734375q3.671875 0 5.453125 1.203125q1.796875 1.203125 1.796875 3.390625l0 8.875q0 1.0 0.125 2.0q0.140625 1.0 0.453125 1.515625l-4.609375 0q-0.125 -0.375 -0.21875 -0.765625q-0.078125 -0.40625 -0.109375 -0.8125q-0.953125 0.984375 -2.375 1.515625q-1.40625 0.515625 -3.1875 0.515625q-2.5625 0 -4.09375 -1.28125q-1.53125 -1.296875 -1.53125 -3.6875q0 -2.3125 1.4375 -3.53125q1.4375 -1.234375 5.234375 -1.65625q2.640625 -0.25 3.484375 -0.640625q0.84375 -0.40625 0.84375 -1.390625q0 -1.109375 -0.65625 -1.65625q-0.640625 -0.5625 -2.265625 -0.5625q-1.40625 0 -2.15625 0.609375q-0.75 0.59375 -0.875 1.890625l-4.546875 0q0.1875 -2.71875 2.234375 -4.125q2.0625 -1.40625 5.5625 -1.40625zm-3.765625 12.28125q0 0.984375 0.671875 1.546875q0.671875 0.5625 2.125 0.5625q1.8125 0 2.734375 -0.953125q0.9375 -0.953125 0.9375 -2.78125l0 -1.765625q-0.40625 0.328125 -1.078125 0.5q-0.65625 0.15625 -2.390625 0.40625q-1.546875 0.203125 -2.28125 0.8125q-0.71875 0.59375 -0.71875 1.671875zm22.46875 -12.28125q3.203125 0 5.390625 1.65625q2.203125 1.65625 2.390625 4.609375l-4.453125 0q-0.203125 -1.421875 -1.046875 -2.125q-0.84375 -0.71875 -2.3125 -0.71875q-1.828125 0 -2.84375 1.5q-1.015625 1.5 -1.015625 3.875q0 2.375 1.0 3.796875q1.0 1.421875 2.765625 1.421875q1.515625 0 2.453125 -0.859375q0.9375 -0.875 1.171875 -2.515625l4.375 0q-0.453125 3.28125 -2.5625 5.046875q-2.109375 1.75 -5.40625 1.75q-3.6875 0 -6.015625 -2.359375q-2.328125 -2.375 -2.328125 -6.125q0 -4.015625 2.28125 -6.484375q2.296875 -2.46875 6.15625 -2.46875zm18.375 0q3.203125 0 5.390625 1.65625q2.203125 1.65625 2.390625 4.609375l-4.453125 0q-0.203125 -1.421875 -1.046875 -2.125q-0.84375 -0.71875 -2.3125 -0.71875q-1.828125 0 -2.84375 1.5q-1.015625 1.5 -1.015625 3.875q0 2.375 1.0 3.796875q1.0 1.421875 2.765625 1.421875q1.515625 0 2.453125 -0.859375q0.9375 -0.875 1.171875 -2.515625l4.375 0q-0.453125 3.28125 -2.5625 5.046875q-2.109375 1.75 -5.40625 1.75q-3.6875 0 -6.015625 -2.359375q-2.328125 -2.375 -2.328125 -6.125q0 -4.015625 2.28125 -6.484375q2.296875 -2.46875 6.15625 -2.46875zm18.484375 0q3.890625 0 6.234375 2.40625q2.34375 2.390625 2.34375 6.328125q0 3.953125 -2.375 6.328125q-2.359375 2.375 -6.203125 2.375q-3.84375 0 -6.203125 -2.390625q-2.34375 -2.390625 -2.34375 -6.3125q0 -3.921875 2.3125 -6.328125q2.3125 -2.40625 6.234375 -2.40625zm-4.0 8.734375q0 2.609375 1.0625 3.953125q1.078125 1.328125 2.9375 1.328125q1.9375 0 2.984375 -1.375q1.046875 -1.390625 1.046875 -3.90625q0 -2.46875 -1.015625 -3.890625q-1.015625 -1.421875 -3.046875 -1.421875q-1.828125 0 -2.90625 1.328125q-1.0625 1.3125 -1.0625 3.984375zm20.046875 -8.296875l0 9.484375q0 1.875 0.65625 2.90625q0.65625 1.015625 2.265625 1.015625q1.875 0 2.6875 -1.125q0.828125 -1.140625 0.828125 -3.453125l0 -8.828125l4.546875 0l0 16.546875l-4.328125 0l0 -2.296875l-0.09375 0q-0.859375 1.375 -2.21875 2.0625q-1.359375 0.6875 -2.859375 0.6875q-3.078125 0 -4.546875 -1.5625q-1.46875 -1.578125 -1.46875 -5.078125l0 -10.359375l4.53125 0zm23.921875 -0.4375q3.171875 0 4.59375 1.609375q1.4375 1.59375 1.4375 5.03125l0 10.34375l-4.546875 0l0 -9.484375q0 -1.9375 -0.671875 -2.921875q-0.65625 -1.0 -2.234375 -1.0q-1.890625 0 -2.71875 1.125q-0.8125 1.125 -0.8125 3.453125l0 8.828125l-4.53125 0l0 -16.546875l4.3125 0l0 2.3125l0.09375 0q0.828125 -1.328125 2.15625 -2.03125q1.328125 -0.71875 2.921875 -0.71875zm15.234375 -4.515625l0 4.953125l3.328125 0l0 3.046875l-3.328125 0l0 8.296875q0 1.015625 0.375 1.421875q0.390625 0.390625 1.546875 0.390625q0.390625 0 0.75 -0.03125q0.359375 -0.03125 0.65625 -0.09375l0 3.546875q-0.5625 0.09375 -1.265625 0.125q-0.6875 0.03125 -1.359375 0.03125q-2.953125 0 -4.109375 -1.0q-1.140625 -1.015625 -1.140625 -2.828125l0 -9.859375l-2.75 0l0 -3.046875l2.75 0l0 -4.953125l4.546875 0zm12.296875 4.515625q3.375 0 5.203125 1.34375q1.84375 1.328125 2.09375 3.921875l-4.328125 0q-0.09375 -1.171875 -0.875 -1.703125q-0.78125 -0.53125 -2.234375 -0.53125q-1.3125 0 -1.921875 0.390625q-0.59375 0.390625 -0.59375 1.140625q0 0.765625 0.78125 1.265625q0.796875 0.484375 3.1875 0.9375q3.8125 0.734375 5.109375 1.890625q1.3125 1.15625 1.3125 3.03125q0 2.8125 -2.0625 4.28125q-2.046875 1.46875 -5.484375 1.46875q-3.4375 0 -5.546875 -1.453125q-2.09375 -1.46875 -2.234375 -4.375l4.328125 0q0 1.3125 0.984375 2.046875q1.0 0.734375 2.5 0.734375q1.328125 0 2.15625 -0.5625q0.828125 -0.578125 0.828125 -1.546875q0 -0.859375 -1.078125 -1.40625q-1.078125 -0.546875 -3.953125 -1.140625q-2.84375 -0.5625 -4.109375 -1.609375q-1.265625 -1.046875 -1.265625 -2.828125q0 -2.625 1.859375 -3.953125q1.859375 -1.34375 5.34375 -1.34375z" fill-rule="nonzero"></path><path fill="#000000" fill-opacity="0.0" d="m2.5408 433.98676l300.56693 0l0 95.590576l-300.56693 0z" fill-rule="evenodd"></path><path fill="#2c3e50" d="m42.19926 457.51767q3.375 0 5.203125 1.34375q1.84375 1.328125 2.09375 3.921875l-4.328125 0q-0.09375 -1.171875 -0.875 -1.703125q-0.78125 -0.53125 -2.234375 -0.53125q-1.3125 0 -1.921875 0.390625q-0.59375 0.390625 -0.59375 1.140625q0 0.765625 0.78125 1.265625q0.796875 0.484375 3.1875 0.9375q3.8125 0.734375 5.109375 1.890625q1.3125 1.15625 1.3125 3.03125q0 2.8125 -2.0625 4.28125q-2.046875 1.46875 -5.484375 1.46875q-3.4375 0 -5.546875 -1.453125q-2.09375 -1.46875 -2.234375 -4.375l4.328125 0q0 1.3125 0.984375 2.046875q1.0 0.734375 2.5 0.734375q1.328125 0 2.15625 -0.5625q0.828125 -0.578125 0.828125 -1.546875q0 -0.859375 -1.078125 -1.40625q-1.078125 -0.546875 -3.953125 -1.140625q-2.84375 -0.5625 -4.109375 -1.609375q-1.265625 -1.046875 -1.265625 -2.828125q0 -2.625 1.859375 -3.953125q1.859375 -1.34375 5.34375 -1.34375zm14.9375 -5.859375l0 8.609375l0.109375 0q0.71875 -1.234375 2.03125 -1.984375q1.328125 -0.765625 2.828125 -0.765625q3.1562538 0 4.578129 1.609375q1.4375 1.609375 1.4375 5.03125l0 10.34375l-4.546879 0l0 -9.484375q0 -1.9375 -0.671875 -2.921875q-0.65625 -1.0 -2.234375 -1.0q-1.890625 0 -2.71875 1.125q-0.8125 1.125 -0.8125 3.453125l0 8.828125l-4.53125 0l0 -22.84375l4.53125 0zm22.031254 5.859375q3.671875 0 5.453125 1.203125q1.796875 1.203125 1.796875 3.390625l0 8.875q0 1.0 0.125 2.0q0.140625 1.0 0.453125 1.515625l-4.609375 0q-0.125 -0.375 -0.21875 -0.765625q-0.078125 -0.40625 -0.109375 -0.8125q-0.953125 0.984375 -2.375 1.515625q-1.40625 0.515625 -3.1875 0.515625q-2.5625 0 -4.09375 -1.28125q-1.53125 -1.296875 -1.53125 -3.6875q0 -2.3125 1.4375 -3.53125q1.4375 -1.234375 5.234375 -1.65625q2.640625 -0.25 3.484375 -0.640625q0.84375 -0.40625 0.84375 -1.390625q0 -1.109375 -0.65625 -1.65625q-0.640625 -0.5625 -2.265625 -0.5625q-1.40625 0 -2.15625 0.609375q-0.75 0.59375 -0.875 1.890625l-4.546875 0q0.1875 -2.71875 2.234375 -4.125q2.0625 -1.40625 5.5625 -1.40625zm-3.765625 12.28125q0 0.984375 0.671875 1.546875q0.671875 0.5625 2.125 0.5625q1.8125 0 2.734375 -0.953125q0.9375 -0.953125 0.9375 -2.78125l0 -1.765625q-0.40625 0.328125 -1.078125 0.5q-0.65625 0.15625 -2.390625 0.40625q-1.546875 0.203125 -2.28125 0.8125q-0.71875 0.59375 -0.71875 1.671875zm24.1875 -12.28125q0.296875 0 0.546875 0.046875q0.25 0.03125 0.46875 0.109375l0 4.21875q-0.390625 -0.078125 -0.765625 -0.109375q-0.359375 -0.046875 -0.859375 -0.046875q-2.296875 0 -3.40625 1.40625q-1.09375 1.40625 -1.09375 3.765625l0 7.59375l-4.53125 0l0 -16.546875l4.3125 0l0 3.078125l0.0625 0q0.71875 -1.625 2.140625 -2.5625q1.4375 -0.953125 3.125 -0.953125zm10.453125 0q3.671875 0 5.859375 2.53125q2.203125 2.515625 2.203125 6.4375l-0.03125 0.84375l-11.9375 0q0.09375 2.140625 1.109375 3.171875q1.03125 1.03125 2.9375 1.03125q1.234375 0 2.28125 -0.625q1.046875 -0.640625 1.328125 -1.53125l4.0 0q-0.921875 2.8125 -2.84375 4.203125q-1.921875 1.375 -4.90625 1.375q-3.828125 0 -6.140625 -2.421875q-2.3125 -2.421875 -2.3125 -6.28125q0 -3.703125 2.359375 -6.21875q2.375 -2.515625 6.09375 -2.515625zm-3.90625 6.9375l7.390625 0q-0.328125 -1.828125 -1.1875 -2.671875q-0.84375 -0.84375 -2.453125 -0.84375q-1.65625 0 -2.625 0.9375q-0.96875 0.9375 -1.125 2.578125zm26.46875 -6.5l3.75 11.328125l0.0625 0l3.609375 -11.328125l4.703125 0l-7.03125 18.9375q-0.625 1.65625 -1.921875 2.546875q-1.296875 0.890625 -3.359375 0.890625q-0.984375 0 -1.671875 -0.046875q-0.671875 -0.046875 -1.390625 -0.125l0 -3.734375q0.828125 0.09375 1.359375 0.125q0.53125 0.03125 1.015625 0.03125q0.96875 0 1.5 -0.59375q0.53125 -0.59375 0.53125 -1.484375q0 -0.234375 -0.03125 -0.453125q-0.03125 -0.234375 -0.171875 -0.578125l-5.828125 -15.515625l4.875 0zm21.703125 -0.4375q3.890625 0 6.234375 2.40625q2.34375 2.390625 2.34375 6.328125q0 3.953125 -2.375 6.328125q-2.359375 2.375 -6.203125 2.375q-3.84375 0 -6.203125 -2.390625q-2.34375 -2.390625 -2.34375 -6.3125q0 -3.921875 2.3125 -6.328125q2.3125 -2.40625 6.234375 -2.40625zm-4.0 8.734375q0 2.609375 1.0625 3.953125q1.078125 1.328125 2.9375 1.328125q1.9375 0 2.984375 -1.375q1.046875 -1.390625 1.046875 -3.90625q0 -2.46875 -1.015625 -3.890625q-1.015625 -1.421875 -3.046875 -1.421875q-1.828125 0 -2.90625 1.328125q-1.0625 1.3125 -1.0625 3.984375zm20.046875 -8.296875l0 9.484375q0 1.875 0.65625 2.90625q0.65625 1.015625 2.265625 1.015625q1.875 0 2.6875 -1.125q0.828125 -1.140625 0.828125 -3.453125l0 -8.828125l4.546875 0l0 16.546875l-4.328125 0l0 -2.296875l-0.09375 0q-0.859375 1.375 -2.21875 2.0625q-1.359375 0.6875 -2.859375 0.6875q-3.078125 0 -4.546875 -1.5625q-1.46875 -1.578125 -1.46875 -5.078125l0 -10.359375l4.53125 0zm24.078125 -0.4375q0.296875 0 0.546875 0.046875q0.25 0.03125 0.46875 0.109375l0 4.21875q-0.390625 -0.078125 -0.765625 -0.109375q-0.359375 -0.046875 -0.859375 -0.046875q-2.296875 0 -3.40625 1.40625q-1.09375 1.40625 -1.09375 3.765625l0 7.59375l-4.53125 0l0 -16.546875l4.3125 0l0 3.078125l0.0625 0q0.71875 -1.625 2.140625 -2.5625q1.4375 -0.953125 3.125 -0.953125zm27.828125 -5.859375l0 22.84375l-4.328125 0l0 -2.109375l-0.0625 0q-0.734375 1.265625 -2.03125 1.921875q-1.28125 0.640625 -2.984375 0.640625q-3.390625 0 -5.40625 -2.484375q-2.015625 -2.5 -2.015625 -6.390625q0 -3.6875 1.984375 -6.125q1.984375 -2.4375 5.34375 -2.4375q1.546875 0 2.828125 0.625q1.28125 0.625 2.0625 1.828125l0.0625 0l0 -8.3125l4.546875 0zm-12.296875 14.546875q0 2.3125 1.078125 3.828125q1.078125 1.5 2.921875 1.5q1.890625 0 2.890625 -1.390625q1.015625 -1.40625 1.015625 -3.953125q0 -2.421875 -0.984375 -3.828125q-0.984375 -1.421875 -2.9375 -1.421875q-1.890625 0 -2.9375 1.421875q-1.046875 1.40625 -1.046875 3.84375zm23.3125 -8.6875q3.671875 0 5.453125 1.203125q1.796875 1.203125 1.796875 3.390625l0 8.875q0 1.0 0.125 2.0q0.140625 1.0 0.453125 1.515625l-4.609375 0q-0.125 -0.375 -0.21875 -0.765625q-0.078125 -0.40625 -0.109375 -0.8125q-0.953125 0.984375 -2.375 1.515625q-1.40625 0.515625 -3.1875 0.515625q-2.5625 0 -4.09375 -1.28125q-1.53125 -1.296875 -1.53125 -3.6875q0 -2.3125 1.4375 -3.53125q1.4375 -1.234375 5.234375 -1.65625q2.640625 -0.25 3.484375 -0.640625q0.84375 -0.40625 0.84375 -1.390625q0 -1.109375 -0.65625 -1.65625q-0.640625 -0.5625 -2.265625 -0.5625q-1.40625 0 -2.15625 0.609375q-0.75 0.59375 -0.875 1.890625l-4.546875 0q0.1875 -2.71875 2.234375 -4.125q2.0625 -1.40625 5.5625 -1.40625zm-3.765625 12.28125q0 0.984375 0.671875 1.546875q0.671875 0.5625 2.125 0.5625q1.8125 0 2.734375 -0.953125q0.9375 -0.953125 0.9375 -2.78125l0 -1.765625q-0.40625 0.328125 -1.078125 0.5q-0.65625 0.15625 -2.390625 0.40625q-1.546875 0.203125 -2.28125 0.8125q-0.71875 0.59375 -0.71875 1.671875zm20.296875 -16.796875l0 4.953125l3.328125 0l0 3.046875l-3.328125 0l0 8.296875q0 1.015625 0.375 1.421875q0.390625 0.390625 1.546875 0.390625q0.390625 0 0.75 -0.03125q0.359375 -0.03125 0.65625 -0.09375l0 3.546875q-0.5625 0.09375 -1.265625 0.125q-0.6875 0.03125 -1.359375 0.03125q-2.953125 0 -4.109375 -1.0q-1.140625 -1.015625 -1.140625 -2.828125l0 -9.859375l-2.75 0l0 -3.046875l2.75 0l0 -4.953125l4.546875 0zm13.10936 4.515625q3.671875 0 5.453125 1.203125q1.796875 1.203125 1.796875 3.390625l0 8.875q0 1.0 0.125 2.0q0.140625 1.0 0.453125 1.515625l-4.609375 0q-0.125 -0.375 -0.21875 -0.765625q-0.078125 -0.40625 -0.109375 -0.8125q-0.953125 0.984375 -2.375 1.515625q-1.40625 0.515625 -3.1875 0.515625q-2.5625 0 -4.09375 -1.28125q-1.5312347 -1.296875 -1.5312347 -3.6875q0 -2.3125 1.4374847 -3.53125q1.4375 -1.234375 5.234375 -1.65625q2.640625 -0.25 3.484375 -0.640625q0.84375 -0.40625 0.84375 -1.390625q0 -1.109375 -0.65625 -1.65625q-0.640625 -0.5625 -2.265625 -0.5625q-1.40625 0 -2.15625 0.609375q-0.75 0.59375 -0.875 1.890625l-4.5468597 0q0.1875 -2.71875 2.2343597 -4.125q2.0625 -1.40625 5.5625 -1.40625zm-3.765625 12.28125q0 0.984375 0.671875 1.546875q0.671875 0.5625 2.125 0.5625q1.8125 0 2.734375 -0.953125q0.9375 -0.953125 0.9375 -2.78125l0 -1.765625q-0.40625 0.328125 -1.078125 0.5q-0.65625 0.15625 -2.390625 0.40625q-1.546875 0.203125 -2.28125 0.8125q-0.71875 0.59375 -0.71875 1.671875z" fill-rule="nonzero"></path><path fill="#2c3e50" d="m42.94926 495.95517l3.046875 11.234375l0.0625 0l2.75 -11.234375l4.421875 0l2.8125 11.203125l0.0625 0l3.046875 -11.203125l4.671875 0l-5.234375 16.546844l-4.65625 0l-2.9375 -11.1093445l-0.078125 0l-2.8125 11.1093445l-4.703125 0l-5.25 -16.546844l4.796875 0zm27.468754 -6.296875l0 3.734375l-4.546875 0l0 -3.734375l4.546875 0zm0 6.296875l0 16.546844l-4.546875 0l0 -16.546844l4.546875 0zm9.328125 -4.953125l0 4.953125l3.328125 0l0 3.046875l-3.328125 0l0 8.296875q0 1.015625 0.375 1.421875q0.390625 0.390625 1.546875 0.390625q0.390625 0 0.75 -0.03125q0.359375 -0.03125 0.65625 -0.09375l0 3.5468445q-0.5625 0.09375 -1.265625 0.125q-0.6875 0.03125 -1.359375 0.03125q-2.953125 0 -4.109375 -0.9999695q-1.140625 -1.015625 -1.140625 -2.828125l0 -9.859375l-2.75 0l0 -3.046875l2.75 0l0 -4.953125l4.546875 0zm10.046875 -1.34375l0 8.609375l0.109375 0q0.71875 -1.234375 2.03125 -1.984375q1.328125 -0.765625 2.828125 -0.765625q3.15625 0 4.578125 1.609375q1.4375 1.609375 1.4375 5.03125l0 10.3437195l-4.546875 0l0 -9.4843445q0 -1.9375 -0.671875 -2.921875q-0.65625 -1.0 -2.234375 -1.0q-1.890625 0 -2.71875 1.125q-0.8125 1.125 -0.8125 3.453125l0 8.8280945l-4.53125 0l0 -22.84372l4.53125 0zm19.109375 0l0 3.734375l-4.546875 0l0 -3.734375l4.546875 0zm0 6.296875l0 16.546844l-4.546875 0l0 -16.546844l4.546875 0zm13.0625 -0.4375q3.171875 0 4.59375 1.609375q1.4375 1.59375 1.4375 5.03125l0 10.3437195l-4.546875 0l0 -9.4843445q0 -1.9375 -0.671875 -2.921875q-0.65625 -1.0 -2.234375 -1.0q-1.890625 0 -2.71875 1.125q-0.8125 1.125 -0.8125 3.453125l0 8.8280945l-4.53125 0l0 -16.546844l4.3125 0l0 2.3125l0.09375 0q0.828125 -1.328125 2.15625 -2.03125q1.328125 -0.71875 2.921875 -0.71875zm27.6875 0q3.515625 0 5.515625 2.46875q2.0 2.453125 2.0 6.421875q0 3.671875 -1.96875 6.109375q-1.96875 2.4374695 -5.296875 2.4374695q-1.515625 0 -2.828125 -0.640625q-1.3125 -0.6562195 -2.125 -1.8593445l-0.078125 0l0 7.8749695l-4.53125 0l0 -22.37497l4.3125 0l0 2.109375l0.0625 0q0.8125 -1.296875 2.0625 -1.921875q1.265625 -0.625 2.875 -0.625zm-4.9375 8.765625q0 2.375 1.015625 3.8125q1.015625 1.4375 2.953125 1.4375q1.890625 0 2.90625 -1.375q1.03125 -1.375 1.03125 -3.875q0 -2.375 -1.015625 -3.859375q-1.015625 -1.484375 -2.984375 -1.484375q-1.875 0 -2.890625 1.40625q-1.015625 1.40625 -1.015625 3.9375zm19.84375 -14.625l0 22.84372l-4.546875 0l0 -22.84372l4.546875 0zm11.171875 5.859375q3.671875 0 5.453125 1.203125q1.796875 1.203125 1.796875 3.390625l0 8.875q0 1.0 0.125 2.0q0.140625 1.0 0.453125 1.5155945l-4.609375 0q-0.125 -0.375 -0.21875 -0.7655945q-0.078125 -0.40625 -0.109375 -0.8125q-0.953125 0.984375 -2.375 1.5155945q-1.40625 0.515625 -3.1875 0.515625q-2.5625 0 -4.09375 -1.2812195q-1.53125 -1.296875 -1.53125 -3.6875q0 -2.3125 1.4375 -3.53125q1.4375 -1.234375 5.234375 -1.65625q2.640625 -0.25 3.484375 -0.640625q0.84375 -0.40625 0.84375 -1.390625q0 -1.109375 -0.65625 -1.65625q-0.640625 -0.5625 -2.265625 -0.5625q-1.40625 0 -2.15625 0.609375q-0.75 0.59375 -0.875 1.890625l-4.546875 0q0.1875 -2.71875 2.234375 -4.125q2.0625 -1.40625 5.5625 -1.40625zm-3.765625 12.28125q0 0.984375 0.671875 1.546875q0.671875 0.5625 2.125 0.5625q1.8125 0 2.734375 -0.953125q0.9375 -0.953125 0.9375 -2.78125l0 -1.765625q-0.40625 0.328125 -1.078125 0.5q-0.65625 0.15625 -2.390625 0.40625q-1.546875 0.203125 -2.28125 0.8125q-0.71875 0.59375 -0.71875 1.671875zm20.296875 -16.796875l0 4.953125l3.328125 0l0 3.046875l-3.328125 0l0 8.296875q0 1.015625 0.375 1.421875q0.390625 0.390625 1.546875 0.390625q0.390625 0 0.75 -0.03125q0.359375 -0.03125 0.65625 -0.09375l0 3.5468445q-0.5625 0.09375 -1.265625 0.125q-0.6875 0.03125 -1.359375 0.03125q-2.953125 0 -4.109375 -0.9999695q-1.140625 -1.015625 -1.140625 -2.828125l0 -9.859375l-2.75 0l0 -3.046875l2.75 0l0 -4.953125l4.546875 0zm12.03125 -1.34375q0.46875 0 1.25 0.046875q0.78125 0.046875 1.15625 0.078125l0 3.390625q-0.453125 -0.046875 -0.875 -0.0625q-0.40625 -0.03125 -0.765625 -0.03125q-0.953125 0 -1.359375 0.421875q-0.390625 0.40625 -0.390625 1.6875l0 0.765625l3.140625 0l0 3.046875l-3.140625 0l0 13.4999695l-4.546875 0l0 -13.4999695l-2.71875 0l0 -3.046875l2.71875 0l0 -1.140625q0 -2.578125 1.484375 -3.859375q1.5 -1.296875 4.046875 -1.296875zm12.171875 5.859375q3.890625 0 6.234375 2.40625q2.34375 2.390625 2.34375 6.328125q0 3.953125 -2.375 6.328125q-2.359375 2.3749695 -6.203125 2.3749695q-3.84375 0 -6.203125 -2.3905945q-2.34375 -2.390625 -2.34375 -6.3125q0 -3.921875 2.3125 -6.328125q2.3125 -2.40625 6.234375 -2.40625zm-4.0 8.734375q0 2.609375 1.0625 3.953125q1.078125 1.328125 2.9375 1.328125q1.9375 0 2.984375 -1.375q1.046875 -1.390625 1.046875 -3.90625q0 -2.46875 -1.015625 -3.890625q-1.015625 -1.421875 -3.046875 -1.421875q-1.828125 0 -2.90625 1.328125q-1.0625 1.3125 -1.0625 3.984375zm25.15625 -8.734375q0.296875 0 0.546875 0.046875q0.25 0.03125 0.46875 0.109375l0 4.21875q-0.390625 -0.078125 -0.765625 -0.109375q-0.359375 -0.046875 -0.859375 -0.046875q-2.296875 0 -3.40625 1.40625q-1.09375 1.40625 -1.09375 3.765625l0 7.5937195l-4.53125 0l0 -16.546844l4.3125 0l0 3.078125l0.0625 0q0.71875 -1.625 2.140625 -2.5625q1.4375 -0.953125 3.125 -0.953125zm12.34375 0q1.84375 0 3.046875 0.71875q1.203125 0.703125 1.78125 2.03125q0.9375 -1.328125 2.2187347 -2.03125q1.28125 -0.71875 2.796875 -0.71875q3.0 0 4.515625 1.53125q1.515625 1.53125 1.515625 4.234375l0 11.2187195l-4.546875 0l0 -9.5624695q0 -2.265625 -0.671875 -3.046875q-0.65625 -0.796875 -2.109375 -0.796875q-1.53125 0 -2.296875 1.03125q-0.74998474 1.03125 -0.74998474 3.015625l0 9.3593445l-4.546875 0l0 -10.1874695q0 -1.640625 -0.625 -2.421875q-0.625 -0.796875 -2.109375 -0.796875q-1.296875 0 -2.1875 1.0q-0.890625 1.0 -0.890625 2.703125l0 9.7030945l-4.546875 0l0 -16.546844l4.28125 0l0 2.25l0.0625 0q0.96875 -1.359375 2.234375 -2.015625q1.28125 -0.671875 2.828125 -0.671875z" fill-rule="nonzero"></path><path fill="#000000" fill-opacity="0.0" d="m465.0971 433.98676l300.56696 0l0 95.590576l-300.56696 0z" fill-rule="evenodd"></path><path fill="#2c3e50" d="m504.75558 457.51767q3.375 0 5.203125 1.34375q1.84375 1.328125 2.0937195 3.921875l-4.3280945 0q-0.09375 -1.171875 -0.875 -1.703125q-0.78125 -0.53125 -2.234375 -0.53125q-1.3125 0 -1.921875 0.390625q-0.59375 0.390625 -0.59375 1.140625q0 0.765625 0.78125 1.265625q0.796875 0.484375 3.1875 0.9375q3.8125 0.734375 5.109375 1.890625q1.3124695 1.15625 1.3124695 3.03125q0 2.8125 -2.0624695 4.28125q-2.046875 1.46875 -5.484375 1.46875q-3.4375 0 -5.546875 -1.453125q-2.09375 -1.46875 -2.234375 -4.375l4.328125 0q0 1.3125 0.984375 2.046875q1.0 0.734375 2.5 0.734375q1.328125 0 2.15625 -0.5625q0.828125 -0.578125 0.828125 -1.546875q0 -0.859375 -1.078125 -1.40625q-1.078125 -0.546875 -3.953125 -1.140625q-2.84375 -0.5625 -4.109375 -1.609375q-1.265625 -1.046875 -1.265625 -2.828125q0 -2.625 1.859375 -3.953125q1.859375 -1.34375 5.34375 -1.34375zm14.9374695 -5.859375l0 8.609375l0.109375 0q0.71875 -1.234375 2.03125 -1.984375q1.328125 -0.765625 2.828125 -0.765625q3.15625 0 4.578125 1.609375q1.4375 1.609375 1.4375 5.03125l0 10.34375l-4.546875 0l0 -9.484375q0 -1.9375 -0.671875 -2.921875q-0.65625 -1.0 -2.234375 -1.0q-1.890625 0 -2.71875 1.125q-0.8125 1.125 -0.8125 3.453125l0 8.828125l-4.53125 0l0 -22.84375l4.53125 0zm22.03125 5.859375q3.671875 0 5.453125 1.203125q1.796875 1.203125 1.796875 3.390625l0 8.875q0 1.0 0.125 2.0q0.140625 1.0 0.453125 1.515625l-4.609375 0q-0.125 -0.375 -0.21875 -0.765625q-0.078125 -0.40625 -0.109375 -0.8125q-0.953125 0.984375 -2.375 1.515625q-1.40625 0.515625 -3.1875 0.515625q-2.5625 0 -4.09375 -1.28125q-1.53125 -1.296875 -1.53125 -3.6875q0 -2.3125 1.4375 -3.53125q1.4375 -1.234375 5.234375 -1.65625q2.640625 -0.25 3.484375 -0.640625q0.84375 -0.40625 0.84375 -1.390625q0 -1.109375 -0.65625 -1.65625q-0.640625 -0.5625 -2.265625 -0.5625q-1.40625 0 -2.15625 0.609375q-0.75 0.59375 -0.875 1.890625l-4.546875 0q0.1875 -2.71875 2.234375 -4.125q2.0625 -1.40625 5.5625 -1.40625zm-3.765625 12.28125q0 0.984375 0.671875 1.546875q0.671875 0.5625 2.125 0.5625q1.8125 0 2.734375 -0.953125q0.9375 -0.953125 0.9375 -2.78125l0 -1.765625q-0.40625 0.328125 -1.078125 0.5q-0.65625 0.15625 -2.390625 0.40625q-1.546875 0.203125 -2.28125 0.8125q-0.71875 0.59375 -0.71875 1.671875zm24.1875 -12.28125q0.296875 0 0.546875 0.046875q0.25 0.03125 0.46875 0.109375l0 4.21875q-0.390625 -0.078125 -0.765625 -0.109375q-0.359375 -0.046875 -0.859375 -0.046875q-2.296875 0 -3.40625 1.40625q-1.09375 1.40625 -1.09375 3.765625l0 7.59375l-4.53125 0l0 -16.546875l4.3125 0l0 3.078125l0.0625 0q0.71875 -1.625 2.140625 -2.5625q1.4375 -0.953125 3.125 -0.953125zm10.453125 0q3.671875 0 5.859375 2.53125q2.203125 2.515625 2.203125 6.4375l-0.03125 0.84375l-11.9375 0q0.09375 2.140625 1.109375 3.171875q1.03125 1.03125 2.9375 1.03125q1.234375 0 2.28125 -0.625q1.046875 -0.640625 1.328125 -1.53125l4.0 0q-0.921875 2.8125 -2.84375 4.203125q-1.921875 1.375 -4.90625 1.375q-3.828125 0 -6.140625 -2.421875q-2.3125 -2.421875 -2.3125 -6.28125q0 -3.703125 2.359375 -6.21875q2.375 -2.515625 6.09375 -2.515625zm-3.90625 6.9375l7.390625 0q-0.328125 -1.828125 -1.1875 -2.671875q-0.84375 -0.84375 -2.453125 -0.84375q-1.65625 0 -2.625 0.9375q-0.96875 0.9375 -1.125 2.578125zm26.46875 -6.5l3.75 11.328125l0.0625 0l3.609375 -11.328125l4.703125 0l-7.03125 18.9375q-0.625 1.65625 -1.921875 2.546875q-1.296875 0.890625 -3.359375 0.890625q-0.984375 0 -1.671875 -0.046875q-0.671875 -0.046875 -1.390625 -0.125l0 -3.734375q0.828125 0.09375 1.359375 0.125q0.53125 0.03125 1.015625 0.03125q0.96875 0 1.5 -0.59375q0.53125 -0.59375 0.53125 -1.484375q0 -0.234375 -0.03125 -0.453125q-0.03125 -0.234375 -0.171875 -0.578125l-5.828125 -15.515625l4.875 0zm21.703125 -0.4375q3.890625 0 6.234375 2.40625q2.34375 2.390625 2.34375 6.328125q0 3.953125 -2.375 6.328125q-2.359375 2.375 -6.203125 2.375q-3.84375 0 -6.203125 -2.390625q-2.34375 -2.390625 -2.34375 -6.3125q0 -3.921875 2.3125 -6.328125q2.3125 -2.40625 6.234375 -2.40625zm-4.0 8.734375q0 2.609375 1.0625 3.953125q1.078125 1.328125 2.9375 1.328125q1.9375 0 2.984375 -1.375q1.046875 -1.390625 1.046875 -3.90625q0 -2.46875 -1.015625 -3.890625q-1.015625 -1.421875 -3.046875 -1.421875q-1.828125 0 -2.90625 1.328125q-1.0625 1.3125 -1.0625 3.984375zm20.046875 -8.296875l0 9.484375q0 1.875 0.65625 2.90625q0.65625 1.015625 2.265625 1.015625q1.875 0 2.6875 -1.125q0.828125 -1.140625 0.828125 -3.453125l0 -8.828125l4.546875 0l0 16.546875l-4.328125 0l0 -2.296875l-0.09375 0q-0.859375 1.375 -2.21875 2.0625q-1.359375 0.6875 -2.859375 0.6875q-3.078125 0 -4.546875 -1.5625q-1.46875 -1.578125 -1.46875 -5.078125l0 -10.359375l4.53125 0zm24.078125 -0.4375q0.296875 0 0.546875 0.046875q0.25 0.03125 0.46875 0.109375l0 4.21875q-0.390625 -0.078125 -0.765625 -0.109375q-0.359375 -0.046875 -0.859375 -0.046875q-2.296875 0 -3.40625 1.40625q-1.09375 1.40625 -1.09375 3.765625l0 7.59375l-4.53125 0l0 -16.546875l4.3125 0l0 3.078125l0.0625 0q0.71875 -1.625 2.140625 -2.5625q1.4375 -0.953125 3.125 -0.953125zm27.828125 -5.859375l0 22.84375l-4.328125 0l0 -2.109375l-0.0625 0q-0.734375 1.265625 -2.03125 1.921875q-1.28125 0.640625 -2.984375 0.640625q-3.390625 0 -5.40625 -2.484375q-2.015625 -2.5 -2.015625 -6.390625q0 -3.6875 1.984375 -6.125q1.984375 -2.4375 5.34375 -2.4375q1.546875 0 2.828125 0.625q1.28125 0.625 2.0625 1.828125l0.0625 0l0 -8.3125l4.546875 0zm-12.296875 14.546875q0 2.3125 1.078125 3.828125q1.078125 1.5 2.921875 1.5q1.890625 0 2.890625 -1.390625q1.015625 -1.40625 1.015625 -3.953125q0 -2.421875 -0.984375 -3.828125q-0.984375 -1.421875 -2.9375 -1.421875q-1.890625 0 -2.9375 1.421875q-1.046875 1.40625 -1.046875 3.84375zm23.3125 -8.6875q3.671875 0 5.453125 1.203125q1.796875 1.203125 1.796875 3.390625l0 8.875q0 1.0 0.125 2.0q0.140625 1.0 0.453125 1.515625l-4.609375 0q-0.125 -0.375 -0.21875 -0.765625q-0.078125 -0.40625 -0.109375 -0.8125q-0.953125 0.984375 -2.375 1.515625q-1.40625 0.515625 -3.1875 0.515625q-2.5625 0 -4.09375 -1.28125q-1.53125 -1.296875 -1.53125 -3.6875q0 -2.3125 1.4375 -3.53125q1.4375 -1.234375 5.234375 -1.65625q2.640625 -0.25 3.484375 -0.640625q0.84375 -0.40625 0.84375 -1.390625q0 -1.109375 -0.65625 -1.65625q-0.640625 -0.5625 -2.265625 -0.5625q-1.40625 0 -2.15625 0.609375q-0.75 0.59375 -0.875 1.890625l-4.546875 0q0.1875 -2.71875 2.234375 -4.125q2.0625 -1.40625 5.5625 -1.40625zm-3.765625 12.28125q0 0.984375 0.671875 1.546875q0.671875 0.5625 2.125 0.5625q1.8125 0 2.734375 -0.953125q0.9375 -0.953125 0.9375 -2.78125l0 -1.765625q-0.40625 0.328125 -1.078125 0.5q-0.65625 0.15625 -2.390625 0.40625q-1.546875 0.203125 -2.28125 0.8125q-0.71875 0.59375 -0.71875 1.671875zm20.296875 -16.796875l0 4.953125l3.328125 0l0 3.046875l-3.328125 0l0 8.296875q0 1.015625 0.375 1.421875q0.390625 0.390625 1.546875 0.390625q0.390625 0 0.75 -0.03125q0.359375 -0.03125 0.65625 -0.09375l0 3.546875q-0.5625 0.09375 -1.265625 0.125q-0.6875 0.03125 -1.359375 0.03125q-2.953125 0 -4.109375 -1.0q-1.140625 -1.015625 -1.140625 -2.828125l0 -9.859375l-2.75 0l0 -3.046875l2.75 0l0 -4.953125l4.546875 0zm13.109375 4.515625q3.671875 0 5.453125 1.203125q1.796875 1.203125 1.796875 3.390625l0 8.875q0 1.0 0.125 2.0q0.140625 1.0 0.453125 1.515625l-4.609375 0q-0.125 -0.375 -0.21875 -0.765625q-0.078125 -0.40625 -0.109375 -0.8125q-0.953125 0.984375 -2.375 1.515625q-1.40625 0.515625 -3.1875 0.515625q-2.5625 0 -4.09375 -1.28125q-1.53125 -1.296875 -1.53125 -3.6875q0 -2.3125 1.4375 -3.53125q1.4375 -1.234375 5.234375 -1.65625q2.640625 -0.25 3.484375 -0.640625q0.84375 -0.40625 0.84375 -1.390625q0 -1.109375 -0.65625 -1.65625q-0.640625 -0.5625 -2.265625 -0.5625q-1.40625 0 -2.15625 0.609375q-0.75 0.59375 -0.875 1.890625l-4.546875 0q0.1875 -2.71875 2.234375 -4.125q2.0625 -1.40625 5.5625 -1.40625zm-3.765625 12.28125q0 0.984375 0.671875 1.546875q0.671875 0.5625 2.125 0.5625q1.8125 0 2.734375 -0.953125q0.9375 -0.953125 0.9375 -2.78125l0 -1.765625q-0.40625 0.328125 -1.078125 0.5q-0.65625 0.15625 -2.390625 0.40625q-1.546875 0.203125 -2.28125 0.8125q-0.71875 0.59375 -0.71875 1.671875z" fill-rule="nonzero"></path><path fill="#2c3e50" d="m496.7009 495.51767q3.671875 0 5.453125 1.203125q1.796875 1.203125 1.796875 3.390625l0 8.875q0 1.0 0.125 2.0q0.140625 1.0 0.453125 1.5155945l-4.609375 0q-0.125 -0.375 -0.21875 -0.7655945q-0.078125 -0.40625 -0.109375 -0.8125q-0.953125 0.984375 -2.375 1.5155945q-1.40625 0.515625 -3.1875 0.515625q-2.5625 0 -4.09375 -1.2812195q-1.53125 -1.296875 -1.53125 -3.6875q0 -2.3125 1.4375 -3.53125q1.4375 -1.234375 5.234375 -1.65625q2.640625 -0.25 3.484375 -0.640625q0.84375 -0.40625 0.84375 -1.390625q0 -1.109375 -0.65625 -1.65625q-0.640625 -0.5625 -2.265625 -0.5625q-1.40625 0 -2.15625 0.609375q-0.75 0.59375 -0.875 1.890625l-4.546875 0q0.1875 -2.71875 2.234375 -4.125q2.0625 -1.40625 5.5625 -1.40625zm-3.765625 12.28125q0 0.984375 0.671875 1.546875q0.671875 0.5625 2.125 0.5625q1.8125 0 2.734375 -0.953125q0.9375 -0.953125 0.9375 -2.78125l0 -1.765625q-0.40625 0.328125 -1.078125 0.5q-0.65625 0.15625 -2.390625 0.40625q-1.546875 0.203125 -2.28125 0.8125q-0.71875 0.59375 -0.71875 1.671875zm22.46872 -12.28125q3.203125 0 5.390625 1.65625q2.203125 1.65625 2.390625 4.609375l-4.453125 0q-0.203125 -1.421875 -1.046875 -2.125q-0.84375 -0.71875 -2.3125 -0.71875q-1.828125 0 -2.84375 1.5q-1.0155945 1.5 -1.0155945 3.875q0 2.375 0.9999695 3.796875q1.0 1.421875 2.765625 1.421875q1.515625 0 2.453125 -0.859375q0.9375 -0.875 1.171875 -2.515625l4.375 0q-0.453125 3.28125 -2.5625 5.046875q-2.109375 1.7499695 -5.40625 1.7499695q-3.6874695 0 -6.0155945 -2.3593445q-2.328125 -2.375 -2.328125 -6.125q0 -4.015625 2.28125 -6.484375q2.296875 -2.46875 6.1562195 -2.46875zm20.09375 0q0.296875 0 0.546875 0.046875q0.25 0.03125 0.46875 0.109375l0 4.21875q-0.390625 -0.078125 -0.765625 -0.109375q-0.359375 -0.046875 -0.859375 -0.046875q-2.296875 0 -3.40625 1.40625q-1.09375 1.40625 -1.09375 3.765625l0 7.5937195l-4.53125 0l0 -16.546844l4.3125 0l0 3.078125l0.0625 0q0.71875 -1.625 2.140625 -2.5625q1.4375 -0.953125 3.125 -0.953125zm10.84375 0q3.890625 0 6.234375 2.40625q2.34375 2.390625 2.34375 6.328125q0 3.953125 -2.375 6.328125q-2.359375 2.3749695 -6.203125 2.3749695q-3.84375 0 -6.203125 -2.3905945q-2.34375 -2.390625 -2.34375 -6.3125q0 -3.921875 2.3125 -6.328125q2.3125 -2.40625 6.234375 -2.40625zm-4.0 8.734375q0 2.609375 1.0625 3.953125q1.078125 1.328125 2.9375 1.328125q1.9375 0 2.984375 -1.375q1.046875 -1.390625 1.046875 -3.90625q0 -2.46875 -1.015625 -3.890625q-1.015625 -1.421875 -3.046875 -1.421875q-1.828125 0 -2.90625 1.328125q-1.0625 1.3125 -1.0625 3.984375zm22.296875 -8.734375q3.375 0 5.203125 1.34375q1.84375 1.328125 2.09375 3.921875l-4.328125 0q-0.09375 -1.171875 -0.875 -1.703125q-0.78125 -0.53125 -2.234375 -0.53125q-1.3125 0 -1.921875 0.390625q-0.59375 0.390625 -0.59375 1.140625q0 0.765625 0.78125 1.265625q0.796875 0.484375 3.1875 0.9375q3.8125 0.734375 5.109375 1.890625q1.3125 1.15625 1.3125 3.03125q0 2.8125 -2.0625 4.28125q-2.046875 1.4687195 -5.484375 1.4687195q-3.4375 0 -5.546875 -1.4530945q-2.09375 -1.46875 -2.234375 -4.375l4.328125 0q0 1.3125 0.984375 2.046875q1.0 0.734375 2.5 0.734375q1.328125 0 2.15625 -0.5625q0.828125 -0.578125 0.828125 -1.546875q0 -0.859375 -1.078125 -1.40625q-1.078125 -0.546875 -3.953125 -1.140625q-2.84375 -0.5625 -4.109375 -1.609375q-1.265625 -1.046875 -1.265625 -2.828125q0 -2.625 1.859375 -3.953125q1.859375 -1.34375 5.34375 -1.34375zm17.1875 0q3.375 0 5.203125 1.34375q1.84375 1.328125 2.09375 3.921875l-4.328125 0q-0.09375 -1.171875 -0.875 -1.703125q-0.78125 -0.53125 -2.234375 -0.53125q-1.3125 0 -1.921875 0.390625q-0.59375 0.390625 -0.59375 1.140625q0 0.765625 0.78125 1.265625q0.796875 0.484375 3.1875 0.9375q3.8125 0.734375 5.109375 1.890625q1.3125 1.15625 1.3125 3.03125q0 2.8125 -2.0625 4.28125q-2.046875 1.4687195 -5.484375 1.4687195q-3.4375 0 -5.546875 -1.4530945q-2.09375 -1.46875 -2.234375 -4.375l4.328125 0q0 1.3125 0.984375 2.046875q1.0 0.734375 2.5 0.734375q1.328125 0 2.15625 -0.5625q0.828125 -0.578125 0.828125 -1.546875q0 -0.859375 -1.078125 -1.40625q-1.078125 -0.546875 -3.953125 -1.140625q-2.84375 -0.5625 -4.109375 -1.609375q-1.265625 -1.046875 -1.265625 -2.828125q0 -2.625 1.859375 -3.953125q1.859375 -1.34375 5.34375 -1.34375zm28.609375 0q3.515625 0 5.515625 2.46875q2.0 2.453125 2.0 6.421875q0 3.671875 -1.96875 6.109375q-1.96875 2.4374695 -5.296875 2.4374695q-1.515625 0 -2.828125 -0.640625q-1.3125 -0.6562195 -2.125 -1.8593445l-0.078125 0l0 7.8749695l-4.53125 0l0 -22.37497l4.3125 0l0 2.109375l0.0625 0q0.8125 -1.296875 2.0625 -1.921875q1.265625 -0.625 2.875 -0.625zm-4.9375 8.765625q0 2.375 1.015625 3.8125q1.015625 1.4375 2.953125 1.4375q1.890625 0 2.90625 -1.375q1.03125 -1.375 1.03125 -3.875q0 -2.375 -1.015625 -3.859375q-1.015625 -1.484375 -2.984375 -1.484375q-1.875 0 -2.890625 1.40625q-1.015625 1.40625 -1.015625 3.9375zm24.8125 -8.765625q0.296875 0 0.546875 0.046875q0.25 0.03125 0.46875 0.109375l0 4.21875q-0.390625 -0.078125 -0.765625 -0.109375q-0.359375 -0.046875 -0.859375 -0.046875q-2.296875 0 -3.40625 1.40625q-1.09375 1.40625 -1.09375 3.765625l0 7.5937195l-4.53125 0l0 -16.546844l4.3125 0l0 3.078125l0.0625 0q0.71875 -1.625 2.140625 -2.5625q1.4375 -0.953125 3.125 -0.953125zm10.84375 0q3.890625 0 6.234375 2.40625q2.34375 2.390625 2.34375 6.328125q0 3.953125 -2.375 6.328125q-2.359375 2.3749695 -6.203125 2.3749695q-3.84375 0 -6.203125 -2.3905945q-2.34375 -2.390625 -2.34375 -6.3125q0 -3.921875 2.3125 -6.328125q2.3125 -2.40625 6.234375 -2.40625zm-4.0 8.734375q0 2.609375 1.0625 3.953125q1.078125 1.328125 2.9375 1.328125q1.9375 0 2.984375 -1.375q1.046875 -1.390625 1.046875 -3.90625q0 -2.46875 -1.015625 -3.890625q-1.015625 -1.421875 -3.046875 -1.421875q-1.828125 0 -2.90625 1.328125q-1.0625 1.3125 -1.0625 3.984375zm18.703125 -8.296875l3.5 11.296875l0.0625 0l3.484375 -11.296875l4.515625 0l-5.609375 16.546844l-5.046875 0l-5.671875 -16.546844l4.765625 0zm18.125 -6.296875l0 3.734375l-4.546875 0l0 -3.734375l4.546875 0zm0 6.296875l0 16.546844l-4.546875 0l0 -16.546844l4.546875 0zm19.703125 -6.296875l0 22.84372l-4.328125 0l0 -2.1093445l-0.0625 0q-0.734375 1.265625 -2.03125 1.9218445q-1.28125 0.640625 -2.984375 0.640625q-3.390625 0 -5.40625 -2.4843445q-2.015625 -2.5 -2.015625 -6.390625q0 -3.6875 1.984375 -6.125q1.984375 -2.4375 5.34375 -2.4375q1.546875 0 2.828125 0.625q1.28125 0.625 2.0625 1.828125l0.0625 0l0 -8.3125l4.546875 0zm-12.296875 14.546875q0 2.3125 1.078125 3.828125q1.078125 1.5 2.921875 1.5q1.890625 0 2.890625 -1.390625q1.015625 -1.40625 1.015625 -3.953125q0 -2.421875 -0.984375 -3.828125q-0.984375 -1.421875 -2.9375 -1.421875q-1.890625 0 -2.9375 1.421875q-1.046875 1.40625 -1.046875 3.84375zm23.359375 -8.6875q3.671875 0 5.859375 2.53125q2.203125 2.515625 2.203125 6.4375l-0.03125 0.84375l-11.9375 0q0.09375 2.140625 1.109375 3.171875q1.03125 1.03125 2.9375 1.03125q1.234375 0 2.28125 -0.625q1.046875 -0.640625 1.328125 -1.53125l4.0 0q-0.921875 2.8125 -2.84375 4.203125q-1.921875 1.3749695 -4.90625 1.3749695q-3.828125 0 -6.140625 -2.4218445q-2.3125 -2.421875 -2.3125 -6.28125q0 -3.703125 2.359375 -6.21875q2.375 -2.515625 6.09375 -2.515625zm-3.90625 6.9375l7.390625 0q-0.328125 -1.828125 -1.1875 -2.671875q-0.84375 -0.84375 -2.453125 -0.84375q-1.65625 0 -2.625 0.9375q-0.96875 0.9375 -1.125 2.578125zm24.28125 -6.9375q0.296875 0 0.546875 0.046875q0.25 0.03125 0.46875 0.109375l0 4.21875q-0.390625 -0.078125 -0.765625 -0.109375q-0.359375 -0.046875 -0.859375 -0.046875q-2.296875 0 -3.40625 1.40625q-1.09375 1.40625 -1.09375 3.765625l0 7.5937195l-4.53125 0l0 -16.546844l4.3125 0l0 3.078125l0.0625 0q0.71875 -1.625 2.140625 -2.5625q1.4375 -0.953125 3.125 -0.953125zm9.59375 0q3.375 0 5.203125 1.34375q1.84375 1.328125 2.09375 3.921875l-4.328125 0q-0.09375 -1.171875 -0.875 -1.703125q-0.78125 -0.53125 -2.234375 -0.53125q-1.3125 0 -1.921875 0.390625q-0.59375 0.390625 -0.59375 1.140625q0 0.765625 0.78125 1.265625q0.796875 0.484375 3.1875 0.9375q3.8125 0.734375 5.109375 1.890625q1.3125 1.15625 1.3125 3.03125q0 2.8125 -2.0625 4.28125q-2.046875 1.4687195 -5.484375 1.4687195q-3.4375 0 -5.546875 -1.4530945q-2.09375 -1.46875 -2.234375 -4.375l4.328125 0q0 1.3125 0.984375 2.046875q1.0 0.734375 2.5 0.734375q1.328125 0 2.15625 -0.5625q0.828125 -0.578125 0.828125 -1.546875q0 -0.859375 -1.078125 -1.40625q-1.078125 -0.546875 -3.953125 -1.140625q-2.84375 -0.5625 -4.109375 -1.609375q-1.265625 -1.046875 -1.265625 -2.828125q0 -2.625 1.859375 -3.953125q1.859375 -1.34375 5.34375 -1.34375z" fill-rule="nonzero"></path><path fill="#2c3e50" d="m344.7953 187.93204l40.648132 0l0 -23.517456l37.966034 33.889755l-37.966034 33.88977l0 -23.517456l-40.648132 0z" fill-rule="evenodd"></path></g></svg>

