<?xml version="1.0" standalone="yes"?>

<svg version="1.1" viewBox="0.0 0.0 1266.0813648293963 421.68766404199476" fill="none" stroke="none" stroke-linecap="square" stroke-miterlimit="10" xmlns="http://www.w3.org/2000/svg" xmlns:xlink="http://www.w3.org/1999/xlink"><clipPath id="p.0"><path d="m0 0l1266.0814 0l0 421.68765l-1266.0814 0l0 -421.68765z" clip-rule="nonzero"></path></clipPath><g clip-path="url(#p.0)"><path fill="#000000" fill-opacity="0.0" d="m0 0l1266.0814 0l0 421.68765l-1266.0814 0z" fill-rule="evenodd"></path><path fill="#cfe2f3" d="m503.84253 54.665512l0 0c0 -4.3168945 3.4995117 -7.816429 7.8164062 -7.816429l242.09943 0c2.073059 0 4.0612183 0.82351303 5.5270386 2.2893791c1.4658813 1.4658623 2.2894287 3.4540024 2.2894287 5.52705l0 31.264778c0 4.3168945 -3.4995728 7.816429 -7.8164673 7.816429l-242.09943 0c-4.3168945 0 -7.8164062 -3.4995346 -7.8164062 -7.816429z" fill-rule="evenodd"></path><path fill="#1155cc" d="m610.7811 63.733524l8.734375 0l-0.46875 2.2968712l-6.15625 0l-0.6875 3.25l5.296875 0l-0.453125 2.125l-5.296875 0l-0.75 3.515625l6.3125 0l-0.5 2.296875l-8.90625 0l2.875 -13.484371zm9.752014 3.5312462l2.296875 0l-0.390625 1.84375q0.71875 -0.953125 1.8125 -1.484375q1.109375 -0.53125 2.34375 -0.53125q0.640625 0 1.0625 0.1875q0.4375 0.171875 0.6875 0.484375q0.265625 0.296875 0.359375 0.734375q0.109375 0.421875 0.109375 0.890625q0 0.375 -0.046875 0.796875q-0.046875 0.40625 -0.140625 0.8125l-1.3125 6.21875l-2.546875 0l1.1875 -5.59375q0.046875 -0.28125 0.078125 -0.53125q0.046875 -0.265625 0.046875 -0.46875q0 -0.671875 -0.296875 -0.984375q-0.296875 -0.3125 -0.78125 -0.3125q-0.34375 0 -0.75 0.15625q-0.390625 0.15625 -0.78125 0.4375q-0.375 0.265625 -0.703125 0.65625q-0.328125 0.375 -0.5625 0.828125l-1.234375 5.8125l-2.546875 0l2.109375 -9.953125zm11.795471 10.125q-0.921875 0 -1.5 -0.40625q-0.578125 -0.40625 -0.578125 -1.34375q0 -0.375 0.078125 -0.703125l1.21875 -5.71875l-1.234375 0l0.421875 -1.953125l1.203125 0l0.6875 -3.234375l2.546875 0l-0.6875 3.234375l2.0 0l-0.421875 1.953125l-1.96875 0l-1.046875 4.859375q-0.015625 0.09375 -0.03125 0.171875q-0.015625 0.0625 -0.015625 0.140625q0 0.359375 0.203125 0.515625q0.203125 0.140625 0.53125 0.140625q0.375 0 0.734375 -0.109375q0.375 -0.125 0.640625 -0.25l0.078125 2.015625q-0.546875 0.265625 -1.328125 0.484375q-0.78125 0.203125 -1.53125 0.203125zm6.0213013 -10.125l2.546875 0l-2.109375 9.953125l-2.546875 0l2.109375 -9.953125zm0.84375 -3.9218712l2.546875 0l-0.53125 2.5312462l-2.546875 0l0.53125 -2.5312462zm4.8137817 14.046871q-0.921875 0 -1.5 -0.40625q-0.578125 -0.40625 -0.578125 -1.34375q0 -0.375 0.078125 -0.703125l1.21875 -5.71875l-1.234375 0l0.421875 -1.953125l1.203125 0l0.6875 -3.234375l2.546875 0l-0.6875 3.234375l2.0 0l-0.421875 1.953125l-1.96875 0l-1.046875 4.859375q-0.015625 0.09375 -0.03125 0.171875q-0.015625 0.0625 -0.015625 0.140625q0 0.359375 0.203125 0.515625q0.203125 0.140625 0.53125 0.140625q0.375 0 0.734375 -0.109375q0.375 -0.125 0.640625 -0.25l0.078125 2.015625q-0.546875 0.265625 -1.328125 0.484375q-0.78125 0.203125 -1.53125 0.203125zm3.1463013 2.21875q0.578125 -0.046875 0.984375 -0.125q0.40625 -0.078125 0.71875 -0.25q0.3125 -0.15625 0.578125 -0.421875q0.265625 -0.25 0.5625 -0.640625l0.546875 -0.75l-1.65625 -10.15625l2.609375 0l0.84375 7.75l0.65625 -1.0625q0.59375 -0.96875 1.015625 -1.8125q0.4375 -0.84375 0.78125 -1.640625q0.34375 -0.8125 0.59375 -1.59375q0.25 -0.78125 0.453125 -1.640625l2.46875 0q-0.265625 0.90625 -0.546875 1.703125q-0.28125 0.796875 -0.71875 1.703125q-0.4375 0.890625 -1.078125 1.984375q-0.640625 1.078125 -1.5625 2.609375l-1.515625 2.453125q-0.671875 1.0625 -1.296875 1.78125q-0.609375 0.734375 -1.25 1.1875q-0.640625 0.46875 -1.34375 0.65625q-0.703125 0.203125 -1.53125 0.21875l-0.3125 -1.953125z" fill-rule="nonzero"></path><path fill="#000000" fill-opacity="0.0" d="m175.76378 140.66011l456.9449 -46.897644" fill-rule="evenodd"></path><path stroke="#1155cc" stroke-width="2.0" stroke-linejoin="round" stroke-linecap="butt" d="m175.76378 140.66011l450.12653 -46.197853" fill-rule="evenodd"></path><path fill="#1155cc" stroke="#1155cc" stroke-width="2.0" stroke-linecap="butt" d="m625.8903 94.46226l-2.0078125 2.4670486l5.9176025 -2.8683243l-6.376831 -1.6065063z" fill-rule="evenodd"></path><path fill="#cfe2f3" d="m46.897636 148.47653l0 0c0 -4.3168945 3.4995346 -7.8164215 7.816429 -7.8164215l242.09944 0c2.0730286 0 4.061157 0.8235016 5.5270386 2.2893677c1.4658508 1.4658661 2.2893677 3.45401 2.2893677 5.527054l0 31.264786c0 4.3168945 -3.4995117 7.8164215 -7.8164062 7.8164215l-242.09944 0c-4.3168945 0 -7.816429 -3.499527 -7.816429 -7.8164215z" fill-rule="evenodd"></path><path fill="#1155cc" d="m133.71545 157.54454l2.59375 0l-1.15625 5.453125l5.625 0l1.15625 -5.453125l2.609375 0l-2.875 13.484375l-2.59375 0l1.21875 -5.75l-5.625 0l-1.21875 5.75l-2.609375 0l2.875 -13.484375zm14.645187 13.671875q-1.0 0 -1.75 -0.328125q-0.75 -0.328125 -1.265625 -0.890625q-0.5 -0.578125 -0.765625 -1.328125q-0.25 -0.75 -0.25 -1.59375q0 -1.171875 0.46875 -2.28125q0.46875 -1.125 1.296875 -1.984375q0.828125 -0.859375 1.96875 -1.375q1.140625 -0.53125 2.484375 -0.53125q0.984375 0 1.734375 0.328125q0.75 0.328125 1.265625 0.890625q0.515625 0.5625 0.765625 1.328125q0.265625 0.75 0.265625 1.609375q0 1.1875 -0.46875 2.296875q-0.46875 1.09375 -1.296875 1.953125q-0.828125 0.859375 -1.96875 1.390625q-1.140625 0.515625 -2.484375 0.515625zm0.453125 -2.15625q0.59375 0 1.15625 -0.296875q0.5625 -0.296875 1.0 -0.78125q0.4375 -0.5 0.703125 -1.171875q0.265625 -0.6875 0.265625 -1.4375q0 -1.03125 -0.5 -1.671875q-0.5 -0.640625 -1.34375 -0.640625q-0.59375 0 -1.15625 0.296875q-0.5625 0.296875 -1.0 0.8125q-0.4375 0.5 -0.703125 1.171875q-0.265625 0.65625 -0.265625 1.40625q0 1.03125 0.484375 1.671875q0.5 0.640625 1.359375 0.640625zm9.666946 2.15625q-1.203125 0 -2.265625 -0.390625q-1.0625 -0.40625 -1.703125 -1.140625l1.265625 -1.59375q1.46875 1.296875 3.015625 1.296875q0.796875 0 1.25 -0.328125q0.46875 -0.34375 0.46875 -0.953125q0 -0.421875 -0.40625 -0.65625q-0.40625 -0.234375 -1.328125 -0.5q-0.75 -0.234375 -1.296875 -0.453125q-0.546875 -0.21875 -0.90625 -0.484375q-0.34375 -0.265625 -0.5 -0.59375q-0.15625 -0.34375 -0.15625 -0.78125q0 -0.828125 0.359375 -1.515625q0.359375 -0.703125 0.96875 -1.1875q0.625 -0.5 1.4375 -0.765625q0.8125 -0.28125 1.734375 -0.28125q1.0625 0 1.90625 0.328125q0.859375 0.3125 1.53125 1.03125l-1.34375 1.546875q-0.609375 -0.578125 -1.234375 -0.84375q-0.609375 -0.265625 -1.265625 -0.265625q-0.65625 0 -1.140625 0.328125q-0.484375 0.328125 -0.484375 0.984375q0 0.40625 0.359375 0.609375q0.359375 0.203125 1.21875 0.453125q1.59375 0.4375 2.34375 0.984375q0.765625 0.53125 0.765625 1.484375q0 0.828125 -0.34375 1.5q-0.34375 0.671875 -0.953125 1.15625q-0.609375 0.484375 -1.453125 0.765625q-0.84375 0.265625 -1.84375 0.265625zm8.423752 -0.015625q-0.921875 0 -1.5 -0.40625q-0.578125 -0.40625 -0.578125 -1.34375q0 -0.375 0.078125 -0.703125l1.21875 -5.71875l-1.234375 0l0.421875 -1.953125l1.203125 0l0.6875 -3.234375l2.546875 0l-0.6875 3.234375l2.0 0l-0.421875 1.953125l-1.96875 0l-1.046875 4.859375q-0.015625 0.09375 -0.03125 0.171875q-0.015625 0.0625 -0.015625 0.140625q0 0.359375 0.203125 0.515625q0.203125 0.140625 0.53125 0.140625q0.375 0 0.734375 -0.109375q0.375 -0.125 0.640625 -0.25l0.078125 2.015625q-0.546875 0.265625 -1.328125 0.484375q-0.78125 0.203125 -1.53125 0.203125zm7.052536 -13.65625l8.73439 0l-0.46875 2.296875l-6.1562653 0l-0.6875 3.25l5.2968903 0l-0.453125 2.125l-5.2968903 0l-0.75 3.515625l6.3125153 0l-0.5 2.296875l-8.906265 0l2.875 -13.484375zm9.75206 3.53125l2.296875 0l-0.390625 1.84375q0.71875 -0.953125 1.8125 -1.484375q1.109375 -0.53125 2.34375 -0.53125q0.640625 0 1.0625 0.1875q0.4375 0.171875 0.6875 0.484375q0.265625 0.296875 0.359375 0.734375q0.109375 0.421875 0.109375 0.890625q0 0.375 -0.046875 0.796875q-0.046875 0.40625 -0.140625 0.8125l-1.3125 6.21875l-2.546875 0l1.1875 -5.59375q0.046875 -0.28125 0.078125 -0.53125q0.046875 -0.265625 0.046875 -0.46875q0 -0.671875 -0.296875 -0.984375q-0.296875 -0.3125 -0.78125 -0.3125q-0.34375 0 -0.75 0.15625q-0.390625 0.15625 -0.78125 0.4375q-0.375 0.265625 -0.703125 0.65625q-0.328125 0.375 -0.5625 0.828125l-1.234375 5.8125l-2.546875 0l2.109375 -9.953125zm11.795441 10.125q-0.921875 0 -1.5 -0.40625q-0.578125 -0.40625 -0.578125 -1.34375q0 -0.375 0.078125 -0.703125l1.21875 -5.71875l-1.234375 0l0.421875 -1.953125l1.203125 0l0.6875 -3.234375l2.546875 0l-0.6875 3.234375l2.0 0l-0.421875 1.953125l-1.96875 0l-1.046875 4.859375q-0.015625 0.09375 -0.03125 0.171875q-0.015625 0.0625 -0.015625 0.140625q0 0.359375 0.203125 0.515625q0.203125 0.140625 0.53125 0.140625q0.375 0 0.734375 -0.109375q0.375 -0.125 0.640625 -0.25l0.078125 2.015625q-0.546875 0.265625 -1.328125 0.484375q-0.78125 0.203125 -1.53125 0.203125zm6.0213013 -10.125l2.546875 0l-2.109375 9.953125l-2.546875 0l2.109375 -9.953125zm0.84375 -3.921875l2.546875 0l-0.53125 2.53125l-2.546875 0l0.53125 -2.53125zm4.8137817 14.046875q-0.921875 0 -1.5 -0.40625q-0.578125 -0.40625 -0.578125 -1.34375q0 -0.375 0.078125 -0.703125l1.21875 -5.71875l-1.234375 0l0.421875 -1.953125l1.203125 0l0.6875 -3.234375l2.546875 0l-0.6875 3.234375l2.0 0l-0.421875 1.953125l-1.96875 0l-1.046875 4.859375q-0.015625 0.09375 -0.03125 0.171875q-0.015625 0.0625 -0.015625 0.140625q0 0.359375 0.203125 0.515625q0.203125 0.140625 0.53125 0.140625q0.375 0 0.734375 -0.109375q0.375 -0.125 0.640625 -0.25l0.078125 2.015625q-0.546875 0.265625 -1.328125 0.484375q-0.78125 0.203125 -1.53125 0.203125zm3.1462708 2.21875q0.578125 -0.046875 0.984375 -0.125q0.40625 -0.078125 0.71875 -0.25q0.3125 -0.15625 0.578125 -0.421875q0.265625 -0.25 0.5625 -0.640625l0.546875 -0.75l-1.65625 -10.15625l2.609375 0l0.84375 7.75l0.65625 -1.0625q0.59375 -0.96875 1.015625 -1.8125q0.4375 -0.84375 0.78125 -1.640625q0.34375 -0.8125 0.59375 -1.59375q0.25 -0.78125 0.453125 -1.640625l2.46875 0q-0.265625 0.90625 -0.546875 1.703125q-0.28125 0.796875 -0.71875 1.703125q-0.4375 0.890625 -1.078125 1.984375q-0.640625 1.078125 -1.5625 2.609375l-1.515625 2.453125q-0.671875 1.0625 -1.296875 1.78125q-0.609375 0.734375 -1.25 1.1875q-0.640625 0.46875 -1.34375 0.65625q-0.703125 0.203125 -1.53125 0.21875l-0.3125 -1.953125z" fill-rule="nonzero"></path><path fill="#cfe2f3" d="m808.4724 242.28755l0 0c0 -4.3168945 3.4995728 -7.8164215 7.8164673 -7.8164215l242.09943 0c2.072998 0 4.061157 0.82351685 5.5270996 2.289383c1.4658203 1.4658661 2.2893066 3.4539948 2.2893066 5.5270386l0 31.264786c0 4.3168945 -3.4995117 7.816437 -7.8164062 7.816437l-242.09943 0c-4.3168945 0 -7.8164673 -3.4995422 -7.8164673 -7.816437z" fill-rule="evenodd"></path><path fill="#1155cc" d="m918.34424 264.83994l0 -13.48436l5.96875 0q0.921875 0 1.703125 0.390625q0.796875 0.375 1.359375 1.015625q0.578125 0.640625 0.90625 1.453125q0.328125 0.796875 0.328125 1.625q0 1.3124847 -0.65625 2.3906097q-0.65625 1.0625 -1.78125 1.53125l3.078125 5.078125l-2.953125 0l-2.75 -4.515625l-2.578125 0l0 4.515625l-2.625 0zm2.625 -6.828125l3.28125 0q0.359375 0 0.671875 -0.15625q0.3125 -0.171875 0.546875 -0.46875q0.234375 -0.296875 0.359375 -0.6875q0.140625 -0.40625 0.140625 -0.85935974q0 -0.484375 -0.15625 -0.875q-0.15625 -0.40625 -0.421875 -0.703125q-0.25 -0.296875 -0.578125 -0.453125q-0.328125 -0.15625 -0.671875 -0.15625l-3.171875 0l0 4.3593597zm14.125122 7.015625q-1.203125 0 -2.171875 -0.40625q-0.96875 -0.421875 -1.65625 -1.140625q-0.671875 -0.71875 -1.03125 -1.640625q-0.359375 -0.9375 -0.359375 -1.953125q0 -1.046875 0.359375 -1.96875q0.359375 -0.9375 1.03125 -1.65625q0.6875 -0.71873474 1.65625 -1.1249847q0.96875 -0.421875 2.171875 -0.421875q1.21875 0 2.171875 0.421875q0.96875 0.40625 1.640625 1.1249847q0.671875 0.71875 1.03125 1.65625q0.375 0.921875 0.375 1.96875q0 1.015625 -0.375 1.953125q-0.359375 0.921875 -1.03125 1.640625q-0.65625 0.71875 -1.625 1.140625q-0.96875 0.40625 -2.1875 0.40625zm-2.59375 -5.140625q0 0.65625 0.1875 1.203125q0.203125 0.53125 0.546875 0.9375q0.359375 0.40625 0.828125 0.625q0.484375 0.21875 1.03125 0.21875q0.5625 0 1.03125 -0.21875q0.484375 -0.21875 0.828125 -0.625q0.359375 -0.40625 0.546875 -0.953125q0.203125 -0.546875 0.203125 -1.21875q0 -0.640625 -0.203125 -1.1875q-0.1875 -0.546875 -0.546875 -0.953125q-0.34375 -0.40625 -0.828125 -0.625q-0.46875 -0.21875 -1.03125 -0.21875q-0.546875 0 -1.03125 0.234375q-0.46875 0.234375 -0.828125 0.640625q-0.34375 0.390625 -0.546875 0.9375q-0.1875 0.546875 -0.1875 1.203125zm9.2901 -8.92186l2.546875 0l0 10.687485q0 0.546875 0.265625 0.859375q0.265625 0.296875 0.765625 0.296875q0.21875 0 0.484375 -0.078125q0.28125 -0.078125 0.53125 -0.1875l0.34375 1.9375q-0.515625 0.25 -1.203125 0.375q-0.671875 0.140625 -1.234375 0.140625q-1.1875 0 -1.84375 -0.640625q-0.65625 -0.640625 -0.65625 -1.8125l0 -11.57811zm10.554626 14.062485q-1.203125 0 -2.171875 -0.40625q-0.96875 -0.40625 -1.65625 -1.109375q-0.6875 -0.703125 -1.0625 -1.625q-0.359375 -0.9375 -0.359375 -1.96875q0 -1.0625 0.359375 -2.0q0.359375 -0.9375 1.046875 -1.65625q0.6875 -0.71873474 1.65625 -1.1249847q0.984375 -0.421875 2.203125 -0.421875q1.21875 0 2.171875 0.421875q0.96875 0.40625 1.640625 1.1093597q0.671875 0.703125 1.015625 1.640625q0.359375 0.9375 0.359375 1.9375q0 0.25 -0.015625 0.484375q0 0.21875 -0.046875 0.375l-7.6875 0q0.046875 0.578125 0.28125 1.046875q0.234375 0.453125 0.59375 0.78125q0.359375 0.3125 0.8125 0.484375q0.453125 0.171875 0.953125 0.171875q0.75 0 1.421875 -0.359375q0.6875 -0.375 0.9375 -0.984375l2.171875 0.609375q-0.546875 1.140625 -1.75 1.875q-1.203125 0.71875 -2.875 0.71875zm2.578125 -6.0q-0.09375 -1.125 -0.828125 -1.796875q-0.734375 -0.671875 -1.78125 -0.671875q-0.5 0 -0.953125 0.1875q-0.453125 0.171875 -0.796875 0.5q-0.328125 0.3125 -0.546875 0.78125q-0.21875 0.453125 -0.265625 1.0l5.171875 0z" fill-rule="nonzero"></path><path fill="#cfe2f3" d="m656.1575 148.47653l0 0c0 -4.3168945 3.4995728 -7.8164215 7.8164673 -7.8164215l242.09943 0c2.072998 0 4.061157 0.8235016 5.5270386 2.2893677c1.4658203 1.4658661 2.2893677 3.45401 2.2893677 5.527054l0 31.264786c0 4.3168945 -3.4995117 7.8164215 -7.8164062 7.8164215l-242.09943 0c-4.3168945 0 -7.8164673 -3.499527 -7.8164673 -7.8164215z" fill-rule="evenodd"></path><path fill="#1155cc" d="m725.24255 157.54454l2.03125 0l4.59375 8.84375l1.890625 -8.828125l2.59375 0l-2.859375 13.46875l-2.109375 0l-4.59375 -8.640625l-1.8125 8.640625l-2.609375 0l2.875 -13.484375zm14.924988 13.671875q-1.0 0 -1.75 -0.328125q-0.75 -0.328125 -1.265625 -0.890625q-0.5 -0.578125 -0.765625 -1.328125q-0.25 -0.75 -0.25 -1.59375q0 -1.171875 0.46875 -2.28125q0.46875 -1.125 1.296875 -1.984375q0.828125 -0.859375 1.96875 -1.375q1.140625 -0.53125 2.484375 -0.53125q0.984375 0 1.734375 0.328125q0.75 0.328125 1.265625 0.890625q0.515625 0.5625 0.765625 1.328125q0.265625 0.75 0.265625 1.609375q0 1.1875 -0.46875 2.296875q-0.46875 1.09375 -1.296875 1.953125q-0.828125 0.859375 -1.96875 1.390625q-1.140625 0.515625 -2.484375 0.515625zm0.453125 -2.15625q0.59375 0 1.15625 -0.296875q0.5625 -0.296875 1.0 -0.78125q0.4375 -0.5 0.703125 -1.171875q0.265625 -0.6875 0.265625 -1.4375q0 -1.03125 -0.5 -1.671875q-0.5 -0.640625 -1.34375 -0.640625q-0.59375 0 -1.15625 0.296875q-0.5625 0.296875 -1.0 0.8125q-0.4375 0.5 -0.703125 1.171875q-0.265625 0.65625 -0.265625 1.40625q0 1.03125 0.484375 1.671875q0.5 0.640625 1.359375 0.640625zm8.198242 -7.984375l2.296875 0l-0.390625 1.84375q0.71875 -0.953125 1.8125 -1.484375q1.109375 -0.53125 2.34375 -0.53125q0.640625 0 1.0625 0.1875q0.4375 0.171875 0.6875 0.484375q0.265625 0.296875 0.359375 0.734375q0.109375 0.421875 0.109375 0.890625q0 0.375 -0.046875 0.796875q-0.046875 0.40625 -0.140625 0.8125l-1.3125 6.21875l-2.546875 0l1.1875 -5.59375q0.046875 -0.28125 0.078125 -0.53125q0.046875 -0.265625 0.046875 -0.46875q0 -0.671875 -0.296875 -0.984375q-0.296875 -0.3125 -0.78125 -0.3125q-0.34375 0 -0.75 0.15625q-0.390625 0.15625 -0.78125 0.4375q-0.375 0.265625 -0.703125 0.65625q-0.328125 0.375 -0.5625 0.828125l-1.234375 5.8125l-2.546875 0l2.109375 -9.953125zm11.88916 -3.53125l2.59375 0l-1.15625 5.453125l5.625 0l1.15625 -5.453125l2.609375 0l-2.875 13.484375l-2.59375 0l1.21875 -5.75l-5.625 0l-1.21875 5.75l-2.609375 0l2.875 -13.484375zm14.645203 13.671875q-1.0 0 -1.75 -0.328125q-0.75 -0.328125 -1.265625 -0.890625q-0.5 -0.578125 -0.765625 -1.328125q-0.25 -0.75 -0.25 -1.59375q0 -1.171875 0.46875 -2.28125q0.46875 -1.125 1.296875 -1.984375q0.828125 -0.859375 1.96875 -1.375q1.140625 -0.53125 2.484375 -0.53125q0.984375 0 1.734375 0.328125q0.75 0.328125 1.265625 0.890625q0.515625 0.5625 0.765625 1.328125q0.265625 0.75 0.265625 1.609375q0 1.1875 -0.46875 2.296875q-0.46875 1.09375 -1.296875 1.953125q-0.828125 0.859375 -1.96875 1.390625q-1.140625 0.515625 -2.484375 0.515625zm0.453125 -2.15625q0.59375 0 1.15625 -0.296875q0.5625 -0.296875 1.0 -0.78125q0.4375 -0.5 0.703125 -1.171875q0.265625 -0.6875 0.265625 -1.4375q0 -1.03125 -0.5 -1.671875q-0.5 -0.640625 -1.34375 -0.640625q-0.59375 0 -1.15625 0.296875q-0.5625 0.296875 -1.0 0.8125q-0.4375 0.5 -0.703125 1.171875q-0.265625 0.65625 -0.265625 1.40625q0 1.03125 0.484375 1.671875q0.5 0.640625 1.359375 0.640625zm9.666931 2.15625q-1.203125 0 -2.265625 -0.390625q-1.0625 -0.40625 -1.703125 -1.140625l1.265625 -1.59375q1.46875 1.296875 3.015625 1.296875q0.796875 0 1.25 -0.328125q0.46875 -0.34375 0.46875 -0.953125q0 -0.421875 -0.40625 -0.65625q-0.40625 -0.234375 -1.328125 -0.5q-0.75 -0.234375 -1.296875 -0.453125q-0.546875 -0.21875 -0.90625 -0.484375q-0.34375 -0.265625 -0.5 -0.59375q-0.15625 -0.34375 -0.15625 -0.78125q0 -0.828125 0.359375 -1.515625q0.359375 -0.703125 0.96875 -1.1875q0.625 -0.5 1.4375 -0.765625q0.8125 -0.28125 1.734375 -0.28125q1.0625 0 1.90625 0.328125q0.859375 0.3125 1.53125 1.03125l-1.34375 1.546875q-0.609375 -0.578125 -1.234375 -0.84375q-0.609375 -0.265625 -1.265625 -0.265625q-0.65625 0 -1.140625 0.328125q-0.484375 0.328125 -0.484375 0.984375q0 0.40625 0.359375 0.609375q0.359375 0.203125 1.21875 0.453125q1.59375 0.4375 2.34375 0.984375q0.765625 0.53125 0.765625 1.484375q0 0.828125 -0.34375 1.5q-0.34375 0.671875 -0.953125 1.15625q-0.609375 0.484375 -1.453125 0.765625q-0.84375 0.265625 -1.84375 0.265625zm8.423767 -0.015625q-0.921875 0 -1.5 -0.40625q-0.578125 -0.40625 -0.578125 -1.34375q0 -0.375 0.078125 -0.703125l1.21875 -5.71875l-1.234375 0l0.421875 -1.953125l1.203125 0l0.6875 -3.234375l2.546875 0l-0.6875 3.234375l2.0 0l-0.421875 1.953125l-1.96875 0l-1.046875 4.859375q-0.015625 0.09375 -0.03125 0.171875q-0.015625 0.0625 -0.015625 0.140625q0 0.359375 0.203125 0.515625q0.203125 0.140625 0.53125 0.140625q0.375 0 0.734375 -0.109375q0.375 -0.125 0.640625 -0.25l0.078125 2.015625q-0.546875 0.265625 -1.328125 0.484375q-0.78125 0.203125 -1.53125 0.203125zm7.05249 -13.65625l8.734375 0l-0.46875 2.296875l-6.15625 0l-0.6875 3.25l5.296875 0l-0.453125 2.125l-5.296875 0l-0.75 3.515625l6.3125 0l-0.5 2.296875l-8.90625 0l2.875 -13.484375zm9.752075 3.53125l2.296875 0l-0.390625 1.84375q0.71875 -0.953125 1.8125 -1.484375q1.109375 -0.53125 2.34375 -0.53125q0.640625 0 1.0625 0.1875q0.4375 0.171875 0.6875 0.484375q0.265625 0.296875 0.359375 0.734375q0.109375 0.421875 0.109375 0.890625q0 0.375 -0.046875 0.796875q-0.046875 0.40625 -0.140625 0.8125l-1.3125 6.21875l-2.546875 0l1.1875 -5.59375q0.046875 -0.28125 0.078125 -0.53125q0.046875 -0.265625 0.046875 -0.46875q0 -0.671875 -0.296875 -0.984375q-0.296875 -0.3125 -0.78125 -0.3125q-0.34375 0 -0.75 0.15625q-0.390625 0.15625 -0.78125 0.4375q-0.375 0.265625 -0.703125 0.65625q-0.328125 0.375 -0.5625 0.828125l-1.234375 5.8125l-2.546875 0l2.109375 -9.953125zm11.795471 10.125q-0.921875 0 -1.5 -0.40625q-0.578125 -0.40625 -0.578125 -1.34375q0 -0.375 0.078125 -0.703125l1.21875 -5.71875l-1.234375 0l0.421875 -1.953125l1.203125 0l0.6875 -3.234375l2.546875 0l-0.6875 3.234375l2.0 0l-0.421875 1.953125l-1.96875 0l-1.046875 4.859375q-0.015625 0.09375 -0.03125 0.171875q-0.015625 0.0625 -0.015625 0.140625q0 0.359375 0.203125 0.515625q0.203125 0.140625 0.53125 0.140625q0.375 0 0.734375 -0.109375q0.375 -0.125 0.640625 -0.25l0.078125 2.015625q-0.546875 0.265625 -1.328125 0.484375q-0.78125 0.203125 -1.53125 0.203125zm6.02124 -10.125l2.546875 0l-2.109375 9.953125l-2.546875 0l2.109375 -9.953125zm0.84375 -3.921875l2.546875 0l-0.53125 2.53125l-2.546875 0l0.53125 -2.53125zm4.8137817 14.046875q-0.921875 0 -1.5 -0.40625q-0.578125 -0.40625 -0.578125 -1.34375q0 -0.375 0.078125 -0.703125l1.21875 -5.71875l-1.234375 0l0.421875 -1.953125l1.203125 0l0.6875 -3.234375l2.546875 0l-0.6875 3.234375l2.0 0l-0.421875 1.953125l-1.96875 0l-1.046875 4.859375q-0.015625 0.09375 -0.03125 0.171875q-0.015625 0.0625 -0.015625 0.140625q0 0.359375 0.203125 0.515625q0.203125 0.140625 0.53125 0.140625q0.375 0 0.734375 -0.109375q0.375 -0.125 0.640625 -0.25l0.078125 2.015625q-0.546875 0.265625 -1.328125 0.484375q-0.78125 0.203125 -1.53125 0.203125zm3.1463013 2.21875q0.578125 -0.046875 0.984375 -0.125q0.40625 -0.078125 0.71875 -0.25q0.3125 -0.15625 0.578125 -0.421875q0.265625 -0.25 0.5625 -0.640625l0.546875 -0.75l-1.65625 -10.15625l2.609375 0l0.84375 7.75l0.65625 -1.0625q0.59375 -0.96875 1.015625 -1.8125q0.4375 -0.84375 0.78125 -1.640625q0.34375 -0.8125 0.59375 -1.59375q0.25 -0.78125 0.453125 -1.640625l2.46875 0q-0.265625 0.90625 -0.546875 1.703125q-0.28125 0.796875 -0.71875 1.703125q-0.4375 0.890625 -1.078125 1.984375q-0.640625 1.078125 -1.5625 2.609375l-1.515625 2.453125q-0.671875 1.0625 -1.296875 1.78125q-0.609375 0.734375 -1.25 1.1875q-0.640625 0.46875 -1.34375 0.65625q-0.703125 0.203125 -1.53125 0.21875l-0.3125 -1.953125z" fill-rule="nonzero"></path><path fill="#000000" fill-opacity="0.0" d="m785.0236 140.66011l-152.31494 -46.897644" fill-rule="evenodd"></path><path stroke="#1155cc" stroke-width="2.0" stroke-linejoin="round" stroke-linecap="butt" d="m785.0236 140.66011l-145.76428 -44.8807" fill-rule="evenodd"></path><path fill="#1155cc" stroke="#1155cc" stroke-width="2.0" stroke-linecap="butt" d="m639.25934 95.77942l2.8114624 -1.4877243l-6.56781 0.33114624l5.2440796 3.9680176z" fill-rule="evenodd"></path><path fill="#cfe2f3" d="m199.2126 242.28755l0 0c0 -4.3168945 3.499527 -7.8164215 7.8164215 -7.8164215l242.09943 0c2.073059 0 4.0611877 0.82351685 5.527069 2.289383c1.4658508 1.4658661 2.2893677 3.4539948 2.2893677 5.5270386l0 31.264786c0 4.3168945 -3.4995422 7.816437 -7.816437 7.816437l-242.09943 0c-4.3168945 0 -7.8164215 -3.4995422 -7.8164215 -7.816437z" fill-rule="evenodd"></path><path fill="#1155cc" d="m295.9043 251.35558l2.3125 0l5.125 13.48436l-2.6875 0l-1.265625 -3.359375l-4.703125 0l-1.234375 3.359375l-2.703125 0l5.15625 -13.48436zm3.015625 8.281235l-1.859375 -5.2968597l-1.9375 5.2968597l3.796875 0zm4.8026123 0.21875q0 -1.03125 0.359375 -1.96875q0.359375 -0.9375 1.046875 -1.640625q0.6875 -0.70310974 1.65625 -1.1093597q0.96875 -0.421875 2.1875 -0.421875q1.625 0 2.765625 0.703125q1.15625 0.70310974 1.734375 1.8437347l-2.484375 0.75q-0.328125 -0.546875 -0.859375 -0.84375q-0.53125 -0.296875 -1.1875 -0.296875q-0.546875 0 -1.03125 0.21875q-0.46875 0.21875 -0.828125 0.609375q-0.34375 0.390625 -0.546875 0.953125q-0.1875 0.546875 -0.1875 1.203125q0 0.671875 0.203125 1.21875q0.21875 0.546875 0.5625 0.953125q0.359375 0.40625 0.828125 0.625q0.46875 0.21875 1.0 0.21875q0.6875 0 1.265625 -0.34375q0.578125 -0.34375 0.8125 -0.84375l2.484375 0.765625q-0.515625 1.140625 -1.6875 1.859375q-1.171875 0.71875 -2.828125 0.71875q-1.21875 0 -2.1875 -0.40625q-0.96875 -0.421875 -1.65625 -1.140625q-0.6875 -0.71875 -1.0625 -1.65625q-0.359375 -0.9375 -0.359375 -1.96875zm10.522125 0q0 -1.03125 0.359375 -1.96875q0.359375 -0.9375 1.046875 -1.640625q0.6875 -0.70310974 1.65625 -1.1093597q0.96875 -0.421875 2.1875 -0.421875q1.625 0 2.765625 0.703125q1.15625 0.70310974 1.734375 1.8437347l-2.484375 0.75q-0.328125 -0.546875 -0.859375 -0.84375q-0.53125 -0.296875 -1.1875 -0.296875q-0.546875 0 -1.03125 0.21875q-0.46875 0.21875 -0.828125 0.609375q-0.34375 0.390625 -0.546875 0.953125q-0.1875 0.546875 -0.1875 1.203125q0 0.671875 0.203125 1.21875q0.21875 0.546875 0.5625 0.953125q0.359375 0.40625 0.828125 0.625q0.46875 0.21875 1.0 0.21875q0.6875 0 1.265625 -0.34375q0.578125 -0.34375 0.8125 -0.84375l2.484375 0.765625q-0.515625 1.140625 -1.6875 1.859375q-1.171875 0.71875 -2.828125 0.71875q-1.21875 0 -2.1875 -0.40625q-0.96875 -0.421875 -1.65625 -1.140625q-0.6875 -0.71875 -1.0625 -1.65625q-0.359375 -0.9375 -0.359375 -1.96875zm15.740875 5.171875q-1.203125 0 -2.171875 -0.40625q-0.96875 -0.421875 -1.65625 -1.140625q-0.671875 -0.71875 -1.03125 -1.640625q-0.359375 -0.9375 -0.359375 -1.953125q0 -1.046875 0.359375 -1.96875q0.359375 -0.9375 1.03125 -1.65625q0.6875 -0.71873474 1.65625 -1.1249847q0.96875 -0.421875 2.171875 -0.421875q1.21875 0 2.171875 0.421875q0.96875 0.40625 1.640625 1.1249847q0.671875 0.71875 1.03125 1.65625q0.375 0.921875 0.375 1.96875q0 1.015625 -0.375 1.953125q-0.359375 0.921875 -1.03125 1.640625q-0.65625 0.71875 -1.625 1.140625q-0.96875 0.40625 -2.1875 0.40625zm-2.59375 -5.140625q0 0.65625 0.1875 1.203125q0.203125 0.53125 0.546875 0.9375q0.359375 0.40625 0.828125 0.625q0.484375 0.21875 1.03125 0.21875q0.5625 0 1.03125 -0.21875q0.484375 -0.21875 0.828125 -0.625q0.359375 -0.40625 0.546875 -0.953125q0.203125 -0.546875 0.203125 -1.21875q0 -0.640625 -0.203125 -1.1875q-0.1875 -0.546875 -0.546875 -0.953125q-0.34375 -0.40625 -0.828125 -0.625q-0.46875 -0.21875 -1.03125 -0.21875q-0.546875 0 -1.03125 0.234375q-0.46875 0.234375 -0.828125 0.640625q-0.34375 0.390625 -0.546875 0.9375q-0.1875 0.546875 -0.1875 1.203125zm12.35257 5.140625q-1.546875 0 -2.34375 -0.984375q-0.796875 -0.984375 -0.796875 -2.921875l0 -6.2343597l2.546875 0l0 5.6718597q0 2.3125 1.65625 2.3125q0.734375 0 1.421875 -0.453125q0.703125 -0.453125 1.140625 -1.359375l0 -6.1718597l2.546875 0l0 7.0312347q0 0.390625 0.140625 0.5625q0.140625 0.171875 0.46875 0.1875l0 2.171875q-0.375 0.078125 -0.640625 0.09375q-0.25 0.015625 -0.46875 0.015625q-0.671875 0 -1.109375 -0.3125q-0.421875 -0.3125 -0.5 -0.859375l-0.0625 -0.796875q-0.65625 1.015625 -1.703125 1.53125q-1.046875 0.515625 -2.296875 0.515625zm17.732697 -0.1875l-2.546875 0l0 -5.59375q0 -1.1875 -0.421875 -1.734375q-0.40625 -0.5625 -1.15625 -0.5625q-0.375 0 -0.78125 0.15625q-0.390625 0.15625 -0.75 0.4375q-0.34375 0.265625 -0.625 0.65625q-0.28125 0.375 -0.421875 0.828125l0 5.8125l-2.546875 0l0 -9.95311l2.296875 0l0 1.8437347q0.5625 -0.95310974 1.59375 -1.4843597q1.046875 -0.53125 2.359375 -0.53125q0.9375 0 1.515625 0.34375q0.59375 0.34375 0.921875 0.890625q0.328125 0.54685974 0.4375 1.2499847q0.125 0.703125 0.125 1.421875l0 6.21875zm7.9871216 -0.515625q-0.515625 0.234375 -1.265625 0.46875q-0.734375 0.21875 -1.546875 0.21875q-0.53125 0 -1.0 -0.140625q-0.46875 -0.125 -0.828125 -0.421875q-0.34375 -0.296875 -0.546875 -0.75q-0.203125 -0.46875 -0.203125 -1.140625l0 -5.71875l-1.3125 0l0 -1.9531097l1.3125 0l0 -3.234375l2.546875 0l0 3.234375l2.078125 0l0 1.9531097l-2.078125 0l0 4.859375q0 0.53125 0.265625 0.75q0.28125 0.21875 0.671875 0.21875q0.40625 0 0.78125 -0.125q0.390625 -0.140625 0.609375 -0.234375l0.515625 2.015625z" fill-rule="nonzero"></path><path fill="#cfe2f3" d="m656.1575 336.09857l0 0c0 -4.3168945 3.4995728 -7.8164062 7.8164673 -7.8164062l242.09943 0c2.072998 0 4.061157 0.8234863 5.5270386 2.2893677c1.4658203 1.4658508 2.2893677 3.45401 2.2893677 5.5270386l0 31.264801c0 4.3168945 -3.4995117 7.8164062 -7.8164062 7.8164062l-242.09943 0c-4.3168945 0 -7.8164673 -3.4995117 -7.8164673 -7.8164062z" fill-rule="evenodd"></path><path fill="#1155cc" d="m739.5132 350.01035l0 8.640625l-2.625 0l0 -13.484375l2.03125 0l7.03125 8.84375l0 -8.828125l2.625 0l0 13.46875l-2.125 0l-6.9375 -8.640625zm14.078491 8.828125q-0.71875 0 -1.34375 -0.234375q-0.625 -0.234375 -1.09375 -0.65625q-0.453125 -0.4375 -0.71875 -1.0q-0.25 -0.578125 -0.25 -1.265625q0 -0.703125 0.3125 -1.296875q0.328125 -0.59375 0.875 -1.015625q0.5625 -0.421875 1.34375 -0.65625q0.78125 -0.234375 1.71875 -0.234375q0.65625 0 1.296875 0.109375q0.640625 0.109375 1.125 0.328125l0 -0.578125q0 -0.984375 -0.5625 -1.515625q-0.5625 -0.53125 -1.65625 -0.53125q-0.796875 0 -1.5625 0.28125q-0.75 0.28125 -1.546875 0.84375l-0.78125 -1.625q1.90625 -1.265625 4.140625 -1.265625q2.140625 0 3.328125 1.0625q1.1875 1.046875 1.1875 3.046875l0 3.09375q0 0.390625 0.140625 0.5625q0.140625 0.171875 0.46875 0.1875l0 2.171875q-0.640625 0.140625 -1.125 0.140625q-0.71875 0 -1.109375 -0.328125q-0.390625 -0.328125 -0.484375 -0.859375l-0.046875 -0.546875q-0.671875 0.875 -1.625 1.328125q-0.953125 0.453125 -2.03125 0.453125zm0.71875 -1.859375q0.65625 0 1.234375 -0.21875q0.578125 -0.234375 0.890625 -0.625q0.421875 -0.3125 0.421875 -0.71875l0 -1.140625q-0.453125 -0.171875 -0.984375 -0.265625q-0.53125 -0.109375 -1.03125 -0.109375q-0.984375 0 -1.609375 0.453125q-0.625 0.4375 -0.625 1.125q0 0.640625 0.484375 1.078125q0.5 0.421875 1.21875 0.421875zm13.239929 1.15625q-0.515625 0.234375 -1.265625 0.46875q-0.734375 0.21875 -1.546875 0.21875q-0.53125 0 -1.0 -0.140625q-0.46875 -0.125 -0.828125 -0.421875q-0.34375 -0.296875 -0.546875 -0.75q-0.203125 -0.46875 -0.203125 -1.140625l0 -5.71875l-1.3125 0l0 -1.953125l1.3125 0l0 -3.234375l2.546875 0l0 3.234375l2.078125 0l0 1.953125l-2.078125 0l0 4.859375q0 0.53125 0.265625 0.75q0.28125 0.21875 0.671875 0.21875q0.40625 0 0.78125 -0.125q0.390625 -0.140625 0.609375 -0.234375l0.515625 2.015625zm1.1952515 0.515625l0 -9.953125l2.546875 0l0 9.953125l-2.546875 0zm0 -11.34375l0 -2.53125l2.546875 0l0 2.53125l-2.546875 0zm7.444824 11.34375l-3.671875 -9.953125l2.625 0l2.515625 7.875l2.546875 -7.875l2.40625 0l-3.671875 9.953125l-2.75 0zm12.17981 0.1875q-1.203125 0 -2.171875 -0.40625q-0.96875 -0.40625 -1.65625 -1.109375q-0.6875 -0.703125 -1.0625 -1.625q-0.359375 -0.9375 -0.359375 -1.96875q0 -1.0625 0.359375 -2.0q0.359375 -0.9375 1.046875 -1.65625q0.6875 -0.71875 1.65625 -1.125q0.984375 -0.421875 2.203125 -0.421875q1.21875 0 2.171875 0.421875q0.96875 0.40625 1.640625 1.109375q0.671875 0.703125 1.015625 1.640625q0.359375 0.9375 0.359375 1.9375q0 0.25 -0.015625 0.484375q0 0.21875 -0.046875 0.375l-7.6875 0q0.046875 0.578125 0.28125 1.046875q0.234375 0.453125 0.59375 0.78125q0.359375 0.3125 0.8125 0.484375q0.453125 0.171875 0.953125 0.171875q0.75 0 1.421875 -0.359375q0.6875 -0.375 0.9375 -0.984375l2.171875 0.609375q-0.546875 1.140625 -1.75 1.875q-1.203125 0.71875 -2.875 0.71875zm2.578125 -6.0q-0.09375 -1.125 -0.828125 -1.796875q-0.734375 -0.671875 -1.78125 -0.671875q-0.5 0 -0.953125 0.1875q-0.453125 0.171875 -0.796875 0.5q-0.328125 0.3125 -0.546875 0.78125q-0.21875 0.453125 -0.265625 1.0l5.171875 0zm4.221985 5.8125l0 -13.484375l5.96875 0q0.921875 0 1.703125 0.390625q0.796875 0.375 1.359375 1.015625q0.578125 0.640625 0.90625 1.453125q0.328125 0.796875 0.328125 1.625q0 1.3125 -0.65625 2.390625q-0.65625 1.0625 -1.78125 1.53125l3.078125 5.078125l-2.953125 0l-2.75 -4.515625l-2.578125 0l0 4.515625l-2.625 0zm2.625 -6.828125l3.28125 0q0.359375 0 0.671875 -0.15625q0.3125 -0.171875 0.546875 -0.46875q0.234375 -0.296875 0.359375 -0.6875q0.140625 -0.40625 0.140625 -0.859375q0 -0.484375 -0.15625 -0.875q-0.15625 -0.40625 -0.421875 -0.703125q-0.25 -0.296875 -0.578125 -0.453125q-0.328125 -0.15625 -0.671875 -0.15625l-3.171875 0l0 4.359375zm14.125122 7.015625q-1.203125 0 -2.171875 -0.40625q-0.96875 -0.421875 -1.65625 -1.140625q-0.671875 -0.71875 -1.03125 -1.640625q-0.359375 -0.9375 -0.359375 -1.953125q0 -1.046875 0.359375 -1.96875q0.359375 -0.9375 1.03125 -1.65625q0.6875 -0.71875 1.65625 -1.125q0.96875 -0.421875 2.171875 -0.421875q1.21875 0 2.171875 0.421875q0.96875 0.40625 1.640625 1.125q0.671875 0.71875 1.03125 1.65625q0.375 0.921875 0.375 1.96875q0 1.015625 -0.375 1.953125q-0.359375 0.921875 -1.03125 1.640625q-0.65625 0.71875 -1.625 1.140625q-0.96875 0.40625 -2.1875 0.40625zm-2.59375 -5.140625q0 0.65625 0.1875 1.203125q0.203125 0.53125 0.546875 0.9375q0.359375 0.40625 0.828125 0.625q0.484375 0.21875 1.03125 0.21875q0.5625 0 1.03125 -0.21875q0.484375 -0.21875 0.828125 -0.625q0.359375 -0.40625 0.546875 -0.953125q0.203125 -0.546875 0.203125 -1.21875q0 -0.640625 -0.203125 -1.1875q-0.1875 -0.546875 -0.546875 -0.953125q-0.34375 -0.40625 -0.828125 -0.625q-0.46875 -0.21875 -1.03125 -0.21875q-0.546875 0 -1.03125 0.234375q-0.46875 0.234375 -0.828125 0.640625q-0.34375 0.390625 -0.546875 0.9375q-0.1875 0.546875 -0.1875 1.203125zm9.2901 -8.921875l2.546875 0l0 10.6875q0 0.546875 0.265625 0.859375q0.265625 0.296875 0.765625 0.296875q0.21875 0 0.484375 -0.078125q0.28125 -0.078125 0.53125 -0.1875l0.34375 1.9375q-0.515625 0.25 -1.203125 0.375q-0.671875 0.140625 -1.234375 0.140625q-1.1875 0 -1.84375 -0.640625q-0.65625 -0.640625 -0.65625 -1.8125l0 -11.578125zm10.554626 14.0625q-1.203125 0 -2.171875 -0.40625q-0.96875 -0.40625 -1.65625 -1.109375q-0.6875 -0.703125 -1.0625 -1.625q-0.359375 -0.9375 -0.359375 -1.96875q0 -1.0625 0.359375 -2.0q0.359375 -0.9375 1.046875 -1.65625q0.6875 -0.71875 1.65625 -1.125q0.984375 -0.421875 2.203125 -0.421875q1.21875 0 2.171875 0.421875q0.96875 0.40625 1.640625 1.109375q0.671875 0.703125 1.015625 1.640625q0.359375 0.9375 0.359375 1.9375q0 0.25 -0.015625 0.484375q0 0.21875 -0.046875 0.375l-7.6875 0q0.046875 0.578125 0.28125 1.046875q0.234375 0.453125 0.59375 0.78125q0.359375 0.3125 0.8125 0.484375q0.453125 0.171875 0.953125 0.171875q0.75 0 1.421875 -0.359375q0.6875 -0.375 0.9375 -0.984375l2.171875 0.609375q-0.546875 1.140625 -1.75 1.875q-1.203125 0.71875 -2.875 0.71875zm2.578125 -6.0q-0.09375 -1.125 -0.828125 -1.796875q-0.734375 -0.671875 -1.78125 -0.671875q-0.5 0 -0.953125 0.1875q-0.453125 0.171875 -0.796875 0.5q-0.328125 0.3125 -0.546875 0.78125q-0.21875 0.453125 -0.265625 1.0l5.171875 0z" fill-rule="nonzero"></path><path fill="#000000" fill-opacity="0.0" d="m175.76378 328.28217l0 -140.72443" fill-rule="evenodd"></path><path stroke="#1155cc" stroke-width="2.0" stroke-linejoin="round" stroke-linecap="butt" d="m175.76378 328.28217l0 -133.87025" fill-rule="evenodd"></path><path fill="#1155cc" stroke="#1155cc" stroke-width="2.0" stroke-linecap="butt" d="m175.76378 194.41191l2.2491608 2.249176l-2.2491608 -6.179535l-2.2491608 6.179535z" fill-rule="evenodd"></path><path fill="#000000" fill-opacity="0.0" d="m480.3937 328.28217l304.6299 -140.72443" fill-rule="evenodd"></path><path stroke="#1155cc" stroke-width="2.0" stroke-linejoin="round" stroke-linecap="butt" d="m480.3937 328.28217l298.40756 -137.84999" fill-rule="evenodd"></path><path fill="#1155cc" stroke="#1155cc" stroke-width="2.0" stroke-linecap="butt" d="m778.8013 190.43216l-1.0985718 2.9850616l4.666626 -4.6333313l-6.5531006 0.54966736z" fill-rule="evenodd"></path><path fill="#000000" fill-opacity="0.0" d="m480.3937 328.28217l-152.31497 -46.897644" fill-rule="evenodd"></path><path stroke="#1155cc" stroke-width="2.0" stroke-linejoin="round" stroke-linecap="butt" d="m480.3937 328.28217l-145.76428 -44.880707" fill-rule="evenodd"></path><path fill="#1155cc" stroke="#1155cc" stroke-width="2.0" stroke-linecap="butt" d="m334.62943 283.40146l2.811432 -1.4877319l-6.5677795 0.33117676l5.2440796 3.967987z" fill-rule="evenodd"></path><path fill="#000000" fill-opacity="0.0" d="m937.33856 234.47113l-152.31494 -46.897644" fill-rule="evenodd"></path><path stroke="#1155cc" stroke-width="2.0" stroke-linejoin="round" stroke-linecap="butt" d="m937.33856 234.47113l-145.76422 -44.880676" fill-rule="evenodd"></path><path fill="#1155cc" stroke="#1155cc" stroke-width="2.0" stroke-linecap="butt" d="m791.57434 189.59044l2.8114014 -1.4877167l-6.567749 0.33114624l5.2440796 3.9680176z" fill-rule="evenodd"></path><path fill="#cfe2f3" d="m960.7874 336.09857l0 0c0 -4.3168945 3.4995117 -7.8164062 7.8164062 -7.8164062l242.09943 0c2.072998 0 4.061157 0.8234863 5.5270996 2.2893677c1.4658203 1.4658508 2.2893066 3.45401 2.2893066 5.5270386l0 31.264801c0 4.3168945 -3.4995117 7.8164062 -7.8164062 7.8164062l-242.09943 0c-4.3168945 0 -7.8164062 -3.4995117 -7.8164062 -7.8164062z" fill-rule="evenodd"></path><path fill="#1155cc" d="m1025.7388 350.01035l0 8.640625l-2.625061 0l0 -13.484375l2.031311 0l7.03125 8.84375l0 -8.828125l2.625 0l0 13.46875l-2.125 0l-6.9375 -8.640625zm15.953369 8.828125q-1.203125 0 -2.171875 -0.40625q-0.96875 -0.421875 -1.65625 -1.140625q-0.671875 -0.71875 -1.03125 -1.640625q-0.359375 -0.9375 -0.359375 -1.953125q0 -1.046875 0.359375 -1.96875q0.359375 -0.9375 1.03125 -1.65625q0.6875 -0.71875 1.65625 -1.125q0.96875 -0.421875 2.171875 -0.421875q1.21875 0 2.171875 0.421875q0.96875 0.40625 1.640625 1.125q0.671875 0.71875 1.03125 1.65625q0.375 0.921875 0.375 1.96875q0 1.015625 -0.375 1.953125q-0.359375 0.921875 -1.03125 1.640625q-0.65625 0.71875 -1.625 1.140625q-0.96875 0.40625 -2.1875 0.40625zm-2.59375 -5.140625q0 0.65625 0.1875 1.203125q0.203125 0.53125 0.546875 0.9375q0.359375 0.40625 0.828125 0.625q0.484375 0.21875 1.03125 0.21875q0.5625 0 1.03125 -0.21875q0.484375 -0.21875 0.828125 -0.625q0.359375 -0.40625 0.546875 -0.953125q0.203125 -0.546875 0.203125 -1.21875q0 -0.640625 -0.203125 -1.1875q-0.1875 -0.546875 -0.546875 -0.953125q-0.34375 -0.40625 -0.828125 -0.625q-0.46875 -0.21875 -1.03125 -0.21875q-0.546875 0 -1.03125 0.234375q-0.46875 0.234375 -0.828125 0.640625q-0.34375 0.390625 -0.546875 0.9375q-0.1875 0.546875 -0.1875 1.203125zm18.555786 4.953125l-2.546875 0l0 -5.59375q0 -1.1875 -0.421875 -1.734375q-0.40625 -0.5625 -1.15625 -0.5625q-0.375 0 -0.78125 0.15625q-0.390625 0.15625 -0.75 0.4375q-0.34375 0.265625 -0.625 0.65625q-0.28125 0.375 -0.421875 0.828125l0 5.8125l-2.546875 0l0 -9.953125l2.296875 0l0 1.84375q0.5625 -0.953125 1.59375 -1.484375q1.046875 -0.53125 2.359375 -0.53125q0.9375 0 1.515625 0.34375q0.59375 0.34375 0.921875 0.890625q0.328125 0.546875 0.4375 1.25q0.125 0.703125 0.125 1.421875l0 6.21875zm4.8933105 -8.640625l0 8.640625l-2.625 0l0 -13.484375l2.03125 0l7.03125 8.84375l0 -8.828125l2.625 0l0 13.46875l-2.125 0l-6.9375 -8.640625zm14.078491 8.828125q-0.71875 0 -1.34375 -0.234375q-0.625 -0.234375 -1.09375 -0.65625q-0.453125 -0.4375 -0.71875 -1.0q-0.25 -0.578125 -0.25 -1.265625q0 -0.703125 0.3125 -1.296875q0.328125 -0.59375 0.875 -1.015625q0.5625 -0.421875 1.34375 -0.65625q0.78125 -0.234375 1.71875 -0.234375q0.65625 0 1.296875 0.109375q0.640625 0.109375 1.125 0.328125l0 -0.578125q0 -0.984375 -0.5625 -1.515625q-0.5625 -0.53125 -1.65625 -0.53125q-0.796875 0 -1.5625 0.28125q-0.75 0.28125 -1.546875 0.84375l-0.78125 -1.625q1.90625 -1.265625 4.140625 -1.265625q2.140625 0 3.328125 1.0625q1.1875 1.046875 1.1875 3.046875l0 3.09375q0 0.390625 0.140625 0.5625q0.140625 0.171875 0.46875 0.1875l0 2.171875q-0.640625 0.140625 -1.125 0.140625q-0.71875 0 -1.109375 -0.328125q-0.390625 -0.328125 -0.484375 -0.859375l-0.046875 -0.546875q-0.671875 0.875 -1.625 1.328125q-0.953125 0.453125 -2.03125 0.453125zm0.71875 -1.859375q0.65625 0 1.234375 -0.21875q0.578125 -0.234375 0.890625 -0.625q0.421875 -0.3125 0.421875 -0.71875l0 -1.140625q-0.453125 -0.171875 -0.984375 -0.265625q-0.53125 -0.109375 -1.03125 -0.109375q-0.984375 0 -1.609375 0.453125q-0.625 0.4375 -0.625 1.125q0 0.640625 0.484375 1.078125q0.5 0.421875 1.21875 0.421875zm13.23999 1.15625q-0.515625 0.234375 -1.265625 0.46875q-0.734375 0.21875 -1.546875 0.21875q-0.53125 0 -1.0 -0.140625q-0.46875 -0.125 -0.828125 -0.421875q-0.34375 -0.296875 -0.546875 -0.75q-0.203125 -0.46875 -0.203125 -1.140625l0 -5.71875l-1.3125 0l0 -1.953125l1.3125 0l0 -3.234375l2.546875 0l0 3.234375l2.078125 0l0 1.953125l-2.078125 0l0 4.859375q0 0.53125 0.265625 0.75q0.28125 0.21875 0.671875 0.21875q0.40625 0 0.78125 -0.125q0.390625 -0.140625 0.609375 -0.234375l0.515625 2.015625zm1.1951904 0.515625l0 -9.953125l2.546875 0l0 9.953125l-2.546875 0zm0 -11.34375l0 -2.53125l2.546875 0l0 2.53125l-2.546875 0zm7.444824 11.34375l-3.671875 -9.953125l2.625 0l2.515625 7.875l2.546875 -7.875l2.40625 0l-3.671875 9.953125l-2.75 0zm12.17981 0.1875q-1.203125 0 -2.171875 -0.40625q-0.96875 -0.40625 -1.65625 -1.109375q-0.6875 -0.703125 -1.0625 -1.625q-0.359375 -0.9375 -0.359375 -1.96875q0 -1.0625 0.359375 -2.0q0.359375 -0.9375 1.046875 -1.65625q0.6875 -0.71875 1.65625 -1.125q0.984375 -0.421875 2.203125 -0.421875q1.21875 0 2.171875 0.421875q0.96875 0.40625 1.640625 1.109375q0.671875 0.703125 1.015625 1.640625q0.359375 0.9375 0.359375 1.9375q0 0.25 -0.015625 0.484375q0 0.21875 -0.046875 0.375l-7.6875 0q0.046875 0.578125 0.28125 1.046875q0.234375 0.453125 0.59375 0.78125q0.359375 0.3125 0.8125 0.484375q0.453125 0.171875 0.953125 0.171875q0.75 0 1.421875 -0.359375q0.6875 -0.375 0.9375 -0.984375l2.171875 0.609375q-0.546875 1.140625 -1.75 1.875q-1.203125 0.71875 -2.875 0.71875zm2.578125 -6.0q-0.09375 -1.125 -0.828125 -1.796875q-0.734375 -0.671875 -1.78125 -0.671875q-0.5 0 -0.953125 0.1875q-0.453125 0.171875 -0.796875 0.5q-0.328125 0.3125 -0.546875 0.78125q-0.21875 0.453125 -0.265625 1.0l5.171875 0zm4.222046 5.8125l0 -13.484375l5.96875 0q0.921875 0 1.703125 0.390625q0.796875 0.375 1.359375 1.015625q0.578125 0.640625 0.90625 1.453125q0.328125 0.796875 0.328125 1.625q0 1.3125 -0.65625 2.390625q-0.65625 1.0625 -1.78125 1.53125l3.078125 5.078125l-2.953125 0l-2.75 -4.515625l-2.578125 0l0 4.515625l-2.625 0zm2.625 -6.828125l3.28125 0q0.359375 0 0.671875 -0.15625q0.3125 -0.171875 0.546875 -0.46875q0.234375 -0.296875 0.359375 -0.6875q0.140625 -0.40625 0.140625 -0.859375q0 -0.484375 -0.15625 -0.875q-0.15625 -0.40625 -0.421875 -0.703125q-0.25 -0.296875 -0.578125 -0.453125q-0.328125 -0.15625 -0.671875 -0.15625l-3.171875 0l0 4.359375zm14.125122 7.015625q-1.203125 0 -2.171875 -0.40625q-0.96875 -0.421875 -1.65625 -1.140625q-0.671875 -0.71875 -1.03125 -1.640625q-0.359375 -0.9375 -0.359375 -1.953125q0 -1.046875 0.359375 -1.96875q0.359375 -0.9375 1.03125 -1.65625q0.6875 -0.71875 1.65625 -1.125q0.96875 -0.421875 2.171875 -0.421875q1.21875 0 2.171875 0.421875q0.96875 0.40625 1.640625 1.125q0.671875 0.71875 1.03125 1.65625q0.375 0.921875 0.375 1.96875q0 1.015625 -0.375 1.953125q-0.359375 0.921875 -1.03125 1.640625q-0.65625 0.71875 -1.625 1.140625q-0.96875 0.40625 -2.1875 0.40625zm-2.59375 -5.140625q0 0.65625 0.1875 1.203125q0.203125 0.53125 0.546875 0.9375q0.359375 0.40625 0.828125 0.625q0.484375 0.21875 1.03125 0.21875q0.5625 0 1.03125 -0.21875q0.484375 -0.21875 0.828125 -0.625q0.359375 -0.40625 0.546875 -0.953125q0.203125 -0.546875 0.203125 -1.21875q0 -0.640625 -0.203125 -1.1875q-0.1875 -0.546875 -0.546875 -0.953125q-0.34375 -0.40625 -0.828125 -0.625q-0.46875 -0.21875 -1.03125 -0.21875q-0.546875 0 -1.03125 0.234375q-0.46875 0.234375 -0.828125 0.640625q-0.34375 0.390625 -0.546875 0.9375q-0.1875 0.546875 -0.1875 1.203125zm9.290039 -8.921875l2.546875 0l0 10.6875q0 0.546875 0.265625 0.859375q0.265625 0.296875 0.765625 0.296875q0.21875 0 0.484375 -0.078125q0.28125 -0.078125 0.53125 -0.1875l0.34375 1.9375q-0.515625 0.25 -1.203125 0.375q-0.671875 0.140625 -1.234375 0.140625q-1.1875 0 -1.84375 -0.640625q-0.65625 -0.640625 -0.65625 -1.8125l0 -11.578125zm10.5546875 14.0625q-1.203125 0 -2.171875 -0.40625q-0.96875 -0.40625 -1.65625 -1.109375q-0.6875 -0.703125 -1.0625 -1.625q-0.359375 -0.9375 -0.359375 -1.96875q0 -1.0625 0.359375 -2.0q0.359375 -0.9375 1.046875 -1.65625q0.6875 -0.71875 1.65625 -1.125q0.984375 -0.421875 2.203125 -0.421875q1.21875 0 2.171875 0.421875q0.96875 0.40625 1.640625 1.109375q0.671875 0.703125 1.015625 1.640625q0.359375 0.9375 0.359375 1.9375q0 0.25 -0.015625 0.484375q0 0.21875 -0.046875 0.375l-7.6875 0q0.046875 0.578125 0.28125 1.046875q0.234375 0.453125 0.59375 0.78125q0.359375 0.3125 0.8125 0.484375q0.453125 0.171875 0.953125 0.171875q0.75 0 1.421875 -0.359375q0.6875 -0.375 0.9375 -0.984375l2.171875 0.609375q-0.546875 1.140625 -1.75 1.875q-1.203125 0.71875 -2.875 0.71875zm2.578125 -6.0q-0.09375 -1.125 -0.828125 -1.796875q-0.734375 -0.671875 -1.78125 -0.671875q-0.5 0 -0.953125 0.1875q-0.453125 0.171875 -0.796875 0.5q-0.328125 0.3125 -0.546875 0.78125q-0.21875 0.453125 -0.265625 1.0l5.171875 0z" fill-rule="nonzero"></path><path fill="#000000" fill-opacity="0.0" d="m785.0236 328.28217l152.31494 -46.897644" fill-rule="evenodd"></path><path stroke="#1155cc" stroke-width="2.0" stroke-linejoin="round" stroke-linecap="butt" d="m785.0236 328.28217l145.76428 -44.880707" fill-rule="evenodd"></path><path fill="#1155cc" stroke="#1155cc" stroke-width="2.0" stroke-linecap="butt" d="m930.7879 283.40146l-1.4877319 2.811432l5.2440796 -3.967987l-6.56781 -0.33117676z" fill-rule="evenodd"></path><path fill="#000000" fill-opacity="0.0" d="m1089.6536 328.28217l-152.315 -46.897644" fill-rule="evenodd"></path><path stroke="#1155cc" stroke-width="2.0" stroke-linejoin="round" stroke-linecap="butt" d="m1089.6536 328.28217l-145.76428 -44.880707" fill-rule="evenodd"></path><path fill="#1155cc" stroke="#1155cc" stroke-width="2.0" stroke-linecap="butt" d="m943.8893 283.40146l2.8114014 -1.4877319l-6.567749 0.33117676l5.2440796 3.967987z" fill-rule="evenodd"></path><path fill="#cfe2f3" d="m351.52756 336.09857l0 0c0 -4.3168945 3.4995422 -7.8164062 7.816437 -7.8164062l242.09943 0c2.073059 0 4.061157 0.8234863 5.5270386 2.2893677c1.4658813 1.4658508 2.2893677 3.45401 2.2893677 5.5270386l0 31.264801c0 4.3168945 -3.4995117 7.8164062 -7.8164062 7.8164062l-242.09943 0c-4.3168945 0 -7.816437 -3.4995117 -7.816437 -7.8164062z" fill-rule="evenodd"></path><path fill="#1155cc" d="m407.77573 350.01035l0 8.640625l-2.625 0l0 -13.484375l2.03125 0l7.03125 8.84375l0 -8.828125l2.625 0l0 13.46875l-2.125 0l-6.9375 -8.640625zm15.953491 8.828125q-1.203125 0 -2.171875 -0.40625q-0.96875 -0.421875 -1.65625 -1.140625q-0.671875 -0.71875 -1.03125 -1.640625q-0.359375 -0.9375 -0.359375 -1.953125q0 -1.046875 0.359375 -1.96875q0.359375 -0.9375 1.03125 -1.65625q0.6875 -0.71875 1.65625 -1.125q0.96875 -0.421875 2.171875 -0.421875q1.21875 0 2.171875 0.421875q0.96875 0.40625 1.640625 1.125q0.671875 0.71875 1.03125 1.65625q0.375 0.921875 0.375 1.96875q0 1.015625 -0.375 1.953125q-0.359375 0.921875 -1.03125 1.640625q-0.65625 0.71875 -1.625 1.140625q-0.96875 0.40625 -2.1875 0.40625zm-2.59375 -5.140625q0 0.65625 0.1875 1.203125q0.203125 0.53125 0.546875 0.9375q0.359375 0.40625 0.828125 0.625q0.484375 0.21875 1.03125 0.21875q0.5625 0 1.03125 -0.21875q0.484375 -0.21875 0.828125 -0.625q0.359375 -0.40625 0.546875 -0.953125q0.203125 -0.546875 0.203125 -1.21875q0 -0.640625 -0.203125 -1.1875q-0.1875 -0.546875 -0.546875 -0.953125q-0.34375 -0.40625 -0.828125 -0.625q-0.46875 -0.21875 -1.03125 -0.21875q-0.546875 0 -1.03125 0.234375q-0.46875 0.234375 -0.828125 0.640625q-0.34375 0.390625 -0.546875 0.9375q-0.1875 0.546875 -0.1875 1.203125zm18.555695 4.953125l-2.546875 0l0 -5.59375q0 -1.1875 -0.421875 -1.734375q-0.40625 -0.5625 -1.15625 -0.5625q-0.375 0 -0.78125 0.15625q-0.390625 0.15625 -0.75 0.4375q-0.34375 0.265625 -0.625 0.65625q-0.28125 0.375 -0.421875 0.828125l0 5.8125l-2.546875 0l0 -9.953125l2.296875 0l0 1.84375q0.5625 -0.953125 1.59375 -1.484375q1.046875 -0.53125 2.359375 -0.53125q0.9375 0 1.515625 0.34375q0.59375 0.34375 0.921875 0.890625q0.328125 0.546875 0.4375 1.25q0.125 0.703125 0.125 1.421875l0 6.21875zm13.612122 -13.484375l0 13.484375l-2.609375 0l0 -5.75l-6.109375 0l0 5.75l-2.625 0l0 -13.484375l2.625 0l0 5.453125l6.109375 0l0 -5.453125l2.609375 0zm6.8988953 13.671875q-1.203125 0 -2.171875 -0.40625q-0.96875 -0.421875 -1.65625 -1.140625q-0.671875 -0.71875 -1.03125 -1.640625q-0.359375 -0.9375 -0.359375 -1.953125q0 -1.046875 0.359375 -1.96875q0.359375 -0.9375 1.03125 -1.65625q0.6875 -0.71875 1.65625 -1.125q0.96875 -0.421875 2.171875 -0.421875q1.21875 0 2.171875 0.421875q0.96875 0.40625 1.640625 1.125q0.671875 0.71875 1.03125 1.65625q0.375 0.921875 0.375 1.96875q0 1.015625 -0.375 1.953125q-0.359375 0.921875 -1.03125 1.640625q-0.65625 0.71875 -1.625 1.140625q-0.96875 0.40625 -2.1875 0.40625zm-2.59375 -5.140625q0 0.65625 0.1875 1.203125q0.203125 0.53125 0.546875 0.9375q0.359375 0.40625 0.828125 0.625q0.484375 0.21875 1.03125 0.21875q0.5625 0 1.03125 -0.21875q0.484375 -0.21875 0.828125 -0.625q0.359375 -0.40625 0.546875 -0.953125q0.203125 -0.546875 0.203125 -1.21875q0 -0.640625 -0.203125 -1.1875q-0.1875 -0.546875 -0.546875 -0.953125q-0.34375 -0.40625 -0.828125 -0.625q-0.46875 -0.21875 -1.03125 -0.21875q-0.546875 0 -1.03125 0.234375q-0.46875 0.234375 -0.828125 0.640625q-0.34375 0.390625 -0.546875 0.9375q-0.1875 0.546875 -0.1875 1.203125zm13.07132 5.140625q-1.25 0 -2.453125 -0.390625q-1.203125 -0.40625 -2.046875 -1.140625l0.953125 -1.59375q0.90625 0.640625 1.765625 0.96875q0.875 0.328125 1.71875 0.328125q0.765625 0 1.203125 -0.28125q0.4375 -0.28125 0.4375 -0.8125q0 -0.53125 -0.515625 -0.78125q-0.515625 -0.25 -1.671875 -0.5625q-0.96875 -0.265625 -1.65625 -0.515625q-0.6875 -0.25 -1.109375 -0.5625q-0.40625 -0.3125 -0.59375 -0.71875q-0.1875 -0.40625 -0.1875 -0.984375q0 -0.765625 0.28125 -1.359375q0.296875 -0.609375 0.828125 -1.03125q0.53125 -0.4375 1.25 -0.65625q0.71875 -0.234375 1.546875 -0.234375q1.125 0 2.09375 0.328125q0.984375 0.3125 1.796875 1.03125l-1.015625 1.546875q-0.765625 -0.578125 -1.484375 -0.84375q-0.703125 -0.265625 -1.40625 -0.265625q-0.640625 0 -1.078125 0.265625q-0.4375 0.265625 -0.4375 0.859375q0 0.265625 0.09375 0.4375q0.109375 0.171875 0.328125 0.3125q0.234375 0.125 0.609375 0.25q0.375 0.125 0.921875 0.25q1.03125 0.265625 1.75 0.53125q0.734375 0.265625 1.203125 0.609375q0.46875 0.34375 0.6875 0.796875q0.21875 0.4375 0.21875 1.0625q0 1.46875 -1.09375 2.3125q-1.078125 0.84375 -2.9375 0.84375zm11.475281 -0.703125q-0.515625 0.234375 -1.265625 0.46875q-0.734375 0.21875 -1.546875 0.21875q-0.53125 0 -1.0 -0.140625q-0.46875 -0.125 -0.828125 -0.421875q-0.34375 -0.296875 -0.546875 -0.75q-0.203125 -0.46875 -0.203125 -1.140625l0 -5.71875l-1.3125 0l0 -1.953125l1.3125 0l0 -3.234375l2.546875 0l0 3.234375l2.078125 0l0 1.953125l-2.078125 0l0 4.859375q0 0.53125 0.265625 0.75q0.28125 0.21875 0.671875 0.21875q0.40625 0 0.78125 -0.125q0.390625 -0.140625 0.609375 -0.234375l0.515625 2.015625zm5.2890015 -12.96875l2.3125 0l5.125 13.484375l-2.6875 0l-1.265625 -3.359375l-4.703125 0l-1.234375 3.359375l-2.703125 0l5.15625 -13.484375zm3.015625 8.28125l-1.859375 -5.296875l-1.9375 5.296875l3.796875 0zm4.802643 0.21875q0 -1.03125 0.359375 -1.96875q0.359375 -0.9375 1.046875 -1.640625q0.6875 -0.703125 1.65625 -1.109375q0.96875 -0.421875 2.1875 -0.421875q1.625 0 2.765625 0.703125q1.15625 0.703125 1.734375 1.84375l-2.484375 0.75q-0.328125 -0.546875 -0.859375 -0.84375q-0.53125 -0.296875 -1.1875 -0.296875q-0.546875 0 -1.03125 0.21875q-0.46875 0.21875 -0.828125 0.609375q-0.34375 0.390625 -0.546875 0.953125q-0.1875 0.546875 -0.1875 1.203125q0 0.671875 0.203125 1.21875q0.21875 0.546875 0.5625 0.953125q0.359375 0.40625 0.828125 0.625q0.46875 0.21875 1.0 0.21875q0.6875 0 1.265625 -0.34375q0.578125 -0.34375 0.8125 -0.84375l2.484375 0.765625q-0.515625 1.140625 -1.6875 1.859375q-1.171875 0.71875 -2.828125 0.71875q-1.21875 0 -2.1875 -0.40625q-0.96875 -0.421875 -1.65625 -1.140625q-0.6875 -0.71875 -1.0625 -1.65625q-0.359375 -0.9375 -0.359375 -1.96875zm10.522125 0q0 -1.03125 0.359375 -1.96875q0.359375 -0.9375 1.046875 -1.640625q0.6875 -0.703125 1.65625 -1.109375q0.96875 -0.421875 2.1875 -0.421875q1.625 0 2.765625 0.703125q1.15625 0.703125 1.734375 1.84375l-2.484375 0.75q-0.328125 -0.546875 -0.859375 -0.84375q-0.53125 -0.296875 -1.1875 -0.296875q-0.546875 0 -1.03125 0.21875q-0.46875 0.21875 -0.828125 0.609375q-0.34375 0.390625 -0.546875 0.953125q-0.1875 0.546875 -0.1875 1.203125q0 0.671875 0.203125 1.21875q0.21875 0.546875 0.5625 0.953125q0.359375 0.40625 0.828125 0.625q0.46875 0.21875 1.0 0.21875q0.6875 0 1.265625 -0.34375q0.578125 -0.34375 0.8125 -0.84375l2.484375 0.765625q-0.515625 1.140625 -1.6875 1.859375q-1.171875 0.71875 -2.828125 0.71875q-1.21875 0 -2.1875 -0.40625q-0.96875 -0.421875 -1.65625 -1.140625q-0.6875 -0.71875 -1.0625 -1.65625q-0.359375 -0.9375 -0.359375 -1.96875zm15.740845 5.171875q-1.203125 0 -2.171875 -0.40625q-0.96875 -0.421875 -1.65625 -1.140625q-0.671875 -0.71875 -1.03125 -1.640625q-0.359375 -0.9375 -0.359375 -1.953125q0 -1.046875 0.359375 -1.96875q0.359375 -0.9375 1.03125 -1.65625q0.6875 -0.71875 1.65625 -1.125q0.96875 -0.421875 2.171875 -0.421875q1.21875 0 2.171875 0.421875q0.96875 0.40625 1.640625 1.125q0.671875 0.71875 1.03125 1.65625q0.375 0.921875 0.375 1.96875q0 1.015625 -0.375 1.953125q-0.359375 0.921875 -1.03125 1.640625q-0.65625 0.71875 -1.625 1.140625q-0.96875 0.40625 -2.1875 0.40625zm-2.59375 -5.140625q0 0.65625 0.1875 1.203125q0.203125 0.53125 0.546875 0.9375q0.359375 0.40625 0.828125 0.625q0.484375 0.21875 1.03125 0.21875q0.5625 0 1.03125 -0.21875q0.484375 -0.21875 0.828125 -0.625q0.359375 -0.40625 0.546875 -0.953125q0.203125 -0.546875 0.203125 -1.21875q0 -0.640625 -0.203125 -1.1875q-0.1875 -0.546875 -0.546875 -0.953125q-0.34375 -0.40625 -0.828125 -0.625q-0.46875 -0.21875 -1.03125 -0.21875q-0.546875 0 -1.03125 0.234375q-0.46875 0.234375 -0.828125 0.640625q-0.34375 0.390625 -0.546875 0.9375q-0.1875 0.546875 -0.1875 1.203125zm12.3526 5.140625q-1.546875 0 -2.34375 -0.984375q-0.796875 -0.984375 -0.796875 -2.921875l0 -6.234375l2.546875 0l0 5.671875q0 2.3125 1.65625 2.3125q0.734375 0 1.421875 -0.453125q0.703125 -0.453125 1.140625 -1.359375l0 -6.171875l2.546875 0l0 7.03125q0 0.390625 0.140625 0.5625q0.140625 0.171875 0.46875 0.1875l0 2.171875q-0.375 0.078125 -0.640625 0.09375q-0.25 0.015625 -0.46875 0.015625q-0.671875 0 -1.109375 -0.3125q-0.421875 -0.3125 -0.5 -0.859375l-0.0625 -0.796875q-0.65625 1.015625 -1.703125 1.53125q-1.046875 0.515625 -2.296875 0.515625zm17.732666 -0.1875l-2.546875 0l0 -5.59375q0 -1.1875 -0.421875 -1.734375q-0.40625 -0.5625 -1.15625 -0.5625q-0.375 0 -0.78125 0.15625q-0.390625 0.15625 -0.75 0.4375q-0.34375 0.265625 -0.625 0.65625q-0.28125 0.375 -0.421875 0.828125l0 5.8125l-2.546875 0l0 -9.953125l2.296875 0l0 1.84375q0.5625 -0.953125 1.59375 -1.484375q1.046875 -0.53125 2.359375 -0.53125q0.9375 0 1.515625 0.34375q0.59375 0.34375 0.921875 0.890625q0.328125 0.546875 0.4375 1.25q0.125 0.703125 0.125 1.421875l0 6.21875zm7.9871216 -0.515625q-0.515625 0.234375 -1.265625 0.46875q-0.734375 0.21875 -1.546875 0.21875q-0.53125 0 -1.0 -0.140625q-0.46875 -0.125 -0.828125 -0.421875q-0.34375 -0.296875 -0.546875 -0.75q-0.203125 -0.46875 -0.203125 -1.140625l0 -5.71875l-1.3125 0l0 -1.953125l1.3125 0l0 -3.234375l2.546875 0l0 3.234375l2.078125 0l0 1.953125l-2.078125 0l0 4.859375q0 0.53125 0.265625 0.75q0.28125 0.21875 0.671875 0.21875q0.40625 0 0.78125 -0.125q0.390625 -0.140625 0.609375 -0.234375l0.515625 2.015625z" fill-rule="nonzero"></path><path fill="#cfe2f3" d="m46.897636 336.09857l0 0c0 -4.3168945 3.4995346 -7.8164062 7.816429 -7.8164062l242.09944 0c2.0730286 0 4.061157 0.8234863 5.5270386 2.2893677c1.4658508 1.4658508 2.2893677 3.45401 2.2893677 5.5270386l0 31.264801c0 4.3168945 -3.4995117 7.8164062 -7.8164062 7.8164062l-242.09944 0c-4.3168945 0 -7.816429 -3.4995117 -7.816429 -7.8164062z" fill-rule="evenodd"></path><path fill="#1155cc" d="m130.26895 345.1666l0 13.484375l-2.609375 0l0 -5.75l-6.109375 0l0 5.75l-2.625 0l0 -13.484375l2.625 0l0 5.453125l6.109375 0l0 -5.453125l2.609375 0zm6.8989105 13.671875q-1.203125 0 -2.171875 -0.40625q-0.96875 -0.421875 -1.65625 -1.140625q-0.671875 -0.71875 -1.03125 -1.640625q-0.359375 -0.9375 -0.359375 -1.953125q0 -1.046875 0.359375 -1.96875q0.359375 -0.9375 1.03125 -1.65625q0.6875 -0.71875 1.65625 -1.125q0.96875 -0.421875 2.171875 -0.421875q1.21875 0 2.171875 0.421875q0.96875 0.40625 1.640625 1.125q0.671875 0.71875 1.03125 1.65625q0.375 0.921875 0.375 1.96875q0 1.015625 -0.375 1.953125q-0.359375 0.921875 -1.03125 1.640625q-0.65625 0.71875 -1.625 1.140625q-0.96875 0.40625 -2.1875 0.40625zm-2.59375 -5.140625q0 0.65625 0.1875 1.203125q0.203125 0.53125 0.546875 0.9375q0.359375 0.40625 0.828125 0.625q0.484375 0.21875 1.03125 0.21875q0.5625 0 1.03125 -0.21875q0.484375 -0.21875 0.828125 -0.625q0.359375 -0.40625 0.546875 -0.953125q0.203125 -0.546875 0.203125 -1.21875q0 -0.640625 -0.203125 -1.1875q-0.1875 -0.546875 -0.546875 -0.953125q-0.34375 -0.40625 -0.828125 -0.625q-0.46875 -0.21875 -1.03125 -0.21875q-0.546875 0 -1.03125 0.234375q-0.46875 0.234375 -0.828125 0.640625q-0.34375 0.390625 -0.546875 0.9375q-0.1875 0.546875 -0.1875 1.203125zm13.07132 5.140625q-1.25 0 -2.453125 -0.390625q-1.203125 -0.40625 -2.046875 -1.140625l0.953125 -1.59375q0.90625 0.640625 1.765625 0.96875q0.875 0.328125 1.71875 0.328125q0.765625 0 1.203125 -0.28125q0.4375 -0.28125 0.4375 -0.8125q0 -0.53125 -0.515625 -0.78125q-0.515625 -0.25 -1.671875 -0.5625q-0.96875 -0.265625 -1.65625 -0.515625q-0.6875 -0.25 -1.109375 -0.5625q-0.40625 -0.3125 -0.59375 -0.71875q-0.1875 -0.40625 -0.1875 -0.984375q0 -0.765625 0.28125 -1.359375q0.296875 -0.609375 0.828125 -1.03125q0.53125 -0.4375 1.25 -0.65625q0.71875 -0.234375 1.546875 -0.234375q1.125 0 2.09375 0.328125q0.984375 0.3125 1.796875 1.03125l-1.015625 1.546875q-0.765625 -0.578125 -1.484375 -0.84375q-0.703125 -0.265625 -1.40625 -0.265625q-0.640625 0 -1.078125 0.265625q-0.4375 0.265625 -0.4375 0.859375q0 0.265625 0.09375 0.4375q0.109375 0.171875 0.328125 0.3125q0.234375 0.125 0.609375 0.25q0.375 0.125 0.921875 0.25q1.03125 0.265625 1.75 0.53125q0.734375 0.265625 1.203125 0.609375q0.46875 0.34375 0.6875 0.796875q0.21875 0.4375 0.21875 1.0625q0 1.46875 -1.09375 2.3125q-1.078125 0.84375 -2.9375 0.84375zm11.475281 -0.703125q-0.515625 0.234375 -1.265625 0.46875q-0.734375 0.21875 -1.546875 0.21875q-0.53125 0 -1.0 -0.140625q-0.46875 -0.125 -0.828125 -0.421875q-0.34375 -0.296875 -0.546875 -0.75q-0.203125 -0.46875 -0.203125 -1.140625l0 -5.71875l-1.3125 0l0 -1.953125l1.3125 0l0 -3.234375l2.546875 0l0 3.234375l2.078125 0l0 1.953125l-2.078125 0l0 4.859375q0 0.53125 0.265625 0.75q0.28125 0.21875 0.671875 0.21875q0.40625 0 0.78125 -0.125q0.390625 -0.140625 0.609375 -0.234375l0.515625 2.015625zm5.2890015 -12.96875l2.3125 0l5.125 13.484375l-2.6875 0l-1.265625 -3.359375l-4.703125 0l-1.234375 3.359375l-2.703125 0l5.15625 -13.484375zm3.015625 8.28125l-1.859375 -5.296875l-1.9375 5.296875l3.796875 0zm4.8026276 0.21875q0 -1.03125 0.359375 -1.96875q0.359375 -0.9375 1.046875 -1.640625q0.6875 -0.703125 1.65625 -1.109375q0.96875 -0.421875 2.1875153 -0.421875q1.625 0 2.765625 0.703125q1.15625 0.703125 1.734375 1.84375l-2.484375 0.75q-0.328125 -0.546875 -0.859375 -0.84375q-0.53125 -0.296875 -1.1875 -0.296875q-0.54689026 0 -1.0312653 0.21875q-0.46875 0.21875 -0.828125 0.609375q-0.34375 0.390625 -0.546875 0.953125q-0.1875 0.546875 -0.1875 1.203125q0 0.671875 0.203125 1.21875q0.21875 0.546875 0.5625 0.953125q0.359375 0.40625 0.828125 0.625q0.46875 0.21875 1.0000153 0.21875q0.6875 0 1.265625 -0.34375q0.578125 -0.34375 0.8125 -0.84375l2.484375 0.765625q-0.515625 1.140625 -1.6875 1.859375q-1.171875 0.71875 -2.828125 0.71875q-1.2187653 0 -2.1875153 -0.40625q-0.96875 -0.421875 -1.65625 -1.140625q-0.6875 -0.71875 -1.0625 -1.65625q-0.359375 -0.9375 -0.359375 -1.96875zm10.5221405 0q0 -1.03125 0.359375 -1.96875q0.359375 -0.9375 1.046875 -1.640625q0.6875 -0.703125 1.65625 -1.109375q0.96875 -0.421875 2.1875 -0.421875q1.625 0 2.765625 0.703125q1.15625 0.703125 1.734375 1.84375l-2.484375 0.75q-0.328125 -0.546875 -0.859375 -0.84375q-0.53125 -0.296875 -1.1875 -0.296875q-0.546875 0 -1.03125 0.21875q-0.46875 0.21875 -0.828125 0.609375q-0.34375 0.390625 -0.546875 0.953125q-0.1875 0.546875 -0.1875 1.203125q0 0.671875 0.203125 1.21875q0.21875 0.546875 0.5625 0.953125q0.359375 0.40625 0.828125 0.625q0.46875 0.21875 1.0 0.21875q0.6875 0 1.265625 -0.34375q0.578125 -0.34375 0.8125 -0.84375l2.484375 0.765625q-0.515625 1.140625 -1.6875 1.859375q-1.171875 0.71875 -2.828125 0.71875q-1.21875 0 -2.1875 -0.40625q-0.96875 -0.421875 -1.65625 -1.140625q-0.6875 -0.71875 -1.0625 -1.65625q-0.359375 -0.9375 -0.359375 -1.96875zm15.740875 5.171875q-1.203125 0 -2.171875 -0.40625q-0.96875 -0.421875 -1.65625 -1.140625q-0.671875 -0.71875 -1.03125 -1.640625q-0.359375 -0.9375 -0.359375 -1.953125q0 -1.046875 0.359375 -1.96875q0.359375 -0.9375 1.03125 -1.65625q0.6875 -0.71875 1.65625 -1.125q0.96875 -0.421875 2.171875 -0.421875q1.21875 0 2.171875 0.421875q0.96875 0.40625 1.640625 1.125q0.671875 0.71875 1.03125 1.65625q0.375 0.921875 0.375 1.96875q0 1.015625 -0.375 1.953125q-0.359375 0.921875 -1.03125 1.640625q-0.65625 0.71875 -1.625 1.140625q-0.96875 0.40625 -2.1875 0.40625zm-2.59375 -5.140625q0 0.65625 0.1875 1.203125q0.203125 0.53125 0.546875 0.9375q0.359375 0.40625 0.828125 0.625q0.484375 0.21875 1.03125 0.21875q0.5625 0 1.03125 -0.21875q0.484375 -0.21875 0.828125 -0.625q0.359375 -0.40625 0.546875 -0.953125q0.203125 -0.546875 0.203125 -1.21875q0 -0.640625 -0.203125 -1.1875q-0.1875 -0.546875 -0.546875 -0.953125q-0.34375 -0.40625 -0.828125 -0.625q-0.46875 -0.21875 -1.03125 -0.21875q-0.546875 0 -1.03125 0.234375q-0.46875 0.234375 -0.828125 0.640625q-0.34375 0.390625 -0.546875 0.9375q-0.1875 0.546875 -0.1875 1.203125zm12.35257 5.140625q-1.546875 0 -2.34375 -0.984375q-0.796875 -0.984375 -0.796875 -2.921875l0 -6.234375l2.546875 0l0 5.671875q0 2.3125 1.65625 2.3125q0.734375 0 1.421875 -0.453125q0.703125 -0.453125 1.140625 -1.359375l0 -6.171875l2.546875 0l0 7.03125q0 0.390625 0.140625 0.5625q0.140625 0.171875 0.46875 0.1875l0 2.171875q-0.375 0.078125 -0.640625 0.09375q-0.25 0.015625 -0.46875 0.015625q-0.671875 0 -1.109375 -0.3125q-0.421875 -0.3125 -0.5 -0.859375l-0.0625 -0.796875q-0.65625 1.015625 -1.703125 1.53125q-1.046875 0.515625 -2.296875 0.515625zm17.732697 -0.1875l-2.546875 0l0 -5.59375q0 -1.1875 -0.421875 -1.734375q-0.40625 -0.5625 -1.15625 -0.5625q-0.375 0 -0.78125 0.15625q-0.390625 0.15625 -0.75 0.4375q-0.34375 0.265625 -0.625 0.65625q-0.28125 0.375 -0.421875 0.828125l0 5.8125l-2.546875 0l0 -9.953125l2.296875 0l0 1.84375q0.5625 -0.953125 1.59375 -1.484375q1.046875 -0.53125 2.359375 -0.53125q0.9375 0 1.515625 0.34375q0.59375 0.34375 0.921875 0.890625q0.328125 0.546875 0.4375 1.25q0.125 0.703125 0.125 1.421875l0 6.21875zm7.9871216 -0.515625q-0.515625 0.234375 -1.265625 0.46875q-0.734375 0.21875 -1.546875 0.21875q-0.53125 0 -1.0 -0.140625q-0.46875 -0.125 -0.828125 -0.421875q-0.34375 -0.296875 -0.546875 -0.75q-0.203125 -0.46875 -0.203125 -1.140625l0 -5.71875l-1.3125 0l0 -1.953125l1.3125 0l0 -3.234375l2.546875 0l0 3.234375l2.078125 0l0 1.953125l-2.078125 0l0 4.859375q0 0.53125 0.265625 0.75q0.28125 0.21875 0.671875 0.21875q0.40625 0 0.78125 -0.125q0.390625 -0.140625 0.609375 -0.234375l0.515625 2.015625z" fill-rule="nonzero"></path><path fill="#000000" fill-opacity="0.0" d="m175.76378 328.28217l152.31496 -46.897644" fill-rule="evenodd"></path><path stroke="#1155cc" stroke-width="2.0" stroke-linejoin="round" stroke-linecap="butt" d="m175.76378 328.28217l145.76427 -44.880707" fill-rule="evenodd"></path><path fill="#1155cc" stroke="#1155cc" stroke-width="2.0" stroke-linecap="butt" d="m321.52805 283.40146l-1.4877319 2.811432l5.2440796 -3.967987l-6.5677795 -0.33117676z" fill-rule="evenodd"></path><path fill="#000000" fill-opacity="0.0" d="m328.07874 234.47113l304.62994 -140.72441" fill-rule="evenodd"></path><path stroke="#1155cc" stroke-width="2.0" stroke-linejoin="round" stroke-linecap="butt" d="m328.07874 234.47113l298.4076 -137.85" fill-rule="evenodd"></path><path fill="#1155cc" stroke="#1155cc" stroke-width="2.0" stroke-linecap="butt" d="m626.4863 96.62114l-1.0985718 2.985054l4.666626 -4.6333237l-6.5531006 0.54966736z" fill-rule="evenodd"></path></g></svg>

