<?xml version="1.0" standalone="yes"?>

<svg version="1.1" viewBox="0.0 0.0 1113.1863517060367 422.0288713910761" fill="none" stroke="none" stroke-linecap="square" stroke-miterlimit="10" xmlns="http://www.w3.org/2000/svg" xmlns:xlink="http://www.w3.org/1999/xlink"><clipPath id="p.0"><path d="m0 0l1113.1864 0l0 422.02887l-1113.1864 0l0 -422.02887z" clip-rule="nonzero"></path></clipPath><g clip-path="url(#p.0)"><path fill="#000000" fill-opacity="0.0" d="m0 0l1113.1864 0l0 422.02887l-1113.1864 0z" fill-rule="evenodd"></path><path fill="#cfe2f3" d="m351.52756 54.714066l0 0c0 -4.3168945 3.4995422 -7.816429 7.816437 -7.816429l242.09943 0c2.073059 0 4.061157 0.82351685 5.5270386 2.2893791c1.4658813 1.4658661 2.2893677 3.4540062 2.2893677 5.52705l0 31.264778c0 4.3168945 -3.4995117 7.816429 -7.8164062 7.816429l-242.09943 0c-4.3168945 0 -7.816437 -3.4995346 -7.816437 -7.816429z" fill-rule="evenodd"></path><path fill="#1155cc" d="m444.17545 63.797707l2.59375 0l-2.859375 13.46875l-2.609375 0l2.875 -13.46875zm6.067047 13.65625q-0.828125 0 -1.484375 -0.3125q-0.65625 -0.3125 -1.109375 -0.859375q-0.453125 -0.546875 -0.703125 -1.296875q-0.234375 -0.765625 -0.234375 -1.609375q0 -1.234375 0.4375 -2.359375q0.453125 -1.140625 1.203125 -1.984375q0.75 -0.859375 1.734375 -1.375q1.0 -0.515625 2.078125 -0.515625q1.03125 0 1.75 0.53125q0.71875 0.53125 0.984375 1.390625l1.21875 -5.671875l2.546875 0l-2.3125 10.953125q-0.0625 0.203125 -0.0625 0.34375q0 0.390625 0.453125 0.40625l-0.453125 2.171875q-0.34375 0.0625 -0.609375 0.09375q-0.25 0.046875 -0.4375 0.046875q-0.65625 0 -1.046875 -0.265625q-0.390625 -0.28125 -0.390625 -0.828125q0 -0.15625 0.015625 -0.328125q0.03125 -0.1875 0.09375 -0.453125q-0.71875 0.953125 -1.703125 1.4375q-0.96875 0.484375 -1.96875 0.484375zm1.140625 -2.15625q0.328125 0 0.6875 -0.125q0.375 -0.125 0.71875 -0.34375q0.34375 -0.234375 0.640625 -0.53125q0.3125 -0.3125 0.53125 -0.671875l0.484375 -2.375q-0.109375 -0.84375 -0.671875 -1.390625q-0.546875 -0.5625 -1.265625 -0.5625q-0.609375 0 -1.1875 0.328125q-0.5625 0.3125 -0.984375 0.84375q-0.421875 0.515625 -0.6875 1.171875q-0.25 0.640625 -0.25 1.328125q0 0.984375 0.53125 1.65625q0.53125 0.671875 1.453125 0.671875zm11.063385 2.15625q-0.953125 0 -1.703125 -0.3125q-0.75 -0.3125 -1.28125 -0.875q-0.53125 -0.5625 -0.8125 -1.328125q-0.28125 -0.765625 -0.28125 -1.6875q0 -1.234375 0.484375 -2.34375q0.484375 -1.109375 1.328125 -1.9375q0.859375 -0.84375 2.0 -1.328125q1.15625 -0.5 2.484375 -0.5q1.609375 0 2.5625 0.71875q0.96875 0.703125 0.96875 2.046875q0 3.21875 -5.734375 3.21875q-0.34375 0 -0.703125 0q-0.359375 0 -0.765625 -0.046875l0 0.25q0 1.015625 0.453125 1.640625q0.46875 0.625 1.453125 0.625q0.765625 0 1.4375 -0.359375q0.671875 -0.359375 1.0625 -1.015625l2.015625 0.640625q-0.375 0.5625 -0.9375 1.046875q-0.546875 0.484375 -1.203125 0.828125q-0.640625 0.34375 -1.375 0.53125q-0.71875 0.1875 -1.453125 0.1875zm1.84375 -8.46875q-0.5625 0 -1.03125 0.203125q-0.46875 0.1875 -0.84375 0.53125q-0.375 0.34375 -0.65625 0.8125q-0.28125 0.453125 -0.453125 0.953125q0.296875 0.03125 0.578125 0.03125q0.296875 0 0.59375 0q0.90625 0 1.546875 -0.09375q0.640625 -0.109375 1.03125 -0.296875q0.390625 -0.1875 0.5625 -0.4375q0.171875 -0.265625 0.171875 -0.609375q0 -0.546875 -0.421875 -0.8125q-0.421875 -0.28125 -1.078125 -0.28125zm6.092102 -1.671875l2.296875 0l-0.390625 1.84375q0.71875 -0.953125 1.8125 -1.484375q1.109375 -0.53125 2.34375 -0.53125q0.640625 0 1.0625 0.1875q0.4375 0.171875 0.6875 0.484375q0.265625 0.296875 0.359375 0.734375q0.109375 0.421875 0.109375 0.890625q0 0.375 -0.046875 0.796875q-0.046875 0.40625 -0.140625 0.8125l-1.3125 6.21875l-2.546875 0l1.1875 -5.59375q0.046875 -0.28125 0.078125 -0.53125q0.046875 -0.265625 0.046875 -0.46875q0 -0.671875 -0.296875 -0.984375q-0.296875 -0.3125 -0.78125 -0.3125q-0.34375 0 -0.75 0.15625q-0.390625 0.15625 -0.78125 0.4375q-0.375 0.265625 -0.703125 0.65625q-0.328125 0.375 -0.5625 0.828125l-1.234375 5.8125l-2.546875 0l2.109375 -9.953125zm11.795441 10.125q-0.921875 0 -1.5 -0.40625q-0.578125 -0.40625 -0.578125 -1.34375q0 -0.375 0.078125 -0.703125l1.21875 -5.71875l-1.234375 0l0.421875 -1.953125l1.203125 0l0.6875 -3.234375l2.546875 0l-0.6875 3.234375l2.0 0l-0.421875 1.953125l-1.96875 0l-1.046875 4.859375q-0.015625 0.09375 -0.03125 0.171875q-0.015625 0.0625 -0.015625 0.140625q0 0.359375 0.203125 0.515625q0.203125 0.140625 0.53125 0.140625q0.375 0 0.734375 -0.109375q0.375 -0.125 0.640625 -0.25l0.078125 2.015625q-0.546875 0.265625 -1.328125 0.484375q-0.78125 0.203125 -1.53125 0.203125zm6.0212708 -10.125l2.546875 0l-2.109375 9.953125l-2.546875 0l2.109375 -9.953125zm0.84375 -3.921875l2.546875 0l-0.53125 2.53125l-2.546875 0l0.53125 -2.53125zm3.8919067 6.390625l-1.203125 0l0.40625 -1.9375l1.21875 0l0.140625 -0.609375q0.1875 -0.9375 0.5625 -1.671875q0.375 -0.734375 0.90625 -1.25q0.53125 -0.53125 1.1875 -0.8125q0.65625 -0.296875 1.390625 -0.296875q1.15625 0 2.234375 0.59375l-0.890625 1.921875q-0.25 -0.15625 -0.59375 -0.25q-0.34375 -0.109375 -0.640625 -0.109375q-1.21875 0 -1.59375 1.78125l-0.15625 0.703125l2.28125 0l-0.421875 1.9375l-2.28125 0l-2.453125 11.515625l-2.546875 0l2.453125 -11.515625zm6.7192993 -2.46875l2.546875 0l-2.109375 9.953125l-2.546875 0l2.109375 -9.953125zm0.84375 -3.921875l2.546875 0l-0.53125 2.53125l-2.546875 0l0.53125 -2.53125zm6.2200317 14.0625q-0.953125 0 -1.703125 -0.3125q-0.75 -0.3125 -1.28125 -0.875q-0.53125 -0.5625 -0.8125 -1.328125q-0.28125 -0.765625 -0.28125 -1.6875q0 -1.234375 0.484375 -2.34375q0.484375 -1.109375 1.328125 -1.9375q0.859375 -0.84375 2.0 -1.328125q1.15625 -0.5 2.484375 -0.5q1.609375 0 2.5625 0.71875q0.9687195 0.703125 0.9687195 2.046875q0 3.21875 -5.7343445 3.21875q-0.34375 0 -0.703125 0q-0.359375 0 -0.765625 -0.046875l0 0.25q0 1.015625 0.453125 1.640625q0.46875 0.625 1.453125 0.625q0.765625 0 1.4375 -0.359375q0.671875 -0.359375 1.0625 -1.015625l2.015625 0.640625q-0.375 0.5625 -0.9375 1.046875q-0.546875 0.484375 -1.203125 0.828125q-0.640625 0.34375 -1.375 0.53125q-0.71875 0.1875 -1.453125 0.1875zm1.84375 -8.46875q-0.5625 0 -1.03125 0.203125q-0.46875 0.1875 -0.84375 0.53125q-0.375 0.34375 -0.65625 0.8125q-0.28125 0.453125 -0.453125 0.953125q0.296875 0.03125 0.578125 0.03125q0.296875 0 0.59375 0q0.90625 0 1.546875 -0.09375q0.640625 -0.109375 1.03125 -0.296875q0.390625 -0.1875 0.5625 -0.4375q0.171875 -0.265625 0.171875 -0.609375q0 -0.546875 -0.421875 -0.8125q-0.421875 -0.28125 -1.078125 -0.28125zm6.0920715 -1.671875l2.34375 0l-0.46875 2.125q0.734375 -1.03125 1.625 -1.625q0.890625 -0.59375 1.78125 -0.59375q0.1875 0 0.28125 0.015625q0.09375 0 0.171875 0.015625l-0.46875 2.265625q-1.078125 0.015625 -2.046875 0.453125q-0.953125 0.421875 -1.5 1.28125l-1.28125 6.015625l-2.546875 0l2.109375 -9.953125z" fill-rule="nonzero"></path><path fill="#000000" fill-opacity="0.0" d="m328.07874 140.70866l152.31497 -46.897644" fill-rule="evenodd"></path><path stroke="#1155cc" stroke-width="2.0" stroke-linejoin="round" stroke-linecap="butt" d="m328.07874 140.70866l145.76428 -44.88069" fill-rule="evenodd"></path><path fill="#1155cc" stroke="#1155cc" stroke-width="2.0" stroke-linecap="butt" d="m473.84302 95.82798l-1.4877319 2.811432l5.2440796 -3.96801l-6.5677795 -0.33115387z" fill-rule="evenodd"></path><path fill="#cfe2f3" d="m351.52756 242.33612l0 0c0 -4.3168945 3.4995422 -7.816437 7.816437 -7.816437l242.09943 0c2.073059 0 4.061157 0.82351685 5.5270386 2.289383c1.4658813 1.4658661 2.2893677 3.4539948 2.2893677 5.527054l0 31.26477c0 4.3168945 -3.4995117 7.816437 -7.8164062 7.816437l-242.09943 0c-4.3168945 0 -7.816437 -3.4995422 -7.816437 -7.816437z" fill-rule="evenodd"></path><path fill="#1155cc" d="m366.65356 264.8885l0 -13.48436l2.625 0l0 13.48436l-2.625 0zm14.335693 0l-2.546875 0l0 -5.59375q0 -1.1875 -0.421875 -1.734375q-0.40625 -0.5625 -1.15625 -0.5625q-0.375 0 -0.78125 0.15625q-0.390625 0.15625 -0.75 0.4375q-0.34375 0.265625 -0.625 0.65625q-0.28125 0.375 -0.421875 0.828125l0 5.8125l-2.546875 0l0 -9.95311l2.296875 0l0 1.8437347q0.5625 -0.95310974 1.59375 -1.4843597q1.046875 -0.53125 2.359375 -0.53125q0.9375 0 1.515625 0.34375q0.59375 0.34375 0.921875 0.890625q0.328125 0.54685974 0.4375 1.2499847q0.125 0.703125 0.125 1.421875l0 6.21875zm7.9871216 -0.515625q-0.515625 0.234375 -1.265625 0.46875q-0.734375 0.21875 -1.546875 0.21875q-0.53125 0 -1.0 -0.140625q-0.46875 -0.125 -0.828125 -0.421875q-0.34375 -0.296875 -0.546875 -0.75q-0.203125 -0.46875 -0.203125 -1.140625l0 -5.71875l-1.3125 0l0 -1.9531097l1.3125 0l0 -3.234375l2.546875 0l0 3.234375l2.078125 0l0 1.9531097l-2.078125 0l0 4.859375q0 0.53125 0.265625 0.75q0.28125 0.21875 0.671875 0.21875q0.40625 0 0.78125 -0.125q0.390625 -0.140625 0.609375 -0.234375l0.515625 2.015625zm5.8202515 0.703125q-1.203125 0 -2.171875 -0.40625q-0.96875 -0.40625 -1.65625 -1.109375q-0.6875 -0.703125 -1.0625 -1.625q-0.359375 -0.9375 -0.359375 -1.96875q0 -1.0625 0.359375 -2.0q0.359375 -0.9375 1.046875 -1.65625q0.6875 -0.71873474 1.65625 -1.1249847q0.984375 -0.421875 2.203125 -0.421875q1.21875 0 2.171875 0.421875q0.96875 0.40625 1.640625 1.1093597q0.671875 0.703125 1.015625 1.640625q0.359375 0.9375 0.359375 1.9375q0 0.25 -0.015625 0.484375q0 0.21875 -0.046875 0.375l-7.6875 0q0.046875 0.578125 0.28125 1.046875q0.234375 0.453125 0.59375 0.78125q0.359375 0.3125 0.8125 0.484375q0.453125 0.171875 0.953125 0.171875q0.75 0 1.421875 -0.359375q0.6875 -0.375 0.9375 -0.984375l2.171875 0.609375q-0.546875 1.140625 -1.75 1.875q-1.203125 0.71875 -2.875 0.71875zm2.578125 -6.0q-0.09375 -1.125 -0.828125 -1.796875q-0.734375 -0.671875 -1.78125 -0.671875q-0.5 0 -0.953125 0.1875q-0.453125 0.171875 -0.796875 0.5q-0.328125 0.3125 -0.546875 0.78125q-0.21875 0.453125 -0.265625 1.0l5.171875 0zm9.909454 -1.9375q-1.171875 0.015625 -2.078125 0.453125q-0.90625 0.421875 -1.3125 1.28125l0 6.015625l-2.546875 0l0 -9.95311l2.34375 0l0 2.1249847q0.265625 -0.515625 0.625 -0.921875q0.359375 -0.40623474 0.765625 -0.70310974q0.421875 -0.3125 0.84375 -0.46875q0.4375 -0.171875 0.84375 -0.171875q0.203125 0 0.296875 0q0.109375 0 0.21875 0.03125l0 2.3124847zm10.532471 7.75l-2.546875 0l0 -5.59375q0 -1.1875 -0.421875 -1.734375q-0.40625 -0.5625 -1.15625 -0.5625q-0.375 0 -0.78125 0.15625q-0.390625 0.15625 -0.75 0.4375q-0.34375 0.265625 -0.625 0.65625q-0.28125 0.375 -0.421875 0.828125l0 5.8125l-2.546875 0l0 -9.95311l2.296875 0l0 1.8437347q0.5625 -0.95310974 1.59375 -1.4843597q1.046875 -0.53125 2.359375 -0.53125q0.9375 0 1.515625 0.34375q0.59375 0.34375 0.921875 0.890625q0.328125 0.54685974 0.4375 1.2499847q0.125 0.703125 0.125 1.421875l0 6.21875zm4.7371216 0.1875q-0.71875 0 -1.34375 -0.234375q-0.625 -0.234375 -1.09375 -0.65625q-0.453125 -0.4375 -0.71875 -1.0q-0.25 -0.578125 -0.25 -1.265625q0 -0.703125 0.3125 -1.296875q0.328125 -0.59375 0.875 -1.015625q0.5625 -0.421875 1.34375 -0.65625q0.78125 -0.234375 1.71875 -0.234375q0.65625 0 1.296875 0.109375q0.640625 0.109375 1.125 0.328125l0 -0.578125q0 -0.984375 -0.5625 -1.515625q-0.5625 -0.53125 -1.65625 -0.53125q-0.796875 0 -1.5625 0.28125q-0.75 0.28125 -1.546875 0.84375l-0.78125 -1.625q1.90625 -1.2656097 4.140625 -1.2656097q2.140625 0 3.328125 1.0625q1.1875 1.0468597 1.1875 3.0468597l0 3.09375q0 0.390625 0.140625 0.5625q0.140625 0.171875 0.46875 0.1875l0 2.171875q-0.640625 0.140625 -1.125 0.140625q-0.71875 0 -1.109375 -0.328125q-0.390625 -0.328125 -0.484375 -0.859375l-0.046875 -0.546875q-0.671875 0.875 -1.625 1.328125q-0.953125 0.453125 -2.03125 0.453125zm0.71875 -1.859375q0.65625 0 1.234375 -0.21875q0.578125 -0.234375 0.890625 -0.625q0.421875 -0.3125 0.421875 -0.71875l0 -1.140625q-0.453125 -0.171875 -0.984375 -0.265625q-0.53125 -0.109375 -1.03125 -0.109375q-0.984375 0 -1.609375 0.453125q-0.625 0.4375 -0.625 1.125q0 0.640625 0.484375 1.078125q0.5 0.421875 1.21875 0.421875zm7.2555847 -12.20311l2.546875 0l0 10.687485q0 0.546875 0.265625 0.859375q0.265625 0.296875 0.765625 0.296875q0.21875 0 0.484375 -0.078125q0.28125 -0.078125 0.53125 -0.1875l0.34375 1.9375q-0.515625 0.25 -1.203125 0.375q-0.671875 0.140625 -1.234375 0.140625q-1.1875 0 -1.84375 -0.640625q-0.65625 -0.640625 -0.65625 -1.8125l0 -11.57811zm8.804657 5.2343597l0 8.640625l-2.625 0l0 -13.48436l2.03125 0l7.03125 8.843735l0 -8.82811l2.625 0l0 13.468735l-2.125 0l-6.9375 -8.640625zm15.953461 8.828125q-1.203125 0 -2.171875 -0.40625q-0.96875 -0.421875 -1.65625 -1.140625q-0.671875 -0.71875 -1.03125 -1.640625q-0.359375 -0.9375 -0.359375 -1.953125q0 -1.046875 0.359375 -1.96875q0.359375 -0.9375 1.03125 -1.65625q0.6875 -0.71873474 1.65625 -1.1249847q0.96875 -0.421875 2.171875 -0.421875q1.21875 0 2.171875 0.421875q0.96875 0.40625 1.640625 1.1249847q0.671875 0.71875 1.03125 1.65625q0.375 0.921875 0.375 1.96875q0 1.015625 -0.375 1.953125q-0.359375 0.921875 -1.03125 1.640625q-0.65625 0.71875 -1.625 1.140625q-0.96875 0.40625 -2.1875 0.40625zm-2.59375 -5.140625q0 0.65625 0.1875 1.203125q0.203125 0.53125 0.546875 0.9375q0.359375 0.40625 0.828125 0.625q0.484375 0.21875 1.03125 0.21875q0.5625 0 1.03125 -0.21875q0.484375 -0.21875 0.828125 -0.625q0.359375 -0.40625 0.546875 -0.953125q0.203125 -0.546875 0.203125 -1.21875q0 -0.640625 -0.203125 -1.1875q-0.1875 -0.546875 -0.546875 -0.953125q-0.34375 -0.40625 -0.828125 -0.625q-0.46875 -0.21875 -1.03125 -0.21875q-0.546875 0 -1.03125 0.234375q-0.46875 0.234375 -0.828125 0.640625q-0.34375 0.390625 -0.546875 0.9375q-0.1875 0.546875 -0.1875 1.203125zm18.555695 4.953125l-2.546875 0l0 -5.59375q0 -1.1875 -0.421875 -1.734375q-0.40625 -0.5625 -1.15625 -0.5625q-0.375 0 -0.78125 0.15625q-0.390625 0.15625 -0.75 0.4375q-0.34375 0.265625 -0.625 0.65625q-0.28125 0.375 -0.421875 0.828125l0 5.8125l-2.546875 0l0 -9.95311l2.296875 0l0 1.8437347q0.5625 -0.95310974 1.59375 -1.4843597q1.046875 -0.53125 2.359375 -0.53125q0.9375 0 1.515625 0.34375q0.59375 0.34375 0.921875 0.890625q0.328125 0.54685974 0.4375 1.2499847q0.125 0.703125 0.125 1.421875l0 6.21875zm13.612152 -13.48436l0 13.48436l-2.609375 0l0 -5.75l-6.1094055 0l0 5.75l-2.625 0l0 -13.48436l2.625 0l0 5.4531097l6.1094055 0l0 -5.4531097l2.609375 0zm6.8988953 13.67186q-1.203125 0 -2.171875 -0.40625q-0.96875 -0.421875 -1.65625 -1.140625q-0.671875 -0.71875 -1.03125 -1.640625q-0.359375 -0.9375 -0.359375 -1.953125q0 -1.046875 0.359375 -1.96875q0.359375 -0.9375 1.03125 -1.65625q0.6875 -0.71873474 1.65625 -1.1249847q0.96875 -0.421875 2.171875 -0.421875q1.21875 0 2.171875 0.421875q0.96875 0.40625 1.640625 1.1249847q0.671875 0.71875 1.03125 1.65625q0.375 0.921875 0.375 1.96875q0 1.015625 -0.375 1.953125q-0.359375 0.921875 -1.03125 1.640625q-0.65625 0.71875 -1.625 1.140625q-0.96875 0.40625 -2.1875 0.40625zm-2.59375 -5.140625q0 0.65625 0.1875 1.203125q0.203125 0.53125 0.546875 0.9375q0.359375 0.40625 0.828125 0.625q0.484375 0.21875 1.03125 0.21875q0.5625 0 1.03125 -0.21875q0.484375 -0.21875 0.828125 -0.625q0.359375 -0.40625 0.546875 -0.953125q0.203125 -0.546875 0.203125 -1.21875q0 -0.640625 -0.203125 -1.1875q-0.1875 -0.546875 -0.546875 -0.953125q-0.34375 -0.40625 -0.828125 -0.625q-0.46875 -0.21875 -1.03125 -0.21875q-0.546875 0 -1.03125 0.234375q-0.46875 0.234375 -0.828125 0.640625q-0.34375 0.390625 -0.546875 0.9375q-0.1875 0.546875 -0.1875 1.203125zm13.07132 5.140625q-1.25 0 -2.453125 -0.390625q-1.203125 -0.40625 -2.046875 -1.140625l0.953125 -1.59375q0.90625 0.640625 1.765625 0.96875q0.875 0.328125 1.71875 0.328125q0.765625 0 1.203125 -0.28125q0.4375 -0.28125 0.4375 -0.8125q0 -0.53125 -0.515625 -0.78125q-0.515625 -0.25 -1.671875 -0.5625q-0.96875 -0.265625 -1.65625 -0.515625q-0.6875 -0.25 -1.109375 -0.5625q-0.40625 -0.3125 -0.59375 -0.71875q-0.1875 -0.40625 -0.1875 -0.984375q0 -0.765625 0.28125 -1.359375q0.296875 -0.609375 0.828125 -1.0312347q0.53125 -0.4375 1.25 -0.65625q0.71875 -0.234375 1.546875 -0.234375q1.125 0 2.09375 0.328125q0.984375 0.3125 1.796875 1.0312347l-1.015625 1.546875q-0.765625 -0.578125 -1.484375 -0.84375q-0.703125 -0.265625 -1.40625 -0.265625q-0.640625 0 -1.078125 0.265625q-0.4375 0.265625 -0.4375 0.859375q0 0.265625 0.09375 0.4375q0.109375 0.171875 0.328125 0.3125q0.234375 0.125 0.609375 0.25q0.375 0.125 0.921875 0.25q1.03125 0.265625 1.75 0.53125q0.734375 0.265625 1.203125 0.609375q0.46875 0.34375 0.6875 0.796875q0.21875 0.4375 0.21875 1.0625q0 1.46875 -1.09375 2.3125q-1.078125 0.84375 -2.9375 0.84375zm11.475281 -0.703125q-0.515625 0.234375 -1.265625 0.46875q-0.734375 0.21875 -1.546875 0.21875q-0.53125 0 -1.0 -0.140625q-0.46875 -0.125 -0.828125 -0.421875q-0.34375 -0.296875 -0.546875 -0.75q-0.203125 -0.46875 -0.203125 -1.140625l0 -5.71875l-1.3125 0l0 -1.9531097l1.3125 0l0 -3.234375l2.546875 0l0 3.234375l2.078125 0l0 1.9531097l-2.078125 0l0 4.859375q0 0.53125 0.265625 0.75q0.28125 0.21875 0.671875 0.21875q0.40625 0 0.78125 -0.125q0.390625 -0.140625 0.609375 -0.234375l0.515625 2.015625zm1.4452515 0.515625l0 -13.48436l2.625 0l0 13.48436l-2.625 0zm9.210693 0.1875q-1.03125 0 -1.90625 -0.390625q-0.859375 -0.40625 -1.5 -1.109375q-0.625 -0.703125 -0.984375 -1.640625q-0.34375 -0.9375 -0.34375 -2.03125q0 -1.078125 0.328125 -2.0q0.34375 -0.9375 0.921875 -1.640625q0.59375 -0.70310974 1.40625 -1.0937347q0.828125 -0.40625 1.796875 -0.40625q1.09375 0 1.96875 0.53125q0.890625 0.53125 1.390625 1.3906097l0 -5.6718597l2.546875 0l0 10.95311q0 0.390625 0.125 0.5625q0.140625 0.171875 0.46875 0.1875l0 2.171875q-0.671875 0.140625 -1.09375 0.140625q-0.671875 0 -1.109375 -0.34375q-0.4375 -0.34375 -0.5 -0.90625l-0.0625 -0.625q-0.546875 0.953125 -1.484375 1.4375q-0.9375 0.484375 -1.96875 0.484375zm0.671875 -2.15625q0.359375 0 0.734375 -0.125q0.375 -0.125 0.703125 -0.34375q0.328125 -0.234375 0.578125 -0.53125q0.265625 -0.3125 0.390625 -0.671875l0 -2.375q-0.15625 -0.421875 -0.4375 -0.765625q-0.265625 -0.359375 -0.625 -0.609375q-0.34375 -0.265625 -0.734375 -0.421875q-0.390625 -0.15625 -0.765625 -0.15625q-0.578125 0 -1.0625 0.25q-0.484375 0.25 -0.828125 0.6875q-0.328125 0.421875 -0.53125 0.96875q-0.1875 0.546875 -0.1875 1.140625q0 0.625 0.203125 1.15625q0.21875 0.53125 0.578125 0.9375q0.359375 0.390625 0.859375 0.625q0.515625 0.234375 1.125 0.234375zm11.861389 2.15625q-1.203125 0 -2.171875 -0.40625q-0.96875 -0.40625 -1.65625 -1.109375q-0.6875 -0.703125 -1.0625 -1.625q-0.359375 -0.9375 -0.359375 -1.96875q0 -1.0625 0.359375 -2.0q0.359375 -0.9375 1.046875 -1.65625q0.6875 -0.71873474 1.65625 -1.1249847q0.984375 -0.421875 2.203125 -0.421875q1.21875 0 2.171875 0.421875q0.96875 0.40625 1.640625 1.1093597q0.671875 0.703125 1.015625 1.640625q0.359375 0.9375 0.359375 1.9375q0 0.25 -0.015625 0.484375q0 0.21875 -0.046875 0.375l-7.6875 0q0.046875 0.578125 0.28125 1.046875q0.234375 0.453125 0.59375 0.78125q0.359375 0.3125 0.8125 0.484375q0.453125 0.171875 0.953125 0.171875q0.75 0 1.421875 -0.359375q0.6875 -0.375 0.9375 -0.984375l2.171875 0.609375q-0.546875 1.140625 -1.75 1.875q-1.203125 0.71875 -2.875 0.71875zm2.578125 -6.0q-0.09375 -1.125 -0.828125 -1.796875q-0.734375 -0.671875 -1.78125 -0.671875q-0.5 0 -0.953125 0.1875q-0.453125 0.171875 -0.796875 0.5q-0.328125 0.3125 -0.546875 0.78125q-0.21875 0.453125 -0.265625 1.0l5.171875 0zm13.221985 5.8125l-2.546875 0l0 -5.59375q0 -1.1875 -0.421875 -1.734375q-0.40625 -0.5625 -1.15625 -0.5625q-0.375 0 -0.78125 0.15625q-0.390625 0.15625 -0.75 0.4375q-0.34375 0.265625 -0.625 0.65625q-0.28125 0.375 -0.421875 0.828125l0 5.8125l-2.546875 0l0 -9.95311l2.296875 0l0 1.8437347q0.5625 -0.95310974 1.59375 -1.4843597q1.046875 -0.53125 2.359375 -0.53125q0.9375 0 1.515625 0.34375q0.59375 0.34375 0.921875 0.890625q0.328125 0.54685974 0.4375 1.2499847q0.125 0.703125 0.125 1.421875l0 6.21875zm7.9871216 -0.515625q-0.515625 0.234375 -1.265625 0.46875q-0.734375 0.21875 -1.546875 0.21875q-0.53125 0 -1.0 -0.140625q-0.46875 -0.125 -0.828125 -0.421875q-0.34375 -0.296875 -0.546875 -0.75q-0.203125 -0.46875 -0.203125 -1.140625l0 -5.71875l-1.3125 0l0 -1.9531097l1.3125 0l0 -3.234375l2.546875 0l0 3.234375l2.078125 0l0 1.9531097l-2.078125 0l0 4.859375q0 0.53125 0.265625 0.75q0.28125 0.21875 0.671875 0.21875q0.40625 0 0.78125 -0.125q0.390625 -0.140625 0.609375 -0.234375l0.515625 2.015625zm1.1952515 0.515625l0 -9.95311l2.546875 0l0 9.95311l-2.546875 0zm0 -11.343735l0 -2.53125l2.546875 0l0 2.53125l-2.546875 0zm5.366699 11.343735l0 -7.484375l-1.3125 0l0 -1.9374847l1.3125 0l0 -0.609375q0 -1.859375 0.890625 -2.9375q0.890625 -1.09375 2.4375 -1.09375q1.21875 0 2.453125 0.59375l-0.515625 1.921875q-0.28125 -0.15625 -0.671875 -0.25q-0.390625 -0.109375 -0.71875 -0.109375q-1.328125 0 -1.328125 1.78125l0 0.703125l2.4375 0l0 1.9374847l-2.4375 0l0 7.484375l-2.546875 0zm6.293457 0l0 -9.95311l2.546875 0l0 9.95311l-2.546875 0zm0 -11.343735l0 -2.53125l2.546875 0l0 2.53125l-2.546875 0zm9.382324 11.531235q-1.203125 0 -2.171875 -0.40625q-0.96875 -0.40625 -1.65625 -1.109375q-0.6875 -0.703125 -1.0625 -1.625q-0.359375 -0.9375 -0.359375 -1.96875q0 -1.0625 0.359375 -2.0q0.359375 -0.9375 1.046875 -1.65625q0.6875 -0.71873474 1.65625 -1.1249847q0.984375 -0.421875 2.203125 -0.421875q1.21875 0 2.171875 0.421875q0.96875 0.40625 1.640625 1.1093597q0.671875 0.703125 1.015625 1.640625q0.359375 0.9375 0.359375 1.9375q0 0.25 -0.015625 0.484375q0 0.21875 -0.046875 0.375l-7.6875 0q0.046875 0.578125 0.28125 1.046875q0.234375 0.453125 0.59375 0.78125q0.359375 0.3125 0.8125 0.484375q0.453125 0.171875 0.953125 0.171875q0.75 0 1.421875 -0.359375q0.6875 -0.375 0.9375 -0.984375l2.171875 0.609375q-0.546875 1.140625 -1.75 1.875q-1.203125 0.71875 -2.875 0.71875zm2.578125 -6.0q-0.09375 -1.125 -0.828125 -1.796875q-0.734375 -0.671875 -1.78125 -0.671875q-0.5 0 -0.953125 0.1875q-0.453125 0.171875 -0.796875 0.5q-0.328125 0.3125 -0.546875 0.78125q-0.21875 0.453125 -0.265625 1.0l5.171875 0zm9.909485 -1.9375q-1.171875 0.015625 -2.078125 0.453125q-0.90625 0.421875 -1.3125 1.28125l0 6.015625l-2.546875 0l0 -9.95311l2.34375 0l0 2.1249847q0.265625 -0.515625 0.625 -0.921875q0.359375 -0.40623474 0.765625 -0.70310974q0.421875 -0.3125 0.84375 -0.46875q0.4375 -0.171875 0.84375 -0.171875q0.203125 0 0.296875 0q0.109375 0 0.21875 0.03125l0 2.3124847z" fill-rule="nonzero"></path><path fill="#cfe2f3" d="m199.2126 148.52509l0 0c0 -4.3168945 3.499527 -7.8164215 7.8164215 -7.8164215l242.09943 0c2.073059 0 4.0611877 0.82351685 5.527069 2.289383c1.4658508 1.4658661 2.2893677 3.4539948 2.2893677 5.5270386l0 31.264786c0 4.3168945 -3.4995422 7.8164215 -7.816437 7.8164215l-242.09943 0c-4.3168945 0 -7.8164215 -3.499527 -7.8164215 -7.8164215z" fill-rule="evenodd"></path><path fill="#1155cc" d="m253.56337 171.07748l0 -13.484375l2.6250153 0l0 13.484375l-2.6250153 0zm14.335709 0l-2.546875 0l0 -5.59375q0 -1.1875 -0.421875 -1.734375q-0.40625 -0.5625 -1.15625 -0.5625q-0.375 0 -0.78125 0.15625q-0.390625 0.15625 -0.75 0.4375q-0.34375 0.265625 -0.625 0.65625q-0.28125 0.375 -0.421875 0.828125l0 5.8125l-2.546875 0l0 -9.953125l2.296875 0l0 1.84375q0.5625 -0.953125 1.59375 -1.484375q1.046875 -0.53125 2.359375 -0.53125q0.9375 0 1.515625 0.34375q0.59375 0.34375 0.921875 0.890625q0.328125 0.546875 0.4375 1.25q0.125 0.703125 0.125 1.421875l0 6.21875zm7.9871216 -0.515625q-0.515625 0.234375 -1.265625 0.46875q-0.734375 0.21875 -1.546875 0.21875q-0.53125 0 -1.0 -0.140625q-0.46875 -0.125 -0.828125 -0.421875q-0.34375 -0.296875 -0.546875 -0.75q-0.203125 -0.46875 -0.203125 -1.140625l0 -5.71875l-1.3125 0l0 -1.953125l1.3125 0l0 -3.234375l2.546875 0l0 3.234375l2.078125 0l0 1.953125l-2.078125 0l0 4.859375q0 0.53125 0.265625 0.75q0.28125 0.21875 0.671875 0.21875q0.40625 0 0.78125 -0.125q0.390625 -0.140625 0.609375 -0.234375l0.515625 2.015625zm5.8202515 0.703125q-1.203125 0 -2.171875 -0.40625q-0.96875 -0.40625 -1.65625 -1.109375q-0.6875 -0.703125 -1.0625 -1.625q-0.359375 -0.9375 -0.359375 -1.96875q0 -1.0625 0.359375 -2.0q0.359375 -0.9375 1.046875 -1.65625q0.6875 -0.71875 1.65625 -1.125q0.984375 -0.421875 2.203125 -0.421875q1.21875 0 2.171875 0.421875q0.96875 0.40625 1.640625 1.109375q0.671875 0.703125 1.015625 1.640625q0.359375 0.9375 0.359375 1.9375q0 0.25 -0.015625 0.484375q0 0.21875 -0.046875 0.375l-7.6875 0q0.046875 0.578125 0.28125 1.046875q0.234375 0.453125 0.59375 0.78125q0.359375 0.3125 0.8125 0.484375q0.453125 0.171875 0.953125 0.171875q0.75 0 1.421875 -0.359375q0.6875 -0.375 0.9375 -0.984375l2.171875 0.609375q-0.546875 1.140625 -1.75 1.875q-1.203125 0.71875 -2.875 0.71875zm2.578125 -6.0q-0.09375 -1.125 -0.828125 -1.796875q-0.734375 -0.671875 -1.78125 -0.671875q-0.5 0 -0.953125 0.1875q-0.453125 0.171875 -0.796875 0.5q-0.328125 0.3125 -0.546875 0.78125q-0.21875 0.453125 -0.265625 1.0l5.171875 0zm9.909454 -1.9375q-1.171875 0.015625 -2.078125 0.453125q-0.90625 0.421875 -1.3125 1.28125l0 6.015625l-2.546875 0l0 -9.953125l2.34375 0l0 2.125q0.265625 -0.515625 0.625 -0.921875q0.359375 -0.40625 0.765625 -0.703125q0.421875 -0.3125 0.84375 -0.46875q0.4375 -0.171875 0.84375 -0.171875q0.203125 0 0.296875 0q0.109375 0 0.21875 0.03125l0 2.3125zm10.532471 7.75l-2.546875 0l0 -5.59375q0 -1.1875 -0.421875 -1.734375q-0.40625 -0.5625 -1.15625 -0.5625q-0.375 0 -0.78125 0.15625q-0.390625 0.15625 -0.75 0.4375q-0.34375 0.265625 -0.625 0.65625q-0.28125 0.375 -0.421875 0.828125l0 5.8125l-2.546875 0l0 -9.953125l2.296875 0l0 1.84375q0.5625 -0.953125 1.59375 -1.484375q1.046875 -0.53125 2.359375 -0.53125q0.9375 0 1.515625 0.34375q0.59375 0.34375 0.921875 0.890625q0.328125 0.546875 0.4375 1.25q0.125 0.703125 0.125 1.421875l0 6.21875zm4.7371216 0.1875q-0.71875 0 -1.34375 -0.234375q-0.625 -0.234375 -1.09375 -0.65625q-0.453125 -0.4375 -0.71875 -1.0q-0.25 -0.578125 -0.25 -1.265625q0 -0.703125 0.3125 -1.296875q0.328125 -0.59375 0.875 -1.015625q0.5625 -0.421875 1.34375 -0.65625q0.78125 -0.234375 1.71875 -0.234375q0.65625 0 1.296875 0.109375q0.640625 0.109375 1.125 0.328125l0 -0.578125q0 -0.984375 -0.5625 -1.515625q-0.5625 -0.53125 -1.65625 -0.53125q-0.796875 0 -1.5625 0.28125q-0.75 0.28125 -1.546875 0.84375l-0.78125 -1.625q1.90625 -1.265625 4.140625 -1.265625q2.140625 0 3.328125 1.0625q1.1875 1.046875 1.1875 3.046875l0 3.09375q0 0.390625 0.140625 0.5625q0.140625 0.171875 0.46875 0.1875l0 2.171875q-0.640625 0.140625 -1.125 0.140625q-0.71875 0 -1.109375 -0.328125q-0.390625 -0.328125 -0.484375 -0.859375l-0.046875 -0.546875q-0.671875 0.875 -1.625 1.328125q-0.953125 0.453125 -2.03125 0.453125zm0.71875 -1.859375q0.65625 0 1.234375 -0.21875q0.578125 -0.234375 0.890625 -0.625q0.421875 -0.3125 0.421875 -0.71875l0 -1.140625q-0.453125 -0.171875 -0.984375 -0.265625q-0.53125 -0.109375 -1.03125 -0.109375q-0.984375 0 -1.609375 0.453125q-0.625 0.4375 -0.625 1.125q0 0.640625 0.484375 1.078125q0.5 0.421875 1.21875 0.421875zm7.2555847 -12.203125l2.546875 0l0 10.6875q0 0.546875 0.265625 0.859375q0.265625 0.296875 0.765625 0.296875q0.21875 0 0.484375 -0.078125q0.28125 -0.078125 0.53125 -0.1875l0.34375 1.9375q-0.515625 0.25 -1.203125 0.375q-0.671875 0.140625 -1.234375 0.140625q-1.1875 0 -1.84375 -0.640625q-0.65625 -0.640625 -0.65625 -1.8125l0 -11.578125zm6.179657 13.875l0 -13.484375l2.625 0l0 13.484375l-2.625 0zm9.210693 0.1875q-1.03125 0 -1.90625 -0.390625q-0.859375 -0.40625 -1.5 -1.109375q-0.625 -0.703125 -0.984375 -1.640625q-0.34375 -0.9375 -0.34375 -2.03125q0 -1.078125 0.328125 -2.0q0.34375 -0.9375 0.921875 -1.640625q0.59375 -0.703125 1.40625 -1.09375q0.828125 -0.40625 1.796875 -0.40625q1.09375 0 1.96875 0.53125q0.890625 0.53125 1.390625 1.390625l0 -5.671875l2.546875 0l0 10.953125q0 0.390625 0.125 0.5625q0.140625 0.171875 0.46875 0.1875l0 2.171875q-0.671875 0.140625 -1.09375 0.140625q-0.671875 0 -1.109375 -0.34375q-0.4375 -0.34375 -0.5 -0.90625l-0.0625 -0.625q-0.546875 0.953125 -1.484375 1.4375q-0.9375 0.484375 -1.96875 0.484375zm0.671875 -2.15625q0.359375 0 0.734375 -0.125q0.375 -0.125 0.703125 -0.34375q0.328125 -0.234375 0.578125 -0.53125q0.265625 -0.3125 0.390625 -0.671875l0 -2.375q-0.15625 -0.421875 -0.4375 -0.765625q-0.265625 -0.359375 -0.625 -0.609375q-0.34375 -0.265625 -0.734375 -0.421875q-0.390625 -0.15625 -0.765625 -0.15625q-0.578125 0 -1.0625 0.25q-0.484375 0.25 -0.828125 0.6875q-0.328125 0.421875 -0.53125 0.96875q-0.1875 0.546875 -0.1875 1.140625q0 0.625 0.203125 1.15625q0.21875 0.53125 0.578125 0.9375q0.359375 0.390625 0.859375 0.625q0.515625 0.234375 1.125 0.234375zm11.861389 2.15625q-1.203125 0 -2.171875 -0.40625q-0.96875 -0.40625 -1.65625 -1.109375q-0.6875 -0.703125 -1.0625 -1.625q-0.359375 -0.9375 -0.359375 -1.96875q0 -1.0625 0.359375 -2.0q0.359375 -0.9375 1.046875 -1.65625q0.6875 -0.71875 1.65625 -1.125q0.984375 -0.421875 2.203125 -0.421875q1.21875 0 2.171875 0.421875q0.96875 0.40625 1.640625 1.109375q0.671875 0.703125 1.015625 1.640625q0.359375 0.9375 0.359375 1.9375q0 0.25 -0.015625 0.484375q0 0.21875 -0.046875 0.375l-7.6875 0q0.046875 0.578125 0.28125 1.046875q0.234375 0.453125 0.59375 0.78125q0.359375 0.3125 0.8125 0.484375q0.453125 0.171875 0.953125 0.171875q0.75 0 1.421875 -0.359375q0.6875 -0.375 0.9375 -0.984375l2.171875 0.609375q-0.546875 1.140625 -1.75 1.875q-1.203125 0.71875 -2.875 0.71875zm2.578125 -6.0q-0.09375 -1.125 -0.828125 -1.796875q-0.734375 -0.671875 -1.78125 -0.671875q-0.5 0 -0.953125 0.1875q-0.453125 0.171875 -0.796875 0.5q-0.328125 0.3125 -0.546875 0.78125q-0.21875 0.453125 -0.265625 1.0l5.171875 0zm13.221985 5.8125l-2.546875 0l0 -5.59375q0 -1.1875 -0.421875 -1.734375q-0.40625 -0.5625 -1.15625 -0.5625q-0.375 0 -0.78125 0.15625q-0.390625 0.15625 -0.75 0.4375q-0.34375 0.265625 -0.625 0.65625q-0.28125 0.375 -0.421875 0.828125l0 5.8125l-2.546875 0l0 -9.953125l2.296875 0l0 1.84375q0.5625 -0.953125 1.59375 -1.484375q1.046875 -0.53125 2.359375 -0.53125q0.9375 0 1.515625 0.34375q0.59375 0.34375 0.921875 0.890625q0.328125 0.546875 0.4375 1.25q0.125 0.703125 0.125 1.421875l0 6.21875zm7.9871216 -0.515625q-0.515625 0.234375 -1.265625 0.46875q-0.734375 0.21875 -1.546875 0.21875q-0.53125 0 -1.0 -0.140625q-0.46875 -0.125 -0.828125 -0.421875q-0.34375 -0.296875 -0.546875 -0.75q-0.203125 -0.46875 -0.203125 -1.140625l0 -5.71875l-1.3125 0l0 -1.953125l1.3125 0l0 -3.234375l2.546875 0l0 3.234375l2.078125 0l0 1.953125l-2.078125 0l0 4.859375q0 0.53125 0.265625 0.75q0.28125 0.21875 0.671875 0.21875q0.40625 0 0.78125 -0.125q0.390625 -0.140625 0.609375 -0.234375l0.515625 2.015625zm1.1952515 0.515625l0 -9.953125l2.546875 0l0 9.953125l-2.546875 0zm0 -11.34375l0 -2.53125l2.546875 0l0 2.53125l-2.546875 0zm5.366699 11.34375l0 -7.484375l-1.3125 0l0 -1.9375l1.3125 0l0 -0.609375q0 -1.859375 0.890625 -2.9375q0.890625 -1.09375 2.4375 -1.09375q1.21875 0 2.453125 0.59375l-0.515625 1.921875q-0.28125 -0.15625 -0.671875 -0.25q-0.390625 -0.109375 -0.71875 -0.109375q-1.328125 0 -1.328125 1.78125l0 0.703125l2.4375 0l0 1.9375l-2.4375 0l0 7.484375l-2.546875 0zm6.293457 0l0 -9.953125l2.546875 0l0 9.953125l-2.546875 0zm0 -11.34375l0 -2.53125l2.546875 0l0 2.53125l-2.546875 0zm9.382324 11.53125q-1.203125 0 -2.171875 -0.40625q-0.96875 -0.40625 -1.65625 -1.109375q-0.6875 -0.703125 -1.0625 -1.625q-0.359375 -0.9375 -0.359375 -1.96875q0 -1.0625 0.359375 -2.0q0.359375 -0.9375 1.046875 -1.65625q0.6875 -0.71875 1.65625 -1.125q0.984375 -0.421875 2.203125 -0.421875q1.21875 0 2.171875 0.421875q0.96875 0.40625 1.640625 1.109375q0.671875 0.703125 1.015625 1.640625q0.359375 0.9375 0.359375 1.9375q0 0.25 -0.015625 0.484375q0 0.21875 -0.046875 0.375l-7.6875 0q0.046875 0.578125 0.28125 1.046875q0.234375 0.453125 0.59375 0.78125q0.359375 0.3125 0.8125 0.484375q0.453125 0.171875 0.953125 0.171875q0.75 0 1.421875 -0.359375q0.6875 -0.375 0.9375 -0.984375l2.171875 0.609375q-0.546875 1.140625 -1.75 1.875q-1.203125 0.71875 -2.875 0.71875zm2.578125 -6.0q-0.09375 -1.125 -0.828125 -1.796875q-0.734375 -0.671875 -1.78125 -0.671875q-0.5 0 -0.953125 0.1875q-0.453125 0.171875 -0.796875 0.5q-0.328125 0.3125 -0.546875 0.78125q-0.21875 0.453125 -0.265625 1.0l5.171875 0zm9.909485 -1.9375q-1.171875 0.015625 -2.078125 0.453125q-0.90625 0.421875 -1.3125 1.28125l0 6.015625l-2.546875 0l0 -9.953125l2.34375 0l0 2.125q0.265625 -0.515625 0.625 -0.921875q0.359375 -0.40625 0.765625 -0.703125q0.421875 -0.3125 0.84375 -0.46875q0.4375 -0.171875 0.84375 -0.171875q0.203125 0 0.296875 0q0.109375 0 0.21875 0.03125l0 2.3125z" fill-rule="nonzero"></path><path fill="#cfe2f3" d="m656.1575 242.33612l0 0c0 -4.3168945 3.4995728 -7.816437 7.8164673 -7.816437l242.09943 0c2.072998 0 4.061157 0.82351685 5.5270386 2.289383c1.4658203 1.4658661 2.2893677 3.4539948 2.2893677 5.527054l0 31.26477c0 4.3168945 -3.4995117 7.816437 -7.8164062 7.816437l-242.09943 0c-4.3168945 0 -7.8164673 -3.4995422 -7.8164673 -7.816437z" fill-rule="evenodd"></path><path fill="#1155cc" d="m717.6102 262.5916l0 2.296875l-9.359375 0l0 -13.48436l9.203125 0l0 2.296875l-6.578125 0l0 3.2499847l5.671875 0l0 2.125l-5.671875 0l0 3.515625l6.734375 0zm3.1811523 -7.6562347l2.15625 3.1093597l0.140625 0.34375l0.1875 -0.34375l2.140625 -3.1093597l2.609375 0l-3.546875 4.9999847l3.609375 4.953125l-2.625 0l-2.203125 -3.09375l-0.171875 -0.328125l-0.140625 0.328125l-2.1875 3.09375l-2.625 0l3.59375 -4.953125l-3.53125 -4.9999847l2.59375 0zm14.297119 9.437485q-0.515625 0.234375 -1.265625 0.46875q-0.734375 0.21875 -1.546875 0.21875q-0.53125 0 -1.0 -0.140625q-0.46875 -0.125 -0.828125 -0.421875q-0.34375 -0.296875 -0.546875 -0.75q-0.203125 -0.46875 -0.203125 -1.140625l0 -5.71875l-1.3125 0l0 -1.9531097l1.3125 0l0 -3.234375l2.546875 0l0 3.234375l2.078125 0l0 1.9531097l-2.078125 0l0 4.859375q0 0.53125 0.265625 0.75q0.28125 0.21875 0.671875 0.21875q0.40625 0 0.78125 -0.125q0.390625 -0.140625 0.609375 -0.234375l0.515625 2.015625zm5.8202515 0.703125q-1.203125 0 -2.171875 -0.40625q-0.96875 -0.40625 -1.65625 -1.109375q-0.6875 -0.703125 -1.0625 -1.625q-0.359375 -0.9375 -0.359375 -1.96875q0 -1.0625 0.359375 -2.0q0.359375 -0.9375 1.046875 -1.65625q0.6875 -0.71873474 1.65625 -1.1249847q0.984375 -0.421875 2.203125 -0.421875q1.21875 0 2.171875 0.421875q0.96875 0.40625 1.640625 1.1093597q0.671875 0.703125 1.015625 1.640625q0.359375 0.9375 0.359375 1.9375q0 0.25 -0.015625 0.484375q0 0.21875 -0.046875 0.375l-7.6875 0q0.046875 0.578125 0.28125 1.046875q0.234375 0.453125 0.59375 0.78125q0.359375 0.3125 0.8125 0.484375q0.453125 0.171875 0.953125 0.171875q0.75 0 1.421875 -0.359375q0.6875 -0.375 0.9375 -0.984375l2.171875 0.609375q-0.546875 1.140625 -1.75 1.875q-1.203125 0.71875 -2.875 0.71875zm2.578125 -6.0q-0.09375 -1.125 -0.828125 -1.796875q-0.734375 -0.671875 -1.78125 -0.671875q-0.5 0 -0.953125 0.1875q-0.453125 0.171875 -0.796875 0.5q-0.328125 0.3125 -0.546875 0.78125q-0.21875 0.453125 -0.265625 1.0l5.171875 0zm9.909424 -1.9375q-1.171875 0.015625 -2.078125 0.453125q-0.90625 0.421875 -1.3125 1.28125l0 6.015625l-2.546875 0l0 -9.95311l2.34375 0l0 2.1249847q0.265625 -0.515625 0.625 -0.921875q0.359375 -0.40623474 0.765625 -0.70310974q0.421875 -0.3125 0.84375 -0.46875q0.4375 -0.171875 0.84375 -0.171875q0.203125 0 0.296875 0q0.109375 0 0.21875 0.03125l0 2.3124847zm10.532471 7.75l-2.546875 0l0 -5.59375q0 -1.1875 -0.421875 -1.734375q-0.40625 -0.5625 -1.15625 -0.5625q-0.375 0 -0.78125 0.15625q-0.390625 0.15625 -0.75 0.4375q-0.34375 0.265625 -0.625 0.65625q-0.28125 0.375 -0.421875 0.828125l0 5.8125l-2.546875 0l0 -9.95311l2.296875 0l0 1.8437347q0.5625 -0.95310974 1.59375 -1.4843597q1.046875 -0.53125 2.359375 -0.53125q0.9375 0 1.515625 0.34375q0.59375 0.34375 0.921875 0.890625q0.328125 0.54685974 0.4375 1.2499847q0.125 0.703125 0.125 1.421875l0 6.21875zm4.7371216 0.1875q-0.71875 0 -1.34375 -0.234375q-0.625 -0.234375 -1.09375 -0.65625q-0.453125 -0.4375 -0.71875 -1.0q-0.25 -0.578125 -0.25 -1.265625q0 -0.703125 0.3125 -1.296875q0.328125 -0.59375 0.875 -1.015625q0.5625 -0.421875 1.34375 -0.65625q0.78125 -0.234375 1.71875 -0.234375q0.65625 0 1.296875 0.109375q0.640625 0.109375 1.125 0.328125l0 -0.578125q0 -0.984375 -0.5625 -1.515625q-0.5625 -0.53125 -1.65625 -0.53125q-0.796875 0 -1.5625 0.28125q-0.75 0.28125 -1.546875 0.84375l-0.78125 -1.625q1.90625 -1.2656097 4.140625 -1.2656097q2.140625 0 3.328125 1.0625q1.1875 1.0468597 1.1875 3.0468597l0 3.09375q0 0.390625 0.140625 0.5625q0.140625 0.171875 0.46875 0.1875l0 2.171875q-0.640625 0.140625 -1.125 0.140625q-0.71875 0 -1.109375 -0.328125q-0.390625 -0.328125 -0.484375 -0.859375l-0.046875 -0.546875q-0.671875 0.875 -1.625 1.328125q-0.953125 0.453125 -2.03125 0.453125zm0.71875 -1.859375q0.65625 0 1.234375 -0.21875q0.578125 -0.234375 0.890625 -0.625q0.421875 -0.3125 0.421875 -0.71875l0 -1.140625q-0.453125 -0.171875 -0.984375 -0.265625q-0.53125 -0.109375 -1.03125 -0.109375q-0.984375 0 -1.609375 0.453125q-0.625 0.4375 -0.625 1.125q0 0.640625 0.484375 1.078125q0.5 0.421875 1.21875 0.421875zm7.255615 -12.20311l2.546875 0l0 10.687485q0 0.546875 0.265625 0.859375q0.265625 0.296875 0.765625 0.296875q0.21875 0 0.484375 -0.078125q0.28125 -0.078125 0.53125 -0.1875l0.34375 1.9375q-0.515625 0.25 -1.203125 0.375q-0.671875 0.140625 -1.234375 0.140625q-1.1875 0 -1.84375 -0.640625q-0.65625 -0.640625 -0.65625 -1.8125l0 -11.57811zm6.1796265 13.874985l0 -13.48436l2.625 0l0 13.48436l-2.625 0zm9.210693 0.1875q-1.03125 0 -1.90625 -0.390625q-0.859375 -0.40625 -1.5 -1.109375q-0.625 -0.703125 -0.984375 -1.640625q-0.34375 -0.9375 -0.34375 -2.03125q0 -1.078125 0.328125 -2.0q0.34375 -0.9375 0.921875 -1.640625q0.59375 -0.70310974 1.40625 -1.0937347q0.828125 -0.40625 1.796875 -0.40625q1.09375 0 1.96875 0.53125q0.890625 0.53125 1.390625 1.3906097l0 -5.6718597l2.546875 0l0 10.95311q0 0.390625 0.125 0.5625q0.140625 0.171875 0.46875 0.1875l0 2.171875q-0.671875 0.140625 -1.09375 0.140625q-0.671875 0 -1.109375 -0.34375q-0.4375 -0.34375 -0.5 -0.90625l-0.0625 -0.625q-0.546875 0.953125 -1.484375 1.4375q-0.9375 0.484375 -1.96875 0.484375zm0.671875 -2.15625q0.359375 0 0.734375 -0.125q0.375 -0.125 0.703125 -0.34375q0.328125 -0.234375 0.578125 -0.53125q0.265625 -0.3125 0.390625 -0.671875l0 -2.375q-0.15625 -0.421875 -0.4375 -0.765625q-0.265625 -0.359375 -0.625 -0.609375q-0.34375 -0.265625 -0.734375 -0.421875q-0.390625 -0.15625 -0.765625 -0.15625q-0.578125 0 -1.0625 0.25q-0.484375 0.25 -0.828125 0.6875q-0.328125 0.421875 -0.53125 0.96875q-0.1875 0.546875 -0.1875 1.140625q0 0.625 0.203125 1.15625q0.21875 0.53125 0.578125 0.9375q0.359375 0.390625 0.859375 0.625q0.515625 0.234375 1.125 0.234375zm11.861389 2.15625q-1.203125 0 -2.171875 -0.40625q-0.96875 -0.40625 -1.65625 -1.109375q-0.6875 -0.703125 -1.0625 -1.625q-0.359375 -0.9375 -0.359375 -1.96875q0 -1.0625 0.359375 -2.0q0.359375 -0.9375 1.046875 -1.65625q0.6875 -0.71873474 1.65625 -1.1249847q0.984375 -0.421875 2.203125 -0.421875q1.21875 0 2.171875 0.421875q0.96875 0.40625 1.640625 1.1093597q0.671875 0.703125 1.015625 1.640625q0.359375 0.9375 0.359375 1.9375q0 0.25 -0.015625 0.484375q0 0.21875 -0.046875 0.375l-7.6875 0q0.046875 0.578125 0.28125 1.046875q0.234375 0.453125 0.59375 0.78125q0.359375 0.3125 0.8125 0.484375q0.453125 0.171875 0.953125 0.171875q0.75 0 1.421875 -0.359375q0.6875 -0.375 0.9375 -0.984375l2.171875 0.609375q-0.546875 1.140625 -1.75 1.875q-1.203125 0.71875 -2.875 0.71875zm2.578125 -6.0q-0.09375 -1.125 -0.828125 -1.796875q-0.734375 -0.671875 -1.78125 -0.671875q-0.5 0 -0.953125 0.1875q-0.453125 0.171875 -0.796875 0.5q-0.328125 0.3125 -0.546875 0.78125q-0.21875 0.453125 -0.265625 1.0l5.171875 0zm13.221985 5.8125l-2.546875 0l0 -5.59375q0 -1.1875 -0.421875 -1.734375q-0.40625 -0.5625 -1.15625 -0.5625q-0.375 0 -0.78125 0.15625q-0.390625 0.15625 -0.75 0.4375q-0.34375 0.265625 -0.625 0.65625q-0.28125 0.375 -0.421875 0.828125l0 5.8125l-2.546875 0l0 -9.95311l2.296875 0l0 1.8437347q0.5625 -0.95310974 1.59375 -1.4843597q1.046875 -0.53125 2.359375 -0.53125q0.9375 0 1.515625 0.34375q0.59375 0.34375 0.921875 0.890625q0.328125 0.54685974 0.4375 1.2499847q0.125 0.703125 0.125 1.421875l0 6.21875zm7.9871216 -0.515625q-0.515625 0.234375 -1.265625 0.46875q-0.734375 0.21875 -1.546875 0.21875q-0.53125 0 -1.0 -0.140625q-0.46875 -0.125 -0.828125 -0.421875q-0.34375 -0.296875 -0.546875 -0.75q-0.203125 -0.46875 -0.203125 -1.140625l0 -5.71875l-1.3125 0l0 -1.9531097l1.3125 0l0 -3.234375l2.546875 0l0 3.234375l2.078125 0l0 1.9531097l-2.078125 0l0 4.859375q0 0.53125 0.265625 0.75q0.28125 0.21875 0.671875 0.21875q0.40625 0 0.78125 -0.125q0.390625 -0.140625 0.609375 -0.234375l0.515625 2.015625zm1.1952515 0.515625l0 -9.95311l2.546875 0l0 9.95311l-2.546875 0zm0 -11.343735l0 -2.53125l2.546875 0l0 2.53125l-2.546875 0zm5.366699 11.343735l0 -7.484375l-1.3125 0l0 -1.9374847l1.3125 0l0 -0.609375q0 -1.859375 0.890625 -2.9375q0.890625 -1.09375 2.4375 -1.09375q1.21875 0 2.453125 0.59375l-0.515625 1.921875q-0.28125 -0.15625 -0.671875 -0.25q-0.390625 -0.109375 -0.71875 -0.109375q-1.328125 0 -1.328125 1.78125l0 0.703125l2.4375 0l0 1.9374847l-2.4375 0l0 7.484375l-2.546875 0zm6.293457 0l0 -9.95311l2.546875 0l0 9.95311l-2.546875 0zm0 -11.343735l0 -2.53125l2.546875 0l0 2.53125l-2.546875 0zm9.382324 11.531235q-1.203125 0 -2.171875 -0.40625q-0.96875 -0.40625 -1.65625 -1.109375q-0.6875 -0.703125 -1.0625 -1.625q-0.359375 -0.9375 -0.359375 -1.96875q0 -1.0625 0.359375 -2.0q0.359375 -0.9375 1.046875 -1.65625q0.6875 -0.71873474 1.65625 -1.1249847q0.984375 -0.421875 2.203125 -0.421875q1.21875 0 2.171875 0.421875q0.96875 0.40625 1.640625 1.1093597q0.671875 0.703125 1.015625 1.640625q0.359375 0.9375 0.359375 1.9375q0 0.25 -0.015625 0.484375q0 0.21875 -0.046875 0.375l-7.6875 0q0.046875 0.578125 0.28125 1.046875q0.234375 0.453125 0.59375 0.78125q0.359375 0.3125 0.8125 0.484375q0.453125 0.171875 0.953125 0.171875q0.75 0 1.421875 -0.359375q0.6875 -0.375 0.9375 -0.984375l2.171875 0.609375q-0.546875 1.140625 -1.75 1.875q-1.203125 0.71875 -2.875 0.71875zm2.578125 -6.0q-0.09375 -1.125 -0.828125 -1.796875q-0.734375 -0.671875 -1.78125 -0.671875q-0.5 0 -0.953125 0.1875q-0.453125 0.171875 -0.796875 0.5q-0.328125 0.3125 -0.546875 0.78125q-0.21875 0.453125 -0.265625 1.0l5.171875 0zm9.909485 -1.9375q-1.171875 0.015625 -2.078125 0.453125q-0.90625 0.421875 -1.3125 1.28125l0 6.015625l-2.546875 0l0 -9.95311l2.34375 0l0 2.1249847q0.265625 -0.515625 0.625 -0.921875q0.359375 -0.40623474 0.765625 -0.70310974q0.421875 -0.3125 0.84375 -0.46875q0.4375 -0.171875 0.84375 -0.171875q0.203125 0 0.296875 0q0.109375 0 0.21875 0.03125l0 2.3124847z" fill-rule="nonzero"></path><path fill="#cfe2f3" d="m503.84253 148.52509l0 0c0 -4.3168945 3.4995117 -7.8164215 7.8164062 -7.8164215l242.09943 0c2.073059 0 4.0612183 0.82351685 5.5270386 2.289383c1.4658813 1.4658661 2.2894287 3.4539948 2.2894287 5.5270386l0 31.264786c0 4.3168945 -3.4995728 7.8164215 -7.8164673 7.8164215l-242.09943 0c-4.3168945 0 -7.8164062 -3.499527 -7.8164062 -7.8164215z" fill-rule="evenodd"></path><path fill="#1155cc" d="m558.63684 157.59311l2.03125 0l4.59375 8.84375l1.890625 -8.828125l2.59375 0l-2.859375 13.46875l-2.109375 0l-4.59375 -8.640625l-1.8125 8.640625l-2.609375 0l2.875 -13.484375zm14.925049 13.671875q-1.0 0 -1.75 -0.328125q-0.75 -0.328125 -1.265625 -0.890625q-0.5 -0.578125 -0.765625 -1.328125q-0.25 -0.75 -0.25 -1.59375q0 -1.171875 0.46875 -2.28125q0.46875 -1.125 1.296875 -1.984375q0.828125 -0.859375 1.96875 -1.375q1.140625 -0.53125 2.484375 -0.53125q0.984375 0 1.734375 0.328125q0.75 0.328125 1.265625 0.890625q0.515625 0.5625 0.765625 1.328125q0.265625 0.75 0.265625 1.609375q0 1.1875 -0.46875 2.296875q-0.46875 1.09375 -1.296875 1.953125q-0.828125 0.859375 -1.96875 1.390625q-1.140625 0.515625 -2.484375 0.515625zm0.453125 -2.15625q0.59375 0 1.15625 -0.296875q0.5625 -0.296875 1.0 -0.78125q0.4375 -0.5 0.703125 -1.171875q0.265625 -0.6875 0.265625 -1.4375q0 -1.03125 -0.5 -1.671875q-0.5 -0.640625 -1.34375 -0.640625q-0.59375 0 -1.15625 0.296875q-0.5625 0.296875 -1.0 0.8125q-0.4375 0.5 -0.703125 1.171875q-0.265625 0.65625 -0.265625 1.40625q0 1.03125 0.484375 1.671875q0.5 0.640625 1.359375 0.640625zm8.198181 -7.984375l2.296875 0l-0.390625 1.84375q0.71875 -0.953125 1.8125 -1.484375q1.109375 -0.53125 2.34375 -0.53125q0.640625 0 1.0625 0.1875q0.4375 0.171875 0.6875 0.484375q0.265625 0.296875 0.359375 0.734375q0.109375 0.421875 0.109375 0.890625q0 0.375 -0.046875 0.796875q-0.046875 0.40625 -0.140625 0.8125l-1.3125 6.21875l-2.546875 0l1.1875 -5.59375q0.046875 -0.28125 0.078125 -0.53125q0.046875 -0.265625 0.046875 -0.46875q0 -0.671875 -0.296875 -0.984375q-0.296875 -0.3125 -0.78125 -0.3125q-0.34375 0 -0.75 0.15625q-0.390625 0.15625 -0.78125 0.4375q-0.375 0.265625 -0.703125 0.65625q-0.328125 0.375 -0.5625 0.828125l-1.234375 5.8125l-2.546875 0l2.109375 -9.953125zm11.889221 -3.53125l2.59375 0l-1.15625 5.453125l5.625 0l1.15625 -5.453125l2.609375 0l-2.875 13.484375l-2.59375 0l1.21875 -5.75l-5.625 0l-1.21875 5.75l-2.609375 0l2.875 -13.484375zm14.645203 13.671875q-1.0 0 -1.75 -0.328125q-0.75 -0.328125 -1.265625 -0.890625q-0.5 -0.578125 -0.765625 -1.328125q-0.25 -0.75 -0.25 -1.59375q0 -1.171875 0.46875 -2.28125q0.46875 -1.125 1.296875 -1.984375q0.828125 -0.859375 1.96875 -1.375q1.140625 -0.53125 2.484375 -0.53125q0.984375 0 1.734375 0.328125q0.75 0.328125 1.265625 0.890625q0.515625 0.5625 0.765625 1.328125q0.265625 0.75 0.265625 1.609375q0 1.1875 -0.46875 2.296875q-0.46875 1.09375 -1.296875 1.953125q-0.828125 0.859375 -1.96875 1.390625q-1.140625 0.515625 -2.484375 0.515625zm0.453125 -2.15625q0.59375 0 1.15625 -0.296875q0.5625 -0.296875 1.0 -0.78125q0.4375 -0.5 0.703125 -1.171875q0.265625 -0.6875 0.265625 -1.4375q0 -1.03125 -0.5 -1.671875q-0.5 -0.640625 -1.34375 -0.640625q-0.59375 0 -1.15625 0.296875q-0.5625 0.296875 -1.0 0.8125q-0.4375 0.5 -0.703125 1.171875q-0.265625 0.65625 -0.265625 1.40625q0 1.03125 0.484375 1.671875q0.5 0.640625 1.359375 0.640625zm9.666931 2.15625q-1.203125 0 -2.265625 -0.390625q-1.0625 -0.40625 -1.703125 -1.140625l1.265625 -1.59375q1.46875 1.296875 3.015625 1.296875q0.796875 0 1.25 -0.328125q0.46875 -0.34375 0.46875 -0.953125q0 -0.421875 -0.40625 -0.65625q-0.40625 -0.234375 -1.328125 -0.5q-0.75 -0.234375 -1.296875 -0.453125q-0.546875 -0.21875 -0.90625 -0.484375q-0.34375 -0.265625 -0.5 -0.59375q-0.15625 -0.34375 -0.15625 -0.78125q0 -0.828125 0.359375 -1.515625q0.359375 -0.703125 0.96875 -1.1875q0.625 -0.5 1.4375 -0.765625q0.8125 -0.28125 1.734375 -0.28125q1.0625 0 1.90625 0.328125q0.859375 0.3125 1.53125 1.03125l-1.34375 1.546875q-0.609375 -0.578125 -1.234375 -0.84375q-0.609375 -0.265625 -1.265625 -0.265625q-0.65625 0 -1.140625 0.328125q-0.484375 0.328125 -0.484375 0.984375q0 0.40625 0.359375 0.609375q0.359375 0.203125 1.21875 0.453125q1.59375 0.4375 2.34375 0.984375q0.765625 0.53125 0.765625 1.484375q0 0.828125 -0.34375 1.5q-0.34375 0.671875 -0.953125 1.15625q-0.609375 0.484375 -1.453125 0.765625q-0.84375 0.265625 -1.84375 0.265625zm8.423767 -0.015625q-0.921875 0 -1.5 -0.40625q-0.578125 -0.40625 -0.578125 -1.34375q0 -0.375 0.078125 -0.703125l1.21875 -5.71875l-1.234375 0l0.421875 -1.953125l1.203125 0l0.6875 -3.234375l2.546875 0l-0.6875 3.234375l2.0 0l-0.421875 1.953125l-1.96875 0l-1.046875 4.859375q-0.015625 0.09375 -0.03125 0.171875q-0.015625 0.0625 -0.015625 0.140625q0 0.359375 0.203125 0.515625q0.203125 0.140625 0.53125 0.140625q0.375 0 0.734375 -0.109375q0.375 -0.125 0.640625 -0.25l0.078125 2.015625q-0.546875 0.265625 -1.328125 0.484375q-0.78125 0.203125 -1.53125 0.203125zm7.05249 -13.640625l2.59375 0l-2.859375 13.46875l-2.609375 0l2.875 -13.46875zm6.0670776 13.65625q-0.828125 0 -1.484375 -0.3125q-0.65625 -0.3125 -1.109375 -0.859375q-0.453125 -0.546875 -0.703125 -1.296875q-0.234375 -0.765625 -0.234375 -1.609375q0 -1.234375 0.4375 -2.359375q0.453125 -1.140625 1.203125 -1.984375q0.75 -0.859375 1.734375 -1.375q1.0 -0.515625 2.078125 -0.515625q1.03125 0 1.75 0.53125q0.71875 0.53125 0.984375 1.390625l1.21875 -5.671875l2.546875 0l-2.3125 10.953125q-0.0625 0.203125 -0.0625 0.34375q0 0.390625 0.453125 0.40625l-0.453125 2.171875q-0.34375 0.0625 -0.609375 0.09375q-0.25 0.046875 -0.4375 0.046875q-0.65625 0 -1.046875 -0.265625q-0.390625 -0.28125 -0.390625 -0.828125q0 -0.15625 0.015625 -0.328125q0.03125 -0.1875 0.09375 -0.453125q-0.71875 0.953125 -1.703125 1.4375q-0.96875 0.484375 -1.96875 0.484375zm1.140625 -2.15625q0.328125 0 0.6875 -0.125q0.375 -0.125 0.71875 -0.34375q0.34375 -0.234375 0.640625 -0.53125q0.3125 -0.3125 0.53125 -0.671875l0.484375 -2.375q-0.109375 -0.84375 -0.671875 -1.390625q-0.546875 -0.5625 -1.265625 -0.5625q-0.609375 0 -1.1875 0.328125q-0.5625 0.3125 -0.984375 0.84375q-0.421875 0.515625 -0.6875 1.171875q-0.25 0.640625 -0.25 1.328125q0 0.984375 0.53125 1.65625q0.53125 0.671875 1.453125 0.671875zm11.0633545 2.15625q-0.953125 0 -1.703125 -0.3125q-0.75 -0.3125 -1.28125 -0.875q-0.53125 -0.5625 -0.8125 -1.328125q-0.28125 -0.765625 -0.28125 -1.6875q0 -1.234375 0.484375 -2.34375q0.484375 -1.109375 1.328125 -1.9375q0.859375 -0.84375 2.0 -1.328125q1.15625 -0.5 2.484375 -0.5q1.609375 0 2.5625 0.71875q0.96875 0.703125 0.96875 2.046875q0 3.21875 -5.734375 3.21875q-0.34375 0 -0.703125 0q-0.359375 0 -0.765625 -0.046875l0 0.25q0 1.015625 0.453125 1.640625q0.46875 0.625 1.453125 0.625q0.765625 0 1.4375 -0.359375q0.671875 -0.359375 1.0625 -1.015625l2.015625 0.640625q-0.375 0.5625 -0.9375 1.046875q-0.546875 0.484375 -1.203125 0.828125q-0.640625 0.34375 -1.375 0.53125q-0.71875 0.1875 -1.453125 0.1875zm1.84375 -8.46875q-0.5625 0 -1.03125 0.203125q-0.46875 0.1875 -0.84375 0.53125q-0.375 0.34375 -0.65625 0.8125q-0.28125 0.453125 -0.453125 0.953125q0.296875 0.03125 0.578125 0.03125q0.296875 0 0.59375 0q0.90625 0 1.546875 -0.09375q0.640625 -0.109375 1.03125 -0.296875q0.390625 -0.1875 0.5625 -0.4375q0.171875 -0.265625 0.171875 -0.609375q0 -0.546875 -0.421875 -0.8125q-0.421875 -0.28125 -1.078125 -0.28125zm6.092102 -1.671875l2.296875 0l-0.390625 1.84375q0.71875 -0.953125 1.8125 -1.484375q1.109375 -0.53125 2.34375 -0.53125q0.640625 0 1.0625 0.1875q0.4375 0.171875 0.6875 0.484375q0.265625 0.296875 0.359375 0.734375q0.109375 0.421875 0.109375 0.890625q0 0.375 -0.046875 0.796875q-0.046875 0.40625 -0.140625 0.8125l-1.3125 6.21875l-2.546875 0l1.1875 -5.59375q0.046875 -0.28125 0.078125 -0.53125q0.046875 -0.265625 0.046875 -0.46875q0 -0.671875 -0.296875 -0.984375q-0.296875 -0.3125 -0.78125 -0.3125q-0.34375 0 -0.75 0.15625q-0.390625 0.15625 -0.78125 0.4375q-0.375 0.265625 -0.703125 0.65625q-0.328125 0.375 -0.5625 0.828125l-1.234375 5.8125l-2.546875 0l2.109375 -9.953125zm11.795471 10.125q-0.921875 0 -1.5 -0.40625q-0.578125 -0.40625 -0.578125 -1.34375q0 -0.375 0.078125 -0.703125l1.21875 -5.71875l-1.234375 0l0.421875 -1.953125l1.203125 0l0.6875 -3.234375l2.546875 0l-0.6875 3.234375l2.0 0l-0.421875 1.953125l-1.96875 0l-1.046875 4.859375q-0.015625 0.09375 -0.03125 0.171875q-0.015625 0.0625 -0.015625 0.140625q0 0.359375 0.203125 0.515625q0.203125 0.140625 0.53125 0.140625q0.375 0 0.734375 -0.109375q0.375 -0.125 0.640625 -0.25l0.078125 2.015625q-0.546875 0.265625 -1.328125 0.484375q-0.78125 0.203125 -1.53125 0.203125zm6.02124 -10.125l2.546875 0l-2.109375 9.953125l-2.546875 0l2.109375 -9.953125zm0.84375 -3.921875l2.546875 0l-0.53125 2.53125l-2.546875 0l0.53125 -2.53125zm3.8919067 6.390625l-1.203125 0l0.40625 -1.9375l1.21875 0l0.140625 -0.609375q0.1875 -0.9375 0.5625 -1.671875q0.375 -0.734375 0.90625 -1.25q0.53125 -0.53125 1.1875 -0.8125q0.65625 -0.296875 1.390625 -0.296875q1.15625 0 2.234375 0.59375l-0.890625 1.921875q-0.25 -0.15625 -0.59375 -0.25q-0.34375 -0.109375 -0.640625 -0.109375q-1.21875 0 -1.59375 1.78125l-0.15625 0.703125l2.28125 0l-0.421875 1.9375l-2.28125 0l-2.453125 11.515625l-2.546875 0l2.453125 -11.515625zm6.7192993 -2.46875l2.546875 0l-2.109375 9.953125l-2.546875 0l2.109375 -9.953125zm0.84375 -3.921875l2.546875 0l-0.53125 2.53125l-2.546875 0l0.53125 -2.53125zm6.2200317 14.0625q-0.953125 0 -1.703125 -0.3125q-0.75 -0.3125 -1.28125 -0.875q-0.53125 -0.5625 -0.8125 -1.328125q-0.28125 -0.765625 -0.28125 -1.6875q0 -1.234375 0.484375 -2.34375q0.484375 -1.109375 1.328125 -1.9375q0.859375 -0.84375 2.0 -1.328125q1.15625 -0.5 2.484375 -0.5q1.609375 0 2.5625 0.71875q0.96875 0.703125 0.96875 2.046875q0 3.21875 -5.734375 3.21875q-0.34375 0 -0.703125 0q-0.359375 0 -0.765625 -0.046875l0 0.25q0 1.015625 0.453125 1.640625q0.46875 0.625 1.453125 0.625q0.765625 0 1.4375 -0.359375q0.671875 -0.359375 1.0625 -1.015625l2.015625 0.640625q-0.375 0.5625 -0.9375 1.046875q-0.546875 0.484375 -1.203125 0.828125q-0.640625 0.34375 -1.375 0.53125q-0.71875 0.1875 -1.453125 0.1875zm1.84375 -8.46875q-0.5625 0 -1.03125 0.203125q-0.46875 0.1875 -0.84375 0.53125q-0.375 0.34375 -0.65625 0.8125q-0.28125 0.453125 -0.453125 0.953125q0.296875 0.03125 0.578125 0.03125q0.296875 0 0.59375 0q0.90625 0 1.546875 -0.09375q0.640625 -0.109375 1.03125 -0.296875q0.390625 -0.1875 0.5625 -0.4375q0.171875 -0.265625 0.171875 -0.609375q0 -0.546875 -0.421875 -0.8125q-0.421875 -0.28125 -1.078125 -0.28125zm6.092102 -1.671875l2.34375 0l-0.46875 2.125q0.734375 -1.03125 1.625 -1.625q0.890625 -0.59375 1.78125 -0.59375q0.1875 0 0.28125 0.015625q0.09375 0 0.171875 0.015625l-0.46875 2.265625q-1.078125 0.015625 -2.046875 0.453125q-0.953125 0.421875 -1.5 1.28125l-1.28125 6.015625l-2.546875 0l2.109375 -9.953125z" fill-rule="nonzero"></path><path fill="#000000" fill-opacity="0.0" d="m632.7087 140.70866l-152.31497 -46.897644" fill-rule="evenodd"></path><path stroke="#1155cc" stroke-width="2.0" stroke-linejoin="round" stroke-linecap="butt" d="m632.7087 140.70866l-145.76428 -44.88069" fill-rule="evenodd"></path><path fill="#1155cc" stroke="#1155cc" stroke-width="2.0" stroke-linecap="butt" d="m486.9444 95.82798l2.811432 -1.4877319l-6.5677795 0.33115387l5.2440796 3.96801z" fill-rule="evenodd"></path><path fill="#cfe2f3" d="m46.897636 242.33612l0 0c0 -4.3168945 3.4995346 -7.816437 7.816429 -7.816437l242.09944 0c2.0730286 0 4.061157 0.82351685 5.5270386 2.289383c1.4658508 1.4658661 2.2893677 3.4539948 2.2893677 5.527054l0 31.26477c0 4.3168945 -3.4995117 7.816437 -7.8164062 7.816437l-242.09944 0c-4.3168945 0 -7.816429 -3.4995422 -7.816429 -7.816437z" fill-rule="evenodd"></path><path fill="#1155cc" d="m126.7989 251.40413l0 13.48436l-2.609375 0l0 -5.75l-6.109375 0l0 5.75l-2.625 0l0 -13.48436l2.625 0l0 5.4531097l6.109375 0l0 -5.4531097l2.609375 0zm6.898918 13.67186q-1.203125 0 -2.171875 -0.40625q-0.96875 -0.421875 -1.65625 -1.140625q-0.671875 -0.71875 -1.03125 -1.640625q-0.359375 -0.9375 -0.359375 -1.953125q0 -1.046875 0.359375 -1.96875q0.359375 -0.9375 1.03125 -1.65625q0.6875 -0.71873474 1.65625 -1.1249847q0.96875 -0.421875 2.171875 -0.421875q1.21875 0 2.171875 0.421875q0.96875 0.40625 1.640625 1.1249847q0.671875 0.71875 1.03125 1.65625q0.375 0.921875 0.375 1.96875q0 1.015625 -0.375 1.953125q-0.359375 0.921875 -1.03125 1.640625q-0.65625 0.71875 -1.625 1.140625q-0.96875 0.40625 -2.1875 0.40625zm-2.59375 -5.140625q0 0.65625 0.1875 1.203125q0.203125 0.53125 0.546875 0.9375q0.359375 0.40625 0.828125 0.625q0.484375 0.21875 1.03125 0.21875q0.5625 0 1.03125 -0.21875q0.484375 -0.21875 0.828125 -0.625q0.359375 -0.40625 0.546875 -0.953125q0.203125 -0.546875 0.203125 -1.21875q0 -0.640625 -0.203125 -1.1875q-0.1875 -0.546875 -0.546875 -0.953125q-0.34375 -0.40625 -0.828125 -0.625q-0.46875 -0.21875 -1.03125 -0.21875q-0.546875 0 -1.03125 0.234375q-0.46875 0.234375 -0.828125 0.640625q-0.34375 0.390625 -0.546875 0.9375q-0.1875 0.546875 -0.1875 1.203125zm13.07132 5.140625q-1.25 0 -2.453125 -0.390625q-1.203125 -0.40625 -2.046875 -1.140625l0.953125 -1.59375q0.90625 0.640625 1.765625 0.96875q0.875 0.328125 1.71875 0.328125q0.765625 0 1.203125 -0.28125q0.4375 -0.28125 0.4375 -0.8125q0 -0.53125 -0.515625 -0.78125q-0.515625 -0.25 -1.671875 -0.5625q-0.96875 -0.265625 -1.65625 -0.515625q-0.6875 -0.25 -1.109375 -0.5625q-0.40625 -0.3125 -0.59375 -0.71875q-0.1875 -0.40625 -0.1875 -0.984375q0 -0.765625 0.28125 -1.359375q0.296875 -0.609375 0.828125 -1.0312347q0.53125 -0.4375 1.25 -0.65625q0.71875 -0.234375 1.546875 -0.234375q1.125 0 2.09375 0.328125q0.984375 0.3125 1.796875 1.0312347l-1.015625 1.546875q-0.765625 -0.578125 -1.484375 -0.84375q-0.703125 -0.265625 -1.40625 -0.265625q-0.640625 0 -1.078125 0.265625q-0.4375 0.265625 -0.4375 0.859375q0 0.265625 0.09375 0.4375q0.109375 0.171875 0.328125 0.3125q0.234375 0.125 0.609375 0.25q0.375 0.125 0.921875 0.25q1.03125 0.265625 1.75 0.53125q0.734375 0.265625 1.203125 0.609375q0.46875 0.34375 0.6875 0.796875q0.21875 0.4375 0.21875 1.0625q0 1.46875 -1.09375 2.3125q-1.078125 0.84375 -2.9375 0.84375zm11.475281 -0.703125q-0.515625 0.234375 -1.265625 0.46875q-0.734375 0.21875 -1.546875 0.21875q-0.53125 0 -1.0 -0.140625q-0.46875 -0.125 -0.828125 -0.421875q-0.34375 -0.296875 -0.546875 -0.75q-0.203125 -0.46875 -0.203125 -1.140625l0 -5.71875l-1.3125 0l0 -1.9531097l1.3125 0l0 -3.234375l2.546875 0l0 3.234375l2.078125 0l0 1.9531097l-2.078125 0l0 4.859375q0 0.53125 0.265625 0.75q0.28125 0.21875 0.671875 0.21875q0.40625 0 0.78125 -0.125q0.390625 -0.140625 0.609375 -0.234375l0.515625 2.015625zm1.4452515 0.515625l0 -13.48436l2.625 0l0 13.48436l-2.625 0zm9.210693 0.1875q-1.03125 0 -1.90625 -0.390625q-0.859375 -0.40625 -1.5 -1.109375q-0.625 -0.703125 -0.984375 -1.640625q-0.34375 -0.9375 -0.34375 -2.03125q0 -1.078125 0.328125 -2.0q0.34375 -0.9375 0.921875 -1.640625q0.59375 -0.70310974 1.40625 -1.0937347q0.828125 -0.40625 1.796875 -0.40625q1.09375 0 1.96875 0.53125q0.890625 0.53125 1.390625 1.3906097l0 -5.6718597l2.546875 0l0 10.95311q0 0.390625 0.125 0.5625q0.140625 0.171875 0.46875 0.1875l0 2.171875q-0.671875 0.140625 -1.09375 0.140625q-0.671875 0 -1.109375 -0.34375q-0.4375 -0.34375 -0.5 -0.90625l-0.0625 -0.625q-0.546875 0.953125 -1.484375 1.4375q-0.9375 0.484375 -1.96875 0.484375zm0.671875 -2.15625q0.359375 0 0.734375 -0.125q0.375 -0.125 0.703125 -0.34375q0.328125 -0.234375 0.578125 -0.53125q0.265625 -0.3125 0.390625 -0.671875l0 -2.375q-0.15625 -0.421875 -0.4375 -0.765625q-0.265625 -0.359375 -0.625 -0.609375q-0.34375 -0.265625 -0.734375 -0.421875q-0.390625 -0.15625 -0.765625 -0.15625q-0.578125 0 -1.0625 0.25q-0.484375 0.25 -0.828125 0.6875q-0.328125 0.421875 -0.53125 0.96875q-0.1875 0.546875 -0.1875 1.140625q0 0.625 0.203125 1.15625q0.21875 0.53125 0.578125 0.9375q0.359375 0.390625 0.859375 0.625q0.515625 0.234375 1.125 0.234375zm11.861404 2.15625q-1.203125 0 -2.171875 -0.40625q-0.96875 -0.40625 -1.65625 -1.109375q-0.6875 -0.703125 -1.0625 -1.625q-0.359375 -0.9375 -0.359375 -1.96875q0 -1.0625 0.359375 -2.0q0.359375 -0.9375 1.046875 -1.65625q0.6875 -0.71873474 1.65625 -1.1249847q0.984375 -0.421875 2.203125 -0.421875q1.21875 0 2.171875 0.421875q0.96875 0.40625 1.640625 1.1093597q0.671875 0.703125 1.015625 1.640625q0.359375 0.9375 0.359375 1.9375q0 0.25 -0.015625 0.484375q0 0.21875 -0.046875 0.375l-7.6875 0q0.046875 0.578125 0.28125 1.046875q0.234375 0.453125 0.59375 0.78125q0.359375 0.3125 0.8125 0.484375q0.453125 0.171875 0.953125 0.171875q0.75 0 1.421875 -0.359375q0.6875 -0.375 0.9375 -0.984375l2.171875 0.609375q-0.546875 1.140625 -1.75 1.875q-1.203125 0.71875 -2.875 0.71875zm2.578125 -6.0q-0.09375 -1.125 -0.828125 -1.796875q-0.734375 -0.671875 -1.78125 -0.671875q-0.5 0 -0.953125 0.1875q-0.453125 0.171875 -0.796875 0.5q-0.328125 0.3125 -0.546875 0.78125q-0.21875 0.453125 -0.265625 1.0l5.171875 0zm13.22197 5.8125l-2.546875 0l0 -5.59375q0 -1.1875 -0.421875 -1.734375q-0.40625 -0.5625 -1.15625 -0.5625q-0.375 0 -0.78125 0.15625q-0.390625 0.15625 -0.75 0.4375q-0.34375 0.265625 -0.625 0.65625q-0.28125 0.375 -0.421875 0.828125l0 5.8125l-2.546875 0l0 -9.95311l2.296875 0l0 1.8437347q0.5625 -0.95310974 1.59375 -1.4843597q1.046875 -0.53125 2.359375 -0.53125q0.9375 0 1.515625 0.34375q0.59375 0.34375 0.921875 0.890625q0.328125 0.54685974 0.4375 1.2499847q0.125 0.703125 0.125 1.421875l0 6.21875zm7.9871216 -0.515625q-0.515625 0.234375 -1.265625 0.46875q-0.734375 0.21875 -1.546875 0.21875q-0.53125 0 -1.0 -0.140625q-0.46875 -0.125 -0.828125 -0.421875q-0.34375 -0.296875 -0.546875 -0.75q-0.203125 -0.46875 -0.203125 -1.140625l0 -5.71875l-1.3125 0l0 -1.9531097l1.3125 0l0 -3.234375l2.546875 0l0 3.234375l2.078125 0l0 1.9531097l-2.078125 0l0 4.859375q0 0.53125 0.265625 0.75q0.28125 0.21875 0.671875 0.21875q0.40625 0 0.78125 -0.125q0.390625 -0.140625 0.609375 -0.234375l0.515625 2.015625zm1.1952515 0.515625l0 -9.95311l2.546875 0l0 9.95311l-2.546875 0zm0 -11.343735l0 -2.53125l2.546875 0l0 2.53125l-2.546875 0zm5.3667145 11.343735l0 -7.484375l-1.3125 0l0 -1.9374847l1.3125 0l0 -0.609375q0 -1.859375 0.890625 -2.9375q0.890625 -1.09375 2.4375 -1.09375q1.21875 0 2.453125 0.59375l-0.515625 1.921875q-0.28125 -0.15625 -0.671875 -0.25q-0.390625 -0.109375 -0.71875 -0.109375q-1.328125 0 -1.328125 1.78125l0 0.703125l2.4375 0l0 1.9374847l-2.4375 0l0 7.484375l-2.546875 0zm6.293442 0l0 -9.95311l2.546875 0l0 9.95311l-2.546875 0zm0 -11.343735l0 -2.53125l2.546875 0l0 2.53125l-2.546875 0zm9.3823395 11.531235q-1.203125 0 -2.171875 -0.40625q-0.96875 -0.40625 -1.65625 -1.109375q-0.6875 -0.703125 -1.0625 -1.625q-0.359375 -0.9375 -0.359375 -1.96875q0 -1.0625 0.359375 -2.0q0.359375 -0.9375 1.046875 -1.65625q0.6875 -0.71873474 1.65625 -1.1249847q0.984375 -0.421875 2.203125 -0.421875q1.21875 0 2.171875 0.421875q0.96875 0.40625 1.640625 1.1093597q0.671875 0.703125 1.015625 1.640625q0.359375 0.9375 0.359375 1.9375q0 0.25 -0.015625 0.484375q0 0.21875 -0.046875 0.375l-7.6875 0q0.046875 0.578125 0.28125 1.046875q0.234375 0.453125 0.59375 0.78125q0.359375 0.3125 0.8125 0.484375q0.453125 0.171875 0.953125 0.171875q0.75 0 1.421875 -0.359375q0.6875 -0.375 0.9375 -0.984375l2.171875 0.609375q-0.546875 1.140625 -1.75 1.875q-1.203125 0.71875 -2.875 0.71875zm2.578125 -6.0q-0.09375 -1.125 -0.828125 -1.796875q-0.734375 -0.671875 -1.78125 -0.671875q-0.5 0 -0.953125 0.1875q-0.453125 0.171875 -0.796875 0.5q-0.328125 0.3125 -0.546875 0.78125q-0.21875 0.453125 -0.265625 1.0l5.171875 0zm9.90947 -1.9375q-1.171875 0.015625 -2.078125 0.453125q-0.90625 0.421875 -1.3125 1.28125l0 6.015625l-2.546875 0l0 -9.95311l2.34375 0l0 2.1249847q0.265625 -0.515625 0.625 -0.921875q0.359375 -0.40623474 0.765625 -0.70310974q0.421875 -0.3125 0.84375 -0.46875q0.4375 -0.171875 0.84375 -0.171875q0.203125 0 0.296875 0q0.109375 0 0.21875 0.03125l0 2.3124847z" fill-rule="nonzero"></path><path fill="#cfe2f3" d="m503.84253 336.14713l0 0c0 -4.3168945 3.4995117 -7.8164062 7.8164062 -7.8164062l242.09943 0c2.073059 0 4.0612183 0.82351685 5.5270386 2.2893677c1.4658813 1.4658508 2.2894287 3.45401 2.2894287 5.5270386l0 31.264801c0 4.3168945 -3.4995728 7.8164062 -7.8164673 7.8164062l-242.09943 0c-4.3168945 0 -7.8164062 -3.4995117 -7.8164062 -7.8164062z" fill-rule="evenodd"></path><path fill="#1155cc" d="m577.59906 356.40265l0 2.296875l-9.359375 0l0 -13.484375l9.203125 0l0 2.296875l-6.578125 0l0 3.25l5.671875 0l0 2.125l-5.671875 0l0 3.515625l6.734375 0zm17.071777 2.296875l-2.546875 0l0 -5.59375q0 -1.1875 -0.40625 -1.734375q-0.40625 -0.5625 -1.125 -0.5625q-0.765625 0 -1.4375 0.59375q-0.65625 0.578125 -0.9375 1.5l0 5.796875l-2.546875 0l0 -5.59375q0 -1.1875 -0.421875 -1.734375q-0.40625 -0.5625 -1.125 -0.5625q-0.734375 0 -1.421875 0.578125q-0.671875 0.5625 -0.953125 1.5l0 5.8125l-2.546875 0l0 -9.953125l2.296875 0l0 1.84375q0.5625 -0.96875 1.515625 -1.484375q0.953125 -0.53125 2.1875 -0.53125q1.265625 0 1.9375 0.609375q0.6875 0.609375 0.875 1.5q0.609375 -1.03125 1.53125 -1.5625q0.9375 -0.546875 2.140625 -0.546875q0.90625 0 1.5 0.34375q0.59375 0.34375 0.90625 0.890625q0.328125 0.546875 0.453125 1.25q0.125 0.703125 0.125 1.421875l0 6.21875zm4.6189575 0.1875q-0.71875 0 -1.34375 -0.234375q-0.625 -0.234375 -1.09375 -0.65625q-0.453125 -0.4375 -0.71875 -1.0q-0.25 -0.578125 -0.25 -1.265625q0 -0.703125 0.3125 -1.296875q0.328125 -0.59375 0.875 -1.015625q0.5625 -0.421875 1.34375 -0.65625q0.78125 -0.234375 1.71875 -0.234375q0.65625 0 1.296875 0.109375q0.640625 0.109375 1.125 0.328125l0 -0.578125q0 -0.984375 -0.5625 -1.515625q-0.5625 -0.53125 -1.65625 -0.53125q-0.796875 0 -1.5625 0.28125q-0.75 0.28125 -1.546875 0.84375l-0.78125 -1.625q1.90625 -1.265625 4.140625 -1.265625q2.140625 0 3.328125 1.0625q1.1875 1.046875 1.1875 3.046875l0 3.09375q0 0.390625 0.140625 0.5625q0.140625 0.171875 0.46875 0.1875l0 2.171875q-0.640625 0.140625 -1.125 0.140625q-0.71875 0 -1.109375 -0.328125q-0.390625 -0.328125 -0.484375 -0.859375l-0.046875 -0.546875q-0.671875 0.875 -1.625 1.328125q-0.953125 0.453125 -2.03125 0.453125zm0.71875 -1.859375q0.65625 0 1.234375 -0.21875q0.578125 -0.234375 0.890625 -0.625q0.421875 -0.3125 0.421875 -0.71875l0 -1.140625q-0.453125 -0.171875 -0.984375 -0.265625q-0.53125 -0.109375 -1.03125 -0.109375q-0.984375 0 -1.609375 0.453125q-0.625 0.4375 -0.625 1.125q0 0.640625 0.484375 1.078125q0.5 0.421875 1.21875 0.421875zm7.27124 1.671875l0 -9.953125l2.546875 0l0 9.953125l-2.546875 0zm0 -11.34375l0 -2.53125l2.546875 0l0 2.53125l-2.546875 0zm4.741699 -2.53125l2.546875 0l0 10.6875q0 0.546875 0.265625 0.859375q0.265625 0.296875 0.765625 0.296875q0.21875 0 0.484375 -0.078125q0.28125 -0.078125 0.53125 -0.1875l0.34375 1.9375q-0.515625 0.25 -1.203125 0.375q-0.671875 0.140625 -1.234375 0.140625q-1.1875 0 -1.84375 -0.640625q-0.65625 -0.640625 -0.65625 -1.8125l0 -11.578125zm6.1796265 13.875l0 -13.484375l2.625 0l0 13.484375l-2.625 0zm9.210693 0.1875q-1.03125 0 -1.90625 -0.390625q-0.859375 -0.40625 -1.5 -1.109375q-0.625 -0.703125 -0.984375 -1.640625q-0.34375 -0.9375 -0.34375 -2.03125q0 -1.078125 0.328125 -2.0q0.34375 -0.9375 0.921875 -1.640625q0.59375 -0.703125 1.40625 -1.09375q0.828125 -0.40625 1.796875 -0.40625q1.09375 0 1.96875 0.53125q0.890625 0.53125 1.390625 1.390625l0 -5.671875l2.546875 0l0 10.953125q0 0.390625 0.125 0.5625q0.140625 0.171875 0.46875 0.1875l0 2.171875q-0.671875 0.140625 -1.09375 0.140625q-0.671875 0 -1.109375 -0.34375q-0.4375 -0.34375 -0.5 -0.90625l-0.0625 -0.625q-0.546875 0.953125 -1.484375 1.4375q-0.9375 0.484375 -1.96875 0.484375zm0.671875 -2.15625q0.359375 0 0.734375 -0.125q0.375 -0.125 0.703125 -0.34375q0.328125 -0.234375 0.578125 -0.53125q0.265625 -0.3125 0.390625 -0.671875l0 -2.375q-0.15625 -0.421875 -0.4375 -0.765625q-0.265625 -0.359375 -0.625 -0.609375q-0.34375 -0.265625 -0.734375 -0.421875q-0.390625 -0.15625 -0.765625 -0.15625q-0.578125 0 -1.0625 0.25q-0.484375 0.25 -0.828125 0.6875q-0.328125 0.421875 -0.53125 0.96875q-0.1875 0.546875 -0.1875 1.140625q0 0.625 0.203125 1.15625q0.21875 0.53125 0.578125 0.9375q0.359375 0.390625 0.859375 0.625q0.515625 0.234375 1.125 0.234375zm11.86145 2.15625q-1.203125 0 -2.171875 -0.40625q-0.96875 -0.40625 -1.65625 -1.109375q-0.6875 -0.703125 -1.0625 -1.625q-0.359375 -0.9375 -0.359375 -1.96875q0 -1.0625 0.359375 -2.0q0.359375 -0.9375 1.046875 -1.65625q0.6875 -0.71875 1.65625 -1.125q0.984375 -0.421875 2.203125 -0.421875q1.21875 0 2.171875 0.421875q0.96875 0.40625 1.640625 1.109375q0.671875 0.703125 1.015625 1.640625q0.359375 0.9375 0.359375 1.9375q0 0.25 -0.015625 0.484375q0 0.21875 -0.046875 0.375l-7.6875 0q0.046875 0.578125 0.28125 1.046875q0.234375 0.453125 0.59375 0.78125q0.359375 0.3125 0.8125 0.484375q0.453125 0.171875 0.953125 0.171875q0.75 0 1.421875 -0.359375q0.6875 -0.375 0.9375 -0.984375l2.171875 0.609375q-0.546875 1.140625 -1.75 1.875q-1.203125 0.71875 -2.875 0.71875zm2.578125 -6.0q-0.09375 -1.125 -0.828125 -1.796875q-0.734375 -0.671875 -1.78125 -0.671875q-0.5 0 -0.953125 0.1875q-0.453125 0.171875 -0.796875 0.5q-0.328125 0.3125 -0.546875 0.78125q-0.21875 0.453125 -0.265625 1.0l5.171875 0zm13.221924 5.8125l-2.546875 0l0 -5.59375q0 -1.1875 -0.421875 -1.734375q-0.40625 -0.5625 -1.15625 -0.5625q-0.375 0 -0.78125 0.15625q-0.390625 0.15625 -0.75 0.4375q-0.34375 0.265625 -0.625 0.65625q-0.28125 0.375 -0.421875 0.828125l0 5.8125l-2.546875 0l0 -9.953125l2.296875 0l0 1.84375q0.5625 -0.953125 1.59375 -1.484375q1.046875 -0.53125 2.359375 -0.53125q0.9375 0 1.515625 0.34375q0.59375 0.34375 0.921875 0.890625q0.328125 0.546875 0.4375 1.25q0.125 0.703125 0.125 1.421875l0 6.21875zm7.9871216 -0.515625q-0.515625 0.234375 -1.265625 0.46875q-0.734375 0.21875 -1.546875 0.21875q-0.53125 0 -1.0 -0.140625q-0.46875 -0.125 -0.828125 -0.421875q-0.34375 -0.296875 -0.546875 -0.75q-0.203125 -0.46875 -0.203125 -1.140625l0 -5.71875l-1.3125 0l0 -1.953125l1.3125 0l0 -3.234375l2.546875 0l0 3.234375l2.078125 0l0 1.953125l-2.078125 0l0 4.859375q0 0.53125 0.265625 0.75q0.28125 0.21875 0.671875 0.21875q0.40625 0 0.78125 -0.125q0.390625 -0.140625 0.609375 -0.234375l0.515625 2.015625zm1.1952515 0.515625l0 -9.953125l2.546875 0l0 9.953125l-2.546875 0zm0 -11.34375l0 -2.53125l2.546875 0l0 2.53125l-2.546875 0zm5.3667603 11.34375l0 -7.484375l-1.3125 0l0 -1.9375l1.3125 0l0 -0.609375q0 -1.859375 0.890625 -2.9375q0.890625 -1.09375 2.4375 -1.09375q1.21875 0 2.453125 0.59375l-0.515625 1.921875q-0.28125 -0.15625 -0.671875 -0.25q-0.390625 -0.109375 -0.71875 -0.109375q-1.328125 0 -1.328125 1.78125l0 0.703125l2.4375 0l0 1.9375l-2.4375 0l0 7.484375l-2.546875 0zm6.293396 0l0 -9.953125l2.546875 0l0 9.953125l-2.546875 0zm0 -11.34375l0 -2.53125l2.546875 0l0 2.53125l-2.546875 0zm9.382385 11.53125q-1.203125 0 -2.171875 -0.40625q-0.96875 -0.40625 -1.65625 -1.109375q-0.6875 -0.703125 -1.0625 -1.625q-0.359375 -0.9375 -0.359375 -1.96875q0 -1.0625 0.359375 -2.0q0.359375 -0.9375 1.046875 -1.65625q0.6875 -0.71875 1.65625 -1.125q0.984375 -0.421875 2.203125 -0.421875q1.21875 0 2.171875 0.421875q0.96875 0.40625 1.640625 1.109375q0.671875 0.703125 1.015625 1.640625q0.359375 0.9375 0.359375 1.9375q0 0.25 -0.015625 0.484375q0 0.21875 -0.046875 0.375l-7.6875 0q0.046875 0.578125 0.28125 1.046875q0.234375 0.453125 0.59375 0.78125q0.359375 0.3125 0.8125 0.484375q0.453125 0.171875 0.953125 0.171875q0.75 0 1.421875 -0.359375q0.6875 -0.375 0.9375 -0.984375l2.171875 0.609375q-0.546875 1.140625 -1.75 1.875q-1.203125 0.71875 -2.875 0.71875zm2.578125 -6.0q-0.09375 -1.125 -0.828125 -1.796875q-0.734375 -0.671875 -1.78125 -0.671875q-0.5 0 -0.953125 0.1875q-0.453125 0.171875 -0.796875 0.5q-0.328125 0.3125 -0.546875 0.78125q-0.21875 0.453125 -0.265625 1.0l5.171875 0zm9.909424 -1.9375q-1.171875 0.015625 -2.078125 0.453125q-0.90625 0.421875 -1.3125 1.28125l0 6.015625l-2.546875 0l0 -9.953125l2.34375 0l0 2.125q0.265625 -0.515625 0.625 -0.921875q0.359375 -0.40625 0.765625 -0.703125q0.421875 -0.3125 0.84375 -0.46875q0.4375 -0.171875 0.84375 -0.171875q0.203125 0 0.296875 0q0.109375 0 0.21875 0.03125l0 2.3125z" fill-rule="nonzero"></path><path fill="#000000" fill-opacity="0.0" d="m175.76378 234.51968l152.31496 -46.897644" fill-rule="evenodd"></path><path stroke="#1155cc" stroke-width="2.0" stroke-linejoin="round" stroke-linecap="butt" d="m175.76378 234.51968l145.76427 -44.880676" fill-rule="evenodd"></path><path fill="#1155cc" stroke="#1155cc" stroke-width="2.0" stroke-linecap="butt" d="m321.52805 189.63899l-1.4877319 2.8114471l5.2440796 -3.9680176l-6.5677795 -0.33114624z" fill-rule="evenodd"></path><path fill="#000000" fill-opacity="0.0" d="m480.3937 234.51968l152.31497 -46.897644" fill-rule="evenodd"></path><path stroke="#1155cc" stroke-width="2.0" stroke-linejoin="round" stroke-linecap="butt" d="m480.3937 234.51968l145.76425 -44.880676" fill-rule="evenodd"></path><path fill="#1155cc" stroke="#1155cc" stroke-width="2.0" stroke-linecap="butt" d="m626.15796 189.63899l-1.4877319 2.8114471l5.2440796 -3.9680176l-6.567749 -0.33114624z" fill-rule="evenodd"></path><path fill="#000000" fill-opacity="0.0" d="m480.3937 234.51968l-152.31497 -46.897644" fill-rule="evenodd"></path><path stroke="#1155cc" stroke-width="2.0" stroke-linejoin="round" stroke-linecap="butt" d="m480.3937 234.51968l-145.76428 -44.880676" fill-rule="evenodd"></path><path fill="#1155cc" stroke="#1155cc" stroke-width="2.0" stroke-linecap="butt" d="m334.62943 189.63899l2.811432 -1.4877167l-6.5677795 0.33114624l5.2440796 3.9680176z" fill-rule="evenodd"></path><path fill="#000000" fill-opacity="0.0" d="m785.0236 234.51968l-152.31494 -46.897644" fill-rule="evenodd"></path><path stroke="#1155cc" stroke-width="2.0" stroke-linejoin="round" stroke-linecap="butt" d="m785.0236 234.51968l-145.76428 -44.880676" fill-rule="evenodd"></path><path fill="#1155cc" stroke="#1155cc" stroke-width="2.0" stroke-linecap="butt" d="m639.25934 189.63899l2.8114624 -1.4877167l-6.56781 0.33114624l5.2440796 3.9680176z" fill-rule="evenodd"></path><path fill="#cfe2f3" d="m808.4724 336.14713l0 0c0 -4.3168945 3.4995728 -7.8164062 7.8164673 -7.8164062l242.09943 0c2.072998 0 4.061157 0.82351685 5.5270996 2.2893677c1.4658203 1.4658508 2.2893066 3.45401 2.2893066 5.5270386l0 31.264801c0 4.3168945 -3.4995117 7.8164062 -7.8164062 7.8164062l-242.09943 0c-4.3168945 0 -7.8164673 -3.4995117 -7.8164673 -7.8164062z" fill-rule="evenodd"></path><path fill="#1155cc" d="m878.2914 358.69952l0 -8.9375l-3.46875 6.65625l-1.4375 0l-3.46875 -6.65625l0 8.9375l-2.625 0l0 -13.484375l2.8125 0l3.984375 7.671875l4.03125 -7.671875l2.796875 0l0 13.484375l-2.625 0zm9.481445 0.1875q-1.203125 0 -2.171875 -0.40625q-0.96875 -0.421875 -1.65625 -1.140625q-0.671875 -0.71875 -1.03125 -1.640625q-0.359375 -0.9375 -0.359375 -1.953125q0 -1.046875 0.359375 -1.96875q0.359375 -0.9375 1.03125 -1.65625q0.6875 -0.71875 1.65625 -1.125q0.96875 -0.421875 2.171875 -0.421875q1.21875 0 2.171875 0.421875q0.96875 0.40625 1.640625 1.125q0.671875 0.71875 1.03125 1.65625q0.375 0.921875 0.375 1.96875q0 1.015625 -0.375 1.953125q-0.359375 0.921875 -1.03125 1.640625q-0.65625 0.71875 -1.625 1.140625q-0.96875 0.40625 -2.1875 0.40625zm-2.59375 -5.140625q0 0.65625 0.1875 1.203125q0.203125 0.53125 0.546875 0.9375q0.359375 0.40625 0.828125 0.625q0.484375 0.21875 1.03125 0.21875q0.5625 0 1.03125 -0.21875q0.484375 -0.21875 0.828125 -0.625q0.359375 -0.40625 0.546875 -0.953125q0.203125 -0.546875 0.203125 -1.21875q0 -0.640625 -0.203125 -1.1875q-0.1875 -0.546875 -0.546875 -0.953125q-0.34375 -0.40625 -0.828125 -0.625q-0.46875 -0.21875 -1.03125 -0.21875q-0.546875 0 -1.03125 0.234375q-0.46875 0.234375 -0.828125 0.640625q-0.34375 0.390625 -0.546875 0.9375q-0.1875 0.546875 -0.1875 1.203125zm14.977539 5.140625q-1.140625 0 -2.046875 -0.515625q-0.890625 -0.515625 -1.40625 -1.40625l0 1.734375l-2.21875 0l0 -13.875l2.546875 0l0 5.671875q0.53125 -0.921875 1.390625 -1.421875q0.875 -0.5 2.03125 -0.5q0.96875 0 1.765625 0.421875q0.796875 0.40625 1.375 1.109375q0.578125 0.703125 0.890625 1.65625q0.3125 0.953125 0.3125 2.0q0 1.078125 -0.359375 2.015625q-0.34375 0.921875 -0.96875 1.625q-0.625 0.6875 -1.484375 1.09375q-0.84375 0.390625 -1.828125 0.390625zm-0.703125 -2.15625q0.59375 0 1.109375 -0.234375q0.515625 -0.25 0.875 -0.640625q0.359375 -0.40625 0.5625 -0.9375q0.203125 -0.53125 0.203125 -1.140625q0 -0.609375 -0.1875 -1.15625q-0.1875 -0.546875 -0.546875 -0.96875q-0.34375 -0.421875 -0.828125 -0.671875q-0.46875 -0.25 -1.046875 -0.25q-0.84375 0 -1.53125 0.5625q-0.671875 0.5625 -1.03125 1.390625l0 2.375q0.140625 0.375 0.390625 0.6875q0.25 0.296875 0.578125 0.515625q0.328125 0.21875 0.703125 0.34375q0.375 0.125 0.75 0.125zm6.859314 1.96875l0 -9.953125l2.546875 0l0 9.953125l-2.546875 0zm0 -11.34375l0 -2.53125l2.546875 0l0 2.53125l-2.546875 0zm4.741699 -2.53125l2.546875 0l0 10.6875q0 0.546875 0.265625 0.859375q0.265625 0.296875 0.765625 0.296875q0.21875 0 0.484375 -0.078125q0.28125 -0.078125 0.53125 -0.1875l0.34375 1.9375q-0.515625 0.25 -1.203125 0.375q-0.671875 0.140625 -1.234375 0.140625q-1.1875 0 -1.84375 -0.640625q-0.65625 -0.640625 -0.65625 -1.8125l0 -11.578125zm10.5546875 14.0625q-1.203125 0 -2.171875 -0.40625q-0.96875 -0.40625 -1.65625 -1.109375q-0.6875 -0.703125 -1.0625 -1.625q-0.359375 -0.9375 -0.359375 -1.96875q0 -1.0625 0.359375 -2.0q0.359375 -0.9375 1.046875 -1.65625q0.6875 -0.71875 1.65625 -1.125q0.984375 -0.421875 2.203125 -0.421875q1.21875 0 2.171875 0.421875q0.96875 0.40625 1.640625 1.109375q0.671875 0.703125 1.015625 1.640625q0.359375 0.9375 0.359375 1.9375q0 0.25 -0.015625 0.484375q0 0.21875 -0.046875 0.375l-7.6875 0q0.046875 0.578125 0.28125 1.046875q0.234375 0.453125 0.59375 0.78125q0.359375 0.3125 0.8125 0.484375q0.453125 0.171875 0.953125 0.171875q0.75 0 1.421875 -0.359375q0.6875 -0.375 0.9375 -0.984375l2.171875 0.609375q-0.546875 1.140625 -1.75 1.875q-1.203125 0.71875 -2.875 0.71875zm2.578125 -6.0q-0.09375 -1.125 -0.828125 -1.796875q-0.734375 -0.671875 -1.78125 -0.671875q-0.5 0 -0.953125 0.1875q-0.453125 0.171875 -0.796875 0.5q-0.328125 0.3125 -0.546875 0.78125q-0.21875 0.453125 -0.265625 1.0l5.171875 0zm4.221985 5.8125l0 -13.484375l2.625 0l0 13.484375l-2.625 0zm9.210693 0.1875q-1.03125 0 -1.90625 -0.390625q-0.859375 -0.40625 -1.5 -1.109375q-0.625 -0.703125 -0.984375 -1.640625q-0.34375 -0.9375 -0.34375 -2.03125q0 -1.078125 0.328125 -2.0q0.34375 -0.9375 0.921875 -1.640625q0.59375 -0.703125 1.40625 -1.09375q0.828125 -0.40625 1.796875 -0.40625q1.09375 0 1.96875 0.53125q0.890625 0.53125 1.390625 1.390625l0 -5.671875l2.546875 0l0 10.953125q0 0.390625 0.125 0.5625q0.140625 0.171875 0.46875 0.1875l0 2.171875q-0.671875 0.140625 -1.09375 0.140625q-0.671875 0 -1.109375 -0.34375q-0.4375 -0.34375 -0.5 -0.90625l-0.0625 -0.625q-0.546875 0.953125 -1.484375 1.4375q-0.9375 0.484375 -1.96875 0.484375zm0.671875 -2.15625q0.359375 0 0.734375 -0.125q0.375 -0.125 0.703125 -0.34375q0.328125 -0.234375 0.578125 -0.53125q0.265625 -0.3125 0.390625 -0.671875l0 -2.375q-0.15625 -0.421875 -0.4375 -0.765625q-0.265625 -0.359375 -0.625 -0.609375q-0.34375 -0.265625 -0.734375 -0.421875q-0.390625 -0.15625 -0.765625 -0.15625q-0.578125 0 -1.0625 0.25q-0.484375 0.25 -0.828125 0.6875q-0.328125 0.421875 -0.53125 0.96875q-0.1875 0.546875 -0.1875 1.140625q0 0.625 0.203125 1.15625q0.21875 0.53125 0.578125 0.9375q0.359375 0.390625 0.859375 0.625q0.515625 0.234375 1.125 0.234375zm11.861389 2.15625q-1.203125 0 -2.171875 -0.40625q-0.96875 -0.40625 -1.65625 -1.109375q-0.6875 -0.703125 -1.0625 -1.625q-0.359375 -0.9375 -0.359375 -1.96875q0 -1.0625 0.359375 -2.0q0.359375 -0.9375 1.046875 -1.65625q0.6875 -0.71875 1.65625 -1.125q0.984375 -0.421875 2.203125 -0.421875q1.21875 0 2.171875 0.421875q0.96875 0.40625 1.640625 1.109375q0.671875 0.703125 1.015625 1.640625q0.359375 0.9375 0.359375 1.9375q0 0.25 -0.015625 0.484375q0 0.21875 -0.046875 0.375l-7.6875 0q0.046875 0.578125 0.28125 1.046875q0.234375 0.453125 0.59375 0.78125q0.359375 0.3125 0.8125 0.484375q0.453125 0.171875 0.953125 0.171875q0.75 0 1.421875 -0.359375q0.6875 -0.375 0.9375 -0.984375l2.171875 0.609375q-0.546875 1.140625 -1.75 1.875q-1.203125 0.71875 -2.875 0.71875zm2.578125 -6.0q-0.09375 -1.125 -0.828125 -1.796875q-0.734375 -0.671875 -1.78125 -0.671875q-0.5 0 -0.953125 0.1875q-0.453125 0.171875 -0.796875 0.5q-0.328125 0.3125 -0.546875 0.78125q-0.21875 0.453125 -0.265625 1.0l5.171875 0zm13.221985 5.8125l-2.546875 0l0 -5.59375q0 -1.1875 -0.421875 -1.734375q-0.40625 -0.5625 -1.15625 -0.5625q-0.375 0 -0.78125 0.15625q-0.390625 0.15625 -0.75 0.4375q-0.34375 0.265625 -0.625 0.65625q-0.28125 0.375 -0.421875 0.828125l0 5.8125l-2.546875 0l0 -9.953125l2.296875 0l0 1.84375q0.5625 -0.953125 1.59375 -1.484375q1.046875 -0.53125 2.359375 -0.53125q0.9375 0 1.515625 0.34375q0.59375 0.34375 0.921875 0.890625q0.328125 0.546875 0.4375 1.25q0.125 0.703125 0.125 1.421875l0 6.21875zm7.9871216 -0.515625q-0.515625 0.234375 -1.265625 0.46875q-0.734375 0.21875 -1.546875 0.21875q-0.53125 0 -1.0 -0.140625q-0.46875 -0.125 -0.828125 -0.421875q-0.34375 -0.296875 -0.546875 -0.75q-0.203125 -0.46875 -0.203125 -1.140625l0 -5.71875l-1.3125 0l0 -1.953125l1.3125 0l0 -3.234375l2.546875 0l0 3.234375l2.078125 0l0 1.953125l-2.078125 0l0 4.859375q0 0.53125 0.265625 0.75q0.28125 0.21875 0.671875 0.21875q0.40625 0 0.78125 -0.125q0.390625 -0.140625 0.609375 -0.234375l0.515625 2.015625zm1.1952515 0.515625l0 -9.953125l2.546875 0l0 9.953125l-2.546875 0zm0 -11.34375l0 -2.53125l2.546875 0l0 2.53125l-2.546875 0zm5.366699 11.34375l0 -7.484375l-1.3125 0l0 -1.9375l1.3125 0l0 -0.609375q0 -1.859375 0.890625 -2.9375q0.890625 -1.09375 2.4375 -1.09375q1.21875 0 2.453125 0.59375l-0.515625 1.921875q-0.28125 -0.15625 -0.671875 -0.25q-0.390625 -0.109375 -0.71875 -0.109375q-1.328125 0 -1.328125 1.78125l0 0.703125l2.4375 0l0 1.9375l-2.4375 0l0 7.484375l-2.546875 0zm6.293457 0l0 -9.953125l2.546875 0l0 9.953125l-2.546875 0zm0 -11.34375l0 -2.53125l2.546875 0l0 2.53125l-2.546875 0zm9.382324 11.53125q-1.203125 0 -2.171875 -0.40625q-0.96875 -0.40625 -1.65625 -1.109375q-0.6875 -0.703125 -1.0625 -1.625q-0.359375 -0.9375 -0.359375 -1.96875q0 -1.0625 0.359375 -2.0q0.359375 -0.9375 1.046875 -1.65625q0.6875 -0.71875 1.65625 -1.125q0.984375 -0.421875 2.203125 -0.421875q1.21875 0 2.171875 0.421875q0.96875 0.40625 1.640625 1.109375q0.671875 0.703125 1.015625 1.640625q0.359375 0.9375 0.359375 1.9375q0 0.25 -0.015625 0.484375q0 0.21875 -0.046875 0.375l-7.6875 0q0.046875 0.578125 0.28125 1.046875q0.234375 0.453125 0.59375 0.78125q0.359375 0.3125 0.8125 0.484375q0.453125 0.171875 0.953125 0.171875q0.75 0 1.421875 -0.359375q0.6875 -0.375 0.9375 -0.984375l2.171875 0.609375q-0.546875 1.140625 -1.75 1.875q-1.203125 0.71875 -2.875 0.71875zm2.578125 -6.0q-0.09375 -1.125 -0.828125 -1.796875q-0.734375 -0.671875 -1.78125 -0.671875q-0.5 0 -0.953125 0.1875q-0.453125 0.171875 -0.796875 0.5q-0.328125 0.3125 -0.546875 0.78125q-0.21875 0.453125 -0.265625 1.0l5.171875 0zm9.909485 -1.9375q-1.171875 0.015625 -2.078125 0.453125q-0.90625 0.421875 -1.3125 1.28125l0 6.015625l-2.546875 0l0 -9.953125l2.34375 0l0 2.125q0.265625 -0.515625 0.625 -0.921875q0.359375 -0.40625 0.765625 -0.703125q0.421875 -0.3125 0.84375 -0.46875q0.4375 -0.171875 0.84375 -0.171875q0.203125 0 0.296875 0q0.109375 0 0.21875 0.03125l0 2.3125z" fill-rule="nonzero"></path><path fill="#000000" fill-opacity="0.0" d="m632.7087 328.33072l152.31494 -46.897644" fill-rule="evenodd"></path><path stroke="#1155cc" stroke-width="2.0" stroke-linejoin="round" stroke-linecap="butt" d="m632.7087 328.33072l145.76428 -44.880676" fill-rule="evenodd"></path><path fill="#1155cc" stroke="#1155cc" stroke-width="2.0" stroke-linecap="butt" d="m778.4729 283.45l-1.4876709 2.8114624l5.2440186 -3.9680176l-6.567749 -0.33114624z" fill-rule="evenodd"></path><path fill="#000000" fill-opacity="0.0" d="m937.33856 328.33072l-152.31494 -46.897644" fill-rule="evenodd"></path><path stroke="#1155cc" stroke-width="2.0" stroke-linejoin="round" stroke-linecap="butt" d="m937.33856 328.33072l-145.76422 -44.880676" fill-rule="evenodd"></path><path fill="#1155cc" stroke="#1155cc" stroke-width="2.0" stroke-linecap="butt" d="m791.57434 283.45l2.8114014 -1.4877014l-6.567749 0.33114624l5.2440796 3.9680176z" fill-rule="evenodd"></path></g></svg>

